<?xml version="1.0" encoding="UTF-8" standalone="no"?>
<!DOCTYPE svg PUBLIC "-//W3C//DTD SVG 1.1//EN" "http://www.w3.org/Graphics/SVG/1.1/DTD/svg11.dtd">
<svg width="100%" height="100%" viewBox="0 0 800 800" version="1.1" xmlns="http://www.w3.org/2000/svg" xmlns:xlink="http://www.w3.org/1999/xlink" xml:space="preserve" xmlns:serif="http://www.serif.com/" style="fill-rule:evenodd;clip-rule:evenodd;stroke-linejoin:round;stroke-miterlimit:2;">
    <circle cx="400" cy="400" r="400" style="fill:#373253;"/>
    <path id="basic" d="M340.925,145.038l333.403,366.112l-480.797,106.615l147.394,-472.727Z" style="fill:#d68f63;"/>
    <clipPath id="_clip1">
        <path d="M340.925,145.038l333.403,366.112l-480.797,106.615l147.394,-472.727Z"/>
    </clipPath>
    <g clip-path="url(#_clip1)">
        <path d="M257.958,554.326l14.017,-40.298l29.786,12.265l-43.803,28.033Z" style="fill:#c57359;"/>
        <path d="M341.35,250.945l14.017,-40.299l22.322,43.268l-36.339,-2.969Z" style="fill:#c57359;"/>
        <path d="M395.294,463.537l16.313,-21.633l22.322,43.267l-38.635,-21.634Z" style="fill:#c57359;"/>
        <path d="M455.235,381.401l6.221,-43.267l24.565,27.662l-30.786,15.605Z" style="fill:#c57359;"/>
        <path d="M540.036,472.558l30.891,-30.654l3.259,44.482l-34.15,-13.828Z" style="fill:#c57359;"/>
        <path d="M302.715,369.345l30.886,-9.578l7.749,31.211l-38.635,-21.633Z" style="fill:#c57359;"/>
    </g>
    <path d="M345.305,123.643l4.365,1.384l3.98,2.263l3.422,3.044l333.403,366.112l2.701,3.672l1.879,4.153l0.977,4.453l0.03,4.559l-0.916,4.465l-1.824,4.178l-2.651,3.709l-3.363,3.077l-3.929,2.312l-4.323,1.446l-480.798,106.615l-4.529,0.517l-4.538,-0.434l-4.349,-1.368l-3.97,-2.24l-3.418,-3.016l-2.719,-3.659l-1.899,-4.144l-0.997,-4.449l-0.052,-4.558l0.895,-4.47l147.394,-472.727l1.814,-4.204l2.651,-3.734l3.371,-3.099l3.943,-2.328l4.342,-1.455l4.55,-0.517l4.558,0.443Zm-151.774,494.122l480.797,-106.615l-333.403,-366.112l-147.394,472.727Z" style="fill:#c57359;"/>
</svg>
