<?xml version="1.0" encoding="UTF-8" standalone="no"?>
<!DOCTYPE svg PUBLIC "-//W3C//DTD SVG 1.1//EN" "http://www.w3.org/Graphics/SVG/1.1/DTD/svg11.dtd">
<svg width="100%" height="100%" viewBox="0 0 86 86" version="1.1" xmlns="http://www.w3.org/2000/svg" xmlns:xlink="http://www.w3.org/1999/xlink" xml:space="preserve" xmlns:serif="http://www.serif.com/" style="fill-rule:evenodd;clip-rule:evenodd;stroke-linejoin:round;stroke-miterlimit:2;">
    <rect id="Artboard1" x="0" y="0" width="85.377" height="85.377" style="fill:none;"/>
    <clipPath id="_clip1">
        <rect x="0" y="0" width="85.377" height="85.377"/>
    </clipPath>
    <g clip-path="url(#_clip1)">
        <g>
            <circle cx="42.688" cy="42.688" r="36.646" style="fill:#e7e7e7;"/>
            <path d="M42.963,0.001l0.275,0.002l0.275,0.005l0.274,0.006l0.274,0.008l0.273,0.009l0.272,0.011l0.273,0.013l0.273,0.015l0.271,0.017l0.271,0.018l0.271,0.019l0.27,0.022l0.27,0.023l0.27,0.025l0.269,0.026l0.269,0.028l0.268,0.03l0.267,0.032l0.268,0.033l0.267,0.035l0.266,0.036l0.265,0.038l0.265,0.04l0.265,0.041l0.265,0.043l0.264,0.045l0.263,0.046l0.262,0.048l0.262,0.049l0.261,0.051l0.262,0.053l0.26,0.054l0.259,0.056l0.26,0.057l0.258,0.059l0.258,0.061l0.258,0.062l0.257,0.063l0.256,0.065l0.257,0.067l0.254,0.069l0.254,0.069l0.254,0.071l0.253,0.073l0.253,0.075l0.251,0.075l0.252,0.078l0.25,0.079l0.25,0.08l0.249,0.082l0.249,0.083l0.248,0.085l0.247,0.086l0.247,0.088l0.245,0.089l0.245,0.091l0.245,0.092l0.243,0.093l0.243,0.095l0.242,0.097l0.241,0.098l0.241,0.099l0.24,0.101l0.239,0.102l0.239,0.103l0.237,0.105l0.237,0.106l0.236,0.108l0.236,0.109l0.234,0.111l0.235,0.112l0.233,0.113l0.231,0.114l0.232,0.116l0.231,0.118l0.229,0.118l0.229,0.12l0.228,0.121l0.227,0.123l0.227,0.124l0.226,0.126l0.225,0.126l0.223,0.128l0.224,0.129l0.222,0.131l0.221,0.131l0.22,0.134l0.219,0.134l0.219,0.136l0.219,0.137l0.216,0.138l0.216,0.139l0.214,0.14l0.215,0.143l0.214,0.143l0.212,0.144l0.211,0.146l0.212,0.147l0.209,0.148l0.208,0.15l0.209,0.151l0.207,0.152l0.204,0.152l0.205,0.154l0.205,0.156l0.202,0.156l0.202,0.158l0.202,0.159l0.2,0.161l0.198,0.16l0.198,0.162l0.198,0.165l0.195,0.164l0.195,0.166l0.195,0.168l0.192,0.168l0.192,0.169l0.191,0.17l0.19,0.172l0.189,0.173l0.187,0.173l0.188,0.175l0.185,0.176l0.185,0.177l0.184,0.179l0.182,0.179l0.182,0.181l0.18,0.181l0.179,0.182l0.179,0.184l0.177,0.185l0.176,0.185l0.174,0.186l0.174,0.188l0.173,0.19l0.171,0.189l0.171,0.192l0.17,0.192l0.167,0.192l0.167,0.193l0.166,0.196l0.166,0.197l0.163,0.197l0.162,0.197l0.161,0.199l0.16,0.2l0.159,0.201l0.159,0.203l0.156,0.203l0.155,0.202l0.155,0.206l0.153,0.206l0.151,0.207l0.151,0.207l0.149,0.208l0.148,0.211l0.147,0.209l0.146,0.212l0.145,0.213l0.142,0.213l0.143,0.214l0.141,0.216l0.139,0.215l0.138,0.217l0.137,0.218l0.135,0.218l0.135,0.221l0.133,0.22l0.132,0.222l0.13,0.221l0.129,0.223l0.128,0.224l0.127,0.225l0.126,0.226l0.124,0.226l0.122,0.228l0.121,0.228l0.12,0.228l0.119,0.23l0.117,0.23l0.116,0.232l0.115,0.233l0.113,0.233l0.111,0.232l0.111,0.235l0.109,0.236l0.108,0.237l0.107,0.237l0.105,0.237l0.103,0.239l0.102,0.238l0.1,0.24l0.1,0.24l0.098,0.243l0.097,0.242l0.094,0.242l0.094,0.244l0.092,0.245l0.09,0.244l0.09,0.246l0.087,0.247l0.087,0.247l0.084,0.247l0.084,0.25l0.082,0.249l0.08,0.249l0.079,0.251l0.077,0.251l0.076,0.251l0.074,0.253l0.073,0.254l0.072,0.254l0.069,0.254l0.069,0.255l0.066,0.256l0.065,0.256l0.064,0.256l0.062,0.257l0.061,0.259l0.059,0.26l0.057,0.258l0.055,0.259l0.055,0.261l0.052,0.261l0.051,0.262l0.05,0.262l0.048,0.263l0.046,0.263l0.044,0.263l0.043,0.264l0.041,0.264l0.04,0.266l0.038,0.267l0.037,0.265l0.035,0.266l0.033,0.267l0.031,0.27l0.03,0.267l0.028,0.268l0.027,0.269l0.025,0.27l0.023,0.271l0.021,0.269l0.02,0.271l0.018,0.272l0.016,0.271l0.015,0.272l0.013,0.273l0.011,0.273l0.01,0.274l0.008,0.273l0.006,0.273l0.004,0.276l0.003,0.274l0.001,0.275l-0.001,0.275l-0.003,0.275l-0.004,0.276l-0.006,0.272l-0.008,0.274l-0.01,0.274l-0.011,0.273l-0.013,0.273l-0.015,0.271l-0.016,0.271l-0.018,0.272l-0.02,0.272l-0.021,0.269l-0.023,0.271l-0.025,0.269l-0.027,0.269l-0.028,0.269l-0.03,0.267l-0.031,0.269l-0.033,0.268l-0.035,0.266l-0.037,0.265l-0.038,0.266l-0.04,0.266l-0.041,0.265l-0.043,0.264l-0.044,0.263l-0.046,0.263l-0.048,0.263l-0.05,0.262l-0.051,0.262l-0.052,0.261l-0.055,0.26l-0.055,0.259l-0.057,0.259l-0.059,0.259l-0.061,0.259l-0.062,0.257l-0.064,0.257l-0.065,0.256l-0.066,0.256l-0.069,0.254l-0.069,0.255l-0.072,0.254l-0.073,0.254l-0.074,0.253l-0.076,0.251l-0.077,0.25l-0.079,0.251l-0.08,0.25l-0.082,0.249l-0.084,0.249l-0.084,0.248l-0.087,0.247l-0.087,0.246l-0.09,0.246l-0.09,0.244l-0.092,0.245l-0.094,0.244l-0.094,0.242l-0.097,0.243l-0.098,0.242l-0.1,0.241l-0.1,0.239l-0.102,0.239l-0.103,0.238l-0.105,0.238l-0.107,0.237l-0.108,0.236l-0.109,0.236l-0.111,0.235l-0.111,0.233l-0.113,0.232l-0.115,0.233l-0.116,0.232l-0.117,0.231l-0.119,0.229l-0.12,0.229l-0.121,0.228l-0.122,0.227l-0.124,0.227l-0.126,0.225l-0.127,0.226l-0.128,0.224l-0.129,0.222l-0.13,0.222l-0.132,0.222l-0.133,0.22l-0.135,0.22l-0.135,0.219l-0.137,0.217l-0.138,0.217l-0.139,0.215l-0.141,0.216l-0.143,0.215l-0.142,0.213l-0.145,0.212l-0.146,0.212l-0.147,0.21l-0.148,0.21l-0.149,0.209l-0.151,0.207l-0.151,0.206l-0.153,0.206l-0.155,0.206l-0.155,0.203l-0.156,0.203l-0.159,0.203l-0.159,0.201l-0.16,0.2l-0.161,0.199l-0.162,0.197l-0.163,0.196l-0.165,0.197l-0.167,0.196l-0.167,0.194l-0.167,0.192l-0.17,0.192l-0.171,0.192l-0.171,0.189l-0.173,0.189l-0.174,0.188l-0.174,0.186l-0.176,0.186l-0.177,0.185l-0.179,0.184l-0.179,0.182l-0.18,0.181l-0.182,0.181l-0.182,0.179l-0.184,0.179l-0.185,0.176l-0.185,0.176l-0.188,0.176l-0.187,0.173l-0.189,0.173l-0.19,0.172l-0.191,0.17l-0.192,0.169l-0.193,0.168l-0.194,0.168l-0.194,0.165l-0.196,0.164l-0.198,0.165l-0.198,0.163l-0.198,0.16l-0.2,0.16l-0.202,0.16l-0.202,0.157l-0.202,0.157l-0.205,0.156l-0.205,0.154l-0.204,0.152l-0.207,0.151l-0.209,0.152l-0.208,0.149l-0.209,0.148l-0.212,0.148l-0.211,0.145l-0.212,0.144l-0.214,0.144l-0.215,0.142l-0.214,0.14l-0.216,0.14l-0.216,0.138l-0.219,0.137l-0.219,0.136l-0.219,0.134l-0.22,0.133l-0.221,0.132l-0.222,0.13l-0.224,0.13l-0.224,0.128l-0.224,0.126l-0.226,0.125l-0.227,0.125l-0.227,0.122l-0.228,0.121l-0.229,0.121l-0.229,0.118l-0.231,0.117l-0.232,0.116l-0.231,0.115l-0.234,0.113l-0.234,0.112l-0.234,0.11l-0.236,0.109l-0.236,0.108l-0.237,0.107l-0.237,0.104l-0.239,0.104l-0.239,0.102l-0.24,0.101l-0.241,0.099l-0.241,0.098l-0.242,0.096l-0.243,0.095l-0.243,0.094l-0.245,0.092l-0.245,0.091l-0.245,0.089l-0.247,0.087l-0.247,0.087l-0.248,0.085l-0.249,0.083l-0.249,0.082l-0.25,0.08l-0.25,0.079l-0.252,0.077l-0.252,0.076l-0.252,0.074l-0.253,0.073l-0.254,0.071l-0.254,0.07l-0.255,0.068l-0.256,0.067l-0.256,0.065l-0.257,0.064l-0.257,0.062l-0.259,0.06l-0.258,0.059l-0.26,0.058l-0.259,0.055l-0.26,0.055l-0.262,0.052l-0.261,0.051l-0.262,0.05l-0.262,0.047l-0.263,0.047l-0.265,0.044l-0.264,0.043l-0.264,0.042l-0.266,0.039l-0.265,0.038l-0.266,0.037l-0.267,0.035l-0.268,0.033l-0.267,0.031l-0.268,0.03l-0.269,0.028l-0.269,0.027l-0.27,0.025l-0.27,0.023l-0.27,0.021l-0.271,0.02l-0.271,0.018l-0.271,0.016l-0.273,0.015l-0.273,0.013l-0.272,0.011l-0.273,0.01l-0.274,0.008l-0.274,0.006l-0.275,0.004l-0.275,0.003l-0.275,0.001l-0.275,-0.001l-0.275,-0.003l-0.274,-0.004l-0.274,-0.006l-0.274,-0.008l-0.273,-0.01l-0.273,-0.011l-0.273,-0.013l-0.272,-0.015l-0.271,-0.016l-0.272,-0.018l-0.271,-0.02l-0.27,-0.021l-0.269,-0.023l-0.27,-0.025l-0.27,-0.027l-0.268,-0.028l-0.269,-0.03l-0.267,-0.031l-0.268,-0.033l-0.266,-0.035l-0.266,-0.037l-0.266,-0.038l-0.265,-0.039l-0.264,-0.042l-0.264,-0.043l-0.265,-0.044l-0.263,-0.047l-0.262,-0.047l-0.262,-0.05l-0.262,-0.051l-0.261,-0.052l-0.26,-0.055l-0.26,-0.055l-0.26,-0.058l-0.258,-0.059l-0.258,-0.06l-0.257,-0.062l-0.257,-0.064l-0.256,-0.065l-0.256,-0.066l-0.256,-0.069l-0.253,-0.07l-0.255,-0.071l-0.253,-0.073l-0.252,-0.074l-0.251,-0.076l-0.252,-0.077l-0.251,-0.079l-0.25,-0.08l-0.249,-0.082l-0.248,-0.083l-0.248,-0.085l-0.247,-0.087l-0.247,-0.087l-0.245,-0.089l-0.245,-0.091l-0.245,-0.092l-0.243,-0.094l-0.243,-0.095l-0.242,-0.096l-0.242,-0.098l-0.241,-0.1l-0.239,-0.1l-0.239,-0.102l-0.24,-0.104l-0.236,-0.104l-0.237,-0.107l-0.237,-0.108l-0.236,-0.109l-0.234,-0.11l-0.234,-0.112l-0.233,-0.113l-0.231,-0.115l-0.232,-0.116l-0.231,-0.117l-0.229,-0.118l-0.229,-0.121l-0.228,-0.121l-0.227,-0.122l-0.228,-0.125l-0.225,-0.125l-0.224,-0.126l-0.224,-0.128l-0.224,-0.13l-0.222,-0.13l-0.221,-0.132l-0.221,-0.133l-0.219,-0.134l-0.219,-0.136l-0.218,-0.137l-0.217,-0.138l-0.216,-0.14l-0.215,-0.14l-0.214,-0.142l-0.213,-0.143l-0.212,-0.145l-0.213,-0.146l-0.211,-0.147l-0.208,-0.148l-0.208,-0.149l-0.209,-0.151l-0.206,-0.152l-0.205,-0.152l-0.206,-0.155l-0.204,-0.155l-0.202,-0.156l-0.203,-0.159l-0.201,-0.159l-0.199,-0.159l-0.199,-0.161l-0.198,-0.163l-0.199,-0.165l-0.196,-0.165l-0.193,-0.164l-0.194,-0.167l-0.194,-0.169l-0.192,-0.169l-0.19,-0.17l-0.191,-0.172l-0.189,-0.173l-0.187,-0.173l-0.187,-0.176l-0.186,-0.176l-0.185,-0.177l-0.183,-0.178l-0.181,-0.178l-0.183,-0.182l-0.18,-0.181l-0.179,-0.182l-0.179,-0.184l-0.177,-0.185l-0.176,-0.186l-0.175,-0.187l-0.173,-0.187l-0.173,-0.188l-0.171,-0.19l-0.172,-0.192l-0.169,-0.192l-0.167,-0.192l-0.167,-0.194l-0.167,-0.196l-0.165,-0.197l-0.163,-0.196l-0.162,-0.197l-0.162,-0.2l-0.16,-0.199l-0.159,-0.201l-0.158,-0.203l-0.156,-0.202l-0.155,-0.204l-0.155,-0.206l-0.153,-0.206l-0.152,-0.206l-0.15,-0.207l-0.149,-0.209l-0.149,-0.21l-0.147,-0.211l-0.145,-0.211l-0.144,-0.211l-0.145,-0.215l-0.141,-0.214l-0.141,-0.215l-0.139,-0.216l-0.138,-0.217l-0.138,-0.218l-0.135,-0.218l-0.134,-0.219l-0.134,-0.221l-0.132,-0.222l-0.13,-0.222l-0.129,-0.222l-0.128,-0.224l-0.127,-0.226l-0.125,-0.225l-0.124,-0.227l-0.123,-0.227l-0.121,-0.228l-0.12,-0.229l-0.118,-0.229l-0.117,-0.231l-0.117,-0.232l-0.115,-0.233l-0.113,-0.232l-0.111,-0.233l-0.111,-0.235l-0.109,-0.236l-0.108,-0.236l-0.106,-0.237l-0.105,-0.238l-0.103,-0.238l-0.102,-0.239l-0.101,-0.239l-0.099,-0.241l-0.098,-0.242l-0.097,-0.243l-0.094,-0.242l-0.094,-0.244l-0.092,-0.245l-0.091,-0.244l-0.089,-0.246l-0.088,-0.246l-0.086,-0.247l-0.085,-0.248l-0.083,-0.249l-0.082,-0.249l-0.08,-0.25l-0.079,-0.251l-0.078,-0.25l-0.075,-0.251l-0.075,-0.253l-0.073,-0.254l-0.071,-0.254l-0.07,-0.255l-0.068,-0.254l-0.067,-0.256l-0.065,-0.256l-0.063,-0.257l-0.062,-0.257l-0.061,-0.259l-0.059,-0.259l-0.057,-0.259l-0.056,-0.259l-0.054,-0.26l-0.053,-0.261l-0.051,-0.262l-0.049,-0.262l-0.048,-0.263l-0.046,-0.263l-0.045,-0.263l-0.043,-0.264l-0.041,-0.265l-0.04,-0.266l-0.038,-0.266l-0.036,-0.265l-0.035,-0.268l-0.033,-0.266l-0.032,-0.268l-0.029,-0.268l-0.029,-0.269l-0.026,-0.27l-0.025,-0.268l-0.023,-0.27l-0.022,-0.271l-0.019,-0.271l-0.018,-0.27l-0.017,-0.273l-0.014,-0.271l-0.014,-0.273l-0.011,-0.273l-0.009,-0.274l-0.008,-0.274l-0.006,-0.272l-0.005,-0.276l-0.002,-0.275l-0.001,-0.275l0.001,-0.275l0.002,-0.274l0.005,-0.276l0.006,-0.273l0.008,-0.273l0.009,-0.274l0.011,-0.273l0.014,-0.273l0.014,-0.272l0.017,-0.272l0.018,-0.271l0.019,-0.27l0.022,-0.272l0.023,-0.269l0.025,-0.268l0.026,-0.271l0.029,-0.268l0.029,-0.269l0.032,-0.268l0.033,-0.266l0.035,-0.267l0.036,-0.265l0.038,-0.267l0.04,-0.266l0.041,-0.264l0.043,-0.264l0.045,-0.263l0.046,-0.263l0.048,-0.263l0.049,-0.262l0.051,-0.262l0.053,-0.261l0.054,-0.261l0.056,-0.259l0.057,-0.258l0.059,-0.26l0.061,-0.259l0.062,-0.257l0.063,-0.256l0.065,-0.256l0.067,-0.256l0.068,-0.255l0.07,-0.254l0.071,-0.254l0.073,-0.254l0.075,-0.253l0.075,-0.251l0.078,-0.251l0.079,-0.251l0.08,-0.249l0.082,-0.249l0.083,-0.25l0.085,-0.247l0.086,-0.247l0.088,-0.247l0.089,-0.246l0.091,-0.244l0.092,-0.245l0.094,-0.244l0.094,-0.242l0.097,-0.242l0.098,-0.243l0.099,-0.24l0.101,-0.24l0.102,-0.238l0.103,-0.239l0.105,-0.237l0.106,-0.237l0.108,-0.237l0.109,-0.236l0.111,-0.235l0.111,-0.232l0.113,-0.233l0.115,-0.233l0.117,-0.232l0.117,-0.23l0.118,-0.23l0.12,-0.228l0.121,-0.228l0.123,-0.228l0.124,-0.226l0.125,-0.226l0.127,-0.225l0.128,-0.224l0.129,-0.223l0.13,-0.221l0.132,-0.222l0.134,-0.221l0.134,-0.22l0.135,-0.217l0.138,-0.219l0.138,-0.217l0.139,-0.216l0.141,-0.215l0.141,-0.213l0.144,-0.215l0.145,-0.212l0.145,-0.211l0.147,-0.21l0.149,-0.211l0.149,-0.208l0.15,-0.207l0.152,-0.207l0.153,-0.206l0.155,-0.206l0.155,-0.203l0.156,-0.202l0.158,-0.203l0.159,-0.201l0.16,-0.199l0.162,-0.2l0.162,-0.197l0.163,-0.197l0.165,-0.197l0.167,-0.196l0.167,-0.193l0.167,-0.192l0.169,-0.192l0.172,-0.192l0.171,-0.19l0.173,-0.189l0.173,-0.187l0.175,-0.187l0.176,-0.185l0.177,-0.185l0.179,-0.184l0.179,-0.182l0.18,-0.181l0.183,-0.182l0.181,-0.178l0.183,-0.178l0.185,-0.178l0.186,-0.176l0.187,-0.175l0.187,-0.173l0.189,-0.173l0.191,-0.172l0.19,-0.17l0.192,-0.169l0.194,-0.169l0.194,-0.167l0.194,-0.165l0.195,-0.165l0.199,-0.165l0.198,-0.162l0.199,-0.161l0.199,-0.16l0.201,-0.158l0.203,-0.159l0.202,-0.156l0.204,-0.155l0.206,-0.155l0.205,-0.153l0.206,-0.151l0.209,-0.151l0.208,-0.15l0.208,-0.147l0.211,-0.147l0.213,-0.147l0.212,-0.144l0.213,-0.143l0.214,-0.142l0.215,-0.141l0.216,-0.139l0.217,-0.138l0.218,-0.137l0.219,-0.136l0.219,-0.134l0.221,-0.134l0.221,-0.131l0.222,-0.131l0.224,-0.129l0.223,-0.128l0.225,-0.126l0.226,-0.126l0.227,-0.124l0.227,-0.123l0.228,-0.121l0.229,-0.12l0.229,-0.118l0.231,-0.118l0.232,-0.116l0.231,-0.114l0.233,-0.113l0.234,-0.112l0.235,-0.111l0.235,-0.109l0.237,-0.108l0.237,-0.106l0.236,-0.105l0.24,-0.103l0.239,-0.102l0.239,-0.101l0.241,-0.099l0.242,-0.098l0.242,-0.097l0.243,-0.095l0.243,-0.093l0.245,-0.092l0.245,-0.091l0.245,-0.089l0.247,-0.088l0.247,-0.086l0.248,-0.085l0.248,-0.083l0.249,-0.082l0.25,-0.08l0.251,-0.079l0.252,-0.078l0.251,-0.075l0.252,-0.075l0.254,-0.073l0.254,-0.071l0.253,-0.069l0.255,-0.069l0.257,-0.067l0.256,-0.065l0.257,-0.063l0.258,-0.062l0.257,-0.061l0.258,-0.059l0.26,-0.057l0.26,-0.056l0.26,-0.054l0.261,-0.053l0.262,-0.051l0.262,-0.049l0.262,-0.048l0.263,-0.046l0.264,-0.045l0.265,-0.043l0.265,-0.041l0.264,-0.04l0.266,-0.038l0.266,-0.036l0.266,-0.035l0.268,-0.033l0.267,-0.032l0.269,-0.03l0.268,-0.028l0.27,-0.026l0.27,-0.025l0.269,-0.023l0.27,-0.022l0.271,-0.019l0.272,-0.018l0.271,-0.017l0.272,-0.015l0.273,-0.013l0.273,-0.011l0.273,-0.009l0.274,-0.008l0.274,-0.006l0.274,-0.005l0.275,-0.002l0.275,-0.001l0.275,0.001Zm-0.512,6.042l-0.236,0.003l-0.236,0.003l-0.236,0.006l-0.235,0.006l-0.235,0.009l-0.235,0.009l-0.234,0.011l-0.234,0.013l-0.234,0.014l-0.233,0.016l-0.232,0.017l-0.233,0.018l-0.232,0.02l-0.231,0.021l-0.231,0.023l-0.231,0.024l-0.23,0.026l-0.23,0.027l-0.229,0.028l-0.229,0.03l-0.229,0.032l-0.228,0.032l-0.227,0.034l-0.227,0.036l-0.227,0.037l-0.226,0.038l-0.226,0.04l-0.225,0.041l-0.225,0.042l-0.224,0.044l-0.224,0.045l-0.223,0.046l-0.223,0.048l-0.223,0.049l-0.221,0.051l-0.222,0.052l-0.22,0.053l-0.221,0.054l-0.219,0.056l-0.22,0.057l-0.218,0.059l-0.218,0.06l-0.218,0.061l-0.217,0.062l-0.217,0.064l-0.216,0.065l-0.215,0.066l-0.215,0.068l-0.214,0.069l-0.214,0.07l-0.213,0.071l-0.212,0.073l-0.212,0.074l-0.212,0.075l-0.21,0.077l-0.21,0.078l-0.21,0.079l-0.209,0.08l-0.208,0.081l-0.208,0.083l-0.207,0.084l-0.206,0.085l-0.206,0.086l-0.205,0.088l-0.205,0.089l-0.204,0.09l-0.203,0.091l-0.202,0.092l-0.202,0.094l-0.202,0.095l-0.2,0.096l-0.2,0.097l-0.199,0.098l-0.199,0.1l-0.198,0.1l-0.197,0.102l-0.196,0.103l-0.196,0.104l-0.195,0.105l-0.195,0.107l-0.193,0.107l-0.193,0.109l-0.192,0.11l-0.192,0.111l-0.19,0.112l-0.19,0.113l-0.19,0.114l-0.188,0.116l-0.188,0.116l-0.187,0.118l-0.186,0.118l-0.186,0.12l-0.185,0.121l-0.183,0.122l-0.184,0.123l-0.182,0.124l-0.182,0.125l-0.18,0.126l-0.18,0.127l-0.18,0.129l-0.178,0.129l-0.178,0.13l-0.177,0.132l-0.175,0.132l-0.176,0.134l-0.174,0.134l-0.173,0.136l-0.173,0.136l-0.172,0.138l-0.171,0.139l-0.17,0.139l-0.169,0.141l-0.169,0.141l-0.167,0.143l-0.167,0.143l-0.166,0.145l-0.165,0.145l-0.164,0.147l-0.163,0.147l-0.162,0.149l-0.162,0.149l-0.16,0.15l-0.16,0.152l-0.158,0.152l-0.158,0.153l-0.157,0.154l-0.156,0.155l-0.155,0.156l-0.154,0.157l-0.153,0.158l-0.152,0.158l-0.152,0.16l-0.15,0.16l-0.149,0.162l-0.149,0.162l-0.147,0.163l-0.147,0.164l-0.145,0.165l-0.145,0.166l-0.143,0.167l-0.143,0.167l-0.141,0.169l-0.141,0.169l-0.139,0.17l-0.139,0.171l-0.138,0.172l-0.136,0.173l-0.136,0.173l-0.134,0.174l-0.134,0.176l-0.132,0.175l-0.132,0.177l-0.13,0.178l-0.129,0.178l-0.129,0.18l-0.127,0.18l-0.126,0.18l-0.125,0.182l-0.124,0.182l-0.123,0.184l-0.122,0.183l-0.121,0.185l-0.12,0.186l-0.118,0.186l-0.118,0.187l-0.116,0.188l-0.116,0.188l-0.114,0.19l-0.113,0.19l-0.112,0.19l-0.111,0.192l-0.11,0.192l-0.109,0.193l-0.107,0.193l-0.107,0.195l-0.105,0.195l-0.104,0.196l-0.103,0.196l-0.102,0.197l-0.1,0.198l-0.1,0.199l-0.098,0.199l-0.097,0.2l-0.096,0.2l-0.095,0.202l-0.094,0.202l-0.092,0.202l-0.091,0.203l-0.09,0.204l-0.089,0.205l-0.088,0.205l-0.086,0.206l-0.085,0.206l-0.084,0.207l-0.083,0.208l-0.081,0.208l-0.08,0.209l-0.079,0.21l-0.078,0.21l-0.077,0.21l-0.075,0.212l-0.074,0.212l-0.073,0.212l-0.071,0.213l-0.07,0.214l-0.069,0.214l-0.068,0.215l-0.066,0.215l-0.065,0.216l-0.064,0.217l-0.062,0.217l-0.061,0.218l-0.06,0.218l-0.059,0.218l-0.057,0.22l-0.056,0.219l-0.054,0.221l-0.053,0.22l-0.052,0.222l-0.051,0.221l-0.049,0.223l-0.048,0.223l-0.046,0.223l-0.045,0.224l-0.044,0.224l-0.042,0.225l-0.041,0.225l-0.04,0.226l-0.038,0.226l-0.037,0.227l-0.036,0.227l-0.034,0.227l-0.032,0.228l-0.032,0.229l-0.03,0.229l-0.028,0.229l-0.027,0.23l-0.026,0.23l-0.024,0.231l-0.023,0.231l-0.021,0.231l-0.02,0.232l-0.018,0.233l-0.017,0.232l-0.016,0.233l-0.014,0.234l-0.013,0.234l-0.011,0.234l-0.009,0.235l-0.009,0.235l-0.006,0.235l-0.006,0.236l-0.003,0.236l-0.003,0.236l0,0.237l0,0.237l0.003,0.237l0.003,0.236l0.006,0.236l0.006,0.235l0.009,0.235l0.009,0.235l0.011,0.234l0.013,0.234l0.014,0.233l0.016,0.233l0.017,0.233l0.018,0.232l0.02,0.232l0.021,0.232l0.023,0.231l0.024,0.231l0.026,0.23l0.027,0.23l0.028,0.229l0.03,0.229l0.032,0.228l0.032,0.228l0.034,0.228l0.036,0.227l0.037,0.227l0.038,0.226l0.04,0.226l0.041,0.225l0.042,0.225l0.044,0.224l0.045,0.224l0.046,0.223l0.048,0.223l0.049,0.222l0.051,0.222l0.052,0.221l0.053,0.221l0.054,0.22l0.056,0.22l0.057,0.219l0.059,0.219l0.06,0.218l0.061,0.218l0.062,0.217l0.064,0.216l0.065,0.216l0.066,0.216l0.068,0.214l0.069,0.215l0.07,0.213l0.071,0.213l0.073,0.213l0.074,0.212l0.075,0.211l0.077,0.211l0.078,0.21l0.079,0.21l0.08,0.208l0.081,0.209l0.083,0.207l0.084,0.207l0.085,0.207l0.086,0.206l0.088,0.205l0.089,0.204l0.09,0.204l0.091,0.203l0.092,0.203l0.094,0.202l0.095,0.201l0.096,0.201l0.097,0.2l0.098,0.199l0.1,0.198l0.1,0.198l0.102,0.197l0.103,0.197l0.104,0.196l0.105,0.195l0.107,0.194l0.107,0.194l0.109,0.193l0.11,0.192l0.111,0.191l0.112,0.191l0.113,0.19l0.114,0.189l0.116,0.189l0.116,0.188l0.118,0.187l0.118,0.186l0.12,0.185l0.121,0.185l0.122,0.184l0.123,0.183l0.124,0.183l0.125,0.181l0.126,0.181l0.127,0.18l0.129,0.179l0.129,0.179l0.13,0.177l0.132,0.177l0.132,0.176l0.134,0.175l0.134,0.175l0.136,0.173l0.136,0.173l0.138,0.172l0.139,0.171l0.139,0.17l0.141,0.169l0.141,0.168l0.143,0.168l0.143,0.167l0.145,0.165l0.145,0.165l0.147,0.164l0.147,0.164l0.149,0.162l0.149,0.161l0.15,0.161l0.152,0.159l0.152,0.159l0.153,0.158l0.154,0.157l0.155,0.156l0.156,0.155l0.157,0.154l0.158,0.153l0.158,0.152l0.16,0.151l0.16,0.151l0.162,0.149l0.162,0.148l0.163,0.148l0.164,0.146l0.165,0.146l0.166,0.144l0.167,0.144l0.167,0.142l0.169,0.142l0.169,0.14l0.17,0.14l0.171,0.139l0.172,0.137l0.173,0.137l0.173,0.135l0.174,0.135l0.176,0.133l0.175,0.133l0.177,0.131l0.178,0.131l0.178,0.129l0.18,0.128l0.18,0.127l0.18,0.127l0.182,0.125l0.182,0.124l0.184,0.123l0.183,0.122l0.185,0.121l0.186,0.119l0.186,0.119l0.187,0.118l0.188,0.116l0.188,0.115l0.19,0.115l0.19,0.113l0.19,0.112l0.192,0.111l0.192,0.11l0.193,0.108l0.193,0.108l0.195,0.106l0.195,0.106l0.196,0.104l0.196,0.103l0.197,0.101l0.198,0.101l0.199,0.099l0.199,0.099l0.2,0.097l0.2,0.096l0.202,0.095l0.202,0.093l0.202,0.093l0.203,0.091l0.204,0.09l0.205,0.089l0.205,0.087l0.206,0.087l0.206,0.085l0.207,0.084l0.208,0.082l0.208,0.082l0.209,0.08l0.21,0.079l0.21,0.078l0.21,0.076l0.212,0.075l0.212,0.074l0.212,0.073l0.213,0.072l0.214,0.07l0.214,0.069l0.215,0.067l0.215,0.067l0.216,0.065l0.217,0.063l0.217,0.063l0.218,0.061l0.218,0.06l0.218,0.058l0.22,0.057l0.219,0.056l0.221,0.055l0.22,0.053l0.222,0.052l0.221,0.05l0.223,0.05l0.223,0.047l0.223,0.047l0.224,0.045l0.224,0.044l0.225,0.042l0.225,0.041l0.226,0.04l0.226,0.038l0.227,0.037l0.227,0.035l0.227,0.034l0.228,0.033l0.229,0.031l0.229,0.03l0.229,0.029l0.23,0.027l0.23,0.025l0.231,0.025l0.231,0.022l0.231,0.022l0.232,0.02l0.233,0.018l0.232,0.017l0.233,0.015l0.234,0.015l0.234,0.012l0.234,0.011l0.235,0.01l0.235,0.008l0.235,0.007l0.236,0.005l0.236,0.004l0.236,0.002l0.237,0.001l0.237,-0.001l0.237,-0.002l0.236,-0.004l0.236,-0.005l0.235,-0.007l0.235,-0.008l0.235,-0.01l0.234,-0.011l0.234,-0.012l0.233,-0.015l0.233,-0.015l0.233,-0.017l0.232,-0.018l0.232,-0.02l0.232,-0.022l0.231,-0.022l0.231,-0.025l0.23,-0.025l0.23,-0.027l0.229,-0.029l0.229,-0.03l0.228,-0.031l0.228,-0.033l0.228,-0.034l0.227,-0.035l0.227,-0.037l0.226,-0.038l0.226,-0.04l0.225,-0.041l0.225,-0.042l0.224,-0.044l0.224,-0.045l0.223,-0.047l0.223,-0.047l0.222,-0.05l0.222,-0.05l0.221,-0.052l0.221,-0.053l0.22,-0.055l0.22,-0.056l0.219,-0.057l0.219,-0.058l0.218,-0.06l0.218,-0.061l0.217,-0.063l0.216,-0.063l0.216,-0.065l0.216,-0.067l0.214,-0.067l0.215,-0.069l0.213,-0.07l0.213,-0.072l0.213,-0.073l0.212,-0.074l0.211,-0.075l0.211,-0.076l0.21,-0.078l0.21,-0.079l0.208,-0.08l0.209,-0.082l0.207,-0.082l0.207,-0.084l0.207,-0.085l0.206,-0.087l0.205,-0.087l0.204,-0.089l0.204,-0.09l0.203,-0.091l0.203,-0.093l0.202,-0.093l0.201,-0.095l0.201,-0.096l0.2,-0.097l0.199,-0.099l0.198,-0.099l0.198,-0.101l0.197,-0.101l0.197,-0.103l0.196,-0.104l0.195,-0.106l0.194,-0.106l0.194,-0.108l0.193,-0.108l0.192,-0.11l0.191,-0.111l0.191,-0.112l0.19,-0.113l0.189,-0.115l0.189,-0.115l0.188,-0.116l0.187,-0.118l0.186,-0.119l0.185,-0.119l0.185,-0.121l0.184,-0.122l0.183,-0.123l0.183,-0.124l0.181,-0.125l0.181,-0.127l0.18,-0.127l0.179,-0.128l0.179,-0.129l0.177,-0.131l0.177,-0.131l0.176,-0.133l0.175,-0.133l0.175,-0.135l0.173,-0.135l0.173,-0.137l0.172,-0.137l0.171,-0.139l0.17,-0.14l0.169,-0.14l0.168,-0.142l0.168,-0.142l0.167,-0.144l0.165,-0.144l0.165,-0.146l0.164,-0.146l0.164,-0.148l0.162,-0.148l0.161,-0.149l0.161,-0.151l0.159,-0.151l0.159,-0.152l0.158,-0.153l0.157,-0.154l0.156,-0.155l0.155,-0.156l0.154,-0.157l0.153,-0.158l0.152,-0.159l0.151,-0.159l0.151,-0.161l0.149,-0.161l0.148,-0.162l0.148,-0.164l0.146,-0.164l0.146,-0.165l0.144,-0.165l0.144,-0.167l0.142,-0.168l0.142,-0.168l0.14,-0.169l0.14,-0.17l0.139,-0.171l0.137,-0.172l0.137,-0.173l0.135,-0.173l0.135,-0.175l0.133,-0.175l0.133,-0.176l0.131,-0.177l0.131,-0.177l0.129,-0.179l0.128,-0.179l0.127,-0.18l0.127,-0.181l0.125,-0.181l0.124,-0.183l0.123,-0.183l0.122,-0.184l0.121,-0.185l0.119,-0.185l0.119,-0.186l0.118,-0.187l0.116,-0.188l0.115,-0.189l0.115,-0.189l0.113,-0.19l0.112,-0.191l0.111,-0.191l0.11,-0.192l0.108,-0.193l0.108,-0.194l0.106,-0.194l0.106,-0.195l0.104,-0.196l0.103,-0.197l0.101,-0.197l0.101,-0.198l0.099,-0.198l0.099,-0.199l0.097,-0.2l0.096,-0.201l0.095,-0.201l0.093,-0.202l0.093,-0.203l0.091,-0.203l0.09,-0.204l0.089,-0.204l0.087,-0.205l0.087,-0.206l0.085,-0.207l0.084,-0.207l0.082,-0.207l0.082,-0.209l0.08,-0.208l0.079,-0.21l0.078,-0.21l0.076,-0.211l0.075,-0.211l0.074,-0.212l0.073,-0.213l0.072,-0.213l0.07,-0.213l0.069,-0.215l0.067,-0.214l0.067,-0.216l0.065,-0.216l0.063,-0.216l0.063,-0.217l0.061,-0.218l0.06,-0.218l0.058,-0.219l0.057,-0.219l0.056,-0.22l0.055,-0.22l0.053,-0.221l0.052,-0.221l0.05,-0.222l0.05,-0.222l0.047,-0.223l0.047,-0.223l0.045,-0.224l0.044,-0.224l0.042,-0.225l0.041,-0.225l0.04,-0.226l0.038,-0.226l0.037,-0.227l0.035,-0.227l0.034,-0.228l0.033,-0.228l0.031,-0.228l0.03,-0.229l0.029,-0.229l0.027,-0.23l0.025,-0.23l0.025,-0.231l0.022,-0.231l0.022,-0.232l0.02,-0.232l0.018,-0.232l0.017,-0.233l0.015,-0.233l0.015,-0.233l0.012,-0.234l0.011,-0.234l0.01,-0.235l0.008,-0.235l0.007,-0.235l0.005,-0.236l0.004,-0.236l0.002,-0.237l0.001,-0.237l-0.001,-0.237l-0.002,-0.236l-0.004,-0.236l-0.005,-0.236l-0.007,-0.235l-0.008,-0.235l-0.01,-0.235l-0.011,-0.234l-0.012,-0.234l-0.015,-0.234l-0.015,-0.233l-0.017,-0.232l-0.018,-0.233l-0.02,-0.232l-0.022,-0.231l-0.022,-0.231l-0.025,-0.231l-0.025,-0.23l-0.027,-0.23l-0.029,-0.229l-0.03,-0.229l-0.031,-0.229l-0.033,-0.228l-0.034,-0.227l-0.035,-0.227l-0.037,-0.227l-0.038,-0.226l-0.04,-0.226l-0.041,-0.225l-0.042,-0.225l-0.044,-0.224l-0.045,-0.224l-0.047,-0.223l-0.047,-0.223l-0.05,-0.223l-0.05,-0.221l-0.052,-0.222l-0.053,-0.22l-0.055,-0.221l-0.056,-0.219l-0.057,-0.22l-0.058,-0.218l-0.06,-0.218l-0.061,-0.218l-0.063,-0.217l-0.063,-0.217l-0.065,-0.216l-0.067,-0.215l-0.067,-0.215l-0.069,-0.214l-0.07,-0.214l-0.072,-0.213l-0.073,-0.212l-0.074,-0.212l-0.075,-0.212l-0.076,-0.21l-0.078,-0.21l-0.079,-0.21l-0.08,-0.209l-0.082,-0.208l-0.082,-0.208l-0.084,-0.207l-0.085,-0.206l-0.087,-0.206l-0.087,-0.205l-0.089,-0.205l-0.09,-0.204l-0.091,-0.203l-0.093,-0.202l-0.093,-0.202l-0.095,-0.202l-0.096,-0.2l-0.097,-0.2l-0.099,-0.199l-0.099,-0.199l-0.101,-0.198l-0.101,-0.197l-0.103,-0.196l-0.104,-0.196l-0.106,-0.195l-0.106,-0.195l-0.108,-0.193l-0.108,-0.193l-0.11,-0.192l-0.111,-0.192l-0.112,-0.19l-0.113,-0.19l-0.115,-0.19l-0.115,-0.188l-0.116,-0.188l-0.118,-0.187l-0.119,-0.186l-0.119,-0.186l-0.121,-0.185l-0.122,-0.183l-0.123,-0.184l-0.124,-0.182l-0.125,-0.182l-0.127,-0.18l-0.127,-0.18l-0.128,-0.18l-0.129,-0.178l-0.131,-0.178l-0.131,-0.177l-0.133,-0.175l-0.133,-0.176l-0.135,-0.174l-0.135,-0.173l-0.137,-0.173l-0.137,-0.172l-0.139,-0.171l-0.14,-0.17l-0.14,-0.169l-0.142,-0.169l-0.142,-0.167l-0.144,-0.167l-0.144,-0.166l-0.146,-0.165l-0.146,-0.164l-0.148,-0.163l-0.148,-0.162l-0.149,-0.162l-0.151,-0.16l-0.151,-0.16l-0.152,-0.158l-0.153,-0.158l-0.154,-0.157l-0.155,-0.156l-0.156,-0.155l-0.157,-0.154l-0.158,-0.153l-0.159,-0.152l-0.159,-0.152l-0.161,-0.15l-0.161,-0.149l-0.162,-0.149l-0.164,-0.147l-0.164,-0.147l-0.165,-0.145l-0.165,-0.145l-0.167,-0.143l-0.168,-0.143l-0.168,-0.141l-0.169,-0.141l-0.17,-0.139l-0.171,-0.139l-0.172,-0.138l-0.173,-0.136l-0.173,-0.136l-0.175,-0.134l-0.175,-0.134l-0.176,-0.132l-0.177,-0.132l-0.177,-0.13l-0.179,-0.129l-0.179,-0.129l-0.18,-0.127l-0.181,-0.126l-0.181,-0.125l-0.183,-0.124l-0.183,-0.123l-0.184,-0.122l-0.185,-0.121l-0.185,-0.12l-0.186,-0.118l-0.187,-0.118l-0.188,-0.116l-0.189,-0.116l-0.189,-0.114l-0.19,-0.113l-0.191,-0.112l-0.191,-0.111l-0.192,-0.11l-0.193,-0.109l-0.194,-0.107l-0.194,-0.107l-0.195,-0.105l-0.196,-0.104l-0.197,-0.103l-0.197,-0.102l-0.198,-0.1l-0.198,-0.1l-0.199,-0.098l-0.2,-0.097l-0.201,-0.096l-0.201,-0.095l-0.202,-0.094l-0.203,-0.092l-0.203,-0.091l-0.204,-0.09l-0.204,-0.089l-0.205,-0.088l-0.206,-0.086l-0.207,-0.085l-0.207,-0.084l-0.207,-0.083l-0.209,-0.081l-0.208,-0.08l-0.21,-0.079l-0.21,-0.078l-0.211,-0.077l-0.211,-0.075l-0.212,-0.074l-0.213,-0.073l-0.213,-0.071l-0.213,-0.07l-0.215,-0.069l-0.214,-0.068l-0.216,-0.066l-0.216,-0.065l-0.216,-0.064l-0.217,-0.062l-0.218,-0.061l-0.218,-0.06l-0.219,-0.059l-0.219,-0.057l-0.22,-0.056l-0.22,-0.054l-0.221,-0.053l-0.221,-0.052l-0.222,-0.051l-0.222,-0.049l-0.223,-0.048l-0.223,-0.046l-0.224,-0.045l-0.224,-0.044l-0.225,-0.042l-0.225,-0.041l-0.226,-0.04l-0.226,-0.038l-0.227,-0.037l-0.227,-0.036l-0.228,-0.034l-0.228,-0.032l-0.228,-0.032l-0.229,-0.03l-0.229,-0.028l-0.23,-0.027l-0.23,-0.026l-0.231,-0.024l-0.231,-0.023l-0.232,-0.021l-0.232,-0.02l-0.232,-0.018l-0.233,-0.017l-0.233,-0.016l-0.233,-0.014l-0.234,-0.013l-0.234,-0.011l-0.235,-0.009l-0.235,-0.009l-0.235,-0.006l-0.236,-0.006l-0.236,-0.003l-0.237,-0.003l-0.237,0l-0.237,0Z" style="fill:#3d3d3d;"/>
            <circle cx="56.688" cy="42.812" r="20.562" style="fill:#3d3d3d;"/>
            <circle cx="61.059" cy="35.721" r="9.681" style="fill:#e7e7e7;"/>
        </g>
    </g>
</svg>
