<?xml version="1.0" encoding="UTF-8" standalone="no"?>
<!DOCTYPE svg PUBLIC "-//W3C//DTD SVG 1.1//EN" "http://www.w3.org/Graphics/SVG/1.1/DTD/svg11.dtd">
<svg width="100%" height="100%" viewBox="0 0 490 452" version="1.1" xmlns="http://www.w3.org/2000/svg" xmlns:xlink="http://www.w3.org/1999/xlink" xml:space="preserve" xmlns:serif="http://www.serif.com/" style="fill-rule:evenodd;clip-rule:evenodd;stroke-linejoin:round;stroke-miterlimit:2;">
    <rect id="Basic" x="0" y="0" width="489.334" height="451.988" style="fill:none;"/>
    <g id="NachoBoy">
        <path id="basic" d="M163.952,19.865l289.347,317.732l-417.264,92.527l127.917,-410.259Z" style="fill:#e19160;"/>
        <clipPath id="_clip1">
            <path id="basic1" serif:id="basic" d="M163.952,19.865l289.347,317.732l-417.264,92.527l127.917,-410.259Z"/>
        </clipPath>
        <g clip-path="url(#_clip1)">
            <path d="M91.949,375.068l12.165,-34.973l25.85,10.644l-38.015,24.329Z" style="fill:#d16c4c;"/>
            <path d="M164.322,111.777l12.164,-34.974l19.372,37.55l-31.536,-2.576Z" style="fill:#d16c4c;"/>
            <path d="M211.137,296.276l14.158,-18.775l19.372,37.551l-33.53,-18.776Z" style="fill:#d16c4c;"/>
            <path d="M263.157,224.994l5.399,-37.55l21.319,24.007l-26.718,13.543Z" style="fill:#d16c4c;"/>
            <path d="M336.753,304.105l26.808,-26.604l2.829,38.605l-29.637,-12.001Z" style="fill:#d16c4c;"/>
            <path d="M130.792,214.531l26.804,-8.312l6.726,27.087l-33.53,-18.775Z" style="fill:#d16c4c;"/>
        </g>
        <path id="basic2" serif:id="basic" d="M167.753,1.297l3.789,1.201l3.454,1.964l2.969,2.642l289.346,317.732l2.344,3.187l1.632,3.605l0.847,3.864l0.027,3.956l-0.796,3.876l-1.582,3.626l-2.301,3.218l-2.919,2.671l-3.409,2.006l-3.752,1.255l-417.264,92.527l-3.93,0.448l-3.939,-0.377l-3.774,-1.186l-3.445,-1.944l-2.967,-2.618l-2.359,-3.176l-1.648,-3.596l-0.866,-3.861l-0.045,-3.956l0.777,-3.879l127.917,-410.259l1.574,-3.649l2.3,-3.24l2.926,-2.69l3.422,-2.02l3.768,-1.262l3.949,-0.449l3.955,0.384Zm-131.718,428.827l417.264,-92.527l-289.347,-317.732l-127.917,410.259Z" style="fill:#d16c4c;"/>
    </g>
</svg>
