<?xml version="1.0" encoding="UTF-8" standalone="no"?>
<!DOCTYPE svg PUBLIC "-//W3C//DTD SVG 1.1//EN" "http://www.w3.org/Graphics/SVG/1.1/DTD/svg11.dtd">
<svg width="100%" height="100%" viewBox="0 0 800 800" version="1.1" xmlns="http://www.w3.org/2000/svg" xmlns:xlink="http://www.w3.org/1999/xlink" xml:space="preserve" xmlns:serif="http://www.serif.com/" style="fill-rule:evenodd;clip-rule:evenodd;stroke-linejoin:round;stroke-miterlimit:2;">
    <rect id="Complete" x="0" y="0" width="800" height="800" style="fill:none;"/>
    <g id="Complete1" serif:id="Complete">
        <circle cx="400" cy="400" r="400" style="fill:#393355;"/>
        <g id="NachoBoy">
            <path id="basic" d="M347.07,185.75l289.346,317.732l-417.263,92.527l127.917,-410.259Z" style="fill:#e19160;"/>
            <clipPath id="_clip1">
                <path d="M347.07,185.75l289.346,317.732l-417.263,92.527l127.917,-410.259Z"/>
            </clipPath>
            <g clip-path="url(#_clip1)">
                <path d="M275.067,540.953l12.164,-34.973l25.85,10.644l-38.014,24.329Z" style="fill:#d16c4c;"/>
                <path d="M347.439,277.662l12.165,-34.974l19.372,37.55l-31.537,-2.576Z" style="fill:#d16c4c;"/>
                <path d="M394.255,462.162l14.157,-18.776l19.372,37.551l-33.529,-18.775Z" style="fill:#d16c4c;"/>
                <path d="M446.275,390.879l5.399,-37.55l21.318,24.007l-26.717,13.543Z" style="fill:#d16c4c;"/>
                <path d="M519.87,469.99l26.809,-26.604l2.828,38.605l-29.637,-12.001Z" style="fill:#d16c4c;"/>
                <path d="M313.909,380.416l26.804,-8.312l6.726,27.087l-33.53,-18.775Z" style="fill:#d16c4c;"/>
            </g>
            <path d="M350.871,167.182l3.788,1.201l3.455,1.964l2.969,2.642l289.346,317.732l2.344,3.187l1.631,3.605l0.847,3.864l0.027,3.956l-0.795,3.876l-1.583,3.626l-2.3,3.218l-2.919,2.671l-3.41,2.006l-3.752,1.255l-417.263,92.527l-3.931,0.448l-3.938,-0.377l-3.774,-1.186l-3.446,-1.944l-2.967,-2.618l-2.359,-3.176l-1.648,-3.596l-0.865,-3.861l-0.046,-3.956l0.777,-3.879l127.917,-410.259l1.575,-3.649l2.3,-3.24l2.926,-2.69l3.422,-2.02l3.768,-1.262l3.949,-0.449l3.955,0.384Zm-131.718,428.827l417.263,-92.527l-289.346,-317.732l-127.917,410.259Z" style="fill:#d16c4c;"/>
            <g>
                <circle cx="314.106" cy="345.342" r="54.658" style="fill:#e7e7e7;"/>
                <path d="M314.516,281.673l0.41,0.004l0.41,0.007l0.408,0.009l0.409,0.012l0.407,0.014l0.407,0.016l0.407,0.02l0.406,0.022l0.405,0.024l0.404,0.027l0.404,0.03l0.404,0.032l0.403,0.034l0.402,0.037l0.401,0.04l0.4,0.042l0.4,0.044l0.4,0.047l0.398,0.05l0.398,0.052l0.397,0.054l0.396,0.057l0.396,0.059l0.395,0.062l0.394,0.064l0.393,0.066l0.393,0.069l0.391,0.071l0.391,0.074l0.39,0.076l0.389,0.079l0.389,0.081l0.387,0.083l0.387,0.085l0.386,0.088l0.384,0.09l0.384,0.093l0.384,0.095l0.382,0.097l0.381,0.099l0.381,0.102l0.379,0.104l0.378,0.106l0.378,0.109l0.377,0.111l0.375,0.113l0.375,0.115l0.374,0.118l0.372,0.12l0.372,0.122l0.37,0.124l0.37,0.127l0.369,0.128l0.367,0.131l0.367,0.133l0.366,0.135l0.364,0.138l0.363,0.139l0.363,0.142l0.361,0.144l0.36,0.146l0.359,0.148l0.358,0.15l0.356,0.152l0.356,0.155l0.355,0.156l0.353,0.159l0.352,0.16l0.351,0.163l0.35,0.165l0.349,0.167l0.347,0.169l0.347,0.171l0.345,0.172l0.344,0.175l0.342,0.177l0.342,0.179l0.34,0.181l0.339,0.183l0.338,0.185l0.336,0.187l0.336,0.189l0.333,0.19l0.333,0.193l0.332,0.195l0.33,0.196l0.328,0.199l0.328,0.201l0.326,0.202l0.325,0.204l0.324,0.206l0.322,0.208l0.321,0.21l0.319,0.212l0.318,0.213l0.317,0.216l0.315,0.217l0.315,0.219l0.312,0.221l0.311,0.223l0.31,0.225l0.308,0.226l0.307,0.228l0.306,0.23l0.304,0.232l0.303,0.234l0.301,0.235l0.3,0.237l0.298,0.239l0.297,0.24l0.295,0.243l0.294,0.244l0.292,0.246l0.291,0.247l0.29,0.249l0.287,0.251l0.287,0.253l0.284,0.254l0.284,0.256l0.281,0.257l0.281,0.26l0.278,0.26l0.277,0.263l0.275,0.264l0.274,0.266l0.273,0.267l0.27,0.269l0.269,0.271l0.268,0.272l0.265,0.274l0.265,0.276l0.262,0.276l0.261,0.279l0.259,0.28l0.258,0.282l0.256,0.283l0.254,0.285l0.252,0.286l0.251,0.288l0.249,0.289l0.248,0.291l0.246,0.292l0.244,0.294l0.242,0.296l0.24,0.296l0.239,0.299l0.237,0.299l0.236,0.302l0.233,0.302l0.232,0.304l0.23,0.306l0.228,0.307l0.227,0.308l0.224,0.31l0.223,0.311l0.221,0.313l0.219,0.314l0.217,0.315l0.216,0.317l0.214,0.319l0.211,0.319l0.21,0.32l0.208,0.323l0.206,0.323l0.205,0.325l0.202,0.327l0.2,0.327l0.199,0.329l0.197,0.33l0.194,0.331l0.193,0.333l0.191,0.334l0.188,0.335l0.187,0.336l0.185,0.338l0.183,0.339l0.181,0.341l0.179,0.341l0.177,0.342l0.175,0.345l0.173,0.345l0.171,0.346l0.169,0.348l0.166,0.348l0.165,0.35l0.163,0.351l0.161,0.353l0.158,0.353l0.157,0.354l0.154,0.356l0.152,0.357l0.151,0.358l0.148,0.359l0.146,0.36l0.143,0.361l0.142,0.362l0.14,0.364l0.137,0.364l0.135,0.365l0.133,0.367l0.131,0.368l0.129,0.368l0.126,0.37l0.124,0.371l0.123,0.371l0.119,0.373l0.118,0.373l0.115,0.376l0.113,0.375l0.111,0.376l0.109,0.378l0.106,0.378l0.104,0.38l0.102,0.381l0.099,0.38l0.098,0.383l0.095,0.383l0.092,0.384l0.09,0.385l0.088,0.385l0.086,0.387l0.083,0.388l0.081,0.388l0.078,0.389l0.076,0.39l0.074,0.391l0.071,0.392l0.069,0.392l0.067,0.394l0.064,0.394l0.061,0.394l0.06,0.396l0.056,0.396l0.055,0.397l0.052,0.398l0.049,0.399l0.047,0.399l0.045,0.4l0.042,0.401l0.039,0.401l0.037,0.402l0.035,0.403l0.032,0.403l0.029,0.404l0.027,0.405l0.025,0.404l0.022,0.407l0.019,0.406l0.017,0.407l0.014,0.408l0.012,0.408l0.009,0.409l0.006,0.409l0.004,0.41l0.001,0.41l-0.001,0.41l-0.004,0.411l-0.006,0.409l-0.009,0.409l-0.012,0.408l-0.014,0.408l-0.017,0.407l-0.019,0.406l-0.022,0.406l-0.025,0.405l-0.027,0.405l-0.029,0.404l-0.032,0.403l-0.035,0.403l-0.037,0.402l-0.039,0.401l-0.042,0.401l-0.045,0.4l-0.047,0.399l-0.049,0.399l-0.052,0.398l-0.054,0.397l-0.057,0.396l-0.06,0.396l-0.061,0.394l-0.064,0.394l-0.067,0.394l-0.069,0.392l-0.071,0.392l-0.074,0.391l-0.076,0.39l-0.078,0.389l-0.081,0.388l-0.083,0.388l-0.086,0.386l-0.088,0.386l-0.09,0.385l-0.092,0.384l-0.095,0.383l-0.098,0.383l-0.099,0.38l-0.102,0.381l-0.104,0.38l-0.106,0.378l-0.109,0.378l-0.111,0.376l-0.113,0.375l-0.115,0.375l-0.118,0.374l-0.12,0.373l-0.122,0.371l-0.124,0.371l-0.126,0.37l-0.129,0.368l-0.131,0.368l-0.133,0.367l-0.135,0.365l-0.137,0.364l-0.14,0.364l-0.142,0.362l-0.144,0.361l-0.145,0.36l-0.148,0.359l-0.151,0.358l-0.152,0.357l-0.154,0.356l-0.157,0.354l-0.158,0.353l-0.161,0.353l-0.163,0.351l-0.165,0.35l-0.166,0.348l-0.169,0.348l-0.171,0.346l-0.173,0.345l-0.175,0.344l-0.177,0.343l-0.179,0.341l-0.181,0.341l-0.183,0.339l-0.185,0.337l-0.187,0.337l-0.188,0.335l-0.191,0.334l-0.193,0.333l-0.194,0.331l-0.197,0.33l-0.199,0.329l-0.2,0.327l-0.202,0.327l-0.205,0.325l-0.206,0.323l-0.208,0.322l-0.21,0.321l-0.211,0.32l-0.214,0.318l-0.215,0.316l-0.218,0.316l-0.219,0.314l-0.221,0.313l-0.223,0.311l-0.224,0.31l-0.227,0.308l-0.228,0.307l-0.23,0.305l-0.232,0.305l-0.233,0.302l-0.236,0.302l-0.236,0.299l-0.239,0.299l-0.241,0.296l-0.242,0.296l-0.244,0.294l-0.246,0.292l-0.248,0.291l-0.249,0.289l-0.251,0.288l-0.252,0.286l-0.255,0.285l-0.255,0.283l-0.258,0.282l-0.259,0.28l-0.261,0.279l-0.262,0.276l-0.265,0.276l-0.265,0.274l-0.268,0.272l-0.269,0.271l-0.27,0.269l-0.273,0.267l-0.274,0.266l-0.275,0.264l-0.277,0.262l-0.278,0.261l-0.281,0.26l-0.281,0.257l-0.284,0.256l-0.284,0.254l-0.287,0.253l-0.287,0.251l-0.29,0.249l-0.291,0.247l-0.292,0.246l-0.294,0.244l-0.295,0.243l-0.297,0.24l-0.298,0.239l-0.3,0.237l-0.301,0.235l-0.303,0.234l-0.304,0.232l-0.306,0.23l-0.306,0.228l-0.309,0.226l-0.31,0.225l-0.311,0.223l-0.313,0.221l-0.314,0.219l-0.315,0.217l-0.317,0.215l-0.318,0.214l-0.319,0.212l-0.321,0.21l-0.322,0.208l-0.324,0.206l-0.325,0.204l-0.326,0.203l-0.327,0.2l-0.329,0.198l-0.33,0.197l-0.332,0.195l-0.333,0.193l-0.333,0.19l-0.336,0.189l-0.336,0.187l-0.338,0.185l-0.339,0.183l-0.34,0.181l-0.342,0.179l-0.343,0.177l-0.343,0.175l-0.345,0.172l-0.347,0.171l-0.347,0.169l-0.349,0.167l-0.35,0.165l-0.351,0.162l-0.352,0.161l-0.354,0.159l-0.354,0.156l-0.355,0.154l-0.357,0.153l-0.358,0.15l-0.359,0.148l-0.361,0.146l-0.36,0.144l-0.362,0.141l-0.364,0.14l-0.364,0.137l-0.366,0.136l-0.367,0.133l-0.367,0.131l-0.368,0.128l-0.37,0.127l-0.371,0.124l-0.372,0.122l-0.373,0.12l-0.373,0.117l-0.375,0.116l-0.376,0.113l-0.376,0.111l-0.377,0.108l-0.379,0.107l-0.379,0.104l-0.381,0.102l-0.381,0.099l-0.382,0.097l-0.384,0.095l-0.384,0.093l-0.384,0.09l-0.386,0.088l-0.387,0.085l-0.387,0.083l-0.388,0.081l-0.39,0.079l-0.39,0.076l-0.391,0.073l-0.391,0.072l-0.393,0.069l-0.393,0.066l-0.394,0.064l-0.395,0.062l-0.396,0.059l-0.396,0.057l-0.397,0.054l-0.398,0.052l-0.398,0.05l-0.399,0.047l-0.401,0.044l-0.401,0.042l-0.4,0.04l-0.402,0.037l-0.403,0.034l-0.404,0.032l-0.404,0.03l-0.404,0.027l-0.406,0.024l-0.405,0.022l-0.406,0.019l-0.408,0.017l-0.407,0.014l-0.408,0.012l-0.41,0.009l-0.409,0.007l-0.41,0.004l-0.41,0.001l-0.411,-0.001l-0.409,-0.004l-0.409,-0.007l-0.41,-0.009l-0.408,-0.012l-0.407,-0.014l-0.408,-0.017l-0.406,-0.019l-0.406,-0.022l-0.405,-0.024l-0.404,-0.027l-0.404,-0.03l-0.404,-0.032l-0.403,-0.034l-0.402,-0.037l-0.4,-0.04l-0.401,-0.042l-0.401,-0.044l-0.399,-0.047l-0.398,-0.05l-0.398,-0.052l-0.397,-0.054l-0.397,-0.057l-0.395,-0.059l-0.395,-0.062l-0.394,-0.064l-0.393,-0.066l-0.393,-0.069l-0.391,-0.072l-0.391,-0.073l-0.39,-0.076l-0.39,-0.079l-0.388,-0.081l-0.387,-0.083l-0.387,-0.085l-0.386,-0.088l-0.385,-0.09l-0.384,-0.093l-0.383,-0.095l-0.382,-0.097l-0.381,-0.099l-0.381,-0.102l-0.379,-0.104l-0.379,-0.107l-0.377,-0.108l-0.377,-0.111l-0.375,-0.113l-0.375,-0.116l-0.373,-0.117l-0.373,-0.12l-0.372,-0.122l-0.371,-0.124l-0.37,-0.127l-0.368,-0.128l-0.367,-0.131l-0.367,-0.133l-0.366,-0.136l-0.364,-0.137l-0.364,-0.139l-0.362,-0.142l-0.36,-0.144l-0.361,-0.146l-0.359,-0.148l-0.358,-0.15l-0.357,-0.153l-0.355,-0.154l-0.354,-0.156l-0.354,-0.159l-0.352,-0.161l-0.351,-0.162l-0.35,-0.165l-0.349,-0.167l-0.347,-0.169l-0.347,-0.171l-0.345,-0.173l-0.344,-0.174l-0.342,-0.177l-0.342,-0.179l-0.34,-0.181l-0.339,-0.183l-0.338,-0.185l-0.336,-0.187l-0.336,-0.189l-0.333,-0.19l-0.333,-0.193l-0.332,-0.195l-0.33,-0.197l-0.329,-0.198l-0.327,-0.2l-0.326,-0.203l-0.325,-0.204l-0.324,-0.206l-0.322,-0.208l-0.321,-0.21l-0.319,-0.212l-0.319,-0.214l-0.316,-0.215l-0.315,-0.217l-0.314,-0.219l-0.313,-0.221l-0.311,-0.223l-0.31,-0.225l-0.309,-0.226l-0.306,-0.228l-0.306,-0.23l-0.304,-0.232l-0.303,-0.234l-0.301,-0.235l-0.3,-0.237l-0.298,-0.239l-0.297,-0.24l-0.296,-0.243l-0.293,-0.244l-0.292,-0.246l-0.292,-0.247l-0.289,-0.249l-0.287,-0.251l-0.287,-0.253l-0.284,-0.254l-0.284,-0.256l-0.281,-0.257l-0.281,-0.26l-0.278,-0.261l-0.277,-0.262l-0.276,-0.264l-0.273,-0.266l-0.273,-0.267l-0.27,-0.27l-0.269,-0.27l-0.268,-0.272l-0.265,-0.274l-0.265,-0.275l-0.262,-0.277l-0.261,-0.279l-0.259,-0.28l-0.258,-0.282l-0.255,-0.283l-0.255,-0.285l-0.253,-0.286l-0.25,-0.288l-0.25,-0.289l-0.247,-0.291l-0.246,-0.292l-0.244,-0.294l-0.242,-0.296l-0.241,-0.296l-0.239,-0.299l-0.237,-0.299l-0.235,-0.302l-0.233,-0.302l-0.232,-0.304l-0.23,-0.306l-0.228,-0.307l-0.227,-0.308l-0.224,-0.31l-0.223,-0.311l-0.221,-0.313l-0.219,-0.314l-0.218,-0.316l-0.215,-0.316l-0.214,-0.318l-0.211,-0.32l-0.21,-0.321l-0.208,-0.322l-0.207,-0.324l-0.204,-0.324l-0.202,-0.326l-0.2,-0.328l-0.199,-0.329l-0.197,-0.33l-0.194,-0.331l-0.193,-0.333l-0.191,-0.334l-0.189,-0.335l-0.187,-0.337l-0.184,-0.337l-0.183,-0.339l-0.181,-0.34l-0.179,-0.342l-0.177,-0.343l-0.175,-0.344l-0.173,-0.345l-0.171,-0.346l-0.169,-0.348l-0.167,-0.348l-0.164,-0.35l-0.163,-0.351l-0.161,-0.353l-0.158,-0.353l-0.157,-0.355l-0.154,-0.355l-0.152,-0.357l-0.151,-0.358l-0.148,-0.359l-0.146,-0.36l-0.144,-0.361l-0.141,-0.362l-0.14,-0.364l-0.137,-0.364l-0.135,-0.365l-0.133,-0.367l-0.131,-0.368l-0.129,-0.368l-0.126,-0.37l-0.125,-0.371l-0.122,-0.371l-0.119,-0.373l-0.118,-0.374l-0.115,-0.374l-0.113,-0.376l-0.111,-0.376l-0.109,-0.378l-0.106,-0.379l-0.104,-0.379l-0.102,-0.38l-0.1,-0.382l-0.097,-0.382l-0.095,-0.383l-0.092,-0.384l-0.09,-0.385l-0.088,-0.386l-0.086,-0.386l-0.083,-0.388l-0.081,-0.388l-0.078,-0.389l-0.076,-0.391l-0.074,-0.39l-0.071,-0.392l-0.069,-0.392l-0.067,-0.394l-0.064,-0.394l-0.062,-0.394l-0.059,-0.396l-0.057,-0.396l-0.054,-0.398l-0.052,-0.397l-0.049,-0.399l-0.047,-0.399l-0.045,-0.4l-0.042,-0.401l-0.039,-0.401l-0.037,-0.402l-0.035,-0.403l-0.032,-0.403l-0.029,-0.404l-0.027,-0.405l-0.025,-0.405l-0.022,-0.406l-0.019,-0.406l-0.017,-0.407l-0.014,-0.408l-0.012,-0.408l-0.009,-0.409l-0.006,-0.409l-0.004,-0.41l-0.001,-0.411l0.001,-0.41l0.004,-0.41l0.006,-0.409l0.009,-0.409l0.012,-0.408l0.014,-0.408l0.017,-0.407l0.019,-0.406l0.022,-0.406l0.025,-0.406l0.027,-0.404l0.029,-0.404l0.032,-0.403l0.035,-0.403l0.037,-0.402l0.039,-0.401l0.042,-0.401l0.045,-0.4l0.047,-0.399l0.049,-0.399l0.052,-0.397l0.054,-0.398l0.057,-0.396l0.059,-0.396l0.062,-0.394l0.064,-0.394l0.067,-0.394l0.069,-0.392l0.071,-0.392l0.074,-0.391l0.076,-0.39l0.078,-0.389l0.081,-0.388l0.083,-0.388l0.086,-0.386l0.088,-0.386l0.09,-0.385l0.092,-0.384l0.095,-0.383l0.097,-0.382l0.1,-0.382l0.102,-0.38l0.104,-0.379l0.106,-0.379l0.109,-0.378l0.11,-0.376l0.114,-0.376l0.115,-0.374l0.118,-0.374l0.119,-0.373l0.122,-0.371l0.125,-0.371l0.126,-0.37l0.129,-0.368l0.131,-0.368l0.133,-0.367l0.135,-0.365l0.137,-0.364l0.14,-0.364l0.141,-0.362l0.144,-0.361l0.146,-0.36l0.148,-0.359l0.151,-0.358l0.152,-0.357l0.154,-0.355l0.157,-0.355l0.158,-0.353l0.161,-0.353l0.163,-0.351l0.164,-0.35l0.167,-0.348l0.169,-0.348l0.171,-0.346l0.173,-0.345l0.175,-0.344l0.177,-0.343l0.179,-0.341l0.181,-0.341l0.183,-0.339l0.184,-0.337l0.187,-0.337l0.189,-0.335l0.191,-0.334l0.193,-0.333l0.194,-0.331l0.197,-0.33l0.199,-0.329l0.2,-0.328l0.202,-0.326l0.204,-0.325l0.207,-0.323l0.208,-0.323l0.21,-0.32l0.211,-0.32l0.214,-0.318l0.215,-0.317l0.218,-0.315l0.219,-0.314l0.221,-0.313l0.223,-0.311l0.224,-0.31l0.227,-0.308l0.228,-0.307l0.23,-0.306l0.232,-0.304l0.233,-0.302l0.235,-0.302l0.238,-0.299l0.238,-0.299l0.241,-0.296l0.242,-0.295l0.244,-0.295l0.246,-0.292l0.247,-0.291l0.25,-0.289l0.25,-0.288l0.253,-0.286l0.254,-0.285l0.256,-0.283l0.258,-0.282l0.259,-0.28l0.261,-0.279l0.262,-0.277l0.264,-0.275l0.266,-0.274l0.268,-0.272l0.269,-0.271l0.27,-0.269l0.273,-0.267l0.273,-0.266l0.276,-0.264l0.277,-0.263l0.278,-0.26l0.28,-0.26l0.282,-0.257l0.284,-0.256l0.284,-0.255l0.287,-0.252l0.287,-0.251l0.29,-0.249l0.291,-0.247l0.292,-0.246l0.294,-0.244l0.295,-0.243l0.297,-0.24l0.298,-0.239l0.3,-0.237l0.301,-0.235l0.303,-0.234l0.304,-0.232l0.305,-0.229l0.307,-0.229l0.309,-0.226l0.31,-0.225l0.311,-0.223l0.312,-0.221l0.315,-0.219l0.315,-0.217l0.317,-0.216l0.318,-0.213l0.319,-0.212l0.321,-0.21l0.322,-0.208l0.324,-0.206l0.325,-0.204l0.326,-0.203l0.327,-0.2l0.329,-0.199l0.33,-0.196l0.332,-0.195l0.332,-0.193l0.334,-0.19l0.336,-0.189l0.336,-0.187l0.338,-0.185l0.339,-0.183l0.34,-0.181l0.342,-0.179l0.342,-0.177l0.344,-0.175l0.345,-0.173l0.347,-0.17l0.347,-0.169l0.349,-0.167l0.35,-0.165l0.351,-0.163l0.352,-0.16l0.353,-0.159l0.355,-0.156l0.355,-0.155l0.357,-0.152l0.358,-0.15l0.359,-0.148l0.36,-0.146l0.361,-0.144l0.363,-0.142l0.363,-0.139l0.364,-0.138l0.366,-0.135l0.366,-0.133l0.368,-0.131l0.369,-0.128l0.37,-0.127l0.37,-0.124l0.372,-0.122l0.372,-0.12l0.374,-0.118l0.375,-0.115l0.375,-0.113l0.377,-0.111l0.378,-0.109l0.378,-0.106l0.379,-0.104l0.381,-0.102l0.381,-0.099l0.382,-0.097l0.383,-0.095l0.384,-0.093l0.385,-0.09l0.386,-0.088l0.387,-0.085l0.387,-0.083l0.389,-0.081l0.389,-0.079l0.39,-0.076l0.391,-0.074l0.391,-0.071l0.393,-0.069l0.393,-0.066l0.394,-0.064l0.395,-0.062l0.395,-0.059l0.397,-0.057l0.397,-0.054l0.398,-0.052l0.398,-0.05l0.4,-0.047l0.4,-0.044l0.4,-0.042l0.401,-0.04l0.402,-0.037l0.403,-0.034l0.403,-0.032l0.405,-0.03l0.404,-0.027l0.405,-0.024l0.406,-0.022l0.407,-0.02l0.407,-0.016l0.407,-0.014l0.409,-0.012l0.408,-0.009l0.41,-0.007l0.409,-0.004l0.411,-0.001l0.41,0.001Zm-0.763,9.013l-0.353,0.003l-0.352,0.006l-0.352,0.008l-0.351,0.01l-0.351,0.012l-0.35,0.014l-0.349,0.017l-0.349,0.019l-0.348,0.021l-0.348,0.023l-0.347,0.025l-0.346,0.028l-0.346,0.03l-0.345,0.031l-0.345,0.034l-0.344,0.036l-0.344,0.039l-0.342,0.04l-0.342,0.042l-0.342,0.045l-0.341,0.047l-0.34,0.048l-0.339,0.051l-0.339,0.053l-0.338,0.055l-0.337,0.057l-0.337,0.059l-0.336,0.061l-0.335,0.064l-0.335,0.065l-0.334,0.067l-0.333,0.07l-0.332,0.071l-0.332,0.073l-0.33,0.076l-0.331,0.077l-0.329,0.079l-0.328,0.082l-0.328,0.083l-0.327,0.085l-0.326,0.087l-0.326,0.09l-0.324,0.091l-0.324,0.093l-0.323,0.095l-0.322,0.097l-0.321,0.099l-0.32,0.101l-0.32,0.103l-0.319,0.104l-0.317,0.107l-0.317,0.108l-0.317,0.111l-0.315,0.112l-0.314,0.114l-0.313,0.116l-0.313,0.118l-0.312,0.119l-0.31,0.122l-0.31,0.123l-0.309,0.125l-0.308,0.127l-0.307,0.129l-0.306,0.131l-0.305,0.132l-0.304,0.134l-0.303,0.136l-0.302,0.138l-0.301,0.14l-0.3,0.141l-0.3,0.143l-0.298,0.145l-0.297,0.147l-0.296,0.148l-0.295,0.15l-0.294,0.152l-0.293,0.154l-0.292,0.155l-0.291,0.157l-0.29,0.159l-0.289,0.16l-0.288,0.162l-0.286,0.164l-0.286,0.165l-0.284,0.167l-0.284,0.169l-0.282,0.171l-0.281,0.172l-0.28,0.173l-0.279,0.176l-0.278,0.177l-0.277,0.178l-0.275,0.181l-0.275,0.181l-0.273,0.184l-0.272,0.185l-0.271,0.187l-0.269,0.188l-0.269,0.19l-0.267,0.191l-0.266,0.193l-0.265,0.194l-0.264,0.196l-0.262,0.198l-0.262,0.199l-0.26,0.201l-0.258,0.202l-0.258,0.204l-0.256,0.205l-0.255,0.206l-0.254,0.209l-0.252,0.209l-0.252,0.211l-0.25,0.213l-0.248,0.214l-0.247,0.216l-0.246,0.217l-0.245,0.218l-0.244,0.22l-0.242,0.221l-0.24,0.223l-0.24,0.224l-0.238,0.226l-0.236,0.227l-0.236,0.228l-0.234,0.23l-0.232,0.231l-0.231,0.233l-0.23,0.234l-0.229,0.235l-0.227,0.237l-0.225,0.238l-0.224,0.239l-0.223,0.241l-0.221,0.242l-0.22,0.243l-0.219,0.245l-0.217,0.246l-0.215,0.247l-0.214,0.249l-0.213,0.25l-0.211,0.251l-0.21,0.253l-0.208,0.253l-0.207,0.255l-0.205,0.257l-0.204,0.257l-0.202,0.259l-0.2,0.26l-0.2,0.261l-0.197,0.263l-0.196,0.263l-0.195,0.265l-0.193,0.266l-0.191,0.268l-0.19,0.268l-0.188,0.27l-0.187,0.271l-0.185,0.272l-0.183,0.273l-0.182,0.274l-0.18,0.276l-0.179,0.277l-0.177,0.277l-0.175,0.279l-0.174,0.28l-0.172,0.282l-0.17,0.282l-0.169,0.283l-0.167,0.285l-0.166,0.285l-0.163,0.287l-0.163,0.288l-0.16,0.289l-0.159,0.289l-0.157,0.291l-0.155,0.292l-0.153,0.293l-0.152,0.294l-0.15,0.296l-0.149,0.296l-0.146,0.297l-0.145,0.298l-0.143,0.299l-0.142,0.3l-0.139,0.301l-0.138,0.303l-0.136,0.303l-0.134,0.304l-0.133,0.305l-0.13,0.306l-0.129,0.307l-0.127,0.308l-0.125,0.308l-0.124,0.31l-0.121,0.311l-0.12,0.312l-0.118,0.312l-0.116,0.313l-0.114,0.315l-0.112,0.315l-0.11,0.316l-0.109,0.317l-0.106,0.318l-0.105,0.319l-0.103,0.319l-0.101,0.32l-0.098,0.322l-0.097,0.322l-0.096,0.323l-0.093,0.323l-0.091,0.325l-0.089,0.325l-0.087,0.326l-0.086,0.327l-0.083,0.328l-0.081,0.329l-0.08,0.329l-0.077,0.33l-0.075,0.331l-0.074,0.331l-0.071,0.333l-0.069,0.333l-0.068,0.334l-0.065,0.334l-0.063,0.335l-0.061,0.336l-0.059,0.337l-0.057,0.337l-0.055,0.339l-0.053,0.338l-0.051,0.34l-0.049,0.34l-0.047,0.341l-0.044,0.341l-0.043,0.342l-0.04,0.343l-0.038,0.343l-0.036,0.344l-0.034,0.345l-0.032,0.345l-0.03,0.346l-0.027,0.347l-0.025,0.347l-0.024,0.347l-0.021,0.349l-0.018,0.349l-0.017,0.349l-0.014,0.35l-0.013,0.351l-0.01,0.351l-0.008,0.351l-0.005,0.352l-0.003,0.353l-0.002,0.353l0.002,0.354l0.003,0.352l0.005,0.353l0.008,0.351l0.01,0.351l0.013,0.351l0.014,0.35l0.017,0.349l0.018,0.349l0.021,0.348l0.024,0.348l0.025,0.347l0.027,0.347l0.03,0.346l0.032,0.345l0.034,0.345l0.036,0.344l0.038,0.343l0.04,0.343l0.043,0.342l0.044,0.341l0.047,0.341l0.049,0.34l0.051,0.34l0.053,0.338l0.055,0.338l0.057,0.338l0.059,0.336l0.061,0.336l0.063,0.336l0.065,0.334l0.068,0.334l0.069,0.333l0.071,0.332l0.074,0.332l0.075,0.331l0.077,0.33l0.08,0.329l0.081,0.329l0.083,0.327l0.086,0.327l0.087,0.327l0.089,0.325l0.091,0.324l0.093,0.324l0.096,0.323l0.097,0.322l0.098,0.321l0.101,0.321l0.103,0.319l0.105,0.319l0.106,0.318l0.109,0.317l0.11,0.316l0.112,0.315l0.114,0.314l0.116,0.314l0.118,0.312l0.12,0.312l0.121,0.311l0.124,0.309l0.125,0.309l0.127,0.308l0.129,0.307l0.13,0.306l0.133,0.305l0.134,0.304l0.136,0.303l0.138,0.302l0.139,0.302l0.142,0.3l0.143,0.299l0.145,0.298l0.146,0.297l0.149,0.296l0.15,0.295l0.152,0.295l0.153,0.293l0.155,0.292l0.157,0.291l0.159,0.289l0.16,0.289l0.163,0.288l0.163,0.287l0.166,0.285l0.167,0.285l0.169,0.283l0.17,0.282l0.172,0.282l0.174,0.28l0.175,0.279l0.177,0.277l0.179,0.277l0.18,0.276l0.182,0.274l0.183,0.273l0.185,0.272l0.187,0.271l0.188,0.27l0.19,0.268l0.191,0.268l0.193,0.266l0.195,0.265l0.196,0.263l0.197,0.263l0.2,0.261l0.2,0.26l0.202,0.259l0.204,0.257l0.205,0.257l0.207,0.255l0.208,0.253l0.21,0.253l0.211,0.251l0.213,0.25l0.214,0.249l0.215,0.247l0.217,0.246l0.219,0.245l0.22,0.243l0.221,0.242l0.223,0.241l0.224,0.239l0.225,0.238l0.227,0.237l0.229,0.235l0.23,0.234l0.231,0.233l0.232,0.231l0.234,0.23l0.236,0.228l0.236,0.227l0.238,0.226l0.24,0.224l0.24,0.223l0.242,0.221l0.244,0.22l0.245,0.218l0.246,0.217l0.247,0.216l0.248,0.214l0.25,0.213l0.252,0.211l0.252,0.209l0.254,0.209l0.255,0.206l0.256,0.205l0.258,0.204l0.258,0.202l0.26,0.201l0.262,0.199l0.262,0.198l0.264,0.196l0.265,0.194l0.266,0.193l0.267,0.191l0.269,0.19l0.269,0.188l0.271,0.187l0.272,0.185l0.273,0.183l0.275,0.182l0.275,0.181l0.277,0.178l0.278,0.177l0.279,0.176l0.28,0.173l0.281,0.172l0.282,0.171l0.284,0.169l0.284,0.167l0.286,0.165l0.286,0.164l0.288,0.162l0.289,0.16l0.29,0.159l0.291,0.157l0.292,0.155l0.293,0.154l0.294,0.152l0.295,0.15l0.296,0.148l0.297,0.147l0.298,0.145l0.3,0.143l0.3,0.141l0.301,0.14l0.302,0.138l0.303,0.136l0.304,0.134l0.305,0.132l0.306,0.131l0.307,0.129l0.308,0.127l0.309,0.125l0.31,0.123l0.31,0.122l0.312,0.119l0.313,0.118l0.313,0.116l0.314,0.114l0.315,0.112l0.317,0.111l0.317,0.108l0.317,0.107l0.319,0.104l0.32,0.103l0.32,0.101l0.321,0.099l0.322,0.097l0.323,0.095l0.324,0.093l0.324,0.091l0.326,0.089l0.326,0.088l0.327,0.085l0.328,0.083l0.328,0.082l0.329,0.079l0.331,0.077l0.33,0.076l0.332,0.073l0.332,0.071l0.333,0.07l0.334,0.067l0.335,0.065l0.335,0.063l0.336,0.062l0.337,0.059l0.337,0.057l0.338,0.055l0.339,0.053l0.339,0.051l0.34,0.048l0.341,0.047l0.342,0.045l0.342,0.042l0.342,0.04l0.344,0.039l0.344,0.036l0.345,0.034l0.345,0.031l0.346,0.03l0.346,0.027l0.347,0.026l0.348,0.023l0.348,0.021l0.349,0.019l0.349,0.016l0.35,0.015l0.351,0.012l0.351,0.01l0.352,0.008l0.352,0.006l0.353,0.003l0.353,0.001l0.353,-0.001l0.353,-0.003l0.352,-0.006l0.352,-0.008l0.351,-0.01l0.35,-0.012l0.35,-0.015l0.35,-0.016l0.349,-0.019l0.348,-0.021l0.348,-0.023l0.347,-0.026l0.346,-0.027l0.346,-0.03l0.345,-0.031l0.345,-0.034l0.344,-0.036l0.343,-0.039l0.343,-0.04l0.342,-0.042l0.342,-0.045l0.341,-0.047l0.34,-0.048l0.339,-0.051l0.339,-0.053l0.338,-0.055l0.337,-0.057l0.337,-0.059l0.336,-0.062l0.335,-0.063l0.335,-0.065l0.334,-0.067l0.333,-0.07l0.332,-0.071l0.332,-0.073l0.33,-0.076l0.33,-0.077l0.33,-0.079l0.328,-0.082l0.328,-0.083l0.327,-0.085l0.326,-0.088l0.325,-0.089l0.325,-0.091l0.324,-0.093l0.323,-0.095l0.322,-0.097l0.321,-0.099l0.32,-0.101l0.32,-0.103l0.319,-0.104l0.317,-0.107l0.317,-0.108l0.316,-0.111l0.316,-0.112l0.314,-0.114l0.313,-0.116l0.313,-0.118l0.311,-0.119l0.311,-0.122l0.31,-0.123l0.309,-0.125l0.308,-0.127l0.307,-0.129l0.306,-0.131l0.305,-0.132l0.304,-0.134l0.303,-0.136l0.302,-0.138l0.301,-0.14l0.3,-0.141l0.299,-0.143l0.299,-0.145l0.297,-0.147l0.296,-0.148l0.295,-0.15l0.294,-0.152l0.293,-0.154l0.292,-0.155l0.291,-0.157l0.29,-0.159l0.289,-0.16l0.287,-0.162l0.287,-0.164l0.286,-0.165l0.284,-0.167l0.284,-0.169l0.282,-0.171l0.281,-0.172l0.28,-0.173l0.279,-0.176l0.278,-0.177l0.277,-0.178l0.275,-0.181l0.274,-0.182l0.274,-0.183l0.272,-0.185l0.271,-0.187l0.269,-0.188l0.269,-0.19l0.267,-0.191l0.266,-0.193l0.265,-0.194l0.264,-0.196l0.262,-0.198l0.261,-0.199l0.26,-0.201l0.259,-0.202l0.258,-0.204l0.256,-0.205l0.255,-0.206l0.254,-0.209l0.252,-0.209l0.251,-0.211l0.25,-0.213l0.249,-0.214l0.247,-0.216l0.246,-0.217l0.245,-0.218l0.243,-0.22l0.242,-0.221l0.241,-0.223l0.24,-0.224l0.238,-0.226l0.236,-0.227l0.236,-0.228l0.234,-0.23l0.232,-0.231l0.231,-0.233l0.23,-0.234l0.228,-0.235l0.227,-0.237l0.226,-0.238l0.224,-0.239l0.223,-0.241l0.221,-0.242l0.22,-0.243l0.219,-0.245l0.217,-0.246l0.215,-0.247l0.214,-0.249l0.213,-0.25l0.211,-0.251l0.21,-0.253l0.208,-0.253l0.207,-0.255l0.205,-0.257l0.204,-0.257l0.202,-0.259l0.2,-0.26l0.199,-0.261l0.198,-0.263l0.196,-0.263l0.195,-0.265l0.192,-0.266l0.192,-0.268l0.19,-0.268l0.188,-0.27l0.186,-0.271l0.186,-0.272l0.183,-0.273l0.182,-0.274l0.18,-0.276l0.179,-0.277l0.177,-0.277l0.175,-0.279l0.174,-0.28l0.172,-0.282l0.17,-0.282l0.169,-0.283l0.167,-0.285l0.166,-0.285l0.163,-0.287l0.162,-0.288l0.161,-0.289l0.159,-0.289l0.157,-0.291l0.155,-0.292l0.153,-0.293l0.152,-0.295l0.15,-0.295l0.149,-0.296l0.146,-0.297l0.145,-0.298l0.143,-0.299l0.142,-0.3l0.139,-0.302l0.138,-0.302l0.136,-0.303l0.134,-0.304l0.133,-0.305l0.13,-0.306l0.129,-0.307l0.127,-0.308l0.125,-0.309l0.124,-0.309l0.121,-0.311l0.12,-0.312l0.118,-0.312l0.116,-0.314l0.114,-0.314l0.112,-0.315l0.11,-0.316l0.109,-0.317l0.106,-0.318l0.105,-0.319l0.103,-0.319l0.1,-0.321l0.099,-0.321l0.097,-0.322l0.095,-0.323l0.094,-0.324l0.091,-0.324l0.089,-0.325l0.087,-0.327l0.085,-0.327l0.084,-0.327l0.081,-0.329l0.079,-0.329l0.078,-0.33l0.075,-0.331l0.074,-0.332l0.071,-0.332l0.069,-0.333l0.068,-0.334l0.065,-0.334l0.063,-0.336l0.061,-0.336l0.059,-0.336l0.057,-0.338l0.055,-0.338l0.053,-0.338l0.051,-0.34l0.049,-0.34l0.046,-0.341l0.045,-0.341l0.042,-0.342l0.041,-0.343l0.038,-0.343l0.036,-0.344l0.034,-0.345l0.032,-0.345l0.029,-0.346l0.028,-0.347l0.025,-0.347l0.023,-0.348l0.021,-0.348l0.019,-0.349l0.017,-0.349l0.014,-0.35l0.013,-0.351l0.01,-0.351l0.007,-0.351l0.006,-0.353l0.003,-0.352l0.001,-0.354l-0.001,-0.353l-0.003,-0.353l-0.006,-0.352l-0.007,-0.351l-0.01,-0.351l-0.013,-0.351l-0.014,-0.35l-0.017,-0.349l-0.019,-0.349l-0.021,-0.349l-0.023,-0.347l-0.025,-0.347l-0.028,-0.347l-0.029,-0.346l-0.032,-0.345l-0.034,-0.345l-0.036,-0.344l-0.038,-0.343l-0.041,-0.343l-0.042,-0.342l-0.045,-0.341l-0.046,-0.341l-0.049,-0.34l-0.051,-0.34l-0.053,-0.338l-0.055,-0.339l-0.057,-0.337l-0.059,-0.337l-0.061,-0.336l-0.063,-0.335l-0.065,-0.334l-0.068,-0.334l-0.069,-0.333l-0.071,-0.333l-0.074,-0.331l-0.075,-0.331l-0.078,-0.33l-0.079,-0.329l-0.081,-0.329l-0.084,-0.328l-0.085,-0.327l-0.087,-0.326l-0.089,-0.325l-0.091,-0.325l-0.094,-0.323l-0.095,-0.323l-0.097,-0.322l-0.099,-0.322l-0.1,-0.32l-0.103,-0.319l-0.105,-0.319l-0.106,-0.318l-0.109,-0.317l-0.11,-0.316l-0.112,-0.315l-0.114,-0.315l-0.116,-0.313l-0.118,-0.312l-0.12,-0.312l-0.121,-0.311l-0.124,-0.31l-0.125,-0.308l-0.127,-0.308l-0.129,-0.307l-0.13,-0.306l-0.133,-0.305l-0.134,-0.304l-0.136,-0.303l-0.138,-0.303l-0.139,-0.301l-0.142,-0.3l-0.143,-0.299l-0.145,-0.298l-0.146,-0.297l-0.149,-0.296l-0.15,-0.296l-0.152,-0.294l-0.153,-0.293l-0.155,-0.292l-0.157,-0.291l-0.159,-0.289l-0.161,-0.289l-0.162,-0.288l-0.163,-0.287l-0.166,-0.285l-0.167,-0.285l-0.169,-0.283l-0.17,-0.282l-0.172,-0.282l-0.174,-0.28l-0.175,-0.279l-0.177,-0.277l-0.179,-0.277l-0.18,-0.276l-0.182,-0.274l-0.183,-0.273l-0.186,-0.272l-0.186,-0.271l-0.188,-0.27l-0.19,-0.268l-0.192,-0.268l-0.192,-0.266l-0.195,-0.265l-0.196,-0.263l-0.198,-0.263l-0.199,-0.261l-0.2,-0.26l-0.202,-0.259l-0.204,-0.257l-0.205,-0.257l-0.207,-0.255l-0.208,-0.253l-0.21,-0.253l-0.211,-0.251l-0.213,-0.25l-0.214,-0.249l-0.215,-0.247l-0.217,-0.246l-0.219,-0.245l-0.22,-0.243l-0.221,-0.242l-0.223,-0.241l-0.224,-0.239l-0.226,-0.238l-0.227,-0.237l-0.228,-0.235l-0.23,-0.234l-0.231,-0.233l-0.232,-0.231l-0.234,-0.23l-0.236,-0.228l-0.236,-0.227l-0.238,-0.226l-0.24,-0.224l-0.241,-0.223l-0.242,-0.221l-0.243,-0.22l-0.245,-0.218l-0.246,-0.217l-0.247,-0.216l-0.249,-0.214l-0.25,-0.213l-0.251,-0.211l-0.252,-0.209l-0.254,-0.209l-0.255,-0.206l-0.256,-0.205l-0.258,-0.204l-0.259,-0.202l-0.26,-0.201l-0.261,-0.199l-0.262,-0.198l-0.264,-0.196l-0.265,-0.194l-0.266,-0.193l-0.267,-0.191l-0.269,-0.19l-0.269,-0.188l-0.271,-0.187l-0.272,-0.185l-0.274,-0.184l-0.274,-0.181l-0.275,-0.181l-0.277,-0.178l-0.278,-0.177l-0.279,-0.176l-0.28,-0.173l-0.281,-0.172l-0.282,-0.171l-0.284,-0.169l-0.284,-0.167l-0.286,-0.165l-0.287,-0.164l-0.287,-0.162l-0.289,-0.16l-0.29,-0.159l-0.291,-0.157l-0.292,-0.155l-0.293,-0.154l-0.294,-0.152l-0.295,-0.15l-0.296,-0.148l-0.297,-0.147l-0.299,-0.145l-0.299,-0.143l-0.3,-0.141l-0.301,-0.14l-0.302,-0.138l-0.303,-0.136l-0.304,-0.134l-0.305,-0.132l-0.306,-0.131l-0.307,-0.129l-0.308,-0.127l-0.309,-0.125l-0.31,-0.123l-0.311,-0.122l-0.311,-0.119l-0.313,-0.118l-0.313,-0.116l-0.314,-0.114l-0.316,-0.112l-0.316,-0.111l-0.317,-0.108l-0.317,-0.107l-0.319,-0.104l-0.32,-0.103l-0.32,-0.101l-0.321,-0.099l-0.322,-0.097l-0.323,-0.095l-0.324,-0.093l-0.325,-0.091l-0.325,-0.09l-0.326,-0.087l-0.327,-0.085l-0.328,-0.083l-0.328,-0.082l-0.33,-0.079l-0.33,-0.077l-0.33,-0.076l-0.332,-0.073l-0.332,-0.071l-0.333,-0.07l-0.334,-0.067l-0.335,-0.065l-0.335,-0.064l-0.336,-0.061l-0.337,-0.059l-0.337,-0.057l-0.338,-0.055l-0.339,-0.053l-0.339,-0.051l-0.34,-0.048l-0.341,-0.047l-0.342,-0.045l-0.342,-0.042l-0.343,-0.04l-0.343,-0.039l-0.344,-0.036l-0.345,-0.034l-0.345,-0.031l-0.346,-0.03l-0.346,-0.028l-0.347,-0.025l-0.348,-0.023l-0.348,-0.021l-0.349,-0.019l-0.35,-0.017l-0.35,-0.014l-0.35,-0.012l-0.351,-0.01l-0.352,-0.008l-0.352,-0.006l-0.353,-0.003l-0.353,-0.001l-0.353,0.001Z" style="fill:#3d3d3d;"/>
                <circle cx="314.106" cy="345.527" r="30.669" style="fill:#3d3d3d;"/>
                <circle cx="320.625" cy="334.95" r="14.439" style="fill:#e7e7e7;"/>
            </g>
            <g>
                <circle cx="439.752" cy="320.511" r="54.658" style="fill:#e7e7e7;"/>
                <path d="M440.162,256.842l0.41,0.004l0.409,0.006l0.409,0.01l0.408,0.011l0.408,0.014l0.407,0.017l0.407,0.02l0.405,0.021l0.406,0.025l0.404,0.027l0.404,0.029l0.404,0.032l0.402,0.035l0.402,0.037l0.402,0.039l0.4,0.042l0.4,0.045l0.4,0.047l0.398,0.049l0.398,0.052l0.397,0.055l0.396,0.056l0.396,0.06l0.395,0.061l0.394,0.064l0.393,0.067l0.392,0.069l0.392,0.071l0.391,0.074l0.39,0.076l0.389,0.078l0.388,0.081l0.388,0.083l0.386,0.086l0.386,0.088l0.385,0.09l0.384,0.093l0.383,0.094l0.383,0.098l0.381,0.099l0.38,0.102l0.38,0.104l0.378,0.106l0.378,0.109l0.376,0.111l0.376,0.113l0.375,0.115l0.373,0.118l0.373,0.12l0.372,0.122l0.37,0.124l0.37,0.126l0.369,0.129l0.367,0.131l0.367,0.133l0.365,0.135l0.365,0.138l0.363,0.139l0.363,0.142l0.36,0.143l0.361,0.147l0.359,0.148l0.357,0.15l0.357,0.152l0.356,0.154l0.355,0.157l0.353,0.158l0.352,0.161l0.351,0.163l0.35,0.165l0.348,0.166l0.348,0.169l0.347,0.171l0.344,0.173l0.344,0.175l0.343,0.177l0.341,0.179l0.341,0.181l0.339,0.183l0.338,0.185l0.336,0.187l0.335,0.188l0.334,0.191l0.333,0.193l0.332,0.195l0.329,0.196l0.329,0.199l0.328,0.2l0.326,0.203l0.325,0.204l0.324,0.206l0.322,0.208l0.32,0.21l0.32,0.212l0.318,0.213l0.317,0.216l0.315,0.217l0.314,0.219l0.313,0.221l0.311,0.223l0.31,0.224l0.308,0.227l0.307,0.228l0.306,0.23l0.304,0.232l0.302,0.233l0.302,0.236l0.3,0.237l0.298,0.239l0.296,0.24l0.296,0.242l0.294,0.245l0.292,0.245l0.291,0.248l0.289,0.249l0.288,0.251l0.287,0.252l0.284,0.254l0.283,0.256l0.282,0.258l0.28,0.259l0.278,0.261l0.278,0.262l0.275,0.265l0.274,0.266l0.272,0.267l0.271,0.269l0.269,0.271l0.267,0.272l0.266,0.274l0.265,0.275l0.262,0.277l0.261,0.279l0.259,0.28l0.258,0.282l0.255,0.283l0.255,0.284l0.252,0.287l0.251,0.287l0.249,0.29l0.248,0.291l0.246,0.292l0.244,0.294l0.242,0.295l0.24,0.297l0.239,0.298l0.237,0.3l0.236,0.301l0.233,0.303l0.232,0.304l0.23,0.305l0.228,0.308l0.227,0.308l0.224,0.31l0.223,0.311l0.221,0.313l0.219,0.314l0.217,0.315l0.216,0.317l0.213,0.318l0.212,0.32l0.21,0.321l0.208,0.322l0.206,0.323l0.204,0.325l0.203,0.326l0.2,0.328l0.199,0.328l0.196,0.331l0.195,0.331l0.193,0.333l0.191,0.334l0.188,0.335l0.187,0.337l0.185,0.337l0.183,0.339l0.181,0.341l0.179,0.341l0.177,0.342l0.175,0.344l0.173,0.346l0.171,0.346l0.168,0.347l0.167,0.349l0.165,0.35l0.163,0.351l0.161,0.352l0.158,0.353l0.156,0.355l0.155,0.356l0.152,0.356l0.15,0.358l0.149,0.36l0.145,0.359l0.144,0.361l0.142,0.363l0.139,0.363l0.138,0.365l0.135,0.365l0.133,0.366l0.131,0.368l0.129,0.369l0.126,0.37l0.124,0.37l0.122,0.372l0.12,0.372l0.118,0.374l0.115,0.375l0.113,0.375l0.111,0.378l0.109,0.377l0.106,0.378l0.104,0.38l0.102,0.38l0.099,0.381l0.098,0.383l0.094,0.383l0.093,0.384l0.09,0.385l0.088,0.386l0.085,0.386l0.084,0.388l0.081,0.388l0.078,0.389l0.076,0.39l0.074,0.391l0.071,0.392l0.069,0.392l0.066,0.393l0.065,0.394l0.061,0.395l0.059,0.396l0.057,0.396l0.055,0.397l0.052,0.398l0.049,0.399l0.047,0.399l0.044,0.4l0.042,0.4l0.04,0.402l0.037,0.402l0.035,0.403l0.032,0.402l0.029,0.405l0.027,0.404l0.024,0.405l0.022,0.406l0.02,0.407l0.016,0.407l0.015,0.408l0.011,0.408l0.009,0.408l0.007,0.41l0.004,0.41l0.001,0.41l-0.001,0.411l-0.004,0.409l-0.007,0.41l-0.009,0.408l-0.011,0.409l-0.015,0.408l-0.016,0.406l-0.02,0.407l-0.022,0.406l-0.024,0.405l-0.027,0.405l-0.029,0.404l-0.032,0.403l-0.035,0.403l-0.037,0.402l-0.04,0.401l-0.042,0.401l-0.044,0.4l-0.047,0.399l-0.049,0.399l-0.052,0.397l-0.055,0.397l-0.057,0.397l-0.059,0.395l-0.061,0.395l-0.065,0.394l-0.066,0.394l-0.069,0.392l-0.071,0.391l-0.074,0.391l-0.076,0.39l-0.078,0.389l-0.081,0.389l-0.084,0.388l-0.085,0.386l-0.088,0.386l-0.09,0.385l-0.093,0.384l-0.095,0.383l-0.097,0.382l-0.099,0.381l-0.102,0.381l-0.104,0.38l-0.106,0.377l-0.109,0.378l-0.111,0.377l-0.113,0.376l-0.115,0.374l-0.118,0.374l-0.12,0.373l-0.122,0.371l-0.124,0.37l-0.126,0.37l-0.129,0.369l-0.131,0.368l-0.133,0.366l-0.135,0.366l-0.138,0.364l-0.139,0.363l-0.142,0.363l-0.144,0.361l-0.145,0.36l-0.149,0.359l-0.15,0.358l-0.152,0.357l-0.155,0.355l-0.156,0.355l-0.158,0.353l-0.161,0.352l-0.163,0.351l-0.165,0.35l-0.167,0.349l-0.168,0.348l-0.171,0.346l-0.173,0.345l-0.175,0.344l-0.177,0.343l-0.179,0.341l-0.181,0.34l-0.183,0.339l-0.185,0.338l-0.187,0.337l-0.189,0.335l-0.19,0.334l-0.193,0.332l-0.195,0.332l-0.196,0.33l-0.199,0.329l-0.2,0.327l-0.203,0.327l-0.204,0.324l-0.206,0.324l-0.208,0.322l-0.21,0.321l-0.212,0.32l-0.213,0.318l-0.216,0.316l-0.217,0.316l-0.219,0.314l-0.221,0.312l-0.223,0.311l-0.224,0.31l-0.227,0.309l-0.228,0.307l-0.23,0.305l-0.232,0.304l-0.233,0.303l-0.236,0.301l-0.237,0.3l-0.239,0.299l-0.24,0.296l-0.242,0.295l-0.244,0.294l-0.246,0.292l-0.248,0.291l-0.249,0.29l-0.251,0.288l-0.252,0.286l-0.255,0.285l-0.255,0.283l-0.258,0.282l-0.259,0.28l-0.261,0.278l-0.263,0.277l-0.264,0.276l-0.266,0.274l-0.267,0.272l-0.269,0.27l-0.271,0.269l-0.272,0.268l-0.274,0.266l-0.275,0.264l-0.278,0.263l-0.278,0.26l-0.28,0.259l-0.282,0.258l-0.283,0.256l-0.284,0.254l-0.287,0.253l-0.288,0.25l-0.289,0.25l-0.291,0.247l-0.292,0.246l-0.294,0.244l-0.295,0.242l-0.297,0.24l-0.299,0.24l-0.299,0.237l-0.302,0.235l-0.302,0.234l-0.304,0.231l-0.306,0.23l-0.307,0.229l-0.308,0.226l-0.31,0.225l-0.311,0.222l-0.313,0.221l-0.313,0.219l-0.316,0.218l-0.317,0.215l-0.318,0.214l-0.32,0.212l-0.321,0.21l-0.321,0.207l-0.324,0.207l-0.325,0.204l-0.326,0.202l-0.328,0.201l-0.328,0.198l-0.331,0.197l-0.331,0.195l-0.332,0.192l-0.335,0.191l-0.335,0.189l-0.337,0.187l-0.337,0.185l-0.339,0.183l-0.34,0.18l-0.342,0.179l-0.343,0.177l-0.344,0.175l-0.345,0.173l-0.346,0.171l-0.347,0.169l-0.349,0.167l-0.35,0.164l-0.351,0.163l-0.353,0.161l-0.352,0.158l-0.355,0.157l-0.356,0.154l-0.356,0.153l-0.358,0.15l-0.36,0.148l-0.359,0.146l-0.361,0.144l-0.363,0.141l-0.363,0.14l-0.364,0.137l-0.366,0.135l-0.367,0.133l-0.367,0.131l-0.369,0.129l-0.37,0.127l-0.37,0.124l-0.372,0.122l-0.372,0.119l-0.374,0.118l-0.375,0.116l-0.375,0.113l-0.378,0.111l-0.377,0.108l-0.378,0.106l-0.38,0.105l-0.38,0.101l-0.381,0.1l-0.383,0.097l-0.383,0.095l-0.384,0.092l-0.385,0.091l-0.386,0.087l-0.386,0.086l-0.388,0.083l-0.388,0.081l-0.389,0.078l-0.39,0.076l-0.391,0.074l-0.392,0.071l-0.392,0.069l-0.393,0.067l-0.394,0.064l-0.396,0.062l-0.395,0.059l-0.396,0.057l-0.397,0.054l-0.398,0.052l-0.399,0.049l-0.399,0.047l-0.4,0.045l-0.4,0.042l-0.402,0.039l-0.402,0.038l-0.403,0.034l-0.402,0.032l-0.405,0.03l-0.405,0.026l-0.404,0.025l-0.406,0.022l-0.407,0.019l-0.407,0.017l-0.408,0.014l-0.408,0.012l-0.408,0.009l-0.41,0.006l-0.41,0.004l-0.41,0.002l-0.411,-0.002l-0.409,-0.004l-0.41,-0.006l-0.408,-0.009l-0.409,-0.012l-0.408,-0.014l-0.406,-0.017l-0.407,-0.019l-0.406,-0.022l-0.405,-0.025l-0.405,-0.026l-0.404,-0.03l-0.403,-0.032l-0.403,-0.034l-0.402,-0.038l-0.401,-0.039l-0.401,-0.042l-0.4,-0.045l-0.399,-0.047l-0.399,-0.049l-0.397,-0.052l-0.397,-0.054l-0.397,-0.057l-0.395,-0.059l-0.395,-0.062l-0.394,-0.064l-0.394,-0.067l-0.392,-0.069l-0.391,-0.071l-0.391,-0.074l-0.39,-0.076l-0.389,-0.078l-0.389,-0.081l-0.388,-0.083l-0.386,-0.086l-0.386,-0.087l-0.385,-0.091l-0.384,-0.092l-0.383,-0.095l-0.382,-0.097l-0.381,-0.1l-0.381,-0.102l-0.379,-0.104l-0.378,-0.106l-0.378,-0.108l-0.377,-0.111l-0.376,-0.113l-0.374,-0.116l-0.374,-0.118l-0.373,-0.119l-0.371,-0.122l-0.37,-0.124l-0.37,-0.127l-0.369,-0.129l-0.368,-0.131l-0.366,-0.133l-0.366,-0.135l-0.364,-0.137l-0.363,-0.14l-0.363,-0.141l-0.361,-0.144l-0.36,-0.146l-0.359,-0.148l-0.358,-0.15l-0.357,-0.153l-0.356,-0.154l-0.354,-0.157l-0.353,-0.158l-0.352,-0.161l-0.351,-0.162l-0.35,-0.165l-0.349,-0.167l-0.348,-0.169l-0.346,-0.171l-0.345,-0.173l-0.344,-0.175l-0.343,-0.177l-0.341,-0.179l-0.34,-0.18l-0.339,-0.183l-0.338,-0.185l-0.336,-0.187l-0.336,-0.189l-0.334,-0.191l-0.333,-0.193l-0.331,-0.194l-0.33,-0.197l-0.329,-0.198l-0.328,-0.201l-0.326,-0.203l-0.324,-0.203l-0.324,-0.207l-0.322,-0.207l-0.321,-0.21l-0.319,-0.212l-0.319,-0.214l-0.316,-0.215l-0.316,-0.218l-0.314,-0.219l-0.312,-0.221l-0.311,-0.222l-0.31,-0.225l-0.309,-0.226l-0.307,-0.229l-0.305,-0.23l-0.304,-0.231l-0.303,-0.234l-0.301,-0.235l-0.3,-0.237l-0.299,-0.24l-0.296,-0.24l-0.295,-0.242l-0.294,-0.244l-0.292,-0.246l-0.291,-0.247l-0.29,-0.25l-0.288,-0.25l-0.286,-0.253l-0.285,-0.254l-0.283,-0.256l-0.282,-0.258l-0.28,-0.259l-0.278,-0.261l-0.277,-0.262l-0.275,-0.264l-0.275,-0.266l-0.272,-0.268l-0.27,-0.269l-0.27,-0.27l-0.267,-0.273l-0.266,-0.273l-0.264,-0.275l-0.262,-0.278l-0.261,-0.278l-0.259,-0.28l-0.258,-0.282l-0.256,-0.283l-0.254,-0.285l-0.253,-0.286l-0.251,-0.288l-0.249,-0.29l-0.247,-0.29l-0.246,-0.293l-0.244,-0.294l-0.242,-0.295l-0.241,-0.297l-0.239,-0.298l-0.237,-0.3l-0.235,-0.301l-0.233,-0.302l-0.232,-0.305l-0.23,-0.306l-0.229,-0.306l-0.226,-0.308l-0.225,-0.311l-0.222,-0.311l-0.221,-0.312l-0.22,-0.314l-0.217,-0.316l-0.215,-0.316l-0.214,-0.319l-0.212,-0.319l-0.209,-0.321l-0.209,-0.322l-0.206,-0.324l-0.204,-0.325l-0.202,-0.326l-0.2,-0.327l-0.199,-0.329l-0.197,-0.33l-0.195,-0.332l-0.192,-0.332l-0.191,-0.334l-0.189,-0.335l-0.187,-0.337l-0.185,-0.338l-0.183,-0.339l-0.181,-0.34l-0.178,-0.341l-0.177,-0.343l-0.175,-0.344l-0.173,-0.345l-0.171,-0.346l-0.169,-0.348l-0.167,-0.349l-0.164,-0.349l-0.163,-0.352l-0.161,-0.352l-0.158,-0.353l-0.157,-0.355l-0.154,-0.355l-0.153,-0.357l-0.15,-0.358l-0.148,-0.359l-0.146,-0.36l-0.144,-0.361l-0.141,-0.363l-0.14,-0.363l-0.137,-0.364l-0.135,-0.366l-0.133,-0.366l-0.131,-0.368l-0.129,-0.369l-0.126,-0.369l-0.125,-0.371l-0.122,-0.371l-0.12,-0.373l-0.117,-0.374l-0.116,-0.375l-0.113,-0.375l-0.111,-0.377l-0.108,-0.377l-0.106,-0.378l-0.105,-0.38l-0.101,-0.381l-0.1,-0.381l-0.097,-0.382l-0.095,-0.383l-0.092,-0.384l-0.091,-0.385l-0.087,-0.386l-0.086,-0.386l-0.083,-0.388l-0.081,-0.389l-0.078,-0.389l-0.076,-0.39l-0.074,-0.391l-0.072,-0.392l-0.068,-0.391l-0.067,-0.394l-0.064,-0.394l-0.062,-0.395l-0.059,-0.395l-0.057,-0.397l-0.054,-0.397l-0.052,-0.397l-0.05,-0.399l-0.046,-0.399l-0.045,-0.4l-0.042,-0.401l-0.04,-0.402l-0.037,-0.401l-0.034,-0.403l-0.032,-0.403l-0.03,-0.404l-0.027,-0.405l-0.024,-0.405l-0.022,-0.406l-0.019,-0.407l-0.017,-0.407l-0.014,-0.407l-0.012,-0.408l-0.009,-0.409l-0.006,-0.41l-0.004,-0.41l-0.002,-0.41l0.002,-0.41l0.004,-0.41l0.006,-0.41l0.009,-0.408l0.012,-0.408l0.014,-0.408l0.017,-0.407l0.019,-0.407l0.022,-0.406l0.024,-0.405l0.027,-0.404l0.03,-0.405l0.032,-0.403l0.034,-0.402l0.037,-0.402l0.04,-0.402l0.042,-0.4l0.045,-0.4l0.046,-0.399l0.05,-0.399l0.052,-0.398l0.054,-0.397l0.057,-0.396l0.059,-0.396l0.062,-0.395l0.064,-0.394l0.067,-0.393l0.068,-0.392l0.072,-0.392l0.074,-0.391l0.076,-0.39l0.078,-0.389l0.081,-0.388l0.083,-0.388l0.086,-0.387l0.087,-0.385l0.091,-0.385l0.092,-0.384l0.095,-0.383l0.097,-0.383l0.1,-0.381l0.101,-0.38l0.105,-0.38l0.106,-0.378l0.108,-0.378l0.111,-0.376l0.113,-0.376l0.116,-0.375l0.117,-0.374l0.12,-0.372l0.122,-0.372l0.125,-0.371l0.126,-0.369l0.129,-0.368l0.131,-0.369l0.133,-0.366l0.135,-0.365l0.137,-0.365l0.14,-0.363l0.141,-0.363l0.144,-0.361l0.146,-0.359l0.148,-0.36l0.15,-0.358l0.153,-0.356l0.154,-0.356l0.157,-0.355l0.158,-0.353l0.161,-0.352l0.163,-0.352l0.164,-0.349l0.167,-0.348l0.169,-0.348l0.171,-0.346l0.173,-0.346l0.175,-0.344l0.177,-0.342l0.178,-0.341l0.181,-0.341l0.183,-0.339l0.185,-0.338l0.187,-0.336l0.189,-0.335l0.191,-0.334l0.192,-0.333l0.195,-0.331l0.197,-0.331l0.199,-0.329l0.2,-0.327l0.202,-0.326l0.204,-0.325l0.206,-0.323l0.209,-0.323l0.209,-0.32l0.212,-0.32l0.214,-0.318l0.215,-0.317l0.217,-0.315l0.22,-0.314l0.221,-0.313l0.222,-0.311l0.225,-0.31l0.226,-0.308l0.229,-0.307l0.23,-0.306l0.232,-0.304l0.233,-0.303l0.235,-0.301l0.237,-0.3l0.239,-0.298l0.241,-0.297l0.242,-0.295l0.244,-0.294l0.246,-0.293l0.247,-0.29l0.249,-0.289l0.251,-0.288l0.253,-0.287l0.254,-0.284l0.256,-0.283l0.258,-0.282l0.259,-0.28l0.261,-0.279l0.262,-0.277l0.264,-0.275l0.266,-0.274l0.267,-0.272l0.27,-0.271l0.27,-0.269l0.272,-0.267l0.275,-0.267l0.275,-0.264l0.277,-0.262l0.278,-0.261l0.28,-0.259l0.282,-0.258l0.283,-0.256l0.285,-0.254l0.286,-0.252l0.288,-0.251l0.29,-0.249l0.291,-0.248l0.292,-0.245l0.293,-0.244l0.296,-0.243l0.296,-0.24l0.299,-0.239l0.3,-0.237l0.301,-0.236l0.303,-0.233l0.304,-0.232l0.305,-0.23l0.307,-0.228l0.309,-0.227l0.309,-0.224l0.311,-0.223l0.313,-0.221l0.314,-0.219l0.316,-0.217l0.316,-0.216l0.319,-0.213l0.319,-0.212l0.321,-0.21l0.322,-0.208l0.324,-0.206l0.324,-0.204l0.327,-0.203l0.327,-0.2l0.329,-0.199l0.33,-0.196l0.331,-0.195l0.333,-0.193l0.334,-0.191l0.336,-0.188l0.336,-0.187l0.338,-0.185l0.339,-0.183l0.34,-0.181l0.341,-0.179l0.343,-0.177l0.344,-0.175l0.345,-0.173l0.346,-0.171l0.348,-0.168l0.349,-0.167l0.35,-0.165l0.351,-0.163l0.352,-0.161l0.353,-0.158l0.354,-0.156l0.356,-0.155l0.357,-0.152l0.358,-0.15l0.359,-0.148l0.36,-0.147l0.361,-0.143l0.362,-0.142l0.364,-0.139l0.364,-0.138l0.366,-0.135l0.366,-0.133l0.368,-0.131l0.368,-0.129l0.37,-0.126l0.371,-0.124l0.371,-0.122l0.373,-0.12l0.374,-0.118l0.374,-0.115l0.376,-0.113l0.377,-0.111l0.377,-0.109l0.379,-0.106l0.379,-0.104l0.381,-0.102l0.381,-0.099l0.382,-0.098l0.383,-0.094l0.384,-0.093l0.385,-0.09l0.386,-0.088l0.387,-0.086l0.387,-0.083l0.389,-0.081l0.389,-0.078l0.39,-0.076l0.391,-0.074l0.391,-0.071l0.393,-0.069l0.393,-0.067l0.394,-0.064l0.395,-0.061l0.395,-0.06l0.397,-0.056l0.397,-0.055l0.397,-0.052l0.399,-0.049l0.399,-0.047l0.4,-0.045l0.401,-0.042l0.401,-0.039l0.402,-0.037l0.403,-0.035l0.403,-0.032l0.404,-0.029l0.405,-0.027l0.405,-0.025l0.406,-0.021l0.406,-0.02l0.408,-0.017l0.407,-0.014l0.408,-0.011l0.409,-0.01l0.409,-0.006l0.41,-0.004l0.411,-0.001l0.41,0.001Zm-0.763,9.013l-0.353,0.003l-0.352,0.006l-0.352,0.008l-0.351,0.01l-0.351,0.012l-0.35,0.014l-0.349,0.017l-0.349,0.019l-0.348,0.021l-0.348,0.023l-0.347,0.025l-0.347,0.028l-0.345,0.029l-0.346,0.032l-0.344,0.034l-0.344,0.036l-0.344,0.038l-0.342,0.041l-0.343,0.042l-0.341,0.045l-0.341,0.046l-0.34,0.049l-0.339,0.051l-0.339,0.053l-0.338,0.055l-0.338,0.057l-0.336,0.059l-0.336,0.061l-0.335,0.063l-0.335,0.066l-0.334,0.067l-0.333,0.069l-0.332,0.072l-0.332,0.073l-0.331,0.075l-0.33,0.078l-0.329,0.079l-0.329,0.081l-0.327,0.084l-0.327,0.085l-0.326,0.087l-0.326,0.089l-0.324,0.092l-0.324,0.093l-0.323,0.095l-0.322,0.097l-0.321,0.099l-0.321,0.101l-0.319,0.102l-0.319,0.105l-0.318,0.106l-0.317,0.109l-0.316,0.11l-0.315,0.112l-0.314,0.115l-0.314,0.115l-0.312,0.118l-0.312,0.12l-0.31,0.121l-0.31,0.124l-0.309,0.125l-0.308,0.127l-0.307,0.129l-0.306,0.13l-0.305,0.133l-0.304,0.134l-0.303,0.136l-0.302,0.138l-0.301,0.139l-0.301,0.142l-0.299,0.143l-0.298,0.145l-0.297,0.146l-0.296,0.149l-0.295,0.15l-0.294,0.152l-0.293,0.153l-0.292,0.156l-0.291,0.157l-0.29,0.158l-0.289,0.161l-0.288,0.162l-0.286,0.164l-0.286,0.165l-0.285,0.167l-0.283,0.169l-0.282,0.17l-0.281,0.172l-0.28,0.174l-0.279,0.175l-0.278,0.177l-0.277,0.179l-0.275,0.18l-0.275,0.182l-0.273,0.184l-0.272,0.185l-0.271,0.186l-0.27,0.189l-0.268,0.189l-0.267,0.192l-0.266,0.193l-0.265,0.194l-0.264,0.196l-0.263,0.198l-0.261,0.199l-0.26,0.2l-0.259,0.203l-0.257,0.203l-0.256,0.205l-0.255,0.207l-0.254,0.208l-0.253,0.21l-0.251,0.211l-0.25,0.213l-0.248,0.214l-0.248,0.215l-0.246,0.217l-0.244,0.219l-0.244,0.22l-0.242,0.221l-0.24,0.223l-0.24,0.224l-0.238,0.226l-0.237,0.227l-0.235,0.228l-0.234,0.23l-0.232,0.231l-0.232,0.233l-0.229,0.234l-0.229,0.235l-0.227,0.237l-0.225,0.238l-0.225,0.239l-0.222,0.241l-0.222,0.242l-0.22,0.243l-0.218,0.245l-0.217,0.246l-0.216,0.247l-0.214,0.249l-0.212,0.25l-0.211,0.251l-0.21,0.252l-0.208,0.254l-0.207,0.255l-0.205,0.256l-0.204,0.258l-0.202,0.259l-0.201,0.26l-0.199,0.261l-0.197,0.262l-0.196,0.264l-0.195,0.265l-0.193,0.266l-0.191,0.267l-0.19,0.269l-0.188,0.27l-0.187,0.27l-0.185,0.273l-0.183,0.273l-0.182,0.274l-0.18,0.276l-0.179,0.276l-0.177,0.278l-0.175,0.279l-0.174,0.28l-0.172,0.281l-0.171,0.283l-0.168,0.283l-0.167,0.284l-0.166,0.286l-0.164,0.287l-0.162,0.287l-0.16,0.289l-0.159,0.29l-0.157,0.291l-0.155,0.292l-0.154,0.293l-0.152,0.294l-0.15,0.295l-0.148,0.296l-0.147,0.298l-0.145,0.298l-0.143,0.299l-0.141,0.3l-0.14,0.301l-0.137,0.302l-0.136,0.303l-0.135,0.304l-0.132,0.306l-0.131,0.306l-0.128,0.306l-0.127,0.308l-0.126,0.309l-0.123,0.31l-0.121,0.311l-0.12,0.311l-0.118,0.313l-0.116,0.313l-0.114,0.314l-0.112,0.316l-0.111,0.316l-0.108,0.317l-0.107,0.318l-0.104,0.318l-0.103,0.32l-0.101,0.32l-0.099,0.321l-0.097,0.323l-0.095,0.322l-0.093,0.324l-0.091,0.325l-0.089,0.325l-0.087,0.326l-0.086,0.327l-0.083,0.328l-0.081,0.328l-0.08,0.33l-0.077,0.33l-0.075,0.331l-0.074,0.331l-0.071,0.333l-0.069,0.333l-0.068,0.333l-0.065,0.335l-0.063,0.335l-0.061,0.336l-0.06,0.337l-0.057,0.337l-0.055,0.338l-0.053,0.339l-0.05,0.339l-0.049,0.341l-0.047,0.34l-0.044,0.342l-0.043,0.342l-0.04,0.343l-0.038,0.343l-0.036,0.344l-0.034,0.345l-0.032,0.345l-0.03,0.346l-0.027,0.346l-0.026,0.347l-0.023,0.348l-0.021,0.348l-0.019,0.349l-0.016,0.35l-0.015,0.35l-0.012,0.35l-0.01,0.351l-0.008,0.352l-0.005,0.352l-0.004,0.353l-0.001,0.353l0.001,0.353l0.004,0.353l0.005,0.352l0.008,0.352l0.01,0.351l0.012,0.351l0.015,0.35l0.016,0.349l0.019,0.349l0.021,0.348l0.023,0.348l0.026,0.347l0.027,0.346l0.03,0.346l0.032,0.346l0.034,0.344l0.036,0.344l0.038,0.344l0.04,0.342l0.043,0.343l0.044,0.341l0.047,0.341l0.049,0.34l0.05,0.339l0.053,0.339l0.055,0.338l0.057,0.338l0.06,0.336l0.061,0.336l0.063,0.335l0.065,0.335l0.068,0.334l0.069,0.333l0.071,0.332l0.074,0.332l0.075,0.331l0.077,0.33l0.08,0.329l0.081,0.328l0.083,0.328l0.086,0.327l0.087,0.326l0.089,0.326l0.091,0.324l0.093,0.324l0.095,0.323l0.097,0.322l0.099,0.321l0.101,0.321l0.103,0.319l0.104,0.319l0.107,0.318l0.108,0.317l0.111,0.316l0.112,0.315l0.114,0.314l0.116,0.314l0.118,0.312l0.12,0.312l0.121,0.31l0.123,0.31l0.126,0.309l0.127,0.308l0.128,0.307l0.131,0.306l0.132,0.305l0.135,0.304l0.136,0.303l0.137,0.302l0.14,0.301l0.141,0.301l0.143,0.299l0.145,0.298l0.147,0.297l0.148,0.296l0.15,0.295l0.152,0.294l0.154,0.293l0.155,0.292l0.157,0.291l0.159,0.29l0.16,0.289l0.162,0.288l0.164,0.286l0.166,0.286l0.167,0.284l0.168,0.284l0.171,0.282l0.172,0.281l0.174,0.28l0.175,0.279l0.177,0.278l0.179,0.277l0.18,0.275l0.182,0.275l0.183,0.273l0.185,0.272l0.187,0.271l0.188,0.269l0.19,0.269l0.191,0.267l0.193,0.266l0.195,0.265l0.196,0.264l0.197,0.262l0.199,0.262l0.201,0.26l0.202,0.258l0.204,0.258l0.205,0.256l0.207,0.255l0.208,0.254l0.21,0.253l0.211,0.251l0.212,0.25l0.214,0.248l0.216,0.248l0.217,0.246l0.218,0.244l0.22,0.244l0.222,0.242l0.222,0.24l0.225,0.24l0.225,0.238l0.227,0.236l0.229,0.236l0.229,0.234l0.232,0.232l0.232,0.232l0.234,0.229l0.235,0.229l0.237,0.227l0.238,0.225l0.24,0.225l0.24,0.222l0.242,0.222l0.244,0.22l0.244,0.218l0.246,0.217l0.248,0.216l0.248,0.214l0.25,0.212l0.251,0.211l0.253,0.21l0.254,0.208l0.255,0.207l0.256,0.205l0.257,0.204l0.259,0.202l0.26,0.201l0.261,0.199l0.263,0.197l0.264,0.196l0.265,0.195l0.266,0.193l0.267,0.191l0.268,0.19l0.27,0.188l0.271,0.187l0.272,0.185l0.273,0.183l0.275,0.182l0.275,0.18l0.277,0.179l0.278,0.177l0.279,0.175l0.28,0.174l0.281,0.172l0.282,0.17l0.283,0.169l0.285,0.167l0.286,0.166l0.286,0.164l0.288,0.162l0.289,0.16l0.29,0.159l0.291,0.157l0.292,0.155l0.293,0.154l0.294,0.151l0.295,0.151l0.296,0.148l0.297,0.147l0.298,0.144l0.299,0.144l0.301,0.141l0.301,0.14l0.302,0.137l0.303,0.136l0.304,0.135l0.305,0.132l0.306,0.131l0.307,0.128l0.308,0.127l0.309,0.126l0.31,0.123l0.31,0.121l0.312,0.12l0.312,0.118l0.314,0.116l0.314,0.114l0.315,0.112l0.316,0.11l0.317,0.109l0.318,0.106l0.319,0.105l0.319,0.103l0.321,0.101l0.321,0.099l0.322,0.097l0.323,0.095l0.324,0.093l0.324,0.091l0.326,0.089l0.326,0.087l0.327,0.086l0.327,0.083l0.329,0.081l0.329,0.08l0.33,0.077l0.331,0.075l0.332,0.074l0.332,0.071l0.333,0.069l0.334,0.068l0.335,0.065l0.335,0.063l0.336,0.061l0.336,0.059l0.338,0.058l0.338,0.055l0.339,0.052l0.339,0.051l0.34,0.049l0.341,0.047l0.341,0.044l0.343,0.043l0.342,0.04l0.344,0.038l0.344,0.036l0.344,0.034l0.346,0.032l0.345,0.03l0.347,0.027l0.347,0.026l0.348,0.023l0.348,0.021l0.349,0.019l0.349,0.016l0.35,0.015l0.351,0.012l0.351,0.01l0.352,0.008l0.352,0.005l0.353,0.004l0.353,0.001l0.353,-0.001l0.353,-0.004l0.352,-0.005l0.352,-0.008l0.351,-0.01l0.35,-0.012l0.35,-0.015l0.35,-0.016l0.349,-0.019l0.348,-0.021l0.347,-0.023l0.348,-0.026l0.346,-0.027l0.346,-0.03l0.345,-0.032l0.345,-0.034l0.344,-0.036l0.343,-0.038l0.343,-0.04l0.342,-0.043l0.342,-0.044l0.34,-0.047l0.34,-0.049l0.34,-0.051l0.339,-0.052l0.338,-0.055l0.337,-0.058l0.337,-0.059l0.336,-0.061l0.335,-0.063l0.335,-0.065l0.333,-0.068l0.333,-0.069l0.333,-0.071l0.331,-0.074l0.331,-0.075l0.33,-0.077l0.33,-0.08l0.328,-0.081l0.328,-0.083l0.327,-0.086l0.326,-0.087l0.325,-0.089l0.325,-0.091l0.324,-0.093l0.322,-0.095l0.322,-0.097l0.322,-0.099l0.32,-0.101l0.32,-0.103l0.318,-0.105l0.318,-0.106l0.317,-0.109l0.316,-0.11l0.315,-0.112l0.315,-0.114l0.313,-0.116l0.313,-0.118l0.311,-0.12l0.311,-0.121l0.31,-0.123l0.309,-0.126l0.307,-0.127l0.307,-0.128l0.306,-0.131l0.305,-0.132l0.305,-0.135l0.303,-0.136l0.302,-0.137l0.301,-0.14l0.3,-0.141l0.299,-0.144l0.298,-0.144l0.298,-0.147l0.296,-0.148l0.295,-0.151l0.294,-0.151l0.293,-0.154l0.292,-0.155l0.291,-0.157l0.29,-0.159l0.289,-0.16l0.287,-0.162l0.287,-0.164l0.286,-0.166l0.284,-0.167l0.283,-0.169l0.283,-0.17l0.281,-0.172l0.28,-0.174l0.279,-0.175l0.278,-0.177l0.276,-0.179l0.276,-0.18l0.274,-0.182l0.273,-0.183l0.272,-0.185l0.271,-0.187l0.27,-0.188l0.269,-0.19l0.267,-0.191l0.266,-0.193l0.265,-0.195l0.264,-0.196l0.262,-0.197l0.261,-0.199l0.26,-0.201l0.259,-0.202l0.258,-0.204l0.256,-0.205l0.255,-0.207l0.254,-0.208l0.252,-0.21l0.251,-0.211l0.25,-0.212l0.249,-0.214l0.247,-0.216l0.246,-0.217l0.245,-0.218l0.243,-0.22l0.242,-0.222l0.241,-0.222l0.239,-0.225l0.238,-0.225l0.237,-0.227l0.235,-0.229l0.234,-0.229l0.233,-0.232l0.231,-0.232l0.23,-0.234l0.228,-0.236l0.227,-0.236l0.226,-0.238l0.224,-0.24l0.223,-0.24l0.221,-0.242l0.22,-0.244l0.219,-0.244l0.217,-0.246l0.215,-0.248l0.214,-0.248l0.213,-0.25l0.211,-0.251l0.21,-0.253l0.208,-0.254l0.207,-0.255l0.205,-0.256l0.203,-0.258l0.203,-0.258l0.2,-0.26l0.199,-0.262l0.198,-0.262l0.196,-0.264l0.194,-0.265l0.193,-0.266l0.192,-0.267l0.189,-0.269l0.189,-0.269l0.186,-0.271l0.185,-0.272l0.184,-0.273l0.182,-0.275l0.18,-0.275l0.178,-0.277l0.177,-0.278l0.176,-0.279l0.174,-0.28l0.172,-0.281l0.17,-0.282l0.169,-0.284l0.167,-0.284l0.165,-0.286l0.164,-0.286l0.162,-0.288l0.161,-0.289l0.158,-0.29l0.157,-0.291l0.156,-0.292l0.153,-0.293l0.152,-0.294l0.15,-0.295l0.149,-0.296l0.146,-0.297l0.145,-0.298l0.143,-0.299l0.141,-0.301l0.14,-0.301l0.138,-0.302l0.136,-0.303l0.134,-0.304l0.133,-0.305l0.13,-0.306l0.129,-0.307l0.127,-0.308l0.125,-0.309l0.124,-0.31l0.121,-0.31l0.12,-0.312l0.117,-0.312l0.116,-0.314l0.115,-0.314l0.112,-0.315l0.11,-0.316l0.108,-0.317l0.107,-0.318l0.105,-0.319l0.102,-0.319l0.101,-0.321l0.099,-0.321l0.097,-0.322l0.095,-0.323l0.093,-0.324l0.092,-0.324l0.089,-0.326l0.087,-0.326l0.085,-0.327l0.084,-0.328l0.081,-0.328l0.079,-0.329l0.078,-0.33l0.075,-0.331l0.073,-0.332l0.072,-0.332l0.069,-0.333l0.067,-0.334l0.066,-0.335l0.063,-0.335l0.061,-0.336l0.059,-0.336l0.057,-0.338l0.055,-0.338l0.053,-0.339l0.051,-0.339l0.049,-0.34l0.046,-0.341l0.045,-0.341l0.042,-0.343l0.041,-0.342l0.038,-0.344l0.036,-0.344l0.034,-0.344l0.032,-0.346l0.029,-0.346l0.028,-0.346l0.025,-0.347l0.023,-0.348l0.021,-0.348l0.019,-0.349l0.017,-0.349l0.014,-0.35l0.012,-0.351l0.01,-0.351l0.008,-0.352l0.006,-0.352l0.003,-0.353l0.001,-0.353l-0.001,-0.353l-0.003,-0.353l-0.006,-0.352l-0.008,-0.352l-0.01,-0.351l-0.012,-0.35l-0.014,-0.35l-0.017,-0.35l-0.019,-0.349l-0.021,-0.348l-0.023,-0.348l-0.025,-0.347l-0.028,-0.346l-0.029,-0.346l-0.032,-0.345l-0.034,-0.345l-0.036,-0.344l-0.038,-0.343l-0.041,-0.343l-0.042,-0.342l-0.045,-0.342l-0.046,-0.34l-0.049,-0.341l-0.051,-0.339l-0.053,-0.339l-0.055,-0.338l-0.057,-0.337l-0.059,-0.337l-0.061,-0.336l-0.063,-0.335l-0.066,-0.335l-0.067,-0.333l-0.069,-0.333l-0.072,-0.333l-0.073,-0.331l-0.075,-0.331l-0.078,-0.33l-0.079,-0.33l-0.081,-0.328l-0.084,-0.328l-0.085,-0.327l-0.087,-0.326l-0.089,-0.325l-0.092,-0.325l-0.093,-0.324l-0.095,-0.322l-0.097,-0.323l-0.099,-0.321l-0.101,-0.32l-0.102,-0.32l-0.105,-0.318l-0.107,-0.318l-0.108,-0.317l-0.11,-0.316l-0.112,-0.316l-0.115,-0.314l-0.116,-0.313l-0.117,-0.313l-0.12,-0.311l-0.121,-0.311l-0.124,-0.31l-0.125,-0.309l-0.127,-0.308l-0.129,-0.306l-0.13,-0.306l-0.133,-0.306l-0.134,-0.304l-0.136,-0.303l-0.138,-0.302l-0.14,-0.301l-0.141,-0.3l-0.143,-0.299l-0.145,-0.298l-0.146,-0.298l-0.149,-0.296l-0.15,-0.295l-0.152,-0.294l-0.153,-0.293l-0.156,-0.292l-0.157,-0.291l-0.158,-0.29l-0.161,-0.289l-0.162,-0.287l-0.164,-0.287l-0.165,-0.286l-0.167,-0.284l-0.169,-0.283l-0.17,-0.283l-0.172,-0.281l-0.174,-0.28l-0.176,-0.279l-0.177,-0.278l-0.178,-0.276l-0.18,-0.276l-0.182,-0.274l-0.184,-0.273l-0.185,-0.273l-0.186,-0.27l-0.189,-0.27l-0.189,-0.269l-0.192,-0.267l-0.193,-0.266l-0.194,-0.265l-0.196,-0.264l-0.198,-0.262l-0.199,-0.261l-0.2,-0.26l-0.203,-0.259l-0.203,-0.258l-0.205,-0.256l-0.207,-0.255l-0.208,-0.254l-0.21,-0.252l-0.211,-0.251l-0.213,-0.25l-0.214,-0.249l-0.215,-0.247l-0.217,-0.246l-0.219,-0.245l-0.22,-0.243l-0.221,-0.242l-0.223,-0.241l-0.224,-0.239l-0.226,-0.238l-0.227,-0.237l-0.228,-0.235l-0.23,-0.234l-0.231,-0.233l-0.233,-0.231l-0.234,-0.23l-0.235,-0.228l-0.237,-0.227l-0.238,-0.226l-0.239,-0.224l-0.241,-0.223l-0.242,-0.221l-0.243,-0.22l-0.245,-0.219l-0.246,-0.217l-0.247,-0.215l-0.249,-0.214l-0.25,-0.213l-0.251,-0.211l-0.252,-0.21l-0.254,-0.208l-0.255,-0.207l-0.256,-0.205l-0.258,-0.203l-0.259,-0.203l-0.26,-0.2l-0.261,-0.199l-0.262,-0.198l-0.264,-0.196l-0.265,-0.194l-0.266,-0.193l-0.267,-0.192l-0.269,-0.189l-0.27,-0.189l-0.271,-0.186l-0.272,-0.185l-0.273,-0.184l-0.274,-0.182l-0.276,-0.18l-0.276,-0.179l-0.278,-0.177l-0.279,-0.175l-0.28,-0.174l-0.281,-0.172l-0.283,-0.17l-0.283,-0.169l-0.284,-0.167l-0.286,-0.165l-0.287,-0.164l-0.287,-0.162l-0.289,-0.161l-0.29,-0.158l-0.291,-0.157l-0.292,-0.156l-0.293,-0.153l-0.294,-0.152l-0.295,-0.15l-0.296,-0.149l-0.298,-0.146l-0.298,-0.145l-0.299,-0.143l-0.3,-0.142l-0.301,-0.139l-0.302,-0.138l-0.303,-0.136l-0.305,-0.134l-0.305,-0.133l-0.306,-0.13l-0.307,-0.129l-0.307,-0.127l-0.309,-0.125l-0.31,-0.124l-0.311,-0.121l-0.311,-0.12l-0.313,-0.118l-0.313,-0.115l-0.315,-0.115l-0.315,-0.112l-0.316,-0.11l-0.317,-0.109l-0.318,-0.106l-0.318,-0.105l-0.32,-0.102l-0.32,-0.101l-0.322,-0.099l-0.322,-0.097l-0.322,-0.095l-0.324,-0.093l-0.325,-0.092l-0.325,-0.089l-0.326,-0.087l-0.327,-0.085l-0.328,-0.084l-0.328,-0.081l-0.33,-0.079l-0.33,-0.078l-0.331,-0.075l-0.331,-0.073l-0.333,-0.072l-0.333,-0.069l-0.333,-0.067l-0.335,-0.066l-0.335,-0.063l-0.336,-0.061l-0.337,-0.059l-0.337,-0.057l-0.338,-0.055l-0.339,-0.053l-0.34,-0.051l-0.34,-0.049l-0.34,-0.046l-0.342,-0.045l-0.342,-0.042l-0.343,-0.041l-0.343,-0.038l-0.344,-0.036l-0.345,-0.034l-0.345,-0.032l-0.346,-0.029l-0.346,-0.028l-0.348,-0.025l-0.347,-0.023l-0.348,-0.021l-0.349,-0.019l-0.35,-0.017l-0.35,-0.014l-0.35,-0.012l-0.351,-0.01l-0.352,-0.008l-0.352,-0.006l-0.353,-0.003l-0.353,-0.001l-0.353,0.001Z" style="fill:#3d3d3d;"/>
                <circle cx="439.752" cy="320.696" r="30.669" style="fill:#3d3d3d;"/>
                <circle cx="446.271" cy="310.119" r="14.439" style="fill:#e7e7e7;"/>
            </g>
            <g>
                <path d="M322.939,439.717l154.122,0c-17.66,68.109 -118.57,89.201 -154.122,0Z" style="fill:#5b5b5b;"/>
                <path d="M477.784,431.03l0.718,0.09l0.708,0.149l0.694,0.208l0.674,0.264l0.649,0.319l0.621,0.372l0.588,0.422l0.551,0.47l0.51,0.514l0.465,0.554l0.418,0.591l0.368,0.623l0.314,0.652l0.26,0.676l0.202,0.695l0.144,0.709l0.085,0.719l0.025,0.723l-0.035,0.723l-0.095,0.717l-0.155,0.708l-0.11,0.419l-0.117,0.441l-0.121,0.439l-0.122,0.439l-0.124,0.437l-0.126,0.436l-0.129,0.435l-0.13,0.433l-0.132,0.433l-0.135,0.432l-0.137,0.43l-0.138,0.429l-0.141,0.428l-0.143,0.426l-0.145,0.426l-0.146,0.424l-0.149,0.423l-0.151,0.422l-0.153,0.42l-0.155,0.42l-0.157,0.418l-0.158,0.417l-0.161,0.416l-0.163,0.414l-0.164,0.413l-0.167,0.412l-0.168,0.411l-0.171,0.409l-0.172,0.408l-0.175,0.407l-0.176,0.406l-0.178,0.404l-0.18,0.403l-0.182,0.402l-0.183,0.401l-0.186,0.399l-0.187,0.398l-0.19,0.396l-0.191,0.396l-0.193,0.394l-0.194,0.392l-0.197,0.392l-0.199,0.39l-0.2,0.388l-0.202,0.388l-0.204,0.386l-0.205,0.385l-0.208,0.383l-0.209,0.382l-0.211,0.381l-0.212,0.379l-0.215,0.378l-0.216,0.377l-0.218,0.375l-0.219,0.374l-0.222,0.373l-0.223,0.37l-0.224,0.37l-0.227,0.369l-0.228,0.367l-0.23,0.365l-0.231,0.365l-0.233,0.362l-0.235,0.362l-0.236,0.36l-0.238,0.358l-0.24,0.358l-0.241,0.355l-0.243,0.355l-0.244,0.353l-0.246,0.351l-0.248,0.35l-0.249,0.349l-0.251,0.347l-0.252,0.346l-0.254,0.344l-0.255,0.343l-0.257,0.341l-0.259,0.34l-0.26,0.339l-0.261,0.337l-0.263,0.335l-0.265,0.335l-0.266,0.332l-0.267,0.331l-0.27,0.33l-0.27,0.328l-0.272,0.327l-0.273,0.325l-0.275,0.324l-0.276,0.322l-0.278,0.321l-0.279,0.32l-0.281,0.317l-0.282,0.316l-0.283,0.315l-0.285,0.314l-0.286,0.311l-0.288,0.31l-0.288,0.309l-0.291,0.307l-0.292,0.306l-0.292,0.304l-0.295,0.303l-0.295,0.301l-0.297,0.299l-0.299,0.298l-0.299,0.297l-0.301,0.295l-0.303,0.293l-0.303,0.292l-0.305,0.29l-0.306,0.288l-0.307,0.288l-0.309,0.285l-0.31,0.284l-0.311,0.282l-0.312,0.281l-0.313,0.279l-0.315,0.278l-0.316,0.276l-0.317,0.275l-0.319,0.272l-0.32,0.272l-0.32,0.269l-0.322,0.268l-0.323,0.267l-0.325,0.265l-0.325,0.263l-0.327,0.262l-0.328,0.26l-0.328,0.259l-0.33,0.256l-0.331,0.256l-0.333,0.253l-0.333,0.252l-0.334,0.251l-0.336,0.248l-0.336,0.247l-0.338,0.246l-0.339,0.244l-0.34,0.242l-0.341,0.24l-0.342,0.239l-0.342,0.237l-0.345,0.236l-0.345,0.234l-0.346,0.232l-0.347,0.231l-0.348,0.229l-0.349,0.227l-0.35,0.226l-0.351,0.223l-0.352,0.223l-0.353,0.22l-0.354,0.219l-0.355,0.217l-0.356,0.216l-0.357,0.214l-0.357,0.212l-0.359,0.21l-0.36,0.209l-0.36,0.207l-0.362,0.205l-0.362,0.204l-0.363,0.202l-0.364,0.2l-0.365,0.198l-0.366,0.197l-0.367,0.195l-0.368,0.194l-0.368,0.191l-0.369,0.19l-0.37,0.188l-0.371,0.186l-0.372,0.185l-0.373,0.183l-0.373,0.181l-0.374,0.179l-0.375,0.178l-0.376,0.176l-0.377,0.174l-0.377,0.173l-0.378,0.17l-0.379,0.169l-0.38,0.167l-0.38,0.165l-0.381,0.164l-0.382,0.162l-0.382,0.159l-0.384,0.159l-0.384,0.156l-0.385,0.155l-0.385,0.153l-0.386,0.15l-0.387,0.15l-0.388,0.147l-0.388,0.146l-0.388,0.143l-0.39,0.142l-0.39,0.141l-0.391,0.138l-0.392,0.137l-0.392,0.134l-0.392,0.133l-0.394,0.131l-0.394,0.129l-0.394,0.128l-0.395,0.125l-0.396,0.124l-0.396,0.122l-0.397,0.12l-0.398,0.118l-0.398,0.116l-0.398,0.115l-0.399,0.112l-0.4,0.111l-0.4,0.109l-0.401,0.107l-0.401,0.105l-0.402,0.103l-0.402,0.101l-0.403,0.1l-0.404,0.098l-0.403,0.095l-0.404,0.094l-0.405,0.092l-0.406,0.09l-0.405,0.088l-0.406,0.086l-0.407,0.084l-0.407,0.083l-0.407,0.08l-0.408,0.079l-0.408,0.076l-0.409,0.075l-0.409,0.072l-0.41,0.071l-0.41,0.069l-0.41,0.067l-0.41,0.065l-0.411,0.063l-0.412,0.061l-0.411,0.059l-0.413,0.057l-0.412,0.055l-0.413,0.053l-0.413,0.052l-0.413,0.049l-0.414,0.047l-0.414,0.046l-0.414,0.043l-0.415,0.041l-0.415,0.04l-0.415,0.037l-0.415,0.035l-0.416,0.034l-0.416,0.031l-0.416,0.029l-0.416,0.028l-0.417,0.025l-0.417,0.023l-0.417,0.022l-0.417,0.019l-0.418,0.017l-0.418,0.016l-0.418,0.013l-0.418,0.011l-0.418,0.009l-0.419,0.007l-0.418,0.005l-0.419,0.003l-0.419,0.001l-0.418,-0.001l-0.42,-0.004l-0.419,-0.005l-0.419,-0.007l-0.42,-0.01l-0.419,-0.011l-0.42,-0.014l-0.42,-0.015l-0.419,-0.018l-0.42,-0.02l-0.42,-0.022l-0.42,-0.024l-0.421,-0.026l-0.42,-0.028l-0.42,-0.031l-0.42,-0.032l-0.42,-0.035l-0.42,-0.036l-0.42,-0.039l-0.421,-0.041l-0.42,-0.043l-0.42,-0.045l-0.42,-0.048l-0.42,-0.049l-0.42,-0.052l-0.42,-0.054l-0.42,-0.056l-0.419,-0.058l-0.42,-0.06l-0.42,-0.062l-0.419,-0.065l-0.42,-0.066l-0.419,-0.069l-0.419,-0.071l-0.419,-0.074l-0.419,-0.075l-0.419,-0.077l-0.419,-0.08l-0.418,-0.082l-0.418,-0.084l-0.418,-0.087l-0.418,-0.088l-0.418,-0.091l-0.418,-0.093l-0.417,-0.095l-0.417,-0.097l-0.417,-0.1l-0.416,-0.102l-0.417,-0.104l-0.416,-0.106l-0.416,-0.108l-0.415,-0.111l-0.416,-0.113l-0.415,-0.115l-0.414,-0.117l-0.415,-0.12l-0.414,-0.122l-0.414,-0.124l-0.413,-0.126l-0.413,-0.129l-0.413,-0.131l-0.413,-0.133l-0.411,-0.135l-0.412,-0.138l-0.411,-0.139l-0.411,-0.143l-0.411,-0.144l-0.41,-0.147l-0.41,-0.149l-0.409,-0.151l-0.409,-0.153l-0.408,-0.156l-0.408,-0.158l-0.408,-0.161l-0.407,-0.162l-0.406,-0.165l-0.406,-0.168l-0.406,-0.169l-0.405,-0.172l-0.404,-0.174l-0.405,-0.177l-0.403,-0.178l-0.403,-0.181l-0.403,-0.184l-0.401,-0.185l-0.402,-0.188l-0.4,-0.191l-0.4,-0.192l-0.4,-0.195l-0.399,-0.198l-0.399,-0.199l-0.397,-0.202l-0.397,-0.204l-0.397,-0.207l-0.396,-0.209l-0.395,-0.211l-0.394,-0.214l-0.394,-0.215l-0.393,-0.219l-0.393,-0.22l-0.392,-0.223l-0.391,-0.226l-0.39,-0.227l-0.39,-0.23l-0.389,-0.233l-0.388,-0.234l-0.387,-0.237l-0.387,-0.24l-0.386,-0.241l-0.385,-0.245l-0.385,-0.246l-0.383,-0.248l-0.383,-0.252l-0.382,-0.253l-0.381,-0.256l-0.381,-0.259l-0.379,-0.26l-0.379,-0.263l-0.378,-0.265l-0.377,-0.268l-0.376,-0.27l-0.375,-0.273l-0.375,-0.275l-0.373,-0.277l-0.373,-0.279l-0.371,-0.282l-0.371,-0.285l-0.37,-0.286l-0.369,-0.289l-0.368,-0.292l-0.367,-0.294l-0.366,-0.296l-0.365,-0.298l-0.364,-0.301l-0.363,-0.304l-0.362,-0.306l-0.361,-0.308l-0.361,-0.31l-0.359,-0.313l-0.358,-0.315l-0.357,-0.318l-0.356,-0.32l-0.355,-0.323l-0.354,-0.325l-0.353,-0.327l-0.352,-0.329l-0.35,-0.332l-0.35,-0.335l-0.349,-0.336l-0.347,-0.34l-0.347,-0.341l-0.345,-0.344l-0.344,-0.347l-0.343,-0.348l-0.342,-0.351l-0.341,-0.354l-0.339,-0.356l-0.339,-0.358l-0.337,-0.361l-0.336,-0.363l-0.335,-0.366l-0.334,-0.368l-0.332,-0.37l-0.331,-0.373l-0.331,-0.375l-0.329,-0.378l-0.327,-0.379l-0.327,-0.383l-0.325,-0.385l-0.324,-0.387l-0.322,-0.39l-0.322,-0.392l-0.32,-0.394l-0.319,-0.396l-0.317,-0.4l-0.317,-0.401l-0.315,-0.404l-0.314,-0.407l-0.312,-0.409l-0.311,-0.411l-0.31,-0.414l-0.308,-0.416l-0.307,-0.418l-0.306,-0.421l-0.305,-0.423l-0.303,-0.426l-0.301,-0.428l-0.301,-0.43l-0.299,-0.434l-0.297,-0.435l-0.297,-0.438l-0.294,-0.44l-0.294,-0.443l-0.292,-0.445l-0.29,-0.447l-0.29,-0.45l-0.287,-0.452l-0.287,-0.455l-0.284,-0.457l-0.284,-0.46l-0.282,-0.462l-0.28,-0.464l-0.28,-0.467l-0.277,-0.469l-0.276,-0.472l-0.275,-0.474l-0.273,-0.477l-0.272,-0.478l-0.27,-0.482l-0.269,-0.484l-0.267,-0.486l-0.265,-0.489l-0.265,-0.491l-0.262,-0.493l-0.261,-0.496l-0.26,-0.499l-0.258,-0.501l-0.256,-0.503l-0.255,-0.506l-0.253,-0.508l-0.252,-0.511l-0.25,-0.513l-0.249,-0.515l-0.247,-0.519l-0.245,-0.52l-0.244,-0.523l-0.242,-0.525l-0.24,-0.528l-0.239,-0.53l-0.238,-0.533l-0.235,-0.535l-0.234,-0.538l-0.233,-0.54l-0.231,-0.542l-0.229,-0.545l-0.227,-0.548l-0.226,-0.55l-0.224,-0.552l-0.216,-0.538l-0.237,-0.669l-0.182,-0.685l-0.125,-0.697l-0.068,-0.706l-0.011,-0.709l0.046,-0.707l0.105,-0.701l0.16,-0.691l0.217,-0.675l0.27,-0.655l0.323,-0.631l0.373,-0.603l0.42,-0.57l0.466,-0.535l0.508,-0.495l0.546,-0.452l0.581,-0.406l0.612,-0.357l0.639,-0.307l0.662,-0.254l0.68,-0.199l0.694,-0.143l0.704,-0.086l0.708,-0.029l154.122,0l0.723,0.03Zm-154.845,8.687l0.209,0.522l0.211,0.519l0.212,0.516l0.213,0.514l0.215,0.511l0.217,0.509l0.218,0.506l0.219,0.504l0.221,0.502l0.222,0.498l0.224,0.497l0.225,0.493l0.226,0.492l0.228,0.489l0.229,0.486l0.231,0.484l0.232,0.481l0.234,0.479l0.235,0.477l0.236,0.474l0.237,0.471l0.239,0.469l0.241,0.467l0.241,0.464l0.243,0.462l0.244,0.459l0.246,0.456l0.247,0.455l0.248,0.452l0.25,0.449l0.251,0.447l0.252,0.445l0.253,0.442l0.255,0.439l0.256,0.438l0.257,0.434l0.259,0.433l0.259,0.43l0.261,0.427l0.262,0.426l0.264,0.422l0.265,0.421l0.265,0.418l0.268,0.415l0.268,0.413l0.269,0.411l0.271,0.408l0.272,0.406l0.273,0.404l0.274,0.401l0.276,0.399l0.276,0.396l0.278,0.394l0.279,0.392l0.28,0.389l0.281,0.387l0.282,0.385l0.283,0.382l0.285,0.38l0.285,0.377l0.287,0.375l0.288,0.373l0.289,0.37l0.289,0.368l0.291,0.366l0.292,0.364l0.294,0.361l0.294,0.358l0.295,0.357l0.296,0.354l0.297,0.351l0.299,0.35l0.299,0.347l0.3,0.345l0.302,0.342l0.302,0.34l0.303,0.338l0.305,0.336l0.305,0.333l0.306,0.331l0.307,0.328l0.308,0.327l0.31,0.324l0.31,0.321l0.311,0.32l0.312,0.317l0.312,0.315l0.314,0.312l0.315,0.311l0.315,0.308l0.317,0.306l0.317,0.303l0.319,0.301l0.319,0.299l0.32,0.297l0.321,0.295l0.321,0.292l0.323,0.29l0.323,0.288l0.325,0.285l0.325,0.283l0.326,0.281l0.326,0.279l0.328,0.277l0.328,0.274l0.33,0.272l0.329,0.27l0.331,0.267l0.332,0.266l0.332,0.263l0.333,0.261l0.334,0.259l0.334,0.256l0.336,0.255l0.336,0.252l0.337,0.25l0.337,0.248l0.338,0.245l0.339,0.244l0.34,0.241l0.34,0.239l0.341,0.237l0.342,0.234l0.342,0.233l0.343,0.23l0.344,0.228l0.345,0.226l0.345,0.224l0.345,0.222l0.347,0.219l0.347,0.217l0.347,0.215l0.348,0.213l0.349,0.211l0.35,0.209l0.35,0.207l0.35,0.204l0.351,0.202l0.352,0.201l0.353,0.198l0.352,0.195l0.354,0.194l0.354,0.192l0.355,0.189l0.355,0.188l0.355,0.185l0.356,0.183l0.357,0.181l0.357,0.179l0.358,0.177l0.358,0.175l0.359,0.173l0.359,0.17l0.36,0.169l0.36,0.166l0.361,0.165l0.361,0.162l0.361,0.16l0.362,0.158l0.363,0.156l0.362,0.154l0.364,0.152l0.363,0.15l0.364,0.147l0.365,0.146l0.365,0.144l0.365,0.141l0.366,0.14l0.366,0.137l0.366,0.135l0.367,0.134l0.367,0.131l0.368,0.129l0.368,0.128l0.368,0.125l0.368,0.123l0.369,0.121l0.37,0.119l0.369,0.118l0.37,0.115l0.37,0.113l0.37,0.111l0.371,0.109l0.371,0.107l0.371,0.105l0.372,0.103l0.372,0.101l0.372,0.099l0.372,0.097l0.372,0.095l0.373,0.093l0.373,0.091l0.373,0.09l0.374,0.087l0.373,0.085l0.374,0.083l0.374,0.081l0.374,0.08l0.375,0.077l0.374,0.075l0.375,0.074l0.375,0.071l0.375,0.07l0.375,0.067l0.375,0.066l0.376,0.063l0.375,0.062l0.376,0.06l0.376,0.057l0.376,0.056l0.376,0.054l0.376,0.052l0.376,0.05l0.376,0.049l0.377,0.046l0.376,0.044l0.377,0.043l0.376,0.04l0.377,0.039l0.376,0.036l0.377,0.035l0.377,0.033l0.376,0.031l0.377,0.029l0.377,0.027l0.377,0.026l0.376,0.023l0.377,0.022l0.377,0.019l0.376,0.018l0.377,0.016l0.377,0.014l0.376,0.012l0.377,0.011l0.376,0.008l0.377,0.007l0.376,0.005l0.376,0.002l0.376,0.001l0.376,0l0.376,-0.003l0.376,-0.005l0.376,-0.006l0.375,-0.008l0.376,-0.01l0.375,-0.012l0.376,-0.014l0.375,-0.015l0.375,-0.017l0.374,-0.019l0.375,-0.021l0.374,-0.023l0.375,-0.025l0.374,-0.026l0.374,-0.028l0.373,-0.03l0.374,-0.032l0.373,-0.034l0.373,-0.035l0.373,-0.037l0.373,-0.039l0.372,-0.041l0.372,-0.043l0.372,-0.044l0.371,-0.046l0.372,-0.048l0.371,-0.049l0.371,-0.052l0.37,-0.053l0.37,-0.055l0.37,-0.057l0.37,-0.058l0.369,-0.06l0.369,-0.062l0.369,-0.064l0.368,-0.066l0.368,-0.067l0.368,-0.069l0.367,-0.07l0.367,-0.073l0.367,-0.074l0.366,-0.076l0.366,-0.077l0.365,-0.08l0.365,-0.081l0.365,-0.083l0.364,-0.084l0.364,-0.086l0.363,-0.088l0.363,-0.09l0.363,-0.091l0.362,-0.093l0.362,-0.095l0.361,-0.096l0.361,-0.098l0.36,-0.1l0.36,-0.102l0.359,-0.103l0.359,-0.105l0.358,-0.106l0.358,-0.108l0.358,-0.11l0.357,-0.112l0.356,-0.113l0.356,-0.115l0.355,-0.117l0.355,-0.118l0.354,-0.12l0.354,-0.121l0.353,-0.123l0.352,-0.125l0.352,-0.127l0.352,-0.128l0.351,-0.129l0.35,-0.132l0.349,-0.133l0.35,-0.134l0.348,-0.137l0.348,-0.138l0.347,-0.139l0.346,-0.141l0.346,-0.143l0.346,-0.144l0.344,-0.146l0.344,-0.148l0.344,-0.149l0.342,-0.151l0.342,-0.152l0.341,-0.154l0.341,-0.156l0.34,-0.157l0.339,-0.159l0.339,-0.16l0.337,-0.162l0.337,-0.163l0.337,-0.166l0.335,-0.166l0.335,-0.168l0.334,-0.17l0.334,-0.172l0.332,-0.172l0.332,-0.175l0.331,-0.176l0.33,-0.178l0.33,-0.179l0.328,-0.18l0.328,-0.183l0.327,-0.183l0.326,-0.186l0.326,-0.187l0.324,-0.188l0.324,-0.19l0.323,-0.191l0.322,-0.193l0.321,-0.195l0.32,-0.196l0.32,-0.197l0.318,-0.199l0.318,-0.201l0.317,-0.202l0.316,-0.204l0.315,-0.205l0.314,-0.206l0.313,-0.208l0.312,-0.21l0.312,-0.211l0.31,-0.213l0.31,-0.214l0.308,-0.215l0.308,-0.217l0.306,-0.219l0.306,-0.22l0.305,-0.221l0.303,-0.223l0.303,-0.224l0.302,-0.226l0.3,-0.227l0.3,-0.229l0.299,-0.23l0.297,-0.232l0.297,-0.233l0.295,-0.235l0.295,-0.236l0.293,-0.237l0.293,-0.239l0.291,-0.24l0.29,-0.242l0.29,-0.243l0.288,-0.245l0.287,-0.246l0.286,-0.247l0.285,-0.249l0.283,-0.25l0.283,-0.252l0.282,-0.253l0.28,-0.255l0.279,-0.256l0.278,-0.257l0.277,-0.259l0.276,-0.26l0.275,-0.261l0.273,-0.263l0.272,-0.265l0.272,-0.265l0.269,-0.267l0.269,-0.269l0.268,-0.269l0.266,-0.272l0.265,-0.272l0.264,-0.274l0.263,-0.275l0.261,-0.277l0.26,-0.278l0.259,-0.279l0.258,-0.281l0.256,-0.282l0.255,-0.284l0.254,-0.284l0.253,-0.286l0.251,-0.288l0.25,-0.289l0.249,-0.29l0.247,-0.291l0.246,-0.293l0.245,-0.294l0.244,-0.295l0.242,-0.297l0.241,-0.298l0.239,-0.3l0.238,-0.3l0.237,-0.302l0.235,-0.303l0.234,-0.305l0.233,-0.306l0.231,-0.307l0.23,-0.309l0.228,-0.309l0.227,-0.311l0.226,-0.313l0.224,-0.313l0.223,-0.315l0.221,-0.316l0.22,-0.318l0.218,-0.319l0.217,-0.32l0.216,-0.321l0.214,-0.322l0.212,-0.324l0.211,-0.325l0.21,-0.326l0.208,-0.328l0.207,-0.329l0.205,-0.33l0.203,-0.331l0.202,-0.333l0.201,-0.333l0.199,-0.335l0.197,-0.337l0.196,-0.337l0.195,-0.339l0.192,-0.34l0.192,-0.341l0.189,-0.342l0.188,-0.344l0.187,-0.344l0.185,-0.346l0.183,-0.348l0.182,-0.348l0.18,-0.35l0.178,-0.35l0.177,-0.352l0.175,-0.354l0.174,-0.354l0.172,-0.355l0.17,-0.357l0.169,-0.358l0.166,-0.359l0.166,-0.36l0.163,-0.362l0.162,-0.363l0.16,-0.363l0.159,-0.365l0.157,-0.366l0.155,-0.368l0.153,-0.368l0.152,-0.37l0.15,-0.37l0.148,-0.372l0.146,-0.373l0.145,-0.374l0.143,-0.376l0.141,-0.376l0.139,-0.378l0.138,-0.378l0.136,-0.38l0.134,-0.381l0.132,-0.382l0.13,-0.383l0.129,-0.384l0.127,-0.386l0.125,-0.386l0.123,-0.388l0.121,-0.389l0.12,-0.39l0.117,-0.391l0.116,-0.392l0.114,-0.393l0.112,-0.394l0.11,-0.395l0.108,-0.397l0.106,-0.397l0.105,-0.399l-154.122,0Z" style="fill:#3d3d3d;"/>
                <path d="M398.994,477.718c22.338,0 41.501,-13.204 41.501,6.241c0,19.445 -18.136,48.118 -40.475,48.118c-22.338,0 -40.474,-28.673 -40.474,-48.118c0,-19.445 17.109,-6.241 39.448,-6.241Z" style="fill:#c46767;"/>
                <path d="M368.187,464.247l0.218,0.003l0.218,0.005l0.217,0.007l0.217,0.008l0.214,0.01l0.214,0.011l0.214,0.013l0.213,0.014l0.212,0.015l0.21,0.017l0.211,0.017l0.211,0.019l0.209,0.02l0.208,0.021l0.208,0.022l0.209,0.023l0.208,0.024l0.216,0.027l0.402,0.051l0.411,0.056l0.41,0.059l0.409,0.062l0.409,0.065l0.407,0.067l0.407,0.07l0.407,0.072l0.407,0.074l0.406,0.076l0.407,0.077l0.406,0.079l0.407,0.08l0.408,0.082l0.407,0.083l0.412,0.084l0.813,0.169l0.82,0.173l1.651,0.349l0.83,0.174l0.837,0.174l0.415,0.085l0.419,0.085l0.42,0.084l0.421,0.083l0.421,0.083l0.423,0.081l0.423,0.08l0.424,0.079l0.425,0.077l0.426,0.076l0.427,0.074l0.427,0.073l0.428,0.07l0.429,0.069l0.43,0.067l0.431,0.064l0.431,0.063l0.431,0.06l0.433,0.057l0.44,0.056l0.21,0.026l0.216,0.026l0.217,0.025l0.217,0.024l0.218,0.024l0.217,0.023l0.217,0.023l0.218,0.021l0.218,0.021l0.218,0.02l0.218,0.019l0.218,0.019l0.218,0.018l0.218,0.017l0.218,0.016l0.22,0.015l0.218,0.014l0.218,0.014l0.22,0.013l0.218,0.012l0.219,0.011l0.219,0.01l0.219,0.009l0.219,0.008l0.219,0.007l0.22,0.007l0.22,0.005l0.219,0.005l0.219,0.003l0.22,0.003l0.22,0.001l0.22,0.001l0.219,-0.001l0.22,-0.001l0.221,-0.003l0.22,-0.003l0.22,-0.005l0.222,-0.005l0.221,-0.007l0.221,-0.007l0.221,-0.008l0.221,-0.009l0.222,-0.011l0.221,-0.011l0.221,-0.011l0.223,-0.013l0.222,-0.014l0.222,-0.014l0.223,-0.016l0.221,-0.016l0.222,-0.017l0.223,-0.018l0.223,-0.019l0.222,-0.019l0.223,-0.02l0.223,-0.021l0.223,-0.022l0.223,-0.022l0.223,-0.024l0.223,-0.024l0.223,-0.024l0.223,-0.026l0.223,-0.026l0.216,-0.026l0.453,-0.056l0.446,-0.058l0.447,-0.061l0.446,-0.062l0.446,-0.066l0.446,-0.067l0.446,-0.069l0.445,-0.071l0.445,-0.074l0.445,-0.075l0.444,-0.076l0.444,-0.078l0.444,-0.08l0.443,-0.08l0.442,-0.082l0.442,-0.083l0.442,-0.084l0.441,-0.085l0.44,-0.086l0.437,-0.086l0.881,-0.174l0.876,-0.176l1.741,-0.35l0.867,-0.173l0.86,-0.169l0.435,-0.084l0.431,-0.083l0.43,-0.081l0.431,-0.081l0.43,-0.078l0.429,-0.077l0.429,-0.075l0.43,-0.074l0.429,-0.071l0.429,-0.069l0.43,-0.066l0.429,-0.064l0.431,-0.061l0.431,-0.058l0.422,-0.054l0.225,-0.027l0.216,-0.026l0.216,-0.024l0.217,-0.023l0.218,-0.023l0.218,-0.021l0.217,-0.021l0.219,-0.019l0.219,-0.018l0.219,-0.018l0.219,-0.015l0.22,-0.015l0.222,-0.014l0.222,-0.012l0.221,-0.01l0.222,-0.01l0.223,-0.008l0.225,-0.006l0.224,-0.005l0.225,-0.003l0.227,-0.002l0.227,0l0.227,0.002l0.228,0.004l0.23,0.005l0.231,0.008l0.231,0.01l0.233,0.012l0.233,0.014l0.235,0.016l0.236,0.019l0.237,0.021l0.238,0.024l0.239,0.026l0.239,0.029l0.241,0.032l0.244,0.035l0.244,0.039l0.244,0.041l0.246,0.044l0.248,0.048l0.248,0.052l0.249,0.055l0.25,0.059l0.252,0.063l0.254,0.067l0.252,0.07l0.254,0.076l0.256,0.08l0.255,0.084l0.257,0.088l0.257,0.094l0.257,0.098l0.256,0.103l0.259,0.11l0.258,0.113l0.256,0.119l0.257,0.124l0.257,0.13l0.256,0.135l0.254,0.141l0.254,0.146l0.252,0.152l0.251,0.157l0.249,0.164l0.246,0.168l0.244,0.174l0.243,0.18l0.239,0.185l0.236,0.19l0.234,0.196l0.229,0.2l0.226,0.205l0.222,0.211l0.218,0.215l0.215,0.219l0.209,0.224l0.206,0.228l0.2,0.232l0.197,0.236l0.191,0.24l0.185,0.242l0.181,0.246l0.176,0.248l0.171,0.252l0.166,0.254l0.161,0.257l0.155,0.258l0.149,0.261l0.146,0.263l0.14,0.265l0.134,0.265l0.13,0.268l0.125,0.268l0.119,0.27l0.115,0.271l0.111,0.271l0.106,0.274l0.101,0.273l0.096,0.274l0.092,0.275l0.088,0.275l0.084,0.277l0.08,0.277l0.075,0.275l0.072,0.279l0.068,0.278l0.064,0.278l0.061,0.279l0.057,0.28l0.054,0.281l0.05,0.28l0.048,0.282l0.044,0.282l0.04,0.283l0.038,0.282l0.035,0.284l0.032,0.285l0.029,0.285l0.026,0.286l0.024,0.288l0.02,0.288l0.019,0.288l0.015,0.291l0.014,0.291l0.01,0.292l0.008,0.293l0.006,0.295l0.004,0.296l0.001,0.296l-0.001,0.295l-0.003,0.295l-0.006,0.294l-0.007,0.294l-0.01,0.296l-0.011,0.295l-0.014,0.294l-0.015,0.296l-0.018,0.295l-0.019,0.295l-0.022,0.296l-0.023,0.295l-0.025,0.297l-0.028,0.295l-0.029,0.296l-0.031,0.296l-0.033,0.296l-0.035,0.296l-0.036,0.296l-0.039,0.297l-0.04,0.296l-0.043,0.297l-0.043,0.296l-0.046,0.297l-0.048,0.297l-0.049,0.296l-0.051,0.297l-0.053,0.297l-0.055,0.297l-0.056,0.297l-0.058,0.297l-0.059,0.296l-0.062,0.297l-0.063,0.297l-0.065,0.296l-0.066,0.298l-0.068,0.296l-0.07,0.297l-0.071,0.297l-0.074,0.297l-0.074,0.296l-0.076,0.297l-0.078,0.296l-0.08,0.297l-0.081,0.297l-0.083,0.296l-0.084,0.297l-0.086,0.296l-0.087,0.296l-0.089,0.296l-0.091,0.296l-0.092,0.296l-0.094,0.295l-0.095,0.296l-0.096,0.295l-0.099,0.295l-0.1,0.296l-0.101,0.295l-0.103,0.295l-0.104,0.294l-0.106,0.295l-0.107,0.294l-0.109,0.294l-0.11,0.293l-0.112,0.294l-0.113,0.294l-0.115,0.293l-0.116,0.293l-0.117,0.292l-0.119,0.293l-0.121,0.292l-0.122,0.291l-0.123,0.292l-0.125,0.292l-0.126,0.29l-0.128,0.291l-0.129,0.29l-0.131,0.29l-0.132,0.29l-0.133,0.289l-0.135,0.289l-0.136,0.288l-0.137,0.288l-0.139,0.288l-0.14,0.287l-0.142,0.287l-0.143,0.287l-0.145,0.286l-0.146,0.286l-0.147,0.285l-0.148,0.284l-0.15,0.285l-0.152,0.283l-0.152,0.284l-0.154,0.283l-0.156,0.281l-0.156,0.282l-0.159,0.281l-0.159,0.281l-0.161,0.28l-0.162,0.28l-0.163,0.278l-0.165,0.279l-0.166,0.278l-0.167,0.276l-0.169,0.277l-0.17,0.276l-0.172,0.275l-0.173,0.275l-0.173,0.273l-0.176,0.274l-0.177,0.272l-0.178,0.272l-0.179,0.271l-0.18,0.271l-0.182,0.27l-0.183,0.268l-0.185,0.269l-0.186,0.267l-0.187,0.266l-0.188,0.266l-0.19,0.266l-0.191,0.264l-0.192,0.263l-0.194,0.262l-0.195,0.262l-0.196,0.261l-0.197,0.26l-0.199,0.259l-0.2,0.259l-0.201,0.256l-0.203,0.257l-0.204,0.255l-0.205,0.255l-0.206,0.253l-0.208,0.253l-0.209,0.251l-0.211,0.251l-0.211,0.25l-0.213,0.248l-0.214,0.247l-0.215,0.247l-0.217,0.246l-0.218,0.243l-0.219,0.244l-0.221,0.242l-0.222,0.241l-0.223,0.24l-0.224,0.238l-0.225,0.238l-0.228,0.236l-0.228,0.235l-0.229,0.234l-0.231,0.233l-0.232,0.232l-0.233,0.23l-0.235,0.229l-0.236,0.228l-0.237,0.226l-0.238,0.225l-0.24,0.224l-0.241,0.223l-0.243,0.221l-0.243,0.22l-0.245,0.218l-0.247,0.218l-0.247,0.215l-0.249,0.214l-0.25,0.213l-0.252,0.212l-0.252,0.209l-0.254,0.208l-0.256,0.207l-0.256,0.205l-0.258,0.204l-0.259,0.202l-0.261,0.201l-0.262,0.199l-0.263,0.197l-0.264,0.196l-0.266,0.194l-0.268,0.193l-0.268,0.19l-0.27,0.189l-0.271,0.188l-0.272,0.185l-0.274,0.184l-0.275,0.182l-0.276,0.18l-0.278,0.178l-0.279,0.177l-0.28,0.174l-0.282,0.173l-0.283,0.171l-0.285,0.169l-0.285,0.167l-0.287,0.165l-0.289,0.162l-0.289,0.161l-0.291,0.159l-0.292,0.157l-0.294,0.155l-0.295,0.152l-0.296,0.15l-0.298,0.149l-0.299,0.146l-0.3,0.144l-0.302,0.141l-0.303,0.139l-0.303,0.137l-0.306,0.135l-0.307,0.133l-0.308,0.129l-0.309,0.128l-0.311,0.125l-0.312,0.123l-0.313,0.12l-0.315,0.117l-0.316,0.116l-0.316,0.112l-0.319,0.11l-0.32,0.108l-0.32,0.104l-0.322,0.102l-0.323,0.099l-0.324,0.097l-0.326,0.094l-0.327,0.091l-0.328,0.088l-0.328,0.085l-0.331,0.083l-0.331,0.079l-0.333,0.077l-0.334,0.074l-0.334,0.07l-0.335,0.068l-0.337,0.065l-0.338,0.061l-0.339,0.059l-0.34,0.055l-0.34,0.052l-0.342,0.049l-0.343,0.046l-0.344,0.042l-0.344,0.04l-0.345,0.036l-0.346,0.032l-0.348,0.03l-0.346,0.026l-0.349,0.022l-0.351,0.019l-0.35,0.016l-0.35,0.012l-0.351,0.009l-0.352,0.005l-0.353,0.002l-0.353,-0.002l-0.351,-0.005l-0.352,-0.009l-0.35,-0.012l-0.35,-0.016l-0.351,-0.019l-0.348,-0.022l-0.347,-0.026l-0.348,-0.03l-0.346,-0.032l-0.345,-0.036l-0.344,-0.04l-0.344,-0.042l-0.342,-0.046l-0.342,-0.049l-0.34,-0.052l-0.34,-0.055l-0.34,-0.059l-0.337,-0.061l-0.337,-0.065l-0.336,-0.068l-0.334,-0.07l-0.334,-0.074l-0.332,-0.077l-0.331,-0.079l-0.331,-0.083l-0.329,-0.085l-0.327,-0.088l-0.327,-0.091l-0.326,-0.094l-0.325,-0.097l-0.323,-0.099l-0.321,-0.102l-0.32,-0.104l-0.321,-0.108l-0.318,-0.11l-0.317,-0.112l-0.316,-0.116l-0.314,-0.117l-0.314,-0.12l-0.311,-0.123l-0.311,-0.125l-0.309,-0.128l-0.308,-0.129l-0.307,-0.133l-0.306,-0.135l-0.304,-0.137l-0.302,-0.139l-0.302,-0.141l-0.3,-0.144l-0.299,-0.146l-0.298,-0.149l-0.297,-0.15l-0.294,-0.152l-0.294,-0.155l-0.292,-0.157l-0.291,-0.159l-0.29,-0.161l-0.288,-0.162l-0.287,-0.165l-0.286,-0.167l-0.284,-0.169l-0.283,-0.171l-0.282,-0.173l-0.28,-0.174l-0.279,-0.177l-0.278,-0.178l-0.276,-0.18l-0.275,-0.182l-0.274,-0.184l-0.273,-0.186l-0.271,-0.187l-0.27,-0.189l-0.268,-0.19l-0.267,-0.193l-0.266,-0.194l-0.264,-0.196l-0.263,-0.197l-0.262,-0.199l-0.261,-0.201l-0.259,-0.202l-0.259,-0.204l-0.256,-0.205l-0.255,-0.206l-0.254,-0.209l-0.253,-0.21l-0.251,-0.211l-0.251,-0.213l-0.248,-0.214l-0.248,-0.215l-0.246,-0.218l-0.245,-0.218l-0.244,-0.22l-0.242,-0.221l-0.241,-0.223l-0.24,-0.224l-0.238,-0.225l-0.237,-0.226l-0.236,-0.228l-0.235,-0.229l-0.234,-0.23l-0.231,-0.232l-0.231,-0.233l-0.23,-0.234l-0.228,-0.235l-0.227,-0.236l-0.226,-0.238l-0.224,-0.238l-0.223,-0.24l-0.222,-0.241l-0.22,-0.242l-0.22,-0.244l-0.217,-0.243l-0.217,-0.246l-0.216,-0.247l-0.214,-0.247l-0.212,-0.248l-0.212,-0.25l-0.21,-0.251l-0.209,-0.251l-0.208,-0.253l-0.206,-0.253l-0.206,-0.255l-0.203,-0.255l-0.203,-0.257l-0.201,-0.257l-0.2,-0.258l-0.199,-0.259l-0.197,-0.26l-0.197,-0.261l-0.195,-0.262l-0.193,-0.262l-0.192,-0.263l-0.191,-0.264l-0.19,-0.265l-0.189,-0.267l-0.187,-0.266l-0.185,-0.267l-0.185,-0.269l-0.183,-0.268l-0.182,-0.27l-0.181,-0.271l-0.179,-0.271l-0.178,-0.272l-0.177,-0.272l-0.175,-0.274l-0.174,-0.273l-0.173,-0.275l-0.171,-0.275l-0.17,-0.276l-0.169,-0.277l-0.167,-0.276l-0.166,-0.278l-0.165,-0.279l-0.163,-0.278l-0.162,-0.279l-0.162,-0.281l-0.159,-0.281l-0.158,-0.281l-0.157,-0.282l-0.155,-0.281l-0.154,-0.283l-0.153,-0.284l-0.151,-0.283l-0.15,-0.284l-0.149,-0.285l-0.147,-0.286l-0.146,-0.285l-0.144,-0.286l-0.143,-0.286l-0.142,-0.288l-0.14,-0.287l-0.139,-0.288l-0.138,-0.288l-0.136,-0.288l-0.135,-0.289l-0.133,-0.289l-0.132,-0.29l-0.13,-0.29l-0.129,-0.29l-0.128,-0.291l-0.126,-0.29l-0.125,-0.292l-0.124,-0.292l-0.121,-0.291l-0.121,-0.292l-0.119,-0.293l-0.117,-0.292l-0.117,-0.293l-0.114,-0.293l-0.114,-0.294l-0.111,-0.294l-0.11,-0.293l-0.109,-0.294l-0.108,-0.295l-0.105,-0.294l-0.105,-0.294l-0.103,-0.295l-0.101,-0.295l-0.1,-0.295l-0.098,-0.296l-0.097,-0.295l-0.095,-0.295l-0.093,-0.296l-0.093,-0.296l-0.09,-0.296l-0.089,-0.296l-0.088,-0.296l-0.085,-0.296l-0.085,-0.297l-0.082,-0.296l-0.082,-0.297l-0.079,-0.297l-0.078,-0.296l-0.076,-0.297l-0.075,-0.297l-0.073,-0.296l-0.071,-0.297l-0.07,-0.297l-0.068,-0.296l-0.067,-0.297l-0.064,-0.297l-0.064,-0.297l-0.061,-0.297l-0.06,-0.297l-0.058,-0.296l-0.056,-0.297l-0.054,-0.297l-0.053,-0.297l-0.051,-0.297l-0.05,-0.296l-0.047,-0.297l-0.046,-0.297l-0.044,-0.296l-0.042,-0.297l-0.04,-0.296l-0.039,-0.296l-0.037,-0.297l-0.034,-0.296l-0.033,-0.296l-0.031,-0.296l-0.03,-0.296l-0.027,-0.295l-0.025,-0.297l-0.024,-0.295l-0.021,-0.295l-0.02,-0.296l-0.017,-0.295l-0.016,-0.295l-0.013,-0.296l-0.012,-0.295l-0.009,-0.295l-0.008,-0.294l-0.005,-0.294l-0.003,-0.295l-0.001,-0.293l0.001,-0.291l0.003,-0.287l0.005,-0.288l0.007,-0.285l0.009,-0.284l0.012,-0.283l0.013,-0.282l0.016,-0.28l0.018,-0.279l0.021,-0.279l0.022,-0.277l0.026,-0.277l0.027,-0.275l0.03,-0.274l0.033,-0.275l0.036,-0.273l0.038,-0.272l0.04,-0.272l0.044,-0.271l0.047,-0.271l0.049,-0.271l0.053,-0.268l0.056,-0.269l0.059,-0.269l0.062,-0.269l0.066,-0.268l0.069,-0.267l0.073,-0.267l0.077,-0.267l0.08,-0.266l0.085,-0.266l0.088,-0.265l0.092,-0.265l0.097,-0.264l0.101,-0.264l0.106,-0.264l0.11,-0.262l0.114,-0.261l0.12,-0.261l0.124,-0.26l0.129,-0.259l0.133,-0.257l0.139,-0.255l0.144,-0.256l0.15,-0.253l0.153,-0.25l0.16,-0.249l0.164,-0.247l0.17,-0.244l0.175,-0.242l0.18,-0.24l0.185,-0.235l0.19,-0.233l0.195,-0.229l0.2,-0.226l0.204,-0.222l0.209,-0.217l0.213,-0.214l0.218,-0.209l0.221,-0.204l0.226,-0.2l0.229,-0.194l0.232,-0.19l0.237,-0.185l0.238,-0.179l0.241,-0.173l0.244,-0.169l0.246,-0.162l0.247,-0.157l0.25,-0.151l0.252,-0.146l0.252,-0.14l0.254,-0.134l0.253,-0.128l0.255,-0.124l0.257,-0.118l0.255,-0.112l0.255,-0.107l0.256,-0.102l0.255,-0.096l0.254,-0.092l0.255,-0.087l0.254,-0.082l0.25,-0.076l0.252,-0.073l0.252,-0.068l0.249,-0.064l0.248,-0.06l0.246,-0.056l0.247,-0.052l0.244,-0.048l0.243,-0.044l0.241,-0.041l0.242,-0.038l0.238,-0.035l0.237,-0.031l0.236,-0.028l0.235,-0.026l0.233,-0.023l0.232,-0.02l0.231,-0.017l0.23,-0.015l0.228,-0.013l0.226,-0.01l0.226,-0.008l0.224,-0.006l0.223,-0.004l0.221,-0.002l0.222,0l0.22,0.002Zm-0.398,9.091l-0.144,0.002l-0.142,0.002l-0.142,0.004l-0.14,0.005l-0.14,0.006l-0.138,0.008l-0.137,0.009l-0.136,0.01l-0.135,0.012l-0.134,0.013l-0.132,0.014l-0.131,0.016l-0.131,0.017l-0.129,0.019l-0.128,0.02l-0.126,0.021l-0.126,0.023l-0.124,0.025l-0.123,0.026l-0.122,0.028l-0.121,0.029l-0.12,0.03l-0.118,0.033l-0.117,0.033l-0.116,0.036l-0.115,0.037l-0.114,0.039l-0.112,0.04l-0.111,0.042l-0.11,0.044l-0.109,0.045l-0.107,0.048l-0.106,0.048l-0.105,0.051l-0.104,0.053l-0.102,0.054l-0.101,0.056l-0.1,0.058l-0.099,0.06l-0.097,0.061l-0.096,0.064l-0.095,0.065l-0.093,0.067l-0.093,0.069l-0.091,0.072l-0.089,0.073l-0.088,0.075l-0.087,0.077l-0.086,0.079l-0.084,0.081l-0.083,0.083l-0.082,0.085l-0.081,0.087l-0.079,0.09l-0.077,0.091l-0.077,0.094l-0.075,0.095l-0.073,0.098l-0.073,0.1l-0.071,0.102l-0.069,0.105l-0.069,0.106l-0.067,0.109l-0.065,0.111l-0.064,0.114l-0.063,0.115l-0.061,0.118l-0.06,0.121l-0.059,0.122l-0.057,0.125l-0.056,0.127l-0.054,0.13l-0.053,0.132l-0.051,0.135l-0.05,0.137l-0.049,0.139l-0.047,0.142l-0.046,0.144l-0.045,0.147l-0.042,0.149l-0.042,0.152l-0.04,0.155l-0.039,0.157l-0.037,0.159l-0.035,0.162l-0.034,0.165l-0.033,0.168l-0.031,0.17l-0.03,0.172l-0.028,0.176l-0.027,0.178l-0.025,0.181l-0.024,0.183l-0.022,0.186l-0.021,0.189l-0.019,0.192l-0.018,0.195l-0.016,0.197l-0.015,0.2l-0.013,0.203l-0.012,0.206l-0.01,0.209l-0.008,0.212l-0.007,0.214l-0.006,0.218l-0.004,0.22l-0.002,0.224l-0.001,0.226l0.001,0.228l0.002,0.23l0.004,0.229l0.006,0.231l0.008,0.232l0.009,0.232l0.01,0.233l0.013,0.234l0.014,0.235l0.015,0.235l0.017,0.236l0.019,0.237l0.021,0.237l0.021,0.238l0.024,0.239l0.025,0.239l0.027,0.24l0.028,0.241l0.03,0.241l0.031,0.242l0.033,0.242l0.035,0.243l0.036,0.243l0.038,0.244l0.039,0.245l0.041,0.245l0.042,0.245l0.044,0.246l0.045,0.247l0.047,0.247l0.048,0.247l0.05,0.248l0.051,0.248l0.053,0.248l0.054,0.249l0.056,0.25l0.058,0.249l0.058,0.25l0.061,0.251l0.061,0.25l0.063,0.251l0.065,0.252l0.066,0.251l0.068,0.252l0.069,0.252l0.07,0.252l0.072,0.253l0.073,0.252l0.075,0.253l0.076,0.253l0.077,0.254l0.079,0.253l0.08,0.254l0.082,0.253l0.083,0.254l0.085,0.254l0.086,0.254l0.087,0.254l0.088,0.254l0.09,0.254l0.092,0.254l0.092,0.255l0.094,0.254l0.096,0.254l0.097,0.254l0.098,0.254l0.099,0.254l0.101,0.254l0.102,0.254l0.103,0.254l0.105,0.254l0.106,0.254l0.107,0.253l0.109,0.253l0.11,0.254l0.111,0.253l0.112,0.252l0.114,0.253l0.115,0.253l0.116,0.252l0.118,0.252l0.118,0.251l0.12,0.252l0.122,0.251l0.122,0.251l0.124,0.25l0.125,0.251l0.126,0.25l0.128,0.249l0.128,0.249l0.13,0.249l0.131,0.249l0.132,0.248l0.134,0.247l0.135,0.247l0.135,0.247l0.137,0.246l0.139,0.246l0.139,0.246l0.141,0.244l0.141,0.245l0.143,0.244l0.144,0.243l0.145,0.243l0.147,0.242l0.147,0.241l0.149,0.241l0.149,0.241l0.151,0.239l0.152,0.239l0.153,0.239l0.154,0.238l0.155,0.237l0.157,0.236l0.157,0.236l0.159,0.235l0.159,0.234l0.161,0.234l0.162,0.233l0.163,0.232l0.164,0.231l0.165,0.231l0.166,0.229l0.167,0.229l0.168,0.228l0.169,0.227l0.17,0.227l0.171,0.225l0.173,0.224l0.173,0.224l0.174,0.223l0.175,0.222l0.177,0.22l0.177,0.22l0.178,0.219l0.179,0.218l0.18,0.217l0.182,0.216l0.182,0.215l0.183,0.214l0.184,0.212l0.185,0.212l0.186,0.211l0.187,0.209l0.188,0.209l0.189,0.207l0.19,0.206l0.19,0.205l0.192,0.204l0.193,0.203l0.193,0.201l0.194,0.201l0.196,0.199l0.196,0.198l0.197,0.196l0.198,0.196l0.199,0.194l0.199,0.192l0.201,0.192l0.201,0.19l0.203,0.189l0.203,0.188l0.204,0.186l0.205,0.185l0.205,0.183l0.207,0.182l0.207,0.181l0.209,0.179l0.209,0.178l0.209,0.176l0.211,0.175l0.212,0.174l0.212,0.171l0.213,0.171l0.214,0.169l0.214,0.167l0.216,0.166l0.216,0.164l0.217,0.163l0.218,0.161l0.218,0.16l0.22,0.158l0.22,0.156l0.221,0.155l0.221,0.153l0.222,0.151l0.223,0.15l0.224,0.148l0.225,0.146l0.225,0.145l0.226,0.143l0.226,0.141l0.227,0.139l0.228,0.138l0.229,0.136l0.23,0.134l0.23,0.132l0.23,0.13l0.232,0.129l0.232,0.126l0.233,0.125l0.233,0.123l0.234,0.121l0.235,0.119l0.235,0.118l0.236,0.115l0.237,0.113l0.237,0.111l0.238,0.11l0.238,0.107l0.24,0.106l0.239,0.103l0.241,0.101l0.241,0.1l0.241,0.097l0.242,0.095l0.243,0.093l0.243,0.091l0.244,0.089l0.244,0.087l0.245,0.085l0.246,0.082l0.246,0.081l0.247,0.078l0.247,0.076l0.248,0.073l0.248,0.072l0.249,0.069l0.249,0.067l0.25,0.065l0.25,0.063l0.251,0.06l0.251,0.058l0.252,0.055l0.252,0.054l0.253,0.051l0.254,0.048l0.253,0.047l0.255,0.043l0.254,0.042l0.256,0.039l0.255,0.037l0.257,0.034l0.256,0.032l0.257,0.029l0.258,0.027l0.257,0.024l0.259,0.022l0.259,0.019l0.259,0.017l0.259,0.014l0.26,0.012l0.261,0.009l0.261,0.006l0.261,0.004l0.261,0.002l0.262,-0.002l0.261,-0.004l0.261,-0.006l0.26,-0.009l0.26,-0.012l0.26,-0.014l0.259,-0.017l0.259,-0.019l0.258,-0.022l0.258,-0.024l0.257,-0.027l0.257,-0.029l0.257,-0.032l0.256,-0.034l0.256,-0.037l0.255,-0.039l0.255,-0.042l0.254,-0.043l0.254,-0.047l0.253,-0.048l0.253,-0.051l0.252,-0.054l0.252,-0.055l0.252,-0.058l0.251,-0.06l0.25,-0.063l0.25,-0.065l0.249,-0.067l0.249,-0.069l0.248,-0.072l0.248,-0.073l0.247,-0.076l0.247,-0.078l0.246,-0.081l0.245,-0.082l0.245,-0.085l0.245,-0.087l0.243,-0.089l0.244,-0.091l0.242,-0.093l0.243,-0.095l0.241,-0.097l0.241,-0.1l0.24,-0.101l0.24,-0.103l0.239,-0.106l0.239,-0.107l0.238,-0.11l0.237,-0.111l0.236,-0.113l0.236,-0.115l0.236,-0.118l0.234,-0.119l0.235,-0.121l0.233,-0.123l0.233,-0.125l0.232,-0.126l0.231,-0.129l0.231,-0.13l0.23,-0.132l0.229,-0.134l0.229,-0.136l0.228,-0.138l0.227,-0.139l0.227,-0.141l0.226,-0.143l0.225,-0.145l0.224,-0.146l0.224,-0.148l0.223,-0.15l0.222,-0.151l0.222,-0.153l0.221,-0.155l0.22,-0.156l0.219,-0.158l0.219,-0.16l0.217,-0.161l0.217,-0.163l0.217,-0.164l0.215,-0.166l0.215,-0.167l0.214,-0.169l0.213,-0.171l0.212,-0.171l0.211,-0.174l0.211,-0.175l0.21,-0.176l0.209,-0.178l0.208,-0.179l0.208,-0.181l0.206,-0.182l0.206,-0.183l0.205,-0.185l0.204,-0.186l0.203,-0.188l0.202,-0.189l0.202,-0.19l0.2,-0.192l0.2,-0.192l0.199,-0.194l0.198,-0.196l0.197,-0.196l0.196,-0.198l0.195,-0.199l0.195,-0.201l0.193,-0.201l0.193,-0.203l0.191,-0.204l0.191,-0.205l0.19,-0.206l0.189,-0.207l0.187,-0.209l0.187,-0.209l0.186,-0.211l0.185,-0.212l0.185,-0.212l0.183,-0.214l0.182,-0.215l0.181,-0.216l0.18,-0.217l0.18,-0.218l0.178,-0.219l0.177,-0.22l0.176,-0.22l0.176,-0.222l0.174,-0.223l0.173,-0.224l0.172,-0.224l0.171,-0.225l0.171,-0.227l0.169,-0.227l0.168,-0.228l0.167,-0.229l0.166,-0.229l0.165,-0.231l0.164,-0.231l0.163,-0.232l0.161,-0.233l0.161,-0.234l0.16,-0.234l0.158,-0.235l0.158,-0.236l0.156,-0.236l0.155,-0.237l0.155,-0.238l0.153,-0.239l0.151,-0.239l0.151,-0.239l0.15,-0.241l0.149,-0.241l0.147,-0.241l0.146,-0.242l0.145,-0.243l0.145,-0.243l0.142,-0.244l0.142,-0.245l0.141,-0.244l0.139,-0.246l0.138,-0.246l0.137,-0.246l0.136,-0.247l0.135,-0.247l0.133,-0.247l0.132,-0.248l0.132,-0.249l0.129,-0.249l0.129,-0.249l0.127,-0.249l0.127,-0.25l0.125,-0.251l0.123,-0.25l0.123,-0.251l0.121,-0.251l0.12,-0.252l0.119,-0.251l0.117,-0.252l0.117,-0.252l0.115,-0.253l0.113,-0.253l0.113,-0.252l0.111,-0.253l0.11,-0.254l0.108,-0.253l0.108,-0.253l0.106,-0.254l0.104,-0.254l0.104,-0.254l0.102,-0.254l0.101,-0.254l0.099,-0.254l0.098,-0.254l0.097,-0.254l0.095,-0.254l0.094,-0.254l0.093,-0.255l0.091,-0.254l0.09,-0.254l0.089,-0.254l0.087,-0.254l0.086,-0.254l0.084,-0.254l0.083,-0.254l0.082,-0.253l0.08,-0.254l0.079,-0.253l0.078,-0.254l0.076,-0.253l0.075,-0.253l0.073,-0.252l0.072,-0.253l0.07,-0.252l0.069,-0.252l0.068,-0.252l0.066,-0.251l0.064,-0.252l0.063,-0.251l0.062,-0.25l0.06,-0.251l0.059,-0.25l0.057,-0.249l0.056,-0.25l0.054,-0.249l0.053,-0.248l0.052,-0.248l0.049,-0.248l0.049,-0.247l0.047,-0.247l0.045,-0.247l0.044,-0.246l0.042,-0.245l0.041,-0.245l0.039,-0.245l0.037,-0.244l0.037,-0.243l0.034,-0.243l0.033,-0.242l0.032,-0.242l0.029,-0.241l0.029,-0.241l0.026,-0.24l0.026,-0.239l0.023,-0.239l0.022,-0.238l0.02,-0.237l0.019,-0.237l0.017,-0.236l0.016,-0.235l0.014,-0.235l0.012,-0.234l0.011,-0.233l0.009,-0.232l0.007,-0.232l0.006,-0.231l0.004,-0.229l0.003,-0.23l0.001,-0.228l-0.001,-0.226l-0.003,-0.224l-0.004,-0.22l-0.006,-0.218l-0.008,-0.214l-0.01,-0.212l-0.011,-0.209l-0.013,-0.206l-0.015,-0.203l-0.016,-0.2l-0.018,-0.197l-0.02,-0.195l-0.022,-0.192l-0.023,-0.189l-0.025,-0.186l-0.026,-0.183l-0.028,-0.181l-0.03,-0.178l-0.032,-0.176l-0.033,-0.172l-0.034,-0.17l-0.037,-0.168l-0.038,-0.165l-0.04,-0.162l-0.041,-0.159l-0.043,-0.157l-0.044,-0.155l-0.046,-0.152l-0.048,-0.149l-0.049,-0.147l-0.051,-0.144l-0.052,-0.142l-0.054,-0.139l-0.056,-0.137l-0.057,-0.135l-0.059,-0.132l-0.06,-0.13l-0.062,-0.127l-0.063,-0.125l-0.065,-0.122l-0.066,-0.121l-0.068,-0.118l-0.07,-0.115l-0.071,-0.114l-0.072,-0.111l-0.074,-0.109l-0.075,-0.106l-0.077,-0.105l-0.079,-0.102l-0.079,-0.1l-0.082,-0.098l-0.082,-0.095l-0.085,-0.094l-0.085,-0.091l-0.087,-0.09l-0.089,-0.087l-0.09,-0.085l-0.091,-0.083l-0.093,-0.081l-0.095,-0.079l-0.095,-0.077l-0.097,-0.075l-0.099,-0.073l-0.1,-0.072l-0.101,-0.069l-0.103,-0.067l-0.104,-0.065l-0.105,-0.064l-0.107,-0.061l-0.108,-0.06l-0.109,-0.058l-0.111,-0.056l-0.112,-0.054l-0.114,-0.053l-0.115,-0.051l-0.116,-0.048l-0.117,-0.048l-0.119,-0.045l-0.12,-0.044l-0.122,-0.042l-0.122,-0.04l-0.124,-0.039l-0.126,-0.037l-0.126,-0.036l-0.128,-0.033l-0.129,-0.033l-0.13,-0.03l-0.132,-0.029l-0.133,-0.028l-0.134,-0.026l-0.135,-0.025l-0.137,-0.023l-0.138,-0.021l-0.139,-0.02l-0.14,-0.019l-0.142,-0.017l-0.142,-0.016l-0.144,-0.014l-0.145,-0.013l-0.147,-0.012l-0.147,-0.01l-0.149,-0.009l-0.149,-0.008l-0.151,-0.006l-0.152,-0.005l-0.154,-0.004l-0.154,-0.002l-0.156,-0.002l-0.156,0l-0.158,0.001l-0.159,0.003l-0.16,0.003l-0.161,0.005l-0.163,0.006l-0.163,0.007l-0.165,0.008l-0.165,0.009l-0.167,0.01l-0.168,0.011l-0.168,0.012l-0.17,0.013l-0.171,0.015l-0.172,0.015l-0.173,0.016l-0.175,0.017l-0.175,0.019l-0.176,0.019l-0.177,0.02l-0.178,0.02l-0.18,0.022l-0.361,0.046l-0.366,0.049l-0.369,0.053l-0.373,0.055l-0.378,0.059l-0.381,0.061l-0.385,0.064l-0.388,0.066l-0.392,0.069l-0.396,0.071l-0.4,0.073l-0.403,0.075l-0.406,0.077l-0.41,0.078l-0.414,0.08l-0.836,0.165l-0.85,0.17l-1.737,0.349l-0.887,0.177l-0.899,0.179l-0.453,0.089l-0.456,0.088l-0.459,0.089l-0.462,0.088l-0.464,0.087l-0.467,0.086l-0.469,0.086l-0.472,0.084l-0.474,0.084l-0.477,0.082l-0.479,0.08l-0.481,0.08l-0.484,0.077l-0.486,0.076l-0.488,0.073l-0.49,0.072l-0.492,0.069l-0.494,0.067l-0.496,0.065l-0.499,0.062l-0.249,0.029l-0.251,0.03l-0.25,0.028l-0.252,0.028l-0.251,0.027l-0.252,0.026l-0.253,0.026l-0.253,0.025l-0.253,0.023l-0.254,0.023l-0.254,0.023l-0.255,0.021l-0.255,0.02l-0.255,0.02l-0.256,0.019l-0.256,0.017l-0.257,0.017l-0.257,0.016l-0.257,0.015l-0.258,0.014l-0.258,0.012l-0.258,0.012l-0.259,0.011l-0.259,0.01l-0.259,0.008l-0.26,0.008l-0.26,0.006l-0.261,0.005l-0.26,0.005l-0.261,0.003l-0.262,0.001l-0.261,0.001l-0.262,-0.001l-0.261,-0.001l-0.261,-0.003l-0.26,-0.005l-0.259,-0.005l-0.259,-0.006l-0.259,-0.008l-0.258,-0.008l-0.257,-0.01l-0.258,-0.011l-0.256,-0.012l-0.256,-0.012l-0.255,-0.014l-0.255,-0.015l-0.255,-0.016l-0.254,-0.017l-0.253,-0.017l-0.253,-0.019l-0.252,-0.02l-0.252,-0.02l-0.251,-0.021l-0.25,-0.023l-0.25,-0.023l-0.249,-0.023l-0.249,-0.025l-0.248,-0.026l-0.248,-0.026l-0.247,-0.027l-0.246,-0.028l-0.246,-0.028l-0.245,-0.03l-0.245,-0.029l-0.487,-0.062l-0.485,-0.065l-0.482,-0.067l-0.48,-0.069l-0.477,-0.072l-0.475,-0.073l-0.472,-0.076l-0.469,-0.077l-0.466,-0.08l-0.464,-0.08l-0.461,-0.082l-0.458,-0.084l-0.455,-0.084l-0.452,-0.086l-0.45,-0.086l-0.446,-0.087l-0.443,-0.088l-0.441,-0.089l-0.437,-0.088l-0.434,-0.089l-0.859,-0.179l-0.846,-0.177l-1.653,-0.349l-0.805,-0.17l-0.793,-0.165l-0.39,-0.08l-0.387,-0.078l-0.384,-0.077l-0.38,-0.075l-0.376,-0.073l-0.372,-0.071l-0.369,-0.069l-0.365,-0.066l-0.361,-0.064l-0.357,-0.061l-0.354,-0.059l-0.349,-0.055l-0.346,-0.053l-0.341,-0.049l-0.338,-0.046l-0.333,-0.042l-0.165,-0.02l-0.164,-0.019l-0.164,-0.019l-0.162,-0.017l-0.161,-0.016l-0.16,-0.015l-0.159,-0.015l-0.158,-0.013l-0.156,-0.012l-0.156,-0.011l-0.155,-0.01l-0.154,-0.009l-0.152,-0.008l-0.152,-0.007l-0.15,-0.006l-0.149,-0.005l-0.149,-0.003l-0.147,-0.003l-0.146,-0.001l-0.145,0Z" style="fill:#3d3d3d;"/>
            </g>
        </g>
    </g>
</svg>
