<?xml version="1.0" encoding="UTF-8" standalone="no"?>
<!DOCTYPE svg PUBLIC "-//W3C//DTD SVG 1.1//EN" "http://www.w3.org/Graphics/SVG/1.1/DTD/svg11.dtd">
<svg width="100%" height="100%" viewBox="0 0 702 309" version="1.1" xmlns="http://www.w3.org/2000/svg" xmlns:xlink="http://www.w3.org/1999/xlink" xml:space="preserve" xmlns:serif="http://www.serif.com/" style="fill-rule:evenodd;clip-rule:evenodd;stroke-linejoin:round;stroke-miterlimit:2;">
    <rect id="Full" x="0" y="0" width="701.528" height="308.009" style="fill:none;"/>
    <g id="full">
        <g transform="matrix(14.1623,0,0,14.1623,-1377.23,-2952.51)">
            <path d="M120.33,217.283c-0.112,0.112 -0.274,0.198 -0.486,0.258c-0.212,0.06 -0.466,0.09 -0.762,0.09c-0.296,0 -0.576,-0.044 -0.84,-0.132c-0.264,-0.088 -0.48,-0.3 -0.648,-0.636l-1.188,-2.424c-0.12,-0.248 -0.228,-0.482 -0.324,-0.702c-0.096,-0.22 -0.2,-0.474 -0.312,-0.762l-0.072,0.012c0.032,0.432 0.05,0.872 0.054,1.32c0.004,0.448 0.006,0.888 0.006,1.32l0,1.86c-0.088,0.024 -0.222,0.048 -0.402,0.072c-0.18,0.024 -0.358,0.036 -0.534,0.036c-0.176,0 -0.332,-0.012 -0.468,-0.036c-0.136,-0.024 -0.248,-0.072 -0.336,-0.144c-0.088,-0.072 -0.156,-0.17 -0.204,-0.294c-0.048,-0.124 -0.072,-0.286 -0.072,-0.486l0,-6c0.112,-0.16 0.284,-0.28 0.516,-0.36c0.232,-0.08 0.48,-0.12 0.744,-0.12c0.296,0 0.578,0.046 0.846,0.138c0.268,0.092 0.482,0.302 0.642,0.63l1.2,2.424c0.12,0.248 0.228,0.482 0.324,0.702c0.096,0.22 0.2,0.474 0.312,0.762l0.06,-0.012c-0.032,-0.432 -0.052,-0.864 -0.06,-1.296c-0.008,-0.432 -0.012,-0.864 -0.012,-1.296l0,-1.944c0.088,-0.024 0.222,-0.048 0.402,-0.072c0.18,-0.024 0.358,-0.036 0.534,-0.036c0.352,0 0.62,0.062 0.804,0.186c0.184,0.124 0.276,0.382 0.276,0.774l0,6.168Z" style="fill:#e7e7e7;fill-rule:nonzero;stroke:#3d3d3d;stroke-width:0.39px;"/>
            <path d="M123.162,216.239c0.136,0 0.286,-0.014 0.45,-0.042c0.164,-0.028 0.286,-0.066 0.366,-0.114l0,-0.96l-0.864,0.072c-0.224,0.016 -0.408,0.064 -0.552,0.144c-0.144,0.08 -0.216,0.2 -0.216,0.36c0,0.16 0.062,0.29 0.186,0.39c0.124,0.1 0.334,0.15 0.63,0.15Zm-0.096,-4.716c0.432,0 0.826,0.044 1.182,0.132c0.356,0.088 0.66,0.222 0.912,0.402c0.252,0.18 0.446,0.408 0.582,0.684c0.136,0.276 0.204,0.602 0.204,0.978l0,2.688c0,0.208 -0.058,0.378 -0.174,0.51c-0.116,0.132 -0.254,0.246 -0.414,0.342c-0.52,0.312 -1.252,0.468 -2.196,0.468c-0.424,0 -0.806,-0.04 -1.146,-0.12c-0.34,-0.08 -0.632,-0.2 -0.876,-0.36c-0.244,-0.16 -0.432,-0.364 -0.564,-0.612c-0.132,-0.248 -0.198,-0.536 -0.198,-0.864c0,-0.552 0.164,-0.976 0.492,-1.272c0.328,-0.296 0.836,-0.48 1.524,-0.552l1.572,-0.168l0,-0.084c0,-0.232 -0.102,-0.398 -0.306,-0.498c-0.204,-0.1 -0.498,-0.15 -0.882,-0.15c-0.304,0 -0.6,0.032 -0.888,0.096c-0.288,0.064 -0.548,0.144 -0.78,0.24c-0.104,-0.072 -0.192,-0.182 -0.264,-0.33c-0.072,-0.148 -0.108,-0.302 -0.108,-0.462c0,-0.208 0.05,-0.374 0.15,-0.498c0.1,-0.124 0.254,-0.23 0.462,-0.318c0.232,-0.088 0.506,-0.152 0.822,-0.192c0.316,-0.04 0.614,-0.06 0.894,-0.06Z" style="fill:#e7e7e7;fill-rule:nonzero;stroke:#3d3d3d;stroke-width:0.39px;"/>
            <path d="M129.414,213.131c-0.2,0 -0.39,0.032 -0.57,0.096c-0.18,0.064 -0.336,0.158 -0.468,0.282c-0.132,0.124 -0.238,0.278 -0.318,0.462c-0.08,0.184 -0.12,0.4 -0.12,0.648c0,0.496 0.142,0.868 0.426,1.116c0.284,0.248 0.63,0.372 1.038,0.372c0.24,0 0.448,-0.028 0.624,-0.084c0.176,-0.056 0.332,-0.116 0.468,-0.18c0.16,0.112 0.28,0.234 0.36,0.366c0.08,0.132 0.12,0.29 0.12,0.474c0,0.328 -0.156,0.582 -0.468,0.762c-0.312,0.18 -0.744,0.27 -1.296,0.27c-0.504,0 -0.96,-0.074 -1.368,-0.222c-0.408,-0.148 -0.758,-0.356 -1.05,-0.624c-0.292,-0.268 -0.518,-0.59 -0.678,-0.966c-0.16,-0.376 -0.24,-0.792 -0.24,-1.248c0,-0.528 0.086,-0.99 0.258,-1.386c0.172,-0.396 0.406,-0.722 0.702,-0.978c0.296,-0.256 0.638,-0.448 1.026,-0.576c0.388,-0.128 0.798,-0.192 1.23,-0.192c0.576,0 1.02,0.104 1.332,0.312c0.312,0.208 0.468,0.476 0.468,0.804c0,0.152 -0.036,0.294 -0.108,0.426c-0.072,0.132 -0.156,0.246 -0.252,0.342c-0.136,-0.064 -0.3,-0.126 -0.492,-0.186c-0.192,-0.06 -0.4,-0.09 -0.624,-0.09Z" style="fill:#e7e7e7;fill-rule:nonzero;stroke:#3d3d3d;stroke-width:0.39px;"/>
            <path d="M136.686,217.523c-0.08,0.024 -0.206,0.048 -0.378,0.072c-0.172,0.024 -0.35,0.036 -0.534,0.036c-0.176,0 -0.334,-0.012 -0.474,-0.036c-0.14,-0.024 -0.258,-0.072 -0.354,-0.144c-0.096,-0.072 -0.17,-0.17 -0.222,-0.294c-0.052,-0.124 -0.078,-0.286 -0.078,-0.486l0,-2.664c0,-0.328 -0.082,-0.558 -0.246,-0.69c-0.164,-0.132 -0.366,-0.198 -0.606,-0.198c-0.16,0 -0.312,0.02 -0.456,0.06c-0.144,0.04 -0.26,0.088 -0.348,0.144l0,4.2c-0.08,0.024 -0.206,0.048 -0.378,0.072c-0.172,0.024 -0.35,0.036 -0.534,0.036c-0.176,0 -0.334,-0.012 -0.474,-0.036c-0.14,-0.024 -0.258,-0.072 -0.354,-0.144c-0.096,-0.072 -0.17,-0.17 -0.222,-0.294c-0.052,-0.124 -0.078,-0.286 -0.078,-0.486l0,-6.96c0.088,-0.016 0.218,-0.038 0.39,-0.066c0.172,-0.028 0.346,-0.042 0.522,-0.042c0.176,0 0.334,0.012 0.474,0.036c0.14,0.024 0.258,0.072 0.354,0.144c0.096,0.072 0.17,0.17 0.222,0.294c0.052,0.124 0.078,0.286 0.078,0.486l0,1.176c0.104,-0.04 0.262,-0.086 0.474,-0.138c0.212,-0.052 0.446,-0.078 0.702,-0.078c0.792,0 1.41,0.198 1.854,0.594c0.444,0.396 0.666,0.986 0.666,1.77l0,3.636Z" style="fill:#e7e7e7;fill-rule:nonzero;stroke:#3d3d3d;stroke-width:0.39px;"/>
            <path d="M142.914,214.619c0,0.496 -0.076,0.938 -0.228,1.326c-0.152,0.388 -0.366,0.714 -0.642,0.978c-0.276,0.264 -0.606,0.464 -0.99,0.6c-0.384,0.136 -0.812,0.204 -1.284,0.204c-0.472,0 -0.9,-0.072 -1.284,-0.216c-0.384,-0.144 -0.714,-0.35 -0.99,-0.618c-0.276,-0.268 -0.49,-0.594 -0.642,-0.978c-0.152,-0.384 -0.228,-0.816 -0.228,-1.296c0,-0.472 0.076,-0.9 0.228,-1.284c0.152,-0.384 0.366,-0.71 0.642,-0.978c0.276,-0.268 0.606,-0.474 0.99,-0.618c0.384,-0.144 0.812,-0.216 1.284,-0.216c0.472,0 0.9,0.074 1.284,0.222c0.384,0.148 0.714,0.356 0.99,0.624c0.276,0.268 0.49,0.594 0.642,0.978c0.152,0.384 0.228,0.808 0.228,1.272Zm-4.2,0c0,0.488 0.094,0.862 0.282,1.122c0.188,0.26 0.45,0.39 0.786,0.39c0.336,0 0.594,-0.132 0.774,-0.396c0.18,-0.264 0.27,-0.636 0.27,-1.116c0,-0.48 -0.092,-0.85 -0.276,-1.11c-0.184,-0.26 -0.444,-0.39 -0.78,-0.39c-0.336,0 -0.596,0.13 -0.78,0.39c-0.184,0.26 -0.276,0.63 -0.276,1.11Z" style="fill:#e7e7e7;fill-rule:nonzero;stroke:#3d3d3d;stroke-width:0.39px;"/>
            <path d="M128.322,225.706c-0.112,0.112 -0.274,0.198 -0.486,0.258c-0.212,0.06 -0.466,0.09 -0.762,0.09c-0.296,0 -0.576,-0.044 -0.84,-0.132c-0.264,-0.088 -0.48,-0.3 -0.648,-0.636l-1.188,-2.424c-0.12,-0.248 -0.228,-0.482 -0.324,-0.702c-0.096,-0.22 -0.2,-0.474 -0.312,-0.762l-0.072,0.012c0.032,0.432 0.05,0.872 0.054,1.32c0.004,0.448 0.006,0.888 0.006,1.32l0,1.86c-0.088,0.024 -0.222,0.048 -0.402,0.072c-0.18,0.024 -0.358,0.036 -0.534,0.036c-0.176,0 -0.332,-0.012 -0.468,-0.036c-0.136,-0.024 -0.248,-0.072 -0.336,-0.144c-0.088,-0.072 -0.156,-0.17 -0.204,-0.294c-0.048,-0.124 -0.072,-0.286 -0.072,-0.486l0,-6c0.112,-0.16 0.284,-0.28 0.516,-0.36c0.232,-0.08 0.48,-0.12 0.744,-0.12c0.296,0 0.578,0.046 0.846,0.138c0.268,0.092 0.482,0.302 0.642,0.63l1.2,2.424c0.12,0.248 0.228,0.482 0.324,0.702c0.096,0.22 0.2,0.474 0.312,0.762l0.06,-0.012c-0.032,-0.432 -0.052,-0.864 -0.06,-1.296c-0.008,-0.432 -0.012,-0.864 -0.012,-1.296l0,-1.944c0.088,-0.024 0.222,-0.048 0.402,-0.072c0.18,-0.024 0.358,-0.036 0.534,-0.036c0.352,0 0.62,0.062 0.804,0.186c0.184,0.124 0.276,0.382 0.276,0.774l0,6.168Z" style="fill:#373253;fill-rule:nonzero;stroke:#d16c4c;stroke-width:0.39px;"/>
            <path d="M128.61,218.506c0,-0.304 0.102,-0.56 0.306,-0.768c0.204,-0.208 0.474,-0.312 0.81,-0.312c0.336,0 0.606,0.104 0.81,0.312c0.204,0.208 0.306,0.464 0.306,0.768c0,0.304 -0.102,0.56 -0.306,0.768c-0.204,0.208 -0.474,0.312 -0.81,0.312c-0.336,0 -0.606,-0.104 -0.81,-0.312c-0.204,-0.208 -0.306,-0.464 -0.306,-0.768Zm2.136,7.44c-0.088,0.016 -0.218,0.038 -0.39,0.066c-0.172,0.028 -0.346,0.042 -0.522,0.042c-0.176,0 -0.334,-0.012 -0.474,-0.036c-0.14,-0.024 -0.258,-0.072 -0.354,-0.144c-0.096,-0.072 -0.17,-0.17 -0.222,-0.294c-0.052,-0.124 -0.078,-0.286 -0.078,-0.486l0,-4.884c0.088,-0.016 0.218,-0.038 0.39,-0.066c0.172,-0.028 0.346,-0.042 0.522,-0.042c0.176,0 0.334,0.012 0.474,0.036c0.14,0.024 0.258,0.072 0.354,0.144c0.096,0.072 0.17,0.17 0.222,0.294c0.052,0.124 0.078,0.286 0.078,0.486l0,4.884Z" style="fill:#373253;fill-rule:nonzero;stroke:#d16c4c;stroke-width:0.39px;"/>
            <path d="M133.818,219.946c0.456,0 0.87,0.058 1.242,0.174c0.372,0.116 0.686,0.266 0.942,0.45c0.16,0.112 0.286,0.236 0.378,0.372c0.092,0.136 0.138,0.312 0.138,0.528l0,4.2c0,0.424 -0.08,0.79 -0.24,1.098c-0.16,0.308 -0.378,0.564 -0.654,0.768c-0.276,0.204 -0.6,0.354 -0.972,0.45c-0.372,0.096 -0.77,0.144 -1.194,0.144c-0.728,0 -1.3,-0.098 -1.716,-0.294c-0.416,-0.196 -0.624,-0.514 -0.624,-0.954c0,-0.184 0.038,-0.346 0.114,-0.486c0.076,-0.14 0.162,-0.246 0.258,-0.318c0.232,0.128 0.494,0.236 0.786,0.324c0.292,0.088 0.594,0.132 0.906,0.132c0.432,0 0.776,-0.072 1.032,-0.216c0.256,-0.144 0.384,-0.376 0.384,-0.696l0,-0.192c-0.328,0.144 -0.728,0.216 -1.2,0.216c-0.36,0 -0.702,-0.054 -1.026,-0.162c-0.324,-0.108 -0.608,-0.276 -0.852,-0.504c-0.244,-0.228 -0.44,-0.522 -0.588,-0.882c-0.148,-0.36 -0.222,-0.788 -0.222,-1.284c0,-0.488 0.078,-0.912 0.234,-1.272c0.156,-0.36 0.372,-0.658 0.648,-0.894c0.276,-0.236 0.604,-0.412 0.984,-0.528c0.38,-0.116 0.794,-0.174 1.242,-0.174Zm0.744,1.74c-0.056,-0.032 -0.138,-0.064 -0.246,-0.096c-0.108,-0.032 -0.242,-0.048 -0.402,-0.048c-0.392,0 -0.686,0.11 -0.882,0.33c-0.196,0.22 -0.294,0.534 -0.294,0.942c0,0.464 0.098,0.798 0.294,1.002c0.196,0.204 0.446,0.306 0.75,0.306c0.328,0 0.588,-0.076 0.78,-0.228l0,-2.208Z" style="fill:#373253;fill-rule:nonzero;stroke:#d16c4c;stroke-width:0.39px;"/>
            <path d="M142.47,225.946c-0.08,0.024 -0.206,0.048 -0.378,0.072c-0.172,0.024 -0.35,0.036 -0.534,0.036c-0.176,0 -0.334,-0.012 -0.474,-0.036c-0.14,-0.024 -0.258,-0.072 -0.354,-0.144c-0.096,-0.072 -0.17,-0.17 -0.222,-0.294c-0.052,-0.124 -0.078,-0.286 -0.078,-0.486l0,-2.664c0,-0.328 -0.082,-0.558 -0.246,-0.69c-0.164,-0.132 -0.366,-0.198 -0.606,-0.198c-0.16,0 -0.312,0.02 -0.456,0.06c-0.144,0.04 -0.26,0.088 -0.348,0.144l0,4.2c-0.08,0.024 -0.206,0.048 -0.378,0.072c-0.172,0.024 -0.35,0.036 -0.534,0.036c-0.176,0 -0.334,-0.012 -0.474,-0.036c-0.14,-0.024 -0.258,-0.072 -0.354,-0.144c-0.096,-0.072 -0.17,-0.17 -0.222,-0.294c-0.052,-0.124 -0.078,-0.286 -0.078,-0.486l0,-6.96c0.088,-0.016 0.218,-0.038 0.39,-0.066c0.172,-0.028 0.346,-0.042 0.522,-0.042c0.176,0 0.334,0.012 0.474,0.036c0.14,0.024 0.258,0.072 0.354,0.144c0.096,0.072 0.17,0.17 0.222,0.294c0.052,0.124 0.078,0.286 0.078,0.486l0,1.176c0.104,-0.04 0.262,-0.086 0.474,-0.138c0.212,-0.052 0.446,-0.078 0.702,-0.078c0.792,0 1.41,0.198 1.854,0.594c0.444,0.396 0.666,0.986 0.666,1.77l0,3.636Z" style="fill:#373253;fill-rule:nonzero;stroke:#d16c4c;stroke-width:0.39px;"/>
            <path d="M144.702,223.954c0,0.208 0.066,0.356 0.198,0.444c0.132,0.088 0.318,0.132 0.558,0.132c0.12,0 0.244,-0.01 0.372,-0.03c0.128,-0.02 0.24,-0.046 0.336,-0.078c0.072,0.088 0.134,0.186 0.186,0.294c0.052,0.108 0.078,0.238 0.078,0.39c0,0.304 -0.114,0.552 -0.342,0.744c-0.228,0.192 -0.63,0.288 -1.206,0.288c-0.704,0 -1.246,-0.16 -1.626,-0.48c-0.38,-0.32 -0.57,-0.84 -0.57,-1.56l0,-5.136c0.088,-0.024 0.214,-0.05 0.378,-0.078c0.164,-0.028 0.338,-0.042 0.522,-0.042c0.352,0 0.626,0.062 0.822,0.186c0.196,0.124 0.294,0.386 0.294,0.786l0,0.768l1.572,0c0.048,0.088 0.094,0.198 0.138,0.33c0.044,0.132 0.066,0.278 0.066,0.438c0,0.28 -0.062,0.482 -0.186,0.606c-0.124,0.124 -0.29,0.186 -0.498,0.186l-1.092,0l0,1.812Z" style="fill:#373253;fill-rule:nonzero;stroke:#d16c4c;stroke-width:0.39px;"/>
        </g>
        <g id="NachoBoy">
            <path id="basic" d="M100.062,15.94l193.994,213.026l-279.758,62.035l85.764,-275.061Z" style="fill:#e19160;"/>
            <clipPath id="_clip1">
                <path d="M100.062,15.94l193.994,213.026l-279.758,62.035l85.764,-275.061Z"/>
            </clipPath>
            <g clip-path="url(#_clip1)">
                <path d="M51.787,254.089l8.155,-23.448l17.331,7.136l-25.486,16.312Z" style="fill:#d16c4c;"/>
                <path d="M100.309,77.563l8.156,-23.448l12.988,25.175l-21.144,-1.727Z" style="fill:#d16c4c;"/>
                <path d="M131.697,201.262l9.492,-12.588l12.988,25.176l-22.48,-12.588Z" style="fill:#d16c4c;"/>
                <path d="M166.574,153.47l3.62,-25.175l14.293,16.095l-17.913,9.08Z" style="fill:#d16c4c;"/>
                <path d="M215.917,206.511l17.974,-17.837l1.896,25.883l-19.87,-8.046Z" style="fill:#d16c4c;"/>
                <path d="M77.829,146.455l17.971,-5.572l4.509,18.16l-22.48,-12.588Z" style="fill:#d16c4c;"/>
            </g>
            <path d="M103.901,3.827l3.013,1.412l2.543,2.145l193.994,213.026l1.892,2.719l1.125,3.115l0.282,3.301l-0.581,3.261l-1.404,3l-2.131,2.535l-2.714,1.898l-3.113,1.133l-279.758,62.035l-3.299,0.289l-3.262,-0.573l-3.004,-1.397l-2.54,-2.125l-1.905,-2.71l-1.14,-3.11l-0.297,-3.299l0.566,-3.263l85.763,-275.062l1.397,-3.019l2.134,-2.553l2.723,-1.912l3.126,-1.139l3.314,-0.289l3.276,0.582Zm-89.603,287.174l279.758,-62.035l-193.994,-213.026l-85.764,275.061Z" style="fill:#d16c4c;"/>
            <g>
                <path d="M83.883,186.214l103.332,0c-11.84,45.665 -79.496,59.806 -103.332,0Z" style="fill:#5b5b5b;"/>
                <path d="M187.7,180.39l0.481,0.06l0.475,0.1l0.465,0.139l0.452,0.178l0.435,0.214l0.416,0.249l0.395,0.283l0.369,0.315l0.342,0.344l0.312,0.372l0.28,0.396l0.247,0.418l0.21,0.437l0.174,0.453l0.136,0.466l0.097,0.475l0.057,0.482l0.016,0.485l-0.023,0.485l-0.064,0.481l-0.103,0.474l-0.074,0.281l-0.079,0.296l-0.081,0.295l-0.081,0.293l-0.084,0.294l-0.084,0.292l-0.086,0.291l-0.088,0.291l-0.089,0.291l-0.09,0.289l-0.092,0.288l-0.093,0.288l-0.094,0.287l-0.096,0.286l-0.097,0.285l-0.098,0.284l-0.1,0.284l-0.101,0.282l-0.102,0.283l-0.104,0.281l-0.105,0.28l-0.107,0.28l-0.107,0.278l-0.11,0.279l-0.11,0.277l-0.112,0.275l-0.113,0.276l-0.114,0.275l-0.116,0.273l-0.117,0.273l-0.118,0.272l-0.119,0.271l-0.121,0.27l-0.121,0.269l-0.124,0.269l-0.124,0.267l-0.126,0.268l-0.127,0.266l-0.128,0.264l-0.129,0.265l-0.131,0.262l-0.131,0.263l-0.134,0.262l-0.134,0.261l-0.135,0.259l-0.137,0.259l-0.138,0.258l-0.139,0.257l-0.14,0.256l-0.142,0.255l-0.142,0.255l-0.144,0.253l-0.145,0.253l-0.146,0.251l-0.147,0.251l-0.149,0.25l-0.149,0.249l-0.15,0.247l-0.152,0.247l-0.153,0.247l-0.154,0.245l-0.155,0.244l-0.156,0.243l-0.158,0.243l-0.159,0.241l-0.159,0.24l-0.161,0.24l-0.162,0.238l-0.162,0.238l-0.164,0.236l-0.165,0.236l-0.166,0.234l-0.167,0.235l-0.168,0.232l-0.169,0.232l-0.171,0.231l-0.171,0.23l-0.172,0.228l-0.173,0.228l-0.175,0.228l-0.175,0.226l-0.177,0.225l-0.177,0.223l-0.178,0.224l-0.18,0.222l-0.18,0.221l-0.182,0.22l-0.182,0.219l-0.183,0.218l-0.185,0.217l-0.185,0.216l-0.186,0.215l-0.187,0.214l-0.188,0.214l-0.189,0.212l-0.19,0.21l-0.191,0.21l-0.192,0.21l-0.193,0.208l-0.194,0.206l-0.194,0.206l-0.195,0.205l-0.197,0.204l-0.197,0.203l-0.198,0.202l-0.2,0.201l-0.2,0.199l-0.201,0.2l-0.201,0.197l-0.202,0.196l-0.204,0.196l-0.205,0.195l-0.205,0.194l-0.205,0.191l-0.208,0.192l-0.208,0.191l-0.208,0.188l-0.209,0.189l-0.211,0.187l-0.211,0.187l-0.212,0.185l-0.212,0.183l-0.213,0.183l-0.215,0.182l-0.215,0.181l-0.216,0.18l-0.217,0.179l-0.217,0.177l-0.218,0.177l-0.219,0.175l-0.22,0.175l-0.22,0.173l-0.222,0.172l-0.222,0.171l-0.222,0.17l-0.224,0.169l-0.224,0.168l-0.225,0.167l-0.226,0.166l-0.226,0.164l-0.227,0.163l-0.229,0.163l-0.228,0.161l-0.229,0.16l-0.23,0.159l-0.231,0.158l-0.231,0.157l-0.232,0.156l-0.232,0.154l-0.234,0.154l-0.234,0.152l-0.234,0.151l-0.236,0.151l-0.236,0.149l-0.237,0.148l-0.237,0.146l-0.238,0.146l-0.239,0.144l-0.239,0.144l-0.24,0.142l-0.24,0.141l-0.241,0.14l-0.242,0.139l-0.242,0.137l-0.243,0.137l-0.244,0.135l-0.244,0.134l-0.244,0.134l-0.246,0.132l-0.246,0.13l-0.247,0.13l-0.246,0.128l-0.248,0.128l-0.248,0.126l-0.249,0.125l-0.249,0.124l-0.25,0.122l-0.25,0.122l-0.251,0.12l-0.252,0.119l-0.252,0.118l-0.252,0.117l-0.253,0.115l-0.254,0.115l-0.253,0.113l-0.255,0.112l-0.255,0.111l-0.255,0.109l-0.256,0.109l-0.257,0.107l-0.257,0.106l-0.258,0.105l-0.257,0.103l-0.259,0.103l-0.259,0.101l-0.259,0.1l-0.26,0.099l-0.26,0.098l-0.261,0.096l-0.261,0.095l-0.262,0.094l-0.262,0.093l-0.262,0.092l-0.263,0.09l-0.263,0.089l-0.264,0.088l-0.264,0.087l-0.265,0.085l-0.265,0.084l-0.265,0.083l-0.266,0.082l-0.266,0.08l-0.266,0.079l-0.267,0.078l-0.267,0.077l-0.268,0.076l-0.268,0.074l-0.268,0.073l-0.269,0.071l-0.269,0.071l-0.269,0.069l-0.27,0.068l-0.27,0.067l-0.27,0.065l-0.271,0.064l-0.271,0.063l-0.272,0.062l-0.271,0.06l-0.272,0.059l-0.272,0.058l-0.273,0.056l-0.273,0.056l-0.273,0.053l-0.273,0.053l-0.274,0.051l-0.275,0.051l-0.274,0.048l-0.274,0.048l-0.275,0.046l-0.275,0.045l-0.275,0.043l-0.276,0.042l-0.276,0.041l-0.276,0.04l-0.276,0.038l-0.276,0.037l-0.277,0.036l-0.277,0.034l-0.277,0.033l-0.277,0.032l-0.278,0.03l-0.278,0.029l-0.278,0.028l-0.278,0.027l-0.279,0.025l-0.278,0.023l-0.279,0.023l-0.278,0.021l-0.279,0.019l-0.28,0.019l-0.279,0.017l-0.28,0.015l-0.28,0.015l-0.279,0.013l-0.28,0.011l-0.28,0.01l-0.28,0.009l-0.281,0.008l-0.28,0.006l-0.28,0.004l-0.281,0.004l-0.281,0.002l-0.281,0l-0.281,0l-0.281,-0.003l-0.281,-0.003l-0.281,-0.005l-0.281,-0.006l-0.282,-0.008l-0.281,-0.009l-0.281,-0.011l-0.282,-0.012l-0.281,-0.013l-0.282,-0.015l-0.281,-0.016l-0.282,-0.017l-0.282,-0.019l-0.281,-0.02l-0.282,-0.022l-0.282,-0.023l-0.282,-0.025l-0.281,-0.026l-0.282,-0.027l-0.282,-0.029l-0.282,-0.031l-0.281,-0.031l-0.282,-0.034l-0.281,-0.034l-0.282,-0.036l-0.281,-0.038l-0.282,-0.039l-0.281,-0.04l-0.281,-0.042l-0.281,-0.043l-0.282,-0.045l-0.281,-0.046l-0.281,-0.048l-0.281,-0.049l-0.281,-0.05l-0.281,-0.052l-0.28,-0.054l-0.281,-0.055l-0.281,-0.056l-0.279,-0.058l-0.28,-0.059l-0.281,-0.061l-0.28,-0.062l-0.279,-0.064l-0.28,-0.065l-0.28,-0.067l-0.279,-0.068l-0.279,-0.07l-0.279,-0.071l-0.279,-0.073l-0.279,-0.074l-0.278,-0.076l-0.278,-0.077l-0.279,-0.079l-0.277,-0.08l-0.278,-0.082l-0.278,-0.083l-0.277,-0.085l-0.276,-0.086l-0.277,-0.088l-0.276,-0.089l-0.277,-0.09l-0.276,-0.093l-0.276,-0.093l-0.275,-0.096l-0.276,-0.097l-0.274,-0.098l-0.275,-0.1l-0.275,-0.101l-0.274,-0.103l-0.273,-0.105l-0.274,-0.106l-0.273,-0.107l-0.273,-0.109l-0.273,-0.111l-0.272,-0.112l-0.272,-0.114l-0.272,-0.115l-0.271,-0.117l-0.27,-0.118l-0.271,-0.12l-0.27,-0.121l-0.27,-0.123l-0.269,-0.124l-0.27,-0.127l-0.268,-0.127l-0.268,-0.129l-0.268,-0.131l-0.268,-0.132l-0.267,-0.134l-0.267,-0.135l-0.266,-0.137l-0.266,-0.139l-0.265,-0.14l-0.265,-0.142l-0.265,-0.143l-0.264,-0.145l-0.263,-0.146l-0.263,-0.148l-0.263,-0.149l-0.262,-0.151l-0.262,-0.153l-0.262,-0.154l-0.26,-0.156l-0.26,-0.157l-0.261,-0.159l-0.259,-0.161l-0.258,-0.162l-0.258,-0.163l-0.258,-0.166l-0.258,-0.167l-0.256,-0.168l-0.256,-0.17l-0.256,-0.171l-0.255,-0.173l-0.254,-0.175l-0.255,-0.177l-0.252,-0.178l-0.253,-0.179l-0.252,-0.181l-0.252,-0.183l-0.251,-0.184l-0.251,-0.186l-0.249,-0.187l-0.249,-0.189l-0.249,-0.191l-0.248,-0.192l-0.247,-0.194l-0.247,-0.195l-0.246,-0.197l-0.246,-0.199l-0.244,-0.2l-0.244,-0.202l-0.244,-0.204l-0.243,-0.204l-0.242,-0.207l-0.241,-0.208l-0.241,-0.21l-0.24,-0.212l-0.24,-0.212l-0.238,-0.215l-0.238,-0.216l-0.238,-0.218l-0.236,-0.219l-0.236,-0.221l-0.235,-0.223l-0.235,-0.224l-0.233,-0.226l-0.234,-0.227l-0.232,-0.23l-0.231,-0.23l-0.231,-0.232l-0.23,-0.234l-0.229,-0.235l-0.229,-0.238l-0.227,-0.238l-0.227,-0.24l-0.226,-0.242l-0.225,-0.244l-0.225,-0.245l-0.224,-0.247l-0.223,-0.248l-0.222,-0.25l-0.222,-0.252l-0.22,-0.252l-0.219,-0.255l-0.219,-0.257l-0.218,-0.257l-0.217,-0.26l-0.217,-0.262l-0.215,-0.262l-0.215,-0.264l-0.214,-0.267l-0.213,-0.267l-0.212,-0.269l-0.211,-0.271l-0.211,-0.273l-0.209,-0.274l-0.208,-0.276l-0.208,-0.277l-0.207,-0.279l-0.206,-0.281l-0.205,-0.282l-0.204,-0.284l-0.203,-0.285l-0.202,-0.287l-0.202,-0.288l-0.2,-0.291l-0.2,-0.292l-0.199,-0.294l-0.197,-0.294l-0.197,-0.297l-0.195,-0.298l-0.196,-0.301l-0.193,-0.301l-0.193,-0.304l-0.192,-0.304l-0.191,-0.306l-0.19,-0.308l-0.189,-0.311l-0.188,-0.311l-0.187,-0.313l-0.187,-0.315l-0.185,-0.316l-0.184,-0.318l-0.183,-0.319l-0.182,-0.322l-0.181,-0.322l-0.18,-0.325l-0.18,-0.326l-0.177,-0.327l-0.178,-0.329l-0.176,-0.331l-0.175,-0.333l-0.174,-0.334l-0.173,-0.336l-0.171,-0.337l-0.172,-0.34l-0.169,-0.34l-0.169,-0.342l-0.168,-0.345l-0.166,-0.346l-0.166,-0.346l-0.164,-0.349l-0.164,-0.351l-0.162,-0.353l-0.162,-0.354l-0.16,-0.355l-0.159,-0.357l-0.158,-0.359l-0.157,-0.36l-0.156,-0.362l-0.154,-0.364l-0.154,-0.365l-0.153,-0.368l-0.151,-0.369l-0.15,-0.37l-0.145,-0.359l-0.158,-0.448l-0.122,-0.46l-0.085,-0.468l-0.046,-0.473l-0.007,-0.475l0.031,-0.474l0.07,-0.47l0.108,-0.463l0.145,-0.453l0.181,-0.439l0.216,-0.424l0.251,-0.404l0.282,-0.382l0.312,-0.359l0.34,-0.332l0.366,-0.303l0.39,-0.272l0.41,-0.24l0.429,-0.205l0.444,-0.17l0.456,-0.134l0.465,-0.096l0.472,-0.058l0.475,-0.019l103.332,0l0.485,0.02Zm-103.817,5.824l0.14,0.35l0.141,0.348l0.142,0.346l0.144,0.345l0.144,0.342l0.145,0.342l0.146,0.339l0.147,0.338l0.148,0.336l0.149,0.334l0.15,0.333l0.151,0.331l0.152,0.33l0.152,0.327l0.154,0.326l0.155,0.325l0.155,0.323l0.157,0.321l0.157,0.319l0.159,0.318l0.159,0.316l0.16,0.315l0.161,0.312l0.162,0.312l0.163,0.309l0.164,0.308l0.165,0.306l0.165,0.305l0.167,0.303l0.167,0.301l0.168,0.3l0.169,0.298l0.17,0.296l0.171,0.295l0.172,0.293l0.172,0.292l0.173,0.29l0.175,0.288l0.174,0.287l0.176,0.285l0.177,0.283l0.177,0.282l0.179,0.28l0.179,0.279l0.18,0.277l0.18,0.275l0.182,0.274l0.182,0.272l0.183,0.271l0.184,0.268l0.185,0.268l0.185,0.266l0.186,0.264l0.187,0.262l0.188,0.261l0.188,0.26l0.19,0.258l0.19,0.256l0.19,0.255l0.192,0.253l0.192,0.251l0.193,0.25l0.193,0.248l0.195,0.247l0.195,0.245l0.196,0.244l0.196,0.242l0.197,0.241l0.198,0.238l0.199,0.238l0.199,0.236l0.2,0.234l0.201,0.233l0.201,0.231l0.202,0.229l0.203,0.228l0.203,0.227l0.204,0.225l0.205,0.223l0.205,0.222l0.206,0.22l0.207,0.219l0.207,0.217l0.208,0.216l0.209,0.214l0.209,0.213l0.209,0.211l0.211,0.21l0.211,0.208l0.211,0.206l0.213,0.205l0.212,0.204l0.214,0.202l0.214,0.2l0.214,0.199l0.215,0.198l0.216,0.196l0.216,0.194l0.217,0.193l0.218,0.191l0.218,0.19l0.218,0.189l0.219,0.187l0.22,0.185l0.22,0.184l0.221,0.182l0.221,0.181l0.222,0.18l0.222,0.178l0.223,0.176l0.223,0.175l0.224,0.173l0.224,0.173l0.225,0.17l0.225,0.169l0.226,0.168l0.226,0.166l0.227,0.164l0.227,0.164l0.228,0.161l0.228,0.161l0.229,0.158l0.229,0.158l0.23,0.156l0.23,0.154l0.23,0.153l0.231,0.151l0.231,0.15l0.232,0.149l0.232,0.147l0.233,0.146l0.233,0.144l0.233,0.143l0.234,0.141l0.234,0.14l0.235,0.139l0.235,0.137l0.236,0.135l0.236,0.135l0.236,0.132l0.236,0.132l0.237,0.13l0.238,0.128l0.237,0.127l0.239,0.126l0.238,0.124l0.239,0.123l0.239,0.121l0.239,0.12l0.24,0.119l0.24,0.117l0.241,0.116l0.241,0.114l0.241,0.113l0.241,0.112l0.242,0.11l0.242,0.109l0.243,0.107l0.242,0.106l0.243,0.105l0.244,0.103l0.243,0.102l0.244,0.1l0.244,0.099l0.244,0.098l0.245,0.096l0.245,0.095l0.245,0.094l0.246,0.092l0.245,0.091l0.246,0.089l0.246,0.088l0.247,0.087l0.246,0.085l0.247,0.084l0.247,0.083l0.248,0.081l0.247,0.08l0.248,0.078l0.248,0.077l0.248,0.076l0.248,0.075l0.249,0.073l0.249,0.072l0.249,0.07l0.249,0.069l0.249,0.068l0.249,0.066l0.25,0.065l0.25,0.064l0.25,0.062l0.25,0.062l0.25,0.059l0.25,0.059l0.251,0.057l0.25,0.056l0.251,0.054l0.251,0.053l0.251,0.052l0.251,0.051l0.251,0.049l0.252,0.048l0.251,0.046l0.252,0.045l0.251,0.044l0.252,0.043l0.252,0.041l0.252,0.04l0.252,0.039l0.252,0.038l0.252,0.036l0.252,0.035l0.252,0.033l0.252,0.033l0.253,0.031l0.252,0.029l0.253,0.029l0.252,0.027l0.252,0.026l0.253,0.024l0.253,0.024l0.252,0.022l0.253,0.021l0.252,0.019l0.253,0.018l0.252,0.017l0.253,0.016l0.253,0.015l0.252,0.013l0.253,0.012l0.252,0.01l0.253,0.01l0.252,0.008l0.253,0.007l0.252,0.006l0.252,0.004l0.253,0.003l0.252,0.002l0.252,0.001l0.252,-0.001l0.252,-0.002l0.252,-0.003l0.252,-0.004l0.252,-0.005l0.252,-0.007l0.251,-0.008l0.252,-0.009l0.251,-0.01l0.252,-0.012l0.251,-0.013l0.251,-0.014l0.251,-0.015l0.251,-0.017l0.251,-0.017l0.251,-0.019l0.25,-0.02l0.251,-0.022l0.25,-0.022l0.25,-0.024l0.25,-0.025l0.25,-0.026l0.249,-0.027l0.25,-0.029l0.249,-0.03l0.249,-0.03l0.249,-0.033l0.249,-0.033l0.249,-0.034l0.248,-0.036l0.248,-0.037l0.248,-0.038l0.248,-0.039l0.248,-0.04l0.247,-0.042l0.247,-0.043l0.247,-0.044l0.247,-0.045l0.246,-0.046l0.247,-0.047l0.246,-0.049l0.246,-0.05l0.245,-0.05l0.245,-0.052l0.245,-0.054l0.245,-0.054l0.245,-0.055l0.244,-0.057l0.244,-0.058l0.243,-0.059l0.244,-0.06l0.243,-0.061l0.243,-0.063l0.242,-0.063l0.242,-0.065l0.242,-0.065l0.242,-0.067l0.241,-0.068l0.241,-0.07l0.241,-0.07l0.24,-0.071l0.24,-0.073l0.239,-0.074l0.24,-0.074l0.239,-0.076l0.238,-0.077l0.238,-0.078l0.238,-0.08l0.238,-0.08l0.237,-0.081l0.237,-0.083l0.236,-0.084l0.236,-0.084l0.236,-0.086l0.235,-0.087l0.235,-0.088l0.234,-0.09l0.234,-0.09l0.234,-0.091l0.233,-0.093l0.233,-0.093l0.232,-0.095l0.232,-0.096l0.231,-0.096l0.231,-0.098l0.231,-0.099l0.23,-0.1l0.23,-0.101l0.229,-0.102l0.229,-0.104l0.228,-0.104l0.228,-0.105l0.228,-0.107l0.227,-0.107l0.226,-0.109l0.226,-0.109l0.226,-0.111l0.225,-0.112l0.224,-0.113l0.224,-0.113l0.223,-0.115l0.223,-0.116l0.223,-0.117l0.222,-0.118l0.221,-0.119l0.221,-0.121l0.22,-0.121l0.22,-0.122l0.22,-0.123l0.218,-0.124l0.218,-0.126l0.218,-0.126l0.217,-0.127l0.217,-0.129l0.215,-0.129l0.216,-0.13l0.215,-0.132l0.214,-0.132l0.213,-0.134l0.213,-0.134l0.213,-0.136l0.212,-0.136l0.211,-0.138l0.21,-0.138l0.21,-0.14l0.21,-0.14l0.208,-0.142l0.209,-0.142l0.207,-0.144l0.207,-0.144l0.206,-0.146l0.206,-0.146l0.205,-0.148l0.204,-0.148l0.203,-0.15l0.203,-0.15l0.203,-0.151l0.201,-0.153l0.201,-0.153l0.2,-0.154l0.2,-0.156l0.199,-0.156l0.198,-0.157l0.197,-0.159l0.197,-0.159l0.196,-0.16l0.196,-0.161l0.194,-0.162l0.194,-0.163l0.193,-0.164l0.193,-0.165l0.191,-0.166l0.191,-0.167l0.191,-0.168l0.189,-0.168l0.189,-0.17l0.188,-0.171l0.187,-0.171l0.187,-0.173l0.185,-0.173l0.185,-0.175l0.184,-0.175l0.184,-0.176l0.182,-0.177l0.182,-0.179l0.181,-0.179l0.18,-0.18l0.179,-0.181l0.179,-0.181l0.178,-0.183l0.177,-0.184l0.176,-0.184l0.175,-0.186l0.174,-0.186l0.174,-0.187l0.173,-0.189l0.172,-0.189l0.171,-0.19l0.17,-0.191l0.169,-0.191l0.169,-0.193l0.168,-0.194l0.166,-0.194l0.166,-0.196l0.165,-0.196l0.164,-0.197l0.163,-0.198l0.163,-0.199l0.161,-0.2l0.161,-0.201l0.159,-0.201l0.159,-0.203l0.158,-0.203l0.157,-0.204l0.156,-0.205l0.155,-0.206l0.154,-0.207l0.153,-0.208l0.152,-0.208l0.151,-0.21l0.151,-0.21l0.149,-0.211l0.148,-0.212l0.148,-0.213l0.146,-0.214l0.146,-0.214l0.144,-0.216l0.144,-0.216l0.142,-0.217l0.142,-0.218l0.14,-0.219l0.14,-0.219l0.138,-0.221l0.138,-0.221l0.136,-0.222l0.136,-0.223l0.134,-0.224l0.134,-0.224l0.132,-0.226l0.131,-0.226l0.131,-0.227l0.129,-0.228l0.128,-0.229l0.127,-0.229l0.126,-0.231l0.125,-0.231l0.124,-0.232l0.123,-0.232l0.122,-0.234l0.121,-0.234l0.119,-0.236l0.119,-0.236l0.117,-0.236l0.117,-0.238l0.115,-0.238l0.114,-0.24l0.113,-0.239l0.112,-0.241l0.111,-0.242l0.11,-0.242l0.108,-0.243l0.108,-0.244l0.106,-0.245l0.105,-0.245l0.104,-0.246l0.103,-0.247l0.101,-0.248l0.101,-0.249l0.099,-0.249l0.098,-0.25l0.097,-0.251l0.096,-0.252l0.095,-0.252l0.093,-0.253l0.093,-0.254l0.091,-0.255l0.089,-0.255l0.089,-0.256l0.088,-0.257l0.086,-0.258l0.085,-0.258l0.084,-0.259l0.082,-0.26l0.081,-0.261l0.08,-0.261l0.079,-0.262l0.078,-0.263l0.076,-0.264l0.075,-0.264l0.074,-0.265l0.073,-0.266l0.071,-0.266l0.07,-0.268l-103.332,0Z" style="fill:#3d3d3d;"/>
                <path d="M134.874,211.692c14.977,0 27.825,-8.853 27.825,4.185c0,13.037 -12.16,32.26 -27.136,32.26c-14.977,0 -27.137,-19.223 -27.137,-32.26c0,-13.038 11.471,-4.185 26.448,-4.185Z" style="fill:#c46767;"/>
                <path d="M114.22,202.66l0.147,0.003l0.156,0.003l0.279,0.01l0.288,0.014l0.285,0.018l0.284,0.021l0.282,0.025l0.281,0.027l0.279,0.03l0.277,0.033l0.277,0.036l0.276,0.037l0.275,0.04l0.274,0.041l0.274,0.044l0.273,0.045l0.273,0.047l0.273,0.048l0.272,0.05l0.273,0.05l0.272,0.052l0.273,0.053l0.273,0.054l0.276,0.056l0.543,0.11l0.548,0.114l0.55,0.116l1.107,0.234l0.556,0.117l0.559,0.116l0.565,0.115l0.279,0.056l0.282,0.056l0.282,0.055l0.283,0.054l0.284,0.054l0.285,0.053l0.285,0.052l0.285,0.051l0.286,0.049l0.287,0.049l0.287,0.047l0.288,0.046l0.288,0.045l0.288,0.043l0.289,0.042l0.29,0.04l0.29,0.039l0.29,0.037l0.29,0.035l0.291,0.033l0.292,0.032l0.292,0.029l0.291,0.028l0.293,0.025l0.293,0.023l0.293,0.021l0.293,0.019l0.293,0.017l0.294,0.014l0.294,0.011l0.3,0.01l0.141,0.003l0.147,0.003l0.147,0.002l0.147,0.002l0.148,0.001l0.147,0.001l0.148,-0.001l0.147,-0.001l0.148,-0.002l0.147,-0.002l0.148,-0.003l0.142,-0.003l0.303,-0.01l0.297,-0.011l0.297,-0.015l0.297,-0.016l0.298,-0.019l0.298,-0.021l0.298,-0.024l0.299,-0.025l0.298,-0.028l0.299,-0.029l0.299,-0.032l0.299,-0.034l0.299,-0.035l0.3,-0.037l0.299,-0.039l0.299,-0.041l0.299,-0.042l0.299,-0.044l0.299,-0.045l0.299,-0.046l0.299,-0.048l0.298,-0.049l0.298,-0.05l0.298,-0.051l0.298,-0.053l0.297,-0.053l0.297,-0.054l0.297,-0.055l0.293,-0.055l0.595,-0.114l0.591,-0.116l0.588,-0.116l0.587,-0.118l1.167,-0.234l0.582,-0.116l0.58,-0.114l0.574,-0.111l0.291,-0.055l0.289,-0.054l0.288,-0.053l0.288,-0.052l0.288,-0.05l0.288,-0.049l0.288,-0.048l0.287,-0.046l0.288,-0.045l0.289,-0.042l0.288,-0.041l0.289,-0.039l0.289,-0.037l0.291,-0.035l0.29,-0.032l0.291,-0.029l0.293,-0.027l0.294,-0.024l0.295,-0.02l0.296,-0.017l0.298,-0.014l0.289,-0.009l0.16,-0.004l0.151,-0.002l0.153,-0.001l0.152,0l0.152,0.002l0.154,0.002l0.154,0.004l0.154,0.005l0.156,0.006l0.155,0.008l0.157,0.01l0.157,0.011l0.158,0.012l0.159,0.015l0.16,0.016l0.161,0.017l0.159,0.02l0.161,0.021l0.164,0.024l0.165,0.025l0.162,0.028l0.165,0.03l0.168,0.032l0.165,0.035l0.167,0.036l0.169,0.04l0.168,0.042l0.168,0.045l0.17,0.047l0.172,0.051l0.17,0.053l0.171,0.057l0.173,0.06l0.173,0.063l0.171,0.065l0.172,0.069l0.174,0.073l0.173,0.076l0.171,0.08l0.174,0.084l0.172,0.087l0.171,0.09l0.171,0.095l0.168,0.097l0.17,0.102l0.168,0.106l0.167,0.109l0.166,0.114l0.163,0.116l0.163,0.12l0.16,0.124l0.159,0.128l0.157,0.132l0.153,0.133l0.151,0.138l0.149,0.141l0.147,0.145l0.144,0.147l0.139,0.149l0.139,0.154l0.135,0.155l0.13,0.158l0.128,0.16l0.125,0.162l0.122,0.166l0.118,0.168l0.115,0.169l0.11,0.169l0.107,0.171l0.106,0.175l0.1,0.175l0.096,0.174l0.095,0.179l0.09,0.178l0.086,0.178l0.084,0.181l0.081,0.182l0.077,0.181l0.073,0.18l0.072,0.186l0.068,0.183l0.064,0.182l0.062,0.184l0.059,0.187l0.056,0.184l0.053,0.185l0.052,0.187l0.048,0.187l0.045,0.185l0.043,0.186l0.041,0.187l0.039,0.19l0.036,0.188l0.033,0.186l0.031,0.188l0.03,0.191l0.027,0.188l0.026,0.189l0.023,0.192l0.022,0.191l0.019,0.192l0.017,0.191l0.016,0.192l0.014,0.193l0.013,0.194l0.01,0.194l0.009,0.195l0.007,0.197l0.006,0.196l0.003,0.197l0.003,0.2l0.001,0.199l-0.001,0.197l-0.002,0.197l-0.004,0.197l-0.005,0.199l-0.006,0.196l-0.008,0.198l-0.009,0.199l-0.01,0.196l-0.012,0.199l-0.013,0.199l-0.015,0.197l-0.015,0.198l-0.017,0.2l-0.019,0.198l-0.019,0.198l-0.021,0.198l-0.022,0.199l-0.024,0.199l-0.024,0.197l-0.026,0.199l-0.027,0.199l-0.028,0.2l-0.03,0.198l-0.03,0.198l-0.032,0.2l-0.033,0.199l-0.034,0.198l-0.036,0.199l-0.037,0.201l-0.038,0.199l-0.038,0.197l-0.04,0.198l-0.041,0.2l-0.043,0.201l-0.043,0.198l-0.045,0.199l-0.045,0.198l-0.047,0.199l-0.048,0.2l-0.049,0.2l-0.05,0.199l-0.051,0.197l-0.052,0.199l-0.054,0.199l-0.054,0.198l-0.055,0.199l-0.057,0.199l-0.058,0.2l-0.058,0.198l-0.06,0.198l-0.061,0.199l-0.061,0.198l-0.063,0.197l-0.064,0.198l-0.065,0.2l-0.066,0.198l-0.067,0.198l-0.067,0.196l-0.069,0.198l-0.071,0.199l-0.07,0.196l-0.072,0.197l-0.073,0.197l-0.074,0.198l-0.075,0.197l-0.076,0.196l-0.077,0.198l-0.078,0.195l-0.078,0.196l-0.08,0.197l-0.081,0.195l-0.082,0.196l-0.083,0.196l-0.084,0.196l-0.084,0.193l-0.085,0.195l-0.087,0.195l-0.087,0.194l-0.089,0.196l-0.09,0.194l-0.09,0.192l-0.091,0.194l-0.092,0.193l-0.093,0.192l-0.094,0.193l-0.096,0.193l-0.095,0.192l-0.097,0.192l-0.098,0.19l-0.099,0.193l-0.099,0.19l-0.101,0.191l-0.101,0.19l-0.103,0.19l-0.103,0.19l-0.104,0.188l-0.105,0.19l-0.106,0.188l-0.107,0.188l-0.108,0.188l-0.108,0.187l-0.11,0.187l-0.11,0.187l-0.112,0.187l-0.112,0.185l-0.113,0.185l-0.115,0.186l-0.114,0.184l-0.116,0.183l-0.116,0.184l-0.118,0.184l-0.119,0.183l-0.119,0.182l-0.12,0.181l-0.121,0.182l-0.122,0.18l-0.123,0.181l-0.124,0.18l-0.124,0.179l-0.126,0.179l-0.126,0.178l-0.127,0.178l-0.129,0.177l-0.128,0.177l-0.13,0.175l-0.13,0.175l-0.132,0.176l-0.133,0.174l-0.133,0.174l-0.134,0.173l-0.135,0.172l-0.135,0.172l-0.138,0.172l-0.137,0.17l-0.139,0.171l-0.139,0.169l-0.139,0.168l-0.141,0.167l-0.142,0.168l-0.144,0.167l-0.143,0.166l-0.145,0.165l-0.145,0.165l-0.146,0.163l-0.147,0.164l-0.147,0.162l-0.149,0.161l-0.15,0.161l-0.15,0.16l-0.151,0.159l-0.152,0.159l-0.153,0.157l-0.155,0.158l-0.154,0.155l-0.156,0.156l-0.156,0.154l-0.158,0.154l-0.158,0.152l-0.158,0.152l-0.161,0.151l-0.161,0.15l-0.161,0.149l-0.163,0.149l-0.164,0.148l-0.163,0.146l-0.164,0.144l-0.166,0.145l-0.168,0.145l-0.168,0.142l-0.168,0.142l-0.17,0.14l-0.169,0.139l-0.172,0.14l-0.173,0.138l-0.172,0.136l-0.174,0.135l-0.175,0.135l-0.175,0.133l-0.176,0.132l-0.179,0.132l-0.178,0.13l-0.178,0.129l-0.18,0.128l-0.181,0.127l-0.182,0.125l-0.183,0.125l-0.183,0.123l-0.184,0.122l-0.186,0.121l-0.186,0.119l-0.187,0.118l-0.188,0.118l-0.189,0.115l-0.19,0.115l-0.19,0.113l-0.192,0.112l-0.193,0.111l-0.193,0.109l-0.194,0.108l-0.195,0.106l-0.196,0.105l-0.197,0.104l-0.197,0.102l-0.2,0.101l-0.199,0.1l-0.2,0.097l-0.201,0.096l-0.203,0.096l-0.203,0.093l-0.204,0.092l-0.204,0.09l-0.206,0.089l-0.206,0.087l-0.208,0.085l-0.209,0.084l-0.209,0.083l-0.21,0.08l-0.21,0.079l-0.211,0.077l-0.213,0.076l-0.214,0.073l-0.214,0.072l-0.215,0.07l-0.216,0.069l-0.217,0.067l-0.217,0.064l-0.219,0.063l-0.218,0.061l-0.22,0.059l-0.221,0.058l-0.221,0.055l-0.222,0.053l-0.223,0.052l-0.224,0.049l-0.225,0.047l-0.225,0.046l-0.225,0.043l-0.226,0.041l-0.227,0.039l-0.229,0.038l-0.228,0.034l-0.229,0.033l-0.231,0.031l-0.229,0.028l-0.231,0.027l-0.232,0.024l-0.232,0.022l-0.232,0.019l-0.233,0.018l-0.235,0.015l-0.233,0.013l-0.236,0.01l-0.234,0.009l-0.235,0.006l-0.238,0.003l-0.235,0.001l-0.236,-0.001l-0.238,-0.003l-0.235,-0.006l-0.234,-0.009l-0.236,-0.01l-0.233,-0.013l-0.235,-0.015l-0.233,-0.018l-0.231,-0.019l-0.233,-0.022l-0.232,-0.024l-0.231,-0.027l-0.229,-0.028l-0.231,-0.031l-0.229,-0.033l-0.228,-0.034l-0.228,-0.038l-0.227,-0.039l-0.227,-0.041l-0.225,-0.043l-0.225,-0.046l-0.225,-0.047l-0.223,-0.049l-0.224,-0.052l-0.222,-0.053l-0.22,-0.055l-0.222,-0.058l-0.22,-0.059l-0.218,-0.061l-0.218,-0.063l-0.218,-0.064l-0.217,-0.067l-0.216,-0.069l-0.215,-0.07l-0.214,-0.072l-0.214,-0.073l-0.213,-0.076l-0.211,-0.077l-0.21,-0.079l-0.21,-0.08l-0.209,-0.083l-0.209,-0.084l-0.208,-0.085l-0.206,-0.087l-0.206,-0.089l-0.204,-0.09l-0.204,-0.092l-0.203,-0.093l-0.203,-0.096l-0.201,-0.096l-0.2,-0.097l-0.199,-0.1l-0.2,-0.101l-0.197,-0.102l-0.197,-0.104l-0.196,-0.105l-0.195,-0.106l-0.194,-0.108l-0.193,-0.109l-0.193,-0.111l-0.192,-0.112l-0.19,-0.113l-0.19,-0.115l-0.188,-0.115l-0.188,-0.117l-0.188,-0.119l-0.187,-0.12l-0.185,-0.12l-0.184,-0.122l-0.183,-0.123l-0.183,-0.125l-0.182,-0.125l-0.181,-0.127l-0.18,-0.128l-0.178,-0.129l-0.178,-0.13l-0.179,-0.132l-0.176,-0.132l-0.175,-0.133l-0.175,-0.135l-0.174,-0.135l-0.172,-0.136l-0.173,-0.138l-0.172,-0.14l-0.169,-0.139l-0.169,-0.14l-0.169,-0.142l-0.168,-0.142l-0.167,-0.145l-0.166,-0.144l-0.165,-0.145l-0.164,-0.147l-0.163,-0.147l-0.163,-0.149l-0.161,-0.149l-0.161,-0.15l-0.161,-0.151l-0.158,-0.152l-0.158,-0.152l-0.158,-0.154l-0.156,-0.154l-0.156,-0.156l-0.154,-0.155l-0.154,-0.158l-0.153,-0.157l-0.152,-0.159l-0.152,-0.159l-0.15,-0.16l-0.15,-0.161l-0.149,-0.161l-0.147,-0.162l-0.147,-0.164l-0.146,-0.163l-0.145,-0.165l-0.145,-0.165l-0.143,-0.166l-0.144,-0.167l-0.142,-0.168l-0.14,-0.167l-0.14,-0.168l-0.139,-0.169l-0.139,-0.171l-0.137,-0.17l-0.137,-0.172l-0.136,-0.172l-0.135,-0.172l-0.134,-0.173l-0.133,-0.174l-0.132,-0.174l-0.132,-0.175l-0.13,-0.175l-0.131,-0.177l-0.129,-0.177l-0.127,-0.176l-0.128,-0.178l-0.126,-0.178l-0.126,-0.179l-0.124,-0.179l-0.124,-0.18l-0.123,-0.181l-0.122,-0.18l-0.121,-0.182l-0.12,-0.181l-0.119,-0.182l-0.119,-0.183l-0.117,-0.184l-0.117,-0.184l-0.116,-0.183l-0.114,-0.184l-0.115,-0.186l-0.113,-0.185l-0.112,-0.185l-0.112,-0.187l-0.11,-0.187l-0.109,-0.187l-0.109,-0.187l-0.108,-0.188l-0.107,-0.188l-0.106,-0.188l-0.105,-0.19l-0.104,-0.188l-0.103,-0.19l-0.103,-0.19l-0.101,-0.19l-0.101,-0.191l-0.099,-0.19l-0.099,-0.192l-0.098,-0.191l-0.096,-0.192l-0.096,-0.192l-0.096,-0.193l-0.094,-0.193l-0.093,-0.193l-0.092,-0.192l-0.091,-0.194l-0.09,-0.192l-0.09,-0.194l-0.088,-0.196l-0.088,-0.194l-0.086,-0.194l-0.086,-0.196l-0.085,-0.195l-0.083,-0.194l-0.083,-0.196l-0.082,-0.196l-0.08,-0.195l-0.081,-0.197l-0.078,-0.196l-0.078,-0.195l-0.077,-0.198l-0.076,-0.196l-0.075,-0.197l-0.074,-0.198l-0.073,-0.197l-0.072,-0.197l-0.07,-0.196l-0.071,-0.199l-0.069,-0.198l-0.067,-0.196l-0.067,-0.198l-0.066,-0.198l-0.065,-0.199l-0.064,-0.199l-0.063,-0.198l-0.061,-0.197l-0.061,-0.199l-0.06,-0.198l-0.058,-0.198l-0.058,-0.2l-0.057,-0.199l-0.055,-0.199l-0.054,-0.198l-0.053,-0.198l-0.053,-0.2l-0.051,-0.199l-0.05,-0.197l-0.049,-0.2l-0.048,-0.2l-0.047,-0.199l-0.045,-0.198l-0.045,-0.199l-0.043,-0.198l-0.043,-0.201l-0.041,-0.2l-0.04,-0.198l-0.038,-0.197l-0.038,-0.199l-0.037,-0.201l-0.035,-0.199l-0.035,-0.198l-0.033,-0.199l-0.032,-0.2l-0.03,-0.198l-0.03,-0.198l-0.028,-0.2l-0.027,-0.199l-0.026,-0.199l-0.024,-0.197l-0.024,-0.199l-0.022,-0.199l-0.021,-0.198l-0.019,-0.198l-0.019,-0.198l-0.017,-0.2l-0.015,-0.198l-0.015,-0.197l-0.013,-0.199l-0.012,-0.199l-0.01,-0.196l-0.009,-0.199l-0.008,-0.198l-0.006,-0.196l-0.005,-0.199l-0.004,-0.197l-0.002,-0.196l-0.001,-0.198l0.001,-0.195l0.002,-0.192l0.004,-0.193l0.004,-0.192l0.007,-0.19l0.007,-0.189l0.009,-0.19l0.011,-0.187l0.012,-0.187l0.014,-0.187l0.015,-0.186l0.017,-0.187l0.019,-0.185l0.02,-0.182l0.022,-0.184l0.024,-0.184l0.025,-0.181l0.027,-0.181l0.03,-0.185l0.031,-0.181l0.033,-0.18l0.036,-0.182l0.037,-0.18l0.04,-0.18l0.041,-0.179l0.044,-0.18l0.047,-0.179l0.049,-0.182l0.051,-0.177l0.053,-0.176l0.058,-0.181l0.06,-0.179l0.061,-0.176l0.064,-0.176l0.068,-0.176l0.071,-0.178l0.074,-0.178l0.077,-0.174l0.08,-0.174l0.083,-0.175l0.086,-0.173l0.09,-0.172l0.093,-0.172l0.096,-0.169l0.1,-0.171l0.105,-0.17l0.106,-0.165l0.109,-0.165l0.115,-0.165l0.118,-0.163l0.12,-0.16l0.124,-0.157l0.127,-0.156l0.13,-0.153l0.135,-0.153l0.138,-0.149l0.14,-0.146l0.143,-0.143l0.144,-0.139l0.148,-0.137l0.153,-0.135l0.153,-0.13l0.155,-0.126l0.159,-0.125l0.161,-0.12l0.16,-0.116l0.165,-0.113l0.165,-0.109l0.165,-0.105l0.168,-0.101l0.168,-0.098l0.17,-0.094l0.17,-0.09l0.17,-0.087l0.171,-0.082l0.171,-0.079l0.172,-0.075l0.171,-0.072l0.171,-0.068l0.172,-0.065l0.17,-0.061l0.169,-0.058l0.172,-0.055l0.169,-0.052l0.168,-0.049l0.167,-0.045l0.168,-0.043l0.167,-0.04l0.164,-0.037l0.166,-0.035l0.165,-0.033l0.161,-0.029l0.162,-0.028l0.163,-0.026l0.159,-0.023l0.158,-0.02l0.159,-0.02l0.158,-0.017l0.157,-0.015l0.155,-0.013l0.154,-0.012l0.154,-0.01l0.153,-0.008l0.152,-0.007l0.151,-0.006l0.15,-0.004l0.151,-0.002l0.147,-0.002l0.148,0l0.149,0.001Zm-0.267,6.096l-0.096,0.001l-0.096,0.001l-0.095,0.003l-0.094,0.003l-0.094,0.005l-0.092,0.005l-0.092,0.006l-0.091,0.007l-0.091,0.007l-0.09,0.009l-0.088,0.01l-0.088,0.01l-0.088,0.012l-0.086,0.012l-0.086,0.014l-0.085,0.014l-0.084,0.016l-0.084,0.016l-0.082,0.018l-0.082,0.018l-0.081,0.02l-0.08,0.02l-0.079,0.022l-0.079,0.022l-0.078,0.024l-0.077,0.025l-0.076,0.026l-0.075,0.027l-0.075,0.028l-0.073,0.03l-0.073,0.03l-0.072,0.032l-0.071,0.033l-0.071,0.034l-0.069,0.035l-0.069,0.036l-0.068,0.038l-0.067,0.039l-0.066,0.04l-0.065,0.041l-0.064,0.042l-0.064,0.044l-0.063,0.045l-0.061,0.047l-0.061,0.047l-0.06,0.049l-0.06,0.051l-0.058,0.051l-0.057,0.053l-0.057,0.055l-0.056,0.055l-0.054,0.058l-0.054,0.058l-0.053,0.06l-0.052,0.061l-0.052,0.063l-0.05,0.064l-0.049,0.066l-0.049,0.067l-0.047,0.068l-0.047,0.07l-0.046,0.072l-0.045,0.073l-0.044,0.074l-0.043,0.076l-0.042,0.078l-0.041,0.079l-0.04,0.08l-0.039,0.083l-0.039,0.083l-0.037,0.086l-0.036,0.087l-0.036,0.088l-0.034,0.09l-0.034,0.092l-0.033,0.094l-0.031,0.095l-0.031,0.097l-0.03,0.098l-0.028,0.1l-0.028,0.102l-0.027,0.104l-0.026,0.105l-0.025,0.107l-0.024,0.108l-0.023,0.111l-0.022,0.112l-0.02,0.114l-0.02,0.116l-0.019,0.118l-0.018,0.119l-0.017,0.121l-0.016,0.123l-0.015,0.125l-0.014,0.127l-0.013,0.128l-0.012,0.131l-0.011,0.132l-0.01,0.134l-0.008,0.137l-0.008,0.138l-0.007,0.14l-0.006,0.142l-0.004,0.143l-0.004,0.146l-0.003,0.148l-0.001,0.15l-0.001,0.152l0.001,0.153l0.001,0.153l0.003,0.155l0.004,0.154l0.005,0.155l0.006,0.156l0.007,0.156l0.009,0.157l0.009,0.158l0.01,0.157l0.012,0.158l0.012,0.159l0.014,0.159l0.015,0.16l0.016,0.16l0.016,0.16l0.018,0.161l0.019,0.162l0.02,0.161l0.021,0.162l0.023,0.163l0.023,0.163l0.024,0.163l0.025,0.164l0.026,0.164l0.028,0.164l0.028,0.164l0.029,0.165l0.031,0.166l0.031,0.165l0.033,0.166l0.033,0.166l0.034,0.166l0.036,0.167l0.036,0.167l0.038,0.167l0.038,0.168l0.039,0.167l0.041,0.168l0.041,0.168l0.043,0.168l0.043,0.169l0.044,0.168l0.045,0.169l0.047,0.169l0.047,0.169l0.048,0.17l0.049,0.169l0.05,0.17l0.051,0.169l0.052,0.17l0.053,0.17l0.054,0.17l0.055,0.17l0.055,0.17l0.057,0.17l0.058,0.171l0.058,0.17l0.059,0.17l0.061,0.171l0.061,0.17l0.062,0.171l0.063,0.17l0.064,0.171l0.065,0.17l0.066,0.17l0.066,0.171l0.068,0.17l0.068,0.17l0.07,0.17l0.07,0.171l0.071,0.17l0.072,0.17l0.073,0.169l0.073,0.17l0.075,0.17l0.075,0.169l0.076,0.17l0.078,0.169l0.077,0.169l0.079,0.169l0.08,0.169l0.08,0.168l0.082,0.169l0.082,0.168l0.083,0.168l0.084,0.168l0.084,0.167l0.086,0.168l0.086,0.167l0.087,0.166l0.088,0.167l0.089,0.166l0.089,0.166l0.09,0.166l0.091,0.165l0.092,0.166l0.093,0.164l0.093,0.165l0.095,0.164l0.095,0.164l0.095,0.163l0.097,0.163l0.097,0.163l0.098,0.162l0.099,0.162l0.1,0.162l0.1,0.161l0.101,0.161l0.102,0.16l0.103,0.16l0.103,0.16l0.104,0.159l0.105,0.158l0.106,0.158l0.106,0.158l0.107,0.157l0.108,0.156l0.108,0.156l0.109,0.156l0.11,0.155l0.111,0.155l0.111,0.154l0.112,0.153l0.113,0.153l0.113,0.152l0.114,0.152l0.115,0.151l0.116,0.151l0.116,0.15l0.116,0.149l0.118,0.149l0.118,0.148l0.119,0.147l0.12,0.147l0.12,0.146l0.121,0.145l0.121,0.145l0.122,0.144l0.123,0.143l0.123,0.143l0.124,0.142l0.125,0.141l0.126,0.141l0.125,0.14l0.127,0.139l0.127,0.138l0.128,0.137l0.129,0.137l0.129,0.136l0.129,0.135l0.131,0.134l0.131,0.134l0.131,0.132l0.132,0.132l0.133,0.131l0.133,0.13l0.134,0.13l0.135,0.128l0.135,0.128l0.135,0.126l0.137,0.126l0.136,0.125l0.138,0.124l0.138,0.123l0.138,0.122l0.139,0.121l0.14,0.12l0.14,0.119l0.141,0.118l0.141,0.118l0.142,0.116l0.142,0.115l0.143,0.115l0.143,0.113l0.144,0.112l0.145,0.111l0.145,0.11l0.145,0.11l0.146,0.108l0.147,0.107l0.147,0.105l0.147,0.105l0.148,0.104l0.149,0.103l0.149,0.101l0.149,0.1l0.15,0.1l0.151,0.098l0.151,0.097l0.151,0.095l0.152,0.095l0.153,0.094l0.152,0.092l0.154,0.091l0.153,0.09l0.155,0.088l0.154,0.088l0.156,0.086l0.155,0.085l0.156,0.084l0.157,0.082l0.157,0.081l0.157,0.08l0.158,0.079l0.158,0.077l0.159,0.076l0.159,0.074l0.159,0.074l0.16,0.072l0.16,0.071l0.161,0.069l0.161,0.068l0.162,0.066l0.162,0.066l0.162,0.063l0.163,0.063l0.163,0.061l0.163,0.06l0.164,0.058l0.165,0.056l0.164,0.056l0.165,0.054l0.166,0.052l0.165,0.051l0.166,0.049l0.167,0.048l0.167,0.047l0.167,0.045l0.167,0.043l0.168,0.042l0.168,0.041l0.169,0.038l0.169,0.038l0.169,0.035l0.169,0.035l0.17,0.032l0.17,0.031l0.171,0.03l0.171,0.027l0.171,0.027l0.171,0.024l0.172,0.023l0.172,0.021l0.172,0.02l0.173,0.018l0.173,0.016l0.173,0.015l0.173,0.013l0.174,0.011l0.174,0.01l0.175,0.008l0.174,0.006l0.175,0.004l0.175,0.003l0.176,0l0.175,0l0.175,-0.003l0.175,-0.004l0.174,-0.006l0.175,-0.008l0.174,-0.01l0.174,-0.011l0.173,-0.013l0.173,-0.015l0.173,-0.016l0.173,-0.018l0.172,-0.02l0.172,-0.021l0.172,-0.023l0.171,-0.024l0.171,-0.027l0.171,-0.027l0.171,-0.03l0.17,-0.031l0.17,-0.032l0.169,-0.035l0.169,-0.035l0.169,-0.038l0.169,-0.038l0.168,-0.041l0.168,-0.042l0.167,-0.043l0.168,-0.045l0.166,-0.047l0.167,-0.048l0.166,-0.049l0.166,-0.051l0.165,-0.052l0.165,-0.054l0.165,-0.056l0.164,-0.056l0.164,-0.058l0.163,-0.06l0.163,-0.061l0.163,-0.063l0.162,-0.063l0.162,-0.066l0.162,-0.066l0.161,-0.068l0.161,-0.069l0.16,-0.071l0.16,-0.072l0.159,-0.074l0.159,-0.074l0.159,-0.076l0.158,-0.077l0.158,-0.079l0.157,-0.08l0.157,-0.081l0.157,-0.082l0.156,-0.084l0.156,-0.085l0.155,-0.086l0.154,-0.088l0.155,-0.088l0.153,-0.09l0.154,-0.091l0.153,-0.092l0.152,-0.094l0.152,-0.095l0.151,-0.095l0.151,-0.097l0.151,-0.098l0.15,-0.1l0.149,-0.1l0.149,-0.101l0.149,-0.103l0.148,-0.104l0.147,-0.105l0.147,-0.105l0.147,-0.107l0.146,-0.108l0.145,-0.11l0.145,-0.11l0.145,-0.111l0.144,-0.112l0.143,-0.113l0.143,-0.115l0.142,-0.115l0.142,-0.116l0.141,-0.118l0.141,-0.118l0.14,-0.119l0.14,-0.12l0.139,-0.121l0.138,-0.122l0.138,-0.123l0.138,-0.124l0.136,-0.125l0.137,-0.126l0.135,-0.126l0.135,-0.128l0.135,-0.128l0.134,-0.13l0.133,-0.13l0.133,-0.131l0.132,-0.132l0.131,-0.132l0.131,-0.134l0.131,-0.134l0.129,-0.135l0.129,-0.136l0.129,-0.137l0.128,-0.137l0.127,-0.138l0.127,-0.139l0.126,-0.14l0.125,-0.141l0.125,-0.141l0.124,-0.142l0.123,-0.143l0.123,-0.143l0.122,-0.144l0.122,-0.145l0.12,-0.145l0.121,-0.146l0.119,-0.147l0.119,-0.147l0.118,-0.148l0.118,-0.149l0.116,-0.149l0.117,-0.15l0.115,-0.151l0.115,-0.151l0.114,-0.152l0.113,-0.152l0.113,-0.153l0.112,-0.153l0.111,-0.154l0.111,-0.155l0.11,-0.155l0.109,-0.156l0.108,-0.156l0.108,-0.156l0.107,-0.157l0.106,-0.158l0.106,-0.158l0.105,-0.158l0.104,-0.159l0.103,-0.16l0.103,-0.16l0.102,-0.16l0.101,-0.161l0.1,-0.161l0.1,-0.162l0.099,-0.162l0.098,-0.162l0.097,-0.163l0.097,-0.163l0.096,-0.163l0.095,-0.164l0.094,-0.164l0.093,-0.165l0.093,-0.164l0.092,-0.166l0.091,-0.165l0.09,-0.166l0.09,-0.166l0.088,-0.166l0.088,-0.167l0.087,-0.166l0.086,-0.167l0.086,-0.168l0.085,-0.167l0.083,-0.168l0.083,-0.168l0.082,-0.168l0.082,-0.169l0.08,-0.168l0.08,-0.169l0.079,-0.169l0.078,-0.169l0.077,-0.169l0.076,-0.17l0.075,-0.169l0.075,-0.17l0.073,-0.17l0.073,-0.169l0.072,-0.17l0.071,-0.17l0.07,-0.171l0.07,-0.17l0.068,-0.17l0.068,-0.17l0.066,-0.171l0.066,-0.17l0.065,-0.17l0.064,-0.171l0.063,-0.17l0.062,-0.171l0.061,-0.17l0.061,-0.171l0.059,-0.17l0.059,-0.17l0.057,-0.171l0.057,-0.17l0.055,-0.17l0.055,-0.17l0.054,-0.17l0.053,-0.17l0.052,-0.17l0.051,-0.169l0.05,-0.17l0.049,-0.169l0.048,-0.17l0.047,-0.169l0.047,-0.169l0.045,-0.169l0.044,-0.168l0.044,-0.169l0.042,-0.168l0.041,-0.168l0.041,-0.168l0.039,-0.167l0.038,-0.168l0.038,-0.167l0.036,-0.167l0.036,-0.167l0.034,-0.166l0.034,-0.166l0.032,-0.166l0.031,-0.165l0.031,-0.166l0.029,-0.165l0.028,-0.164l0.028,-0.164l0.026,-0.164l0.025,-0.164l0.024,-0.163l0.024,-0.163l0.022,-0.163l0.021,-0.162l0.02,-0.161l0.019,-0.162l0.018,-0.161l0.016,-0.16l0.016,-0.16l0.015,-0.16l0.014,-0.159l0.012,-0.159l0.012,-0.158l0.01,-0.157l0.009,-0.158l0.009,-0.157l0.007,-0.156l0.006,-0.156l0.005,-0.155l0.004,-0.154l0.003,-0.155l0.001,-0.153l0.001,-0.153l-0.001,-0.152l-0.002,-0.15l-0.002,-0.148l-0.005,-0.146l-0.005,-0.143l-0.006,-0.142l-0.008,-0.14l-0.008,-0.138l-0.01,-0.137l-0.011,-0.134l-0.012,-0.132l-0.014,-0.131l-0.014,-0.128l-0.016,-0.127l-0.016,-0.125l-0.018,-0.123l-0.019,-0.121l-0.02,-0.119l-0.021,-0.118l-0.022,-0.116l-0.024,-0.114l-0.024,-0.112l-0.026,-0.111l-0.026,-0.108l-0.028,-0.107l-0.029,-0.105l-0.029,-0.104l-0.031,-0.102l-0.032,-0.1l-0.033,-0.098l-0.034,-0.097l-0.035,-0.095l-0.037,-0.094l-0.037,-0.092l-0.038,-0.09l-0.04,-0.088l-0.04,-0.087l-0.041,-0.086l-0.043,-0.083l-0.043,-0.083l-0.045,-0.08l-0.045,-0.079l-0.047,-0.078l-0.047,-0.076l-0.049,-0.074l-0.049,-0.073l-0.051,-0.072l-0.052,-0.07l-0.052,-0.068l-0.054,-0.067l-0.054,-0.066l-0.056,-0.064l-0.056,-0.063l-0.058,-0.061l-0.058,-0.06l-0.059,-0.058l-0.061,-0.058l-0.061,-0.055l-0.062,-0.055l-0.063,-0.053l-0.065,-0.051l-0.065,-0.051l-0.066,-0.049l-0.067,-0.047l-0.068,-0.047l-0.068,-0.045l-0.07,-0.044l-0.071,-0.042l-0.071,-0.041l-0.073,-0.04l-0.073,-0.039l-0.075,-0.038l-0.075,-0.036l-0.076,-0.035l-0.077,-0.034l-0.078,-0.033l-0.078,-0.032l-0.08,-0.03l-0.081,-0.03l-0.081,-0.028l-0.082,-0.027l-0.083,-0.026l-0.084,-0.025l-0.085,-0.024l-0.086,-0.022l-0.087,-0.022l-0.087,-0.02l-0.088,-0.02l-0.089,-0.018l-0.09,-0.018l-0.091,-0.016l-0.092,-0.016l-0.092,-0.014l-0.093,-0.014l-0.094,-0.012l-0.095,-0.012l-0.096,-0.01l-0.096,-0.01l-0.097,-0.009l-0.099,-0.007l-0.098,-0.007l-0.1,-0.006l-0.1,-0.005l-0.102,-0.005l-0.102,-0.003l-0.102,-0.003l-0.104,-0.001l-0.104,-0.001l-0.105,0l-0.106,0.001l-0.107,0.001l-0.107,0.003l-0.217,0.006l-0.22,0.01l-0.222,0.013l-0.226,0.016l-0.229,0.019l-0.231,0.021l-0.234,0.023l-0.237,0.026l-0.24,0.029l-0.242,0.031l-0.245,0.033l-0.248,0.035l-0.25,0.037l-0.253,0.039l-0.256,0.041l-0.258,0.043l-0.26,0.045l-0.263,0.046l-0.266,0.047l-0.268,0.049l-0.27,0.051l-0.272,0.051l-0.552,0.107l-0.561,0.11l-0.57,0.114l-1.165,0.234l-0.594,0.119l-0.603,0.119l-0.61,0.119l-0.617,0.119l-0.311,0.058l-0.313,0.058l-0.315,0.057l-0.316,0.057l-0.318,0.056l-0.32,0.055l-0.321,0.054l-0.322,0.053l-0.325,0.052l-0.325,0.051l-0.328,0.049l-0.328,0.048l-0.33,0.047l-0.332,0.044l-0.332,0.044l-0.334,0.041l-0.335,0.04l-0.337,0.038l-0.338,0.035l-0.339,0.034l-0.34,0.032l-0.341,0.029l-0.342,0.027l-0.343,0.024l-0.344,0.022l-0.346,0.019l-0.346,0.017l-0.347,0.013l-0.348,0.011l-0.175,0.004l-0.174,0.004l-0.175,0.003l-0.175,0.002l-0.175,0.001l-0.176,0l-0.175,0l-0.175,-0.001l-0.175,-0.002l-0.174,-0.003l-0.174,-0.004l-0.174,-0.004l-0.346,-0.011l-0.345,-0.013l-0.344,-0.017l-0.342,-0.019l-0.341,-0.022l-0.339,-0.024l-0.338,-0.027l-0.336,-0.029l-0.335,-0.032l-0.333,-0.034l-0.332,-0.035l-0.33,-0.038l-0.328,-0.04l-0.327,-0.041l-0.325,-0.044l-0.323,-0.044l-0.322,-0.047l-0.32,-0.048l-0.318,-0.049l-0.316,-0.051l-0.315,-0.052l-0.313,-0.053l-0.311,-0.054l-0.309,-0.055l-0.307,-0.056l-0.305,-0.057l-0.303,-0.057l-0.301,-0.058l-0.3,-0.058l-0.297,-0.059l-0.295,-0.06l-0.584,-0.119l-0.576,-0.119l-0.567,-0.119l-1.108,-0.234l-0.541,-0.114l-0.531,-0.11l-0.521,-0.107l-0.257,-0.051l-0.255,-0.051l-0.252,-0.049l-0.25,-0.047l-0.247,-0.046l-0.245,-0.045l-0.242,-0.043l-0.239,-0.041l-0.237,-0.039l-0.235,-0.037l-0.231,-0.035l-0.229,-0.033l-0.227,-0.031l-0.223,-0.029l-0.221,-0.026l-0.218,-0.023l-0.215,-0.021l-0.213,-0.019l-0.209,-0.016l-0.207,-0.013l-0.204,-0.01l-0.201,-0.006l-0.099,-0.003l-0.099,-0.001l-0.098,-0.001l-0.097,0Z" style="fill:#3d3d3d;"/>
            </g>
        </g>
    </g>
</svg>
