<?xml version="1.0" encoding="UTF-8" standalone="no"?>
<!DOCTYPE svg PUBLIC "-//W3C//DTD SVG 1.1//EN" "http://www.w3.org/Graphics/SVG/1.1/DTD/svg11.dtd">
<svg width="100%" height="100%" viewBox="0 0 490 452" version="1.1" xmlns="http://www.w3.org/2000/svg" xmlns:xlink="http://www.w3.org/1999/xlink" xml:space="preserve" xmlns:serif="http://www.serif.com/" style="fill-rule:evenodd;clip-rule:evenodd;stroke-linejoin:round;stroke-miterlimit:2;">
    <rect id="Basic" x="0" y="0" width="489.334" height="451.988" style="fill:none;"/>
    <g id="NachoBoy">
        <path id="basic" d="M163.952,19.865l289.347,317.732l-417.264,92.527l127.917,-410.259Z" style="fill:#e19160;"/>
        <clipPath id="_clip1">
            <path d="M163.952,19.865l289.347,317.732l-417.264,92.527l127.917,-410.259Z"/>
        </clipPath>
        <g clip-path="url(#_clip1)">
            <path d="M91.949,375.068l12.165,-34.973l25.85,10.644l-38.015,24.329Z" style="fill:#d16c4c;"/>
            <path d="M164.322,111.777l12.164,-34.974l19.372,37.55l-31.536,-2.576Z" style="fill:#d16c4c;"/>
            <path d="M211.137,296.276l14.158,-18.775l19.372,37.551l-33.53,-18.776Z" style="fill:#d16c4c;"/>
            <path d="M263.157,224.994l5.399,-37.55l21.319,24.007l-26.718,13.543Z" style="fill:#d16c4c;"/>
            <path d="M336.753,304.105l26.808,-26.604l2.829,38.605l-29.637,-12.001Z" style="fill:#d16c4c;"/>
            <path d="M130.792,214.531l26.804,-8.312l6.726,27.087l-33.53,-18.775Z" style="fill:#d16c4c;"/>
        </g>
        <path d="M167.753,1.297l3.789,1.201l3.454,1.964l2.969,2.642l289.346,317.732l2.344,3.187l1.632,3.605l0.847,3.864l0.027,3.956l-0.796,3.876l-1.582,3.626l-2.301,3.218l-2.919,2.671l-3.409,2.006l-3.752,1.255l-417.264,92.527l-3.93,0.448l-3.939,-0.377l-3.774,-1.186l-3.445,-1.944l-2.967,-2.618l-2.359,-3.176l-1.648,-3.596l-0.866,-3.861l-0.045,-3.956l0.777,-3.879l127.917,-410.259l1.574,-3.649l2.3,-3.24l2.926,-2.69l3.422,-2.02l3.768,-1.262l3.949,-0.449l3.955,0.384Zm-131.718,428.827l417.264,-92.527l-289.347,-317.732l-127.917,410.259Z" style="fill:#d16c4c;"/>
        <g>
            <circle cx="130.988" cy="179.457" r="54.658" style="fill:#e7e7e7;"/>
            <path d="M131.399,115.788l0.41,0.004l0.409,0.007l0.409,0.009l0.408,0.011l0.408,0.015l0.407,0.017l0.406,0.019l0.406,0.022l0.405,0.024l0.405,0.027l0.404,0.03l0.403,0.032l0.403,0.034l0.402,0.037l0.401,0.04l0.401,0.042l0.4,0.044l0.399,0.047l0.399,0.05l0.397,0.052l0.398,0.054l0.396,0.057l0.395,0.059l0.395,0.062l0.395,0.064l0.393,0.066l0.392,0.069l0.392,0.071l0.39,0.074l0.39,0.076l0.39,0.079l0.388,0.08l0.388,0.084l0.386,0.085l0.386,0.088l0.385,0.09l0.384,0.093l0.383,0.095l0.382,0.097l0.382,0.099l0.38,0.102l0.379,0.104l0.379,0.107l0.377,0.108l0.377,0.111l0.376,0.113l0.374,0.115l0.374,0.118l0.373,0.12l0.372,0.122l0.37,0.124l0.369,0.126l0.369,0.129l0.368,0.131l0.367,0.133l0.365,0.135l0.364,0.138l0.364,0.139l0.361,0.142l0.362,0.144l0.361,0.146l0.359,0.148l0.357,0.15l0.356,0.152l0.357,0.155l0.354,0.156l0.353,0.159l0.353,0.16l0.351,0.163l0.349,0.165l0.349,0.167l0.348,0.169l0.346,0.17l0.346,0.174l0.343,0.174l0.342,0.177l0.343,0.179l0.34,0.182l0.338,0.182l0.337,0.184l0.338,0.188l0.335,0.189l0.335,0.191l0.332,0.193l0.331,0.194l0.33,0.196l0.329,0.199l0.327,0.2l0.326,0.203l0.326,0.204l0.323,0.206l0.322,0.208l0.322,0.21l0.318,0.212l0.318,0.213l0.318,0.216l0.316,0.218l0.313,0.218l0.312,0.221l0.312,0.223l0.309,0.225l0.309,0.226l0.306,0.228l0.307,0.231l0.303,0.231l0.302,0.233l0.303,0.237l0.299,0.236l0.298,0.238l0.298,0.242l0.294,0.241l0.294,0.245l0.294,0.246l0.289,0.247l0.289,0.249l0.289,0.251l0.286,0.252l0.284,0.254l0.284,0.257l0.282,0.258l0.279,0.258l0.28,0.261l0.277,0.263l0.275,0.264l0.274,0.266l0.271,0.266l0.272,0.27l0.269,0.271l0.267,0.272l0.266,0.274l0.264,0.275l0.263,0.278l0.261,0.279l0.259,0.279l0.256,0.281l0.257,0.283l0.255,0.287l0.252,0.286l0.25,0.286l0.25,0.291l0.247,0.29l0.246,0.292l0.244,0.295l0.242,0.294l0.241,0.298l0.238,0.297l0.238,0.3l0.235,0.302l0.233,0.301l0.233,0.306l0.23,0.306l0.227,0.305l0.227,0.31l0.225,0.309l0.222,0.311l0.222,0.313l0.219,0.315l0.217,0.314l0.215,0.316l0.215,0.32l0.211,0.319l0.21,0.321l0.208,0.322l0.206,0.323l0.205,0.327l0.201,0.324l0.2,0.327l0.199,0.33l0.198,0.331l0.194,0.33l0.192,0.332l0.191,0.334l0.189,0.336l0.187,0.337l0.185,0.338l0.183,0.339l0.181,0.34l0.179,0.341l0.176,0.342l0.175,0.344l0.174,0.346l0.171,0.347l0.168,0.347l0.166,0.347l0.166,0.351l0.162,0.351l0.161,0.353l0.159,0.353l0.156,0.355l0.155,0.355l0.152,0.357l0.15,0.357l0.148,0.358l0.146,0.362l0.144,0.362l0.141,0.361l0.14,0.364l0.138,0.365l0.134,0.364l0.134,0.367l0.13,0.367l0.129,0.369l0.127,0.369l0.124,0.372l0.122,0.372l0.12,0.372l0.118,0.374l0.115,0.374l0.112,0.374l0.112,0.378l0.108,0.378l0.107,0.379l0.104,0.379l0.102,0.381l0.099,0.381l0.097,0.382l0.095,0.382l0.092,0.384l0.091,0.386l0.088,0.387l0.085,0.385l0.083,0.387l0.081,0.389l0.079,0.389l0.076,0.391l0.074,0.391l0.071,0.391l0.069,0.393l0.066,0.393l0.064,0.393l0.062,0.394l0.059,0.397l0.057,0.397l0.054,0.396l0.052,0.399l0.049,0.397l0.048,0.4l0.044,0.402l0.042,0.399l0.04,0.401l0.037,0.402l0.034,0.402l0.032,0.405l0.03,0.403l0.027,0.404l0.024,0.406l0.022,0.407l0.019,0.405l0.017,0.405l0.014,0.41l0.012,0.409l0.009,0.407l0.007,0.411l0.003,0.41l0.002,0.409l-0.002,0.41l-0.003,0.41l-0.007,0.411l-0.009,0.407l-0.012,0.408l-0.014,0.411l-0.017,0.405l-0.019,0.405l-0.022,0.407l-0.024,0.406l-0.027,0.404l-0.03,0.403l-0.032,0.405l-0.034,0.402l-0.037,0.402l-0.04,0.401l-0.042,0.399l-0.044,0.402l-0.048,0.4l-0.049,0.397l-0.052,0.399l-0.054,0.395l-0.057,0.398l-0.059,0.397l-0.062,0.394l-0.064,0.393l-0.066,0.393l-0.069,0.393l-0.071,0.391l-0.074,0.391l-0.076,0.391l-0.079,0.389l-0.081,0.389l-0.083,0.386l-0.085,0.386l-0.088,0.387l-0.091,0.386l-0.092,0.383l-0.095,0.383l-0.097,0.382l-0.099,0.381l-0.102,0.381l-0.104,0.379l-0.107,0.379l-0.108,0.378l-0.112,0.377l-0.112,0.375l-0.115,0.374l-0.118,0.374l-0.12,0.372l-0.122,0.371l-0.124,0.373l-0.127,0.369l-0.129,0.369l-0.13,0.367l-0.134,0.367l-0.134,0.364l-0.138,0.365l-0.14,0.364l-0.141,0.361l-0.144,0.362l-0.146,0.362l-0.148,0.358l-0.15,0.357l-0.153,0.357l-0.154,0.355l-0.156,0.355l-0.159,0.353l-0.161,0.353l-0.162,0.351l-0.166,0.351l-0.166,0.347l-0.168,0.347l-0.171,0.347l-0.174,0.346l-0.175,0.343l-0.176,0.343l-0.179,0.341l-0.181,0.34l-0.183,0.339l-0.185,0.338l-0.187,0.337l-0.189,0.336l-0.191,0.334l-0.192,0.332l-0.194,0.33l-0.198,0.331l-0.199,0.33l-0.2,0.327l-0.201,0.325l-0.205,0.326l-0.206,0.323l-0.208,0.322l-0.21,0.321l-0.211,0.318l-0.215,0.321l-0.215,0.316l-0.216,0.314l-0.221,0.315l-0.221,0.313l-0.222,0.311l-0.225,0.31l-0.227,0.309l-0.227,0.305l-0.23,0.306l-0.233,0.306l-0.232,0.301l-0.236,0.301l-0.238,0.301l-0.238,0.297l-0.241,0.297l-0.242,0.295l-0.244,0.295l-0.245,0.292l-0.248,0.29l-0.25,0.291l-0.25,0.286l-0.252,0.287l-0.255,0.286l-0.257,0.283l-0.257,0.281l-0.258,0.279l-0.261,0.279l-0.263,0.278l-0.264,0.274l-0.266,0.275l-0.268,0.272l-0.268,0.27l-0.272,0.271l-0.271,0.266l-0.273,0.265l-0.276,0.265l-0.278,0.263l-0.278,0.261l-0.28,0.258l-0.282,0.258l-0.284,0.257l-0.284,0.254l-0.286,0.252l-0.289,0.252l-0.289,0.248l-0.289,0.246l-0.294,0.247l-0.294,0.245l-0.294,0.241l-0.298,0.242l-0.298,0.238l-0.299,0.236l-0.302,0.237l-0.303,0.233l-0.303,0.231l-0.307,0.231l-0.306,0.228l-0.308,0.226l-0.31,0.225l-0.312,0.223l-0.312,0.22l-0.314,0.219l-0.315,0.218l-0.318,0.216l-0.318,0.213l-0.319,0.212l-0.321,0.21l-0.322,0.208l-0.323,0.205l-0.326,0.205l-0.326,0.203l-0.327,0.2l-0.329,0.198l-0.33,0.197l-0.331,0.194l-0.332,0.193l-0.335,0.191l-0.335,0.189l-0.337,0.187l-0.338,0.185l-0.338,0.182l-0.341,0.182l-0.342,0.179l-0.341,0.176l-0.344,0.175l-0.347,0.174l-0.345,0.17l-0.348,0.169l-0.349,0.167l-0.349,0.164l-0.351,0.164l-0.353,0.16l-0.353,0.159l-0.354,0.156l-0.357,0.155l-0.356,0.152l-0.357,0.15l-0.359,0.148l-0.361,0.146l-0.361,0.144l-0.362,0.142l-0.364,0.139l-0.364,0.138l-0.365,0.135l-0.366,0.132l-0.369,0.132l-0.369,0.128l-0.369,0.127l-0.37,0.124l-0.372,0.122l-0.373,0.12l-0.374,0.118l-0.375,0.115l-0.375,0.113l-0.377,0.111l-0.377,0.108l-0.378,0.107l-0.38,0.104l-0.381,0.102l-0.381,0.099l-0.382,0.097l-0.384,0.095l-0.383,0.093l-0.385,0.09l-0.385,0.088l-0.387,0.085l-0.388,0.083l-0.388,0.081l-0.39,0.079l-0.39,0.076l-0.39,0.073l-0.392,0.072l-0.392,0.069l-0.394,0.066l-0.394,0.064l-0.395,0.062l-0.395,0.059l-0.396,0.057l-0.397,0.054l-0.398,0.052l-0.399,0.05l-0.399,0.047l-0.4,0.044l-0.401,0.042l-0.401,0.04l-0.402,0.037l-0.403,0.034l-0.403,0.032l-0.404,0.03l-0.405,0.027l-0.405,0.024l-0.406,0.022l-0.406,0.019l-0.408,0.017l-0.407,0.014l-0.408,0.012l-0.409,0.009l-0.41,0.007l-0.41,0.004l-0.41,0.001l-0.41,-0.001l-0.41,-0.004l-0.409,-0.007l-0.409,-0.009l-0.408,-0.012l-0.408,-0.014l-0.407,-0.017l-0.406,-0.019l-0.407,-0.022l-0.404,-0.024l-0.405,-0.027l-0.404,-0.03l-0.403,-0.032l-0.403,-0.034l-0.402,-0.037l-0.402,-0.04l-0.4,-0.042l-0.4,-0.044l-0.399,-0.047l-0.399,-0.05l-0.398,-0.052l-0.397,-0.054l-0.396,-0.057l-0.396,-0.059l-0.395,-0.062l-0.393,-0.064l-0.394,-0.066l-0.392,-0.069l-0.392,-0.072l-0.391,-0.073l-0.39,-0.076l-0.389,-0.079l-0.388,-0.081l-0.388,-0.083l-0.387,-0.085l-0.385,-0.088l-0.385,-0.09l-0.384,-0.093l-0.383,-0.095l-0.383,-0.097l-0.381,-0.099l-0.38,-0.102l-0.38,-0.104l-0.378,-0.107l-0.378,-0.108l-0.376,-0.111l-0.376,-0.113l-0.375,-0.116l-0.373,-0.117l-0.373,-0.12l-0.371,-0.122l-0.372,-0.124l-0.369,-0.127l-0.368,-0.128l-0.369,-0.132l-0.366,-0.132l-0.365,-0.135l-0.365,-0.138l-0.363,-0.139l-0.362,-0.142l-0.361,-0.144l-0.36,-0.146l-0.359,-0.148l-0.359,-0.15l-0.356,-0.153l-0.356,-0.154l-0.354,-0.156l-0.353,-0.159l-0.353,-0.16l-0.352,-0.164l-0.348,-0.164l-0.349,-0.167l-0.348,-0.169l-0.345,-0.17l-0.346,-0.173l-0.345,-0.176l-0.342,-0.176l-0.341,-0.179l-0.34,-0.181l-0.339,-0.183l-0.339,-0.185l-0.337,-0.187l-0.334,-0.189l-0.334,-0.19l-0.333,-0.194l-0.331,-0.194l-0.33,-0.197l-0.33,-0.199l-0.326,-0.199l-0.326,-0.203l-0.325,-0.204l-0.325,-0.206l-0.322,-0.209l-0.319,-0.209l-0.32,-0.212l-0.319,-0.214l-0.316,-0.215l-0.316,-0.217l-0.314,-0.22l-0.313,-0.22l-0.311,-0.223l-0.31,-0.225l-0.309,-0.227l-0.306,-0.228l-0.305,-0.229l-0.305,-0.232l-0.303,-0.234l-0.3,-0.235l-0.301,-0.237l-0.298,-0.239l-0.296,-0.24l-0.295,-0.242l-0.295,-0.245l-0.292,-0.246l-0.292,-0.248l-0.289,-0.248l-0.287,-0.251l-0.286,-0.252l-0.285,-0.254l-0.283,-0.257l-0.282,-0.258l-0.28,-0.258l-0.279,-0.261l-0.277,-0.263l-0.275,-0.264l-0.274,-0.266l-0.272,-0.267l-0.271,-0.27l-0.269,-0.27l-0.267,-0.272l-0.267,-0.275l-0.263,-0.274l-0.263,-0.278l-0.26,-0.278l-0.259,-0.279l-0.259,-0.283l-0.256,-0.284l-0.254,-0.284l-0.253,-0.287l-0.249,-0.286l-0.249,-0.289l-0.249,-0.292l-0.246,-0.293l-0.244,-0.294l-0.242,-0.295l-0.239,-0.295l-0.24,-0.299l-0.237,-0.301l-0.236,-0.301l-0.233,-0.303l-0.231,-0.302l-0.231,-0.308l-0.228,-0.307l-0.226,-0.307l-0.225,-0.31l-0.222,-0.311l-0.222,-0.313l-0.219,-0.314l-0.217,-0.315l-0.216,-0.318l-0.213,-0.317l-0.212,-0.32l-0.21,-0.321l-0.208,-0.322l-0.206,-0.323l-0.204,-0.325l-0.203,-0.327l-0.2,-0.328l-0.199,-0.328l-0.196,-0.329l-0.195,-0.332l-0.193,-0.334l-0.19,-0.332l-0.189,-0.336l-0.187,-0.337l-0.185,-0.338l-0.183,-0.339l-0.181,-0.34l-0.179,-0.341l-0.177,-0.343l-0.174,-0.343l-0.174,-0.346l-0.171,-0.347l-0.168,-0.347l-0.167,-0.347l-0.165,-0.351l-0.163,-0.351l-0.16,-0.353l-0.159,-0.353l-0.156,-0.353l-0.155,-0.357l-0.153,-0.359l-0.149,-0.355l-0.148,-0.358l-0.146,-0.362l-0.144,-0.362l-0.142,-0.361l-0.139,-0.362l-0.138,-0.367l-0.135,-0.366l-0.133,-0.365l-0.131,-0.367l-0.128,-0.369l-0.127,-0.369l-0.124,-0.371l-0.122,-0.373l-0.121,-0.374l-0.116,-0.37l-0.116,-0.376l-0.113,-0.377l-0.111,-0.375l-0.109,-0.378l-0.106,-0.379l-0.104,-0.379l-0.102,-0.381l-0.099,-0.381l-0.097,-0.382l-0.095,-0.383l-0.092,-0.383l-0.091,-0.386l-0.088,-0.385l-0.085,-0.388l-0.084,-0.388l-0.08,-0.387l-0.079,-0.389l-0.076,-0.391l-0.074,-0.391l-0.071,-0.391l-0.069,-0.393l-0.066,-0.393l-0.064,-0.393l-0.062,-0.394l-0.059,-0.397l-0.057,-0.398l-0.054,-0.395l-0.052,-0.397l-0.05,-0.399l-0.047,-0.402l-0.044,-0.398l-0.042,-0.401l-0.04,-0.401l-0.037,-0.402l-0.034,-0.404l-0.032,-0.401l-0.03,-0.405l-0.027,-0.406l-0.024,-0.404l-0.022,-0.405l-0.02,-0.407l-0.016,-0.407l-0.015,-0.406l-0.011,-0.411l-0.009,-0.409l-0.007,-0.407l-0.004,-0.412l-0.001,-0.41l0.001,-0.409l0.004,-0.412l0.007,-0.407l0.009,-0.409l0.011,-0.411l0.015,-0.406l0.016,-0.407l0.02,-0.407l0.022,-0.405l0.024,-0.404l0.027,-0.406l0.03,-0.405l0.032,-0.401l0.034,-0.404l0.037,-0.402l0.04,-0.401l0.042,-0.401l0.044,-0.398l0.047,-0.402l0.05,-0.399l0.052,-0.397l0.054,-0.396l0.057,-0.397l0.059,-0.397l0.062,-0.394l0.064,-0.393l0.066,-0.393l0.069,-0.393l0.071,-0.391l0.074,-0.391l0.076,-0.391l0.079,-0.389l0.08,-0.387l0.084,-0.389l0.085,-0.387l0.088,-0.385l0.091,-0.386l0.092,-0.384l0.095,-0.382l0.097,-0.382l0.099,-0.381l0.102,-0.381l0.104,-0.379l0.107,-0.379l0.108,-0.378l0.111,-0.375l0.113,-0.377l0.116,-0.376l0.116,-0.37l0.121,-0.374l0.122,-0.374l0.124,-0.37l0.127,-0.369l0.128,-0.369l0.131,-0.367l0.133,-0.365l0.135,-0.366l0.138,-0.367l0.139,-0.362l0.142,-0.361l0.144,-0.362l0.146,-0.362l0.148,-0.358l0.149,-0.355l0.153,-0.359l0.155,-0.357l0.156,-0.353l0.159,-0.353l0.16,-0.353l0.163,-0.351l0.165,-0.351l0.167,-0.347l0.168,-0.347l0.171,-0.347l0.174,-0.346l0.175,-0.344l0.176,-0.342l0.179,-0.341l0.181,-0.34l0.183,-0.339l0.185,-0.338l0.187,-0.337l0.189,-0.336l0.19,-0.332l0.193,-0.334l0.195,-0.332l0.196,-0.329l0.199,-0.329l0.2,-0.327l0.203,-0.327l0.204,-0.325l0.206,-0.323l0.208,-0.322l0.21,-0.321l0.212,-0.32l0.213,-0.317l0.216,-0.318l0.218,-0.316l0.218,-0.313l0.222,-0.313l0.222,-0.311l0.224,-0.309l0.227,-0.309l0.228,-0.306l0.231,-0.307l0.231,-0.303l0.233,-0.303l0.236,-0.302l0.237,-0.3l0.24,-0.298l0.24,-0.297l0.241,-0.294l0.244,-0.294l0.246,-0.293l0.249,-0.292l0.249,-0.289l0.249,-0.286l0.253,-0.286l0.254,-0.285l0.256,-0.284l0.259,-0.283l0.259,-0.28l0.26,-0.277l0.263,-0.278l0.264,-0.275l0.266,-0.274l0.267,-0.272l0.269,-0.271l0.271,-0.269l0.272,-0.267l0.275,-0.267l0.274,-0.263l0.277,-0.263l0.279,-0.261l0.28,-0.258l0.282,-0.258l0.283,-0.257l0.285,-0.254l0.286,-0.252l0.287,-0.25l0.289,-0.249l0.292,-0.249l0.292,-0.245l0.295,-0.245l0.295,-0.242l0.296,-0.24l0.298,-0.239l0.301,-0.237l0.3,-0.235l0.303,-0.234l0.305,-0.232l0.304,-0.229l0.307,-0.228l0.309,-0.227l0.31,-0.225l0.311,-0.223l0.313,-0.221l0.314,-0.219l0.316,-0.217l0.316,-0.215l0.318,-0.214l0.32,-0.212l0.32,-0.209l0.322,-0.209l0.325,-0.206l0.325,-0.204l0.326,-0.203l0.326,-0.199l0.33,-0.2l0.33,-0.196l0.331,-0.194l0.333,-0.194l0.334,-0.19l0.335,-0.189l0.337,-0.187l0.338,-0.185l0.339,-0.183l0.339,-0.181l0.342,-0.178l0.342,-0.178l0.345,-0.175l0.345,-0.173l0.346,-0.17l0.347,-0.169l0.35,-0.167l0.349,-0.165l0.351,-0.163l0.353,-0.16l0.353,-0.159l0.354,-0.156l0.356,-0.154l0.356,-0.153l0.359,-0.15l0.359,-0.148l0.36,-0.146l0.361,-0.144l0.362,-0.142l0.363,-0.139l0.365,-0.138l0.365,-0.135l0.366,-0.133l0.368,-0.131l0.369,-0.128l0.369,-0.127l0.372,-0.124l0.371,-0.122l0.373,-0.12l0.373,-0.117l0.375,-0.116l0.376,-0.113l0.376,-0.111l0.378,-0.109l0.378,-0.106l0.38,-0.104l0.38,-0.102l0.382,-0.099l0.382,-0.097l0.383,-0.095l0.384,-0.093l0.385,-0.09l0.386,-0.088l0.386,-0.085l0.388,-0.084l0.388,-0.08l0.389,-0.079l0.39,-0.076l0.391,-0.073l0.392,-0.072l0.392,-0.069l0.394,-0.066l0.393,-0.064l0.395,-0.062l0.396,-0.059l0.396,-0.057l0.397,-0.054l0.398,-0.052l0.399,-0.05l0.399,-0.047l0.4,-0.044l0.4,-0.042l0.402,-0.04l0.402,-0.037l0.403,-0.034l0.403,-0.032l0.404,-0.03l0.405,-0.027l0.405,-0.024l0.406,-0.022l0.406,-0.019l0.407,-0.017l0.408,-0.015l0.408,-0.011l0.409,-0.009l0.409,-0.007l0.41,-0.004l0.41,-0.001l0.411,0.001Zm-0.764,9.013l-0.353,0.003l-0.352,0.006l-0.351,0.008l-0.352,0.01l-0.35,0.012l-0.35,0.014l-0.349,0.017l-0.349,0.019l-0.349,0.021l-0.347,0.023l-0.347,0.025l-0.347,0.028l-0.346,0.03l-0.345,0.031l-0.345,0.034l-0.344,0.036l-0.343,0.039l-0.343,0.04l-0.342,0.042l-0.341,0.045l-0.341,0.047l-0.34,0.048l-0.34,0.051l-0.338,0.053l-0.339,0.055l-0.337,0.057l-0.337,0.059l-0.336,0.061l-0.335,0.064l-0.334,0.065l-0.334,0.067l-0.333,0.07l-0.333,0.071l-0.331,0.073l-0.331,0.076l-0.33,0.077l-0.329,0.079l-0.329,0.082l-0.328,0.083l-0.327,0.085l-0.326,0.087l-0.325,0.09l-0.325,0.091l-0.323,0.093l-0.323,0.095l-0.322,0.097l-0.322,0.099l-0.32,0.101l-0.32,0.103l-0.318,0.104l-0.318,0.107l-0.317,0.108l-0.316,0.111l-0.315,0.112l-0.315,0.114l-0.313,0.116l-0.313,0.118l-0.311,0.119l-0.311,0.122l-0.31,0.123l-0.308,0.125l-0.308,0.127l-0.307,0.129l-0.306,0.131l-0.305,0.132l-0.304,0.134l-0.303,0.136l-0.303,0.138l-0.301,0.14l-0.3,0.141l-0.299,0.143l-0.298,0.145l-0.297,0.147l-0.297,0.148l-0.295,0.15l-0.294,0.152l-0.293,0.154l-0.292,0.155l-0.291,0.157l-0.29,0.159l-0.288,0.16l-0.288,0.162l-0.287,0.164l-0.285,0.165l-0.285,0.167l-0.283,0.169l-0.283,0.171l-0.281,0.172l-0.28,0.173l-0.279,0.176l-0.278,0.177l-0.276,0.178l-0.276,0.181l-0.274,0.181l-0.273,0.184l-0.272,0.185l-0.271,0.187l-0.27,0.188l-0.268,0.19l-0.268,0.191l-0.266,0.193l-0.265,0.194l-0.263,0.196l-0.263,0.198l-0.261,0.199l-0.26,0.201l-0.259,0.202l-0.257,0.204l-0.257,0.205l-0.255,0.206l-0.253,0.209l-0.253,0.209l-0.251,0.211l-0.25,0.213l-0.249,0.214l-0.247,0.216l-0.246,0.217l-0.245,0.218l-0.243,0.22l-0.242,0.221l-0.241,0.223l-0.239,0.224l-0.238,0.226l-0.237,0.227l-0.235,0.228l-0.234,0.23l-0.233,0.231l-0.231,0.233l-0.23,0.234l-0.228,0.235l-0.227,0.237l-0.226,0.238l-0.224,0.239l-0.223,0.241l-0.221,0.242l-0.22,0.243l-0.218,0.245l-0.217,0.246l-0.216,0.247l-0.214,0.249l-0.213,0.25l-0.211,0.251l-0.209,0.253l-0.209,0.253l-0.206,0.255l-0.206,0.257l-0.203,0.257l-0.202,0.259l-0.201,0.26l-0.199,0.261l-0.198,0.263l-0.196,0.263l-0.194,0.265l-0.193,0.266l-0.191,0.268l-0.19,0.268l-0.188,0.27l-0.187,0.271l-0.185,0.272l-0.184,0.273l-0.181,0.274l-0.181,0.276l-0.178,0.277l-0.177,0.277l-0.176,0.279l-0.173,0.28l-0.172,0.282l-0.171,0.282l-0.169,0.283l-0.167,0.285l-0.165,0.285l-0.164,0.287l-0.162,0.288l-0.161,0.289l-0.158,0.289l-0.157,0.291l-0.155,0.292l-0.154,0.293l-0.152,0.294l-0.15,0.296l-0.148,0.296l-0.147,0.297l-0.145,0.298l-0.143,0.299l-0.141,0.3l-0.14,0.301l-0.138,0.303l-0.136,0.303l-0.134,0.304l-0.132,0.305l-0.131,0.306l-0.129,0.307l-0.127,0.308l-0.125,0.308l-0.123,0.31l-0.122,0.311l-0.12,0.312l-0.117,0.312l-0.116,0.313l-0.114,0.315l-0.113,0.315l-0.11,0.316l-0.108,0.317l-0.107,0.318l-0.105,0.319l-0.102,0.319l-0.101,0.32l-0.099,0.322l-0.097,0.322l-0.095,0.323l-0.093,0.323l-0.091,0.325l-0.09,0.325l-0.087,0.326l-0.085,0.327l-0.083,0.328l-0.082,0.329l-0.079,0.329l-0.077,0.33l-0.076,0.331l-0.073,0.331l-0.072,0.333l-0.069,0.333l-0.067,0.334l-0.065,0.334l-0.064,0.335l-0.061,0.336l-0.059,0.337l-0.057,0.337l-0.055,0.339l-0.053,0.338l-0.051,0.34l-0.048,0.34l-0.047,0.341l-0.045,0.341l-0.042,0.342l-0.04,0.343l-0.039,0.343l-0.036,0.344l-0.034,0.345l-0.031,0.345l-0.03,0.346l-0.028,0.347l-0.025,0.347l-0.023,0.347l-0.021,0.349l-0.019,0.349l-0.017,0.349l-0.014,0.35l-0.012,0.351l-0.01,0.351l-0.008,0.351l-0.006,0.352l-0.003,0.353l-0.001,0.353l0.001,0.354l0.003,0.352l0.006,0.353l0.008,0.351l0.01,0.351l0.012,0.351l0.014,0.35l0.017,0.349l0.019,0.349l0.021,0.348l0.023,0.348l0.025,0.347l0.028,0.347l0.03,0.346l0.031,0.345l0.034,0.345l0.036,0.344l0.039,0.343l0.04,0.343l0.042,0.342l0.045,0.341l0.047,0.341l0.048,0.34l0.051,0.34l0.053,0.338l0.055,0.338l0.057,0.338l0.059,0.336l0.061,0.336l0.064,0.336l0.065,0.334l0.067,0.334l0.069,0.333l0.072,0.332l0.073,0.332l0.076,0.331l0.077,0.33l0.079,0.329l0.082,0.329l0.083,0.327l0.085,0.327l0.087,0.327l0.09,0.325l0.091,0.324l0.093,0.324l0.095,0.323l0.097,0.322l0.099,0.321l0.101,0.321l0.102,0.319l0.105,0.319l0.107,0.318l0.108,0.317l0.11,0.316l0.113,0.315l0.114,0.314l0.116,0.314l0.117,0.312l0.12,0.312l0.122,0.311l0.123,0.309l0.125,0.309l0.127,0.308l0.129,0.307l0.131,0.306l0.132,0.305l0.134,0.304l0.136,0.303l0.138,0.302l0.14,0.302l0.141,0.3l0.143,0.299l0.145,0.298l0.147,0.297l0.148,0.296l0.15,0.295l0.152,0.295l0.154,0.293l0.155,0.292l0.157,0.291l0.158,0.289l0.161,0.289l0.162,0.288l0.164,0.287l0.165,0.285l0.167,0.285l0.169,0.283l0.171,0.282l0.172,0.282l0.173,0.28l0.176,0.279l0.177,0.277l0.178,0.277l0.181,0.276l0.181,0.274l0.184,0.273l0.185,0.272l0.187,0.271l0.188,0.27l0.19,0.268l0.191,0.268l0.193,0.266l0.194,0.265l0.196,0.263l0.198,0.263l0.199,0.261l0.201,0.26l0.202,0.259l0.203,0.257l0.206,0.257l0.206,0.255l0.209,0.253l0.209,0.253l0.211,0.251l0.213,0.25l0.214,0.249l0.216,0.247l0.217,0.246l0.218,0.245l0.22,0.243l0.221,0.242l0.223,0.241l0.224,0.239l0.226,0.238l0.227,0.237l0.228,0.235l0.23,0.234l0.231,0.233l0.233,0.231l0.234,0.23l0.235,0.228l0.237,0.227l0.238,0.226l0.239,0.224l0.241,0.223l0.242,0.221l0.243,0.22l0.245,0.218l0.246,0.217l0.247,0.216l0.249,0.214l0.25,0.213l0.251,0.211l0.253,0.209l0.253,0.209l0.255,0.206l0.257,0.205l0.257,0.204l0.259,0.202l0.26,0.201l0.261,0.199l0.263,0.198l0.263,0.196l0.265,0.194l0.266,0.193l0.268,0.191l0.268,0.19l0.27,0.188l0.271,0.187l0.272,0.185l0.273,0.183l0.274,0.182l0.276,0.181l0.276,0.178l0.278,0.177l0.279,0.176l0.28,0.173l0.281,0.172l0.283,0.171l0.283,0.169l0.285,0.167l0.285,0.165l0.287,0.164l0.288,0.162l0.288,0.16l0.29,0.159l0.291,0.157l0.292,0.155l0.293,0.154l0.294,0.152l0.295,0.15l0.297,0.148l0.297,0.147l0.298,0.145l0.299,0.143l0.3,0.141l0.301,0.14l0.303,0.138l0.303,0.136l0.304,0.134l0.305,0.132l0.306,0.131l0.307,0.129l0.308,0.127l0.308,0.125l0.31,0.123l0.311,0.122l0.311,0.119l0.313,0.118l0.313,0.116l0.315,0.114l0.315,0.112l0.316,0.111l0.317,0.108l0.318,0.107l0.318,0.104l0.32,0.103l0.32,0.101l0.322,0.099l0.322,0.097l0.323,0.095l0.323,0.093l0.325,0.091l0.325,0.089l0.326,0.088l0.327,0.085l0.328,0.083l0.329,0.082l0.329,0.079l0.33,0.077l0.331,0.076l0.331,0.073l0.333,0.071l0.333,0.07l0.334,0.067l0.334,0.065l0.335,0.063l0.336,0.062l0.337,0.059l0.337,0.057l0.339,0.055l0.338,0.053l0.34,0.051l0.34,0.048l0.341,0.047l0.341,0.045l0.342,0.042l0.343,0.04l0.343,0.039l0.344,0.036l0.345,0.034l0.345,0.031l0.346,0.03l0.347,0.027l0.347,0.026l0.347,0.023l0.349,0.021l0.349,0.019l0.349,0.016l0.35,0.015l0.35,0.012l0.352,0.01l0.351,0.008l0.352,0.006l0.353,0.003l0.353,0.001l0.354,-0.001l0.352,-0.003l0.353,-0.006l0.351,-0.008l0.351,-0.01l0.351,-0.012l0.35,-0.015l0.349,-0.016l0.349,-0.019l0.348,-0.021l0.348,-0.023l0.347,-0.026l0.347,-0.027l0.346,-0.03l0.345,-0.031l0.344,-0.034l0.345,-0.036l0.343,-0.039l0.343,-0.04l0.342,-0.042l0.341,-0.045l0.341,-0.047l0.34,-0.048l0.34,-0.051l0.338,-0.053l0.338,-0.055l0.338,-0.057l0.336,-0.059l0.336,-0.062l0.336,-0.063l0.334,-0.065l0.334,-0.067l0.333,-0.07l0.332,-0.071l0.332,-0.073l0.331,-0.076l0.33,-0.077l0.329,-0.079l0.329,-0.082l0.327,-0.083l0.327,-0.085l0.327,-0.088l0.325,-0.089l0.324,-0.091l0.324,-0.093l0.323,-0.095l0.322,-0.097l0.321,-0.099l0.321,-0.101l0.319,-0.103l0.319,-0.104l0.318,-0.107l0.317,-0.108l0.316,-0.111l0.315,-0.112l0.314,-0.114l0.314,-0.116l0.312,-0.118l0.312,-0.119l0.311,-0.122l0.309,-0.123l0.309,-0.125l0.308,-0.127l0.307,-0.129l0.306,-0.131l0.305,-0.132l0.304,-0.134l0.303,-0.136l0.302,-0.138l0.302,-0.14l0.3,-0.141l0.299,-0.143l0.298,-0.145l0.297,-0.147l0.296,-0.148l0.295,-0.15l0.295,-0.152l0.293,-0.154l0.292,-0.155l0.29,-0.157l0.29,-0.159l0.289,-0.16l0.288,-0.162l0.287,-0.164l0.285,-0.165l0.285,-0.167l0.283,-0.169l0.282,-0.171l0.282,-0.172l0.28,-0.173l0.279,-0.176l0.277,-0.177l0.277,-0.178l0.275,-0.181l0.275,-0.182l0.273,-0.183l0.272,-0.185l0.271,-0.187l0.27,-0.188l0.268,-0.19l0.267,-0.191l0.267,-0.193l0.264,-0.194l0.264,-0.196l0.263,-0.198l0.261,-0.199l0.26,-0.201l0.259,-0.202l0.257,-0.204l0.257,-0.205l0.255,-0.206l0.253,-0.209l0.253,-0.209l0.251,-0.211l0.25,-0.213l0.248,-0.214l0.248,-0.216l0.246,-0.217l0.244,-0.218l0.244,-0.22l0.242,-0.221l0.241,-0.223l0.239,-0.224l0.238,-0.226l0.237,-0.227l0.235,-0.228l0.234,-0.23l0.233,-0.231l0.231,-0.233l0.23,-0.234l0.228,-0.235l0.227,-0.237l0.226,-0.238l0.224,-0.239l0.222,-0.241l0.222,-0.242l0.22,-0.243l0.218,-0.245l0.217,-0.246l0.216,-0.247l0.214,-0.249l0.212,-0.25l0.212,-0.251l0.209,-0.253l0.208,-0.253l0.207,-0.255l0.205,-0.257l0.204,-0.257l0.202,-0.259l0.201,-0.26l0.199,-0.261l0.197,-0.263l0.197,-0.263l0.194,-0.265l0.193,-0.266l0.191,-0.268l0.19,-0.268l0.188,-0.27l0.187,-0.271l0.185,-0.272l0.183,-0.273l0.182,-0.274l0.18,-0.276l0.179,-0.277l0.177,-0.277l0.175,-0.279l0.174,-0.28l0.172,-0.282l0.171,-0.282l0.168,-0.283l0.168,-0.285l0.165,-0.285l0.164,-0.287l0.162,-0.288l0.16,-0.289l0.159,-0.289l0.157,-0.291l0.155,-0.292l0.154,-0.293l0.152,-0.295l0.15,-0.295l0.148,-0.296l0.147,-0.297l0.145,-0.298l0.143,-0.299l0.141,-0.3l0.14,-0.302l0.138,-0.302l0.136,-0.303l0.134,-0.304l0.132,-0.305l0.131,-0.306l0.129,-0.307l0.127,-0.308l0.125,-0.309l0.123,-0.309l0.122,-0.311l0.119,-0.312l0.118,-0.312l0.116,-0.314l0.114,-0.314l0.112,-0.315l0.111,-0.316l0.108,-0.317l0.107,-0.318l0.104,-0.319l0.103,-0.319l0.101,-0.321l0.099,-0.321l0.097,-0.322l0.095,-0.323l0.093,-0.324l0.091,-0.324l0.089,-0.325l0.088,-0.327l0.085,-0.327l0.083,-0.327l0.082,-0.329l0.079,-0.329l0.077,-0.33l0.076,-0.331l0.073,-0.332l0.071,-0.332l0.07,-0.333l0.067,-0.334l0.065,-0.334l0.063,-0.336l0.062,-0.336l0.059,-0.336l0.057,-0.338l0.055,-0.338l0.053,-0.338l0.051,-0.34l0.048,-0.34l0.047,-0.341l0.044,-0.341l0.043,-0.342l0.04,-0.343l0.038,-0.343l0.037,-0.344l0.033,-0.345l0.032,-0.345l0.03,-0.346l0.027,-0.347l0.026,-0.347l0.023,-0.348l0.021,-0.348l0.019,-0.349l0.016,-0.349l0.015,-0.35l0.012,-0.351l0.01,-0.351l0.008,-0.351l0.005,-0.353l0.004,-0.352l0.001,-0.354l-0.001,-0.353l-0.004,-0.353l-0.005,-0.352l-0.008,-0.351l-0.01,-0.351l-0.012,-0.351l-0.015,-0.35l-0.016,-0.349l-0.019,-0.349l-0.021,-0.349l-0.023,-0.347l-0.026,-0.347l-0.027,-0.347l-0.03,-0.346l-0.032,-0.345l-0.033,-0.345l-0.037,-0.344l-0.038,-0.343l-0.04,-0.343l-0.043,-0.342l-0.044,-0.341l-0.047,-0.341l-0.048,-0.34l-0.051,-0.34l-0.053,-0.338l-0.055,-0.339l-0.057,-0.337l-0.059,-0.337l-0.062,-0.336l-0.063,-0.335l-0.065,-0.334l-0.067,-0.334l-0.07,-0.333l-0.071,-0.333l-0.073,-0.331l-0.076,-0.331l-0.077,-0.33l-0.079,-0.329l-0.082,-0.329l-0.083,-0.328l-0.085,-0.327l-0.088,-0.326l-0.089,-0.325l-0.091,-0.325l-0.093,-0.323l-0.095,-0.323l-0.097,-0.322l-0.099,-0.322l-0.101,-0.32l-0.103,-0.319l-0.104,-0.319l-0.107,-0.318l-0.108,-0.317l-0.111,-0.316l-0.112,-0.315l-0.114,-0.315l-0.116,-0.313l-0.118,-0.312l-0.119,-0.312l-0.122,-0.311l-0.123,-0.31l-0.125,-0.308l-0.127,-0.308l-0.129,-0.307l-0.131,-0.306l-0.132,-0.305l-0.134,-0.304l-0.136,-0.303l-0.138,-0.303l-0.14,-0.301l-0.141,-0.3l-0.143,-0.299l-0.145,-0.298l-0.147,-0.297l-0.148,-0.296l-0.15,-0.296l-0.152,-0.294l-0.154,-0.293l-0.155,-0.292l-0.157,-0.291l-0.159,-0.289l-0.16,-0.289l-0.162,-0.288l-0.164,-0.287l-0.165,-0.285l-0.168,-0.285l-0.168,-0.283l-0.171,-0.282l-0.172,-0.282l-0.174,-0.28l-0.175,-0.279l-0.177,-0.277l-0.179,-0.277l-0.18,-0.276l-0.182,-0.274l-0.183,-0.273l-0.185,-0.272l-0.187,-0.271l-0.188,-0.27l-0.19,-0.268l-0.191,-0.268l-0.193,-0.266l-0.194,-0.265l-0.197,-0.263l-0.197,-0.263l-0.199,-0.261l-0.201,-0.26l-0.202,-0.259l-0.204,-0.257l-0.205,-0.257l-0.207,-0.255l-0.208,-0.253l-0.209,-0.253l-0.212,-0.251l-0.212,-0.25l-0.214,-0.249l-0.216,-0.247l-0.217,-0.246l-0.218,-0.245l-0.22,-0.243l-0.222,-0.242l-0.222,-0.241l-0.224,-0.239l-0.226,-0.238l-0.227,-0.237l-0.228,-0.235l-0.23,-0.234l-0.231,-0.233l-0.233,-0.231l-0.234,-0.23l-0.235,-0.228l-0.237,-0.227l-0.238,-0.226l-0.239,-0.224l-0.241,-0.223l-0.242,-0.221l-0.244,-0.22l-0.244,-0.218l-0.246,-0.217l-0.248,-0.216l-0.248,-0.214l-0.25,-0.213l-0.251,-0.211l-0.253,-0.209l-0.253,-0.209l-0.255,-0.206l-0.257,-0.205l-0.257,-0.204l-0.259,-0.202l-0.26,-0.201l-0.261,-0.199l-0.263,-0.198l-0.264,-0.196l-0.264,-0.194l-0.267,-0.193l-0.267,-0.191l-0.268,-0.19l-0.27,-0.188l-0.271,-0.187l-0.272,-0.185l-0.273,-0.184l-0.275,-0.181l-0.275,-0.181l-0.277,-0.178l-0.277,-0.177l-0.279,-0.176l-0.28,-0.173l-0.282,-0.172l-0.282,-0.171l-0.283,-0.169l-0.285,-0.167l-0.285,-0.165l-0.287,-0.164l-0.288,-0.162l-0.289,-0.16l-0.29,-0.159l-0.29,-0.157l-0.292,-0.155l-0.293,-0.154l-0.295,-0.152l-0.295,-0.15l-0.296,-0.148l-0.297,-0.147l-0.298,-0.145l-0.299,-0.143l-0.3,-0.141l-0.302,-0.14l-0.302,-0.138l-0.303,-0.136l-0.304,-0.134l-0.305,-0.132l-0.306,-0.131l-0.307,-0.129l-0.308,-0.127l-0.309,-0.125l-0.309,-0.123l-0.311,-0.122l-0.312,-0.119l-0.312,-0.118l-0.314,-0.116l-0.314,-0.114l-0.315,-0.112l-0.316,-0.111l-0.317,-0.108l-0.318,-0.107l-0.319,-0.104l-0.319,-0.103l-0.321,-0.101l-0.321,-0.099l-0.322,-0.097l-0.323,-0.095l-0.324,-0.093l-0.324,-0.091l-0.325,-0.09l-0.327,-0.087l-0.327,-0.085l-0.327,-0.083l-0.329,-0.082l-0.329,-0.079l-0.33,-0.077l-0.331,-0.076l-0.332,-0.073l-0.332,-0.071l-0.333,-0.07l-0.334,-0.067l-0.334,-0.065l-0.336,-0.064l-0.336,-0.061l-0.336,-0.059l-0.338,-0.057l-0.338,-0.055l-0.338,-0.053l-0.34,-0.051l-0.34,-0.048l-0.341,-0.047l-0.341,-0.045l-0.342,-0.042l-0.343,-0.04l-0.343,-0.039l-0.345,-0.036l-0.344,-0.034l-0.345,-0.031l-0.346,-0.03l-0.347,-0.028l-0.347,-0.025l-0.348,-0.023l-0.348,-0.021l-0.349,-0.019l-0.349,-0.017l-0.35,-0.014l-0.351,-0.012l-0.351,-0.01l-0.351,-0.008l-0.353,-0.006l-0.352,-0.003l-0.354,-0.001l-0.353,0.001Z" style="fill:#3d3d3d;"/>
            <circle cx="130.988" cy="179.642" r="30.669" style="fill:#3d3d3d;"/>
            <circle cx="137.507" cy="169.065" r="14.439" style="fill:#e7e7e7;"/>
        </g>
        <g>
            <circle cx="256.634" cy="154.626" r="54.658" style="fill:#e7e7e7;"/>
            <path d="M257.045,90.957l0.41,0.004l0.409,0.006l0.409,0.01l0.408,0.011l0.408,0.014l0.407,0.017l0.406,0.02l0.406,0.021l0.405,0.025l0.405,0.027l0.404,0.029l0.403,0.032l0.403,0.035l0.402,0.037l0.401,0.039l0.401,0.042l0.4,0.045l0.399,0.047l0.398,0.049l0.398,0.052l0.397,0.055l0.397,0.056l0.396,0.06l0.394,0.061l0.394,0.064l0.394,0.067l0.392,0.069l0.391,0.071l0.391,0.074l0.39,0.076l0.389,0.078l0.389,0.081l0.387,0.083l0.387,0.086l0.386,0.088l0.384,0.09l0.385,0.093l0.383,0.094l0.382,0.098l0.381,0.099l0.381,0.102l0.379,0.104l0.378,0.106l0.378,0.109l0.377,0.111l0.375,0.113l0.375,0.115l0.374,0.118l0.372,0.12l0.372,0.122l0.371,0.124l0.37,0.126l0.368,0.129l0.368,0.131l0.366,0.133l0.366,0.135l0.364,0.138l0.363,0.139l0.363,0.142l0.362,0.144l0.359,0.145l0.359,0.148l0.359,0.151l0.356,0.152l0.354,0.154l0.356,0.157l0.354,0.159l0.351,0.16l0.351,0.163l0.35,0.165l0.349,0.166l0.348,0.169l0.346,0.171l0.344,0.173l0.344,0.175l0.344,0.177l0.341,0.179l0.34,0.181l0.34,0.183l0.337,0.185l0.336,0.186l0.336,0.189l0.334,0.191l0.332,0.193l0.332,0.194l0.331,0.198l0.328,0.198l0.327,0.2l0.327,0.203l0.324,0.203l0.323,0.206l0.323,0.209l0.321,0.21l0.32,0.212l0.318,0.213l0.316,0.215l0.315,0.218l0.315,0.219l0.312,0.221l0.312,0.223l0.309,0.224l0.308,0.227l0.308,0.228l0.306,0.23l0.303,0.232l0.303,0.234l0.301,0.234l0.3,0.238l0.299,0.239l0.296,0.24l0.295,0.242l0.294,0.244l0.293,0.246l0.29,0.247l0.29,0.25l0.288,0.251l0.286,0.252l0.285,0.255l0.283,0.255l0.281,0.257l0.28,0.26l0.279,0.261l0.278,0.263l0.275,0.264l0.273,0.265l0.273,0.268l0.27,0.269l0.27,0.271l0.268,0.273l0.265,0.273l0.264,0.275l0.261,0.276l0.262,0.279l0.259,0.281l0.258,0.282l0.256,0.283l0.254,0.284l0.252,0.286l0.252,0.289l0.249,0.289l0.247,0.291l0.246,0.292l0.243,0.293l0.243,0.296l0.241,0.298l0.239,0.298l0.237,0.299l0.234,0.3l0.235,0.304l0.232,0.305l0.229,0.304l0.229,0.308l0.226,0.308l0.224,0.31l0.224,0.312l0.22,0.312l0.219,0.313l0.218,0.316l0.216,0.317l0.212,0.317l0.212,0.32l0.21,0.321l0.208,0.322l0.206,0.324l0.205,0.325l0.203,0.327l0.2,0.327l0.198,0.328l0.196,0.33l0.196,0.332l0.192,0.333l0.191,0.333l0.189,0.336l0.187,0.337l0.185,0.338l0.182,0.337l0.181,0.34l0.18,0.343l0.177,0.344l0.175,0.343l0.171,0.343l0.172,0.347l0.169,0.349l0.167,0.349l0.165,0.351l0.162,0.349l0.16,0.351l0.16,0.355l0.156,0.354l0.154,0.354l0.153,0.358l0.15,0.36l0.148,0.358l0.146,0.359l0.143,0.36l0.142,0.364l0.14,0.364l0.137,0.363l0.135,0.366l0.134,0.368l0.131,0.368l0.128,0.367l0.126,0.369l0.124,0.37l0.123,0.373l0.119,0.372l0.118,0.373l0.116,0.376l0.113,0.376l0.111,0.378l0.108,0.376l0.107,0.378l0.104,0.38l0.101,0.378l0.1,0.384l0.097,0.382l0.095,0.382l0.093,0.386l0.09,0.384l0.087,0.385l0.086,0.387l0.083,0.389l0.081,0.386l0.078,0.39l0.077,0.39l0.073,0.389l0.071,0.392l0.07,0.394l0.066,0.393l0.064,0.396l0.062,0.394l0.059,0.395l0.057,0.395l0.054,0.398l0.052,0.399l0.049,0.397l0.047,0.399l0.045,0.401l0.042,0.4l0.04,0.402l0.036,0.401l0.035,0.403l0.032,0.404l0.03,0.404l0.027,0.403l0.024,0.407l0.022,0.406l0.019,0.406l0.017,0.407l0.014,0.408l0.012,0.406l0.009,0.411l0.006,0.41l0.004,0.409l0.002,0.41l-0.002,0.41l-0.004,0.41l-0.006,0.409l-0.009,0.411l-0.012,0.406l-0.014,0.408l-0.017,0.408l-0.019,0.405l-0.022,0.407l-0.024,0.406l-0.027,0.404l-0.03,0.403l-0.032,0.405l-0.035,0.402l-0.036,0.402l-0.04,0.401l-0.042,0.401l-0.045,0.4l-0.047,0.4l-0.049,0.397l-0.052,0.398l-0.054,0.398l-0.057,0.396l-0.059,0.394l-0.062,0.394l-0.064,0.396l-0.066,0.393l-0.07,0.394l-0.071,0.392l-0.073,0.389l-0.077,0.39l-0.078,0.39l-0.081,0.387l-0.083,0.388l-0.086,0.388l-0.087,0.385l-0.09,0.384l-0.093,0.385l-0.095,0.383l-0.097,0.382l-0.1,0.383l-0.101,0.378l-0.104,0.38l-0.107,0.379l-0.108,0.376l-0.111,0.377l-0.113,0.377l-0.116,0.375l-0.118,0.373l-0.119,0.372l-0.123,0.373l-0.124,0.37l-0.126,0.37l-0.128,0.366l-0.131,0.368l-0.134,0.369l-0.135,0.366l-0.137,0.363l-0.14,0.364l-0.142,0.363l-0.143,0.36l-0.146,0.359l-0.148,0.359l-0.15,0.359l-0.153,0.358l-0.154,0.354l-0.156,0.354l-0.16,0.356l-0.16,0.35l-0.162,0.35l-0.165,0.35l-0.167,0.35l-0.169,0.348l-0.172,0.347l-0.171,0.343l-0.175,0.343l-0.177,0.344l-0.18,0.344l-0.181,0.34l-0.182,0.337l-0.185,0.338l-0.187,0.337l-0.189,0.335l-0.19,0.333l-0.193,0.333l-0.196,0.333l-0.196,0.329l-0.198,0.328l-0.2,0.327l-0.203,0.328l-0.204,0.324l-0.207,0.324l-0.208,0.322l-0.21,0.321l-0.212,0.32l-0.212,0.317l-0.216,0.317l-0.218,0.316l-0.219,0.314l-0.22,0.311l-0.224,0.313l-0.224,0.309l-0.226,0.308l-0.229,0.308l-0.229,0.305l-0.232,0.304l-0.235,0.304l-0.234,0.3l-0.237,0.299l-0.239,0.299l-0.241,0.297l-0.243,0.296l-0.243,0.294l-0.246,0.292l-0.247,0.29l-0.249,0.289l-0.252,0.289l-0.252,0.286l-0.254,0.284l-0.256,0.284l-0.257,0.281l-0.26,0.281l-0.262,0.279l-0.262,0.277l-0.263,0.274l-0.265,0.273l-0.269,0.274l-0.269,0.27l-0.27,0.269l-0.273,0.268l-0.273,0.265l-0.276,0.265l-0.277,0.262l-0.278,0.261l-0.281,0.26l-0.281,0.257l-0.283,0.255l-0.285,0.255l-0.286,0.252l-0.287,0.251l-0.291,0.25l-0.291,0.247l-0.292,0.246l-0.294,0.244l-0.295,0.242l-0.296,0.24l-0.299,0.239l-0.3,0.238l-0.301,0.235l-0.303,0.234l-0.303,0.231l-0.305,0.23l-0.309,0.229l-0.308,0.226l-0.309,0.224l-0.312,0.223l-0.313,0.221l-0.313,0.219l-0.316,0.218l-0.317,0.215l-0.317,0.213l-0.319,0.212l-0.322,0.211l-0.323,0.208l-0.324,0.206l-0.323,0.203l-0.327,0.203l-0.328,0.201l-0.327,0.198l-0.331,0.197l-0.332,0.195l-0.332,0.192l-0.334,0.191l-0.336,0.189l-0.336,0.186l-0.337,0.185l-0.34,0.184l-0.34,0.18l-0.341,0.179l-0.344,0.178l-0.344,0.174l-0.344,0.173l-0.346,0.171l-0.348,0.169l-0.349,0.167l-0.35,0.165l-0.351,0.162l-0.351,0.161l-0.354,0.158l-0.355,0.157l-0.355,0.154l-0.357,0.153l-0.358,0.15l-0.359,0.148l-0.359,0.146l-0.362,0.143l-0.363,0.142l-0.363,0.14l-0.364,0.137l-0.366,0.136l-0.367,0.133l-0.367,0.13l-0.368,0.129l-0.37,0.127l-0.371,0.124l-0.372,0.122l-0.372,0.12l-0.373,0.117l-0.376,0.116l-0.375,0.113l-0.377,0.111l-0.378,0.108l-0.378,0.106l-0.379,0.105l-0.381,0.101l-0.381,0.1l-0.382,0.097l-0.383,0.095l-0.385,0.092l-0.384,0.09l-0.386,0.088l-0.387,0.086l-0.387,0.083l-0.389,0.081l-0.388,0.078l-0.39,0.076l-0.392,0.074l-0.391,0.071l-0.393,0.069l-0.393,0.067l-0.394,0.064l-0.394,0.062l-0.396,0.059l-0.397,0.057l-0.397,0.054l-0.398,0.052l-0.398,0.049l-0.399,0.047l-0.4,0.045l-0.401,0.042l-0.401,0.039l-0.402,0.037l-0.403,0.035l-0.404,0.032l-0.403,0.03l-0.405,0.026l-0.405,0.025l-0.406,0.022l-0.407,0.019l-0.406,0.017l-0.408,0.014l-0.409,0.012l-0.408,0.009l-0.409,0.006l-0.41,0.004l-0.411,0.002l-0.41,-0.002l-0.41,-0.004l-0.409,-0.006l-0.409,-0.009l-0.409,-0.012l-0.407,-0.014l-0.407,-0.017l-0.407,-0.019l-0.405,-0.022l-0.406,-0.025l-0.404,-0.026l-0.404,-0.03l-0.404,-0.032l-0.403,-0.035l-0.401,-0.037l-0.402,-0.039l-0.4,-0.042l-0.4,-0.045l-0.399,-0.047l-0.399,-0.049l-0.398,-0.052l-0.397,-0.054l-0.396,-0.057l-0.396,-0.059l-0.394,-0.062l-0.395,-0.064l-0.393,-0.067l-0.392,-0.069l-0.392,-0.071l-0.391,-0.074l-0.39,-0.076l-0.389,-0.078l-0.389,-0.081l-0.387,-0.083l-0.386,-0.085l-0.387,-0.089l-0.384,-0.09l-0.384,-0.092l-0.383,-0.095l-0.383,-0.097l-0.381,-0.1l-0.38,-0.101l-0.38,-0.104l-0.379,-0.107l-0.377,-0.109l-0.376,-0.11l-0.376,-0.113l-0.375,-0.116l-0.373,-0.117l-0.374,-0.12l-0.372,-0.123l-0.369,-0.123l-0.37,-0.127l-0.369,-0.129l-0.367,-0.13l-0.366,-0.133l-0.366,-0.136l-0.365,-0.137l-0.364,-0.14l-0.362,-0.142l-0.361,-0.143l-0.36,-0.146l-0.358,-0.148l-0.358,-0.15l-0.357,-0.153l-0.356,-0.154l-0.355,-0.157l-0.353,-0.158l-0.352,-0.161l-0.35,-0.162l-0.351,-0.165l-0.348,-0.167l-0.347,-0.168l-0.348,-0.172l-0.345,-0.173l-0.343,-0.174l-0.343,-0.178l-0.342,-0.179l-0.34,-0.18l-0.339,-0.184l-0.338,-0.185l-0.336,-0.186l-0.335,-0.189l-0.335,-0.191l-0.332,-0.192l-0.331,-0.195l-0.33,-0.197l-0.329,-0.198l-0.328,-0.201l-0.326,-0.202l-0.325,-0.205l-0.324,-0.206l-0.322,-0.207l-0.321,-0.211l-0.319,-0.211l-0.318,-0.214l-0.317,-0.216l-0.315,-0.217l-0.314,-0.219l-0.313,-0.221l-0.311,-0.223l-0.31,-0.224l-0.308,-0.226l-0.307,-0.228l-0.306,-0.231l-0.305,-0.232l-0.302,-0.233l-0.3,-0.235l-0.3,-0.237l-0.298,-0.239l-0.299,-0.242l-0.295,-0.242l-0.293,-0.243l-0.292,-0.246l-0.291,-0.247l-0.289,-0.249l-0.289,-0.252l-0.285,-0.252l-0.286,-0.255l-0.282,-0.255l-0.282,-0.257l-0.281,-0.261l-0.278,-0.26l-0.277,-0.262l-0.275,-0.265l-0.273,-0.265l-0.274,-0.268l-0.27,-0.269l-0.269,-0.27l-0.267,-0.272l-0.265,-0.273l-0.266,-0.278l-0.262,-0.276l-0.26,-0.278l-0.26,-0.281l-0.258,-0.281l-0.256,-0.284l-0.253,-0.284l-0.253,-0.286l-0.252,-0.289l-0.249,-0.289l-0.247,-0.29l-0.245,-0.292l-0.244,-0.294l-0.243,-0.296l-0.241,-0.297l-0.238,-0.298l-0.237,-0.3l-0.236,-0.301l-0.234,-0.303l-0.231,-0.304l-0.229,-0.305l-0.229,-0.308l-0.227,-0.308l-0.224,-0.309l-0.223,-0.313l-0.221,-0.311l-0.218,-0.314l-0.218,-0.316l-0.216,-0.317l-0.213,-0.317l-0.212,-0.32l-0.21,-0.321l-0.208,-0.322l-0.206,-0.324l-0.204,-0.324l-0.202,-0.326l-0.202,-0.329l-0.198,-0.328l-0.196,-0.329l-0.195,-0.333l-0.193,-0.333l-0.191,-0.335l-0.188,-0.333l-0.187,-0.337l-0.184,-0.336l-0.183,-0.339l-0.182,-0.342l-0.179,-0.342l-0.177,-0.342l-0.175,-0.345l-0.173,-0.344l-0.17,-0.346l-0.17,-0.348l-0.167,-0.35l-0.164,-0.348l-0.163,-0.352l-0.161,-0.352l-0.157,-0.352l-0.158,-0.356l-0.154,-0.356l-0.152,-0.356l-0.151,-0.359l-0.148,-0.359l-0.145,-0.359l-0.144,-0.36l-0.142,-0.363l-0.14,-0.364l-0.136,-0.363l-0.136,-0.366l-0.133,-0.367l-0.131,-0.368l-0.129,-0.37l-0.126,-0.37l-0.124,-0.368l-0.122,-0.371l-0.12,-0.374l-0.118,-0.375l-0.115,-0.373l-0.114,-0.377l-0.11,-0.375l-0.109,-0.378l-0.106,-0.379l-0.104,-0.38l-0.102,-0.38l-0.099,-0.379l-0.098,-0.384l-0.095,-0.385l-0.092,-0.383l-0.09,-0.382l-0.088,-0.387l-0.086,-0.388l-0.083,-0.388l-0.081,-0.389l-0.077,-0.386l-0.077,-0.39l-0.074,-0.393l-0.071,-0.392l-0.069,-0.392l-0.067,-0.393l-0.064,-0.393l-0.061,-0.397l-0.059,-0.394l-0.057,-0.396l-0.055,-0.398l-0.052,-0.398l-0.049,-0.399l-0.047,-0.398l-0.045,-0.4l-0.041,-0.401l-0.04,-0.401l-0.037,-0.402l-0.035,-0.402l-0.032,-0.405l-0.029,-0.403l-0.027,-0.404l-0.025,-0.406l-0.021,-0.407l-0.02,-0.405l-0.017,-0.408l-0.014,-0.408l-0.011,-0.406l-0.01,-0.411l-0.006,-0.409l-0.004,-0.408l-0.001,-0.412l0.001,-0.412l0.004,-0.407l0.006,-0.41l0.01,-0.411l0.011,-0.406l0.014,-0.408l0.017,-0.407l0.02,-0.406l0.021,-0.406l0.025,-0.407l0.027,-0.403l0.029,-0.404l0.032,-0.404l0.035,-0.403l0.037,-0.401l0.04,-0.402l0.041,-0.4l0.045,-0.401l0.047,-0.397l0.049,-0.399l0.052,-0.399l0.055,-0.398l0.057,-0.395l0.059,-0.395l0.061,-0.396l0.064,-0.394l0.067,-0.393l0.069,-0.392l0.071,-0.392l0.074,-0.393l0.077,-0.39l0.077,-0.385l0.081,-0.389l0.083,-0.389l0.086,-0.387l0.088,-0.387l0.09,-0.382l0.092,-0.384l0.095,-0.384l0.098,-0.384l0.099,-0.38l0.102,-0.38l0.104,-0.38l0.106,-0.378l0.109,-0.379l0.11,-0.375l0.114,-0.376l0.115,-0.374l0.118,-0.375l0.12,-0.374l0.122,-0.371l0.124,-0.368l0.126,-0.369l0.129,-0.371l0.131,-0.368l0.133,-0.366l0.136,-0.366l0.136,-0.363l0.14,-0.364l0.142,-0.364l0.144,-0.36l0.145,-0.359l0.148,-0.358l0.151,-0.36l0.152,-0.356l0.154,-0.356l0.158,-0.356l0.157,-0.352l0.161,-0.352l0.163,-0.351l0.164,-0.349l0.167,-0.349l0.17,-0.349l0.17,-0.345l0.173,-0.345l0.175,-0.345l0.177,-0.342l0.179,-0.341l0.182,-0.342l0.183,-0.339l0.184,-0.336l0.187,-0.337l0.188,-0.334l0.191,-0.335l0.193,-0.333l0.195,-0.332l0.196,-0.33l0.198,-0.328l0.202,-0.328l0.202,-0.326l0.204,-0.325l0.206,-0.324l0.208,-0.322l0.21,-0.321l0.212,-0.32l0.213,-0.317l0.216,-0.317l0.218,-0.316l0.218,-0.313l0.221,-0.312l0.223,-0.312l0.224,-0.31l0.227,-0.308l0.229,-0.308l0.229,-0.304l0.231,-0.305l0.234,-0.302l0.236,-0.302l0.237,-0.3l0.238,-0.297l0.241,-0.298l0.243,-0.296l0.244,-0.293l0.245,-0.292l0.247,-0.291l0.249,-0.289l0.252,-0.289l0.253,-0.286l0.253,-0.284l0.256,-0.283l0.258,-0.282l0.26,-0.281l0.26,-0.278l0.262,-0.276l0.266,-0.277l0.265,-0.273l0.267,-0.272l0.269,-0.271l0.27,-0.269l0.274,-0.268l0.273,-0.265l0.275,-0.264l0.277,-0.263l0.278,-0.26l0.281,-0.261l0.281,-0.257l0.283,-0.255l0.286,-0.255l0.285,-0.252l0.289,-0.252l0.289,-0.249l0.291,-0.247l0.292,-0.246l0.293,-0.243l0.296,-0.242l0.298,-0.242l0.298,-0.239l0.3,-0.237l0.3,-0.234l0.302,-0.233l0.305,-0.233l0.306,-0.23l0.307,-0.228l0.308,-0.227l0.31,-0.224l0.311,-0.223l0.313,-0.221l0.314,-0.219l0.315,-0.217l0.317,-0.216l0.318,-0.214l0.319,-0.211l0.321,-0.21l0.322,-0.208l0.324,-0.206l0.325,-0.205l0.326,-0.202l0.328,-0.2l0.329,-0.199l0.33,-0.197l0.331,-0.194l0.332,-0.193l0.335,-0.191l0.336,-0.189l0.335,-0.186l0.338,-0.185l0.339,-0.183l0.34,-0.181l0.341,-0.179l0.344,-0.177l0.343,-0.175l0.345,-0.173l0.348,-0.171l0.346,-0.169l0.349,-0.166l0.35,-0.165l0.351,-0.163l0.352,-0.16l0.353,-0.159l0.355,-0.157l0.356,-0.154l0.357,-0.152l0.358,-0.151l0.359,-0.148l0.359,-0.145l0.361,-0.144l0.363,-0.142l0.363,-0.139l0.365,-0.138l0.365,-0.135l0.367,-0.133l0.367,-0.131l0.369,-0.129l0.37,-0.126l0.37,-0.124l0.371,-0.122l0.374,-0.12l0.374,-0.118l0.374,-0.115l0.375,-0.113l0.377,-0.111l0.377,-0.109l0.379,-0.106l0.38,-0.104l0.38,-0.102l0.381,-0.099l0.383,-0.098l0.382,-0.094l0.385,-0.093l0.384,-0.09l0.387,-0.088l0.386,-0.086l0.387,-0.083l0.389,-0.081l0.389,-0.078l0.39,-0.076l0.391,-0.074l0.392,-0.071l0.392,-0.069l0.393,-0.067l0.395,-0.064l0.394,-0.061l0.396,-0.06l0.396,-0.056l0.398,-0.055l0.397,-0.052l0.398,-0.049l0.4,-0.047l0.4,-0.045l0.4,-0.042l0.402,-0.039l0.402,-0.037l0.402,-0.035l0.404,-0.032l0.403,-0.029l0.405,-0.027l0.406,-0.025l0.405,-0.021l0.407,-0.02l0.407,-0.017l0.408,-0.014l0.408,-0.011l0.408,-0.01l0.41,-0.006l0.41,-0.004l0.41,-0.001l0.411,0.001Zm-0.764,9.013l-0.353,0.003l-0.352,0.006l-0.352,0.008l-0.351,0.01l-0.35,0.012l-0.35,0.014l-0.35,0.017l-0.349,0.019l-0.348,0.021l-0.347,0.023l-0.348,0.025l-0.346,0.028l-0.346,0.029l-0.345,0.032l-0.345,0.034l-0.344,0.036l-0.343,0.038l-0.343,0.041l-0.342,0.042l-0.342,0.045l-0.34,0.046l-0.34,0.049l-0.34,0.051l-0.339,0.053l-0.338,0.055l-0.337,0.057l-0.337,0.059l-0.336,0.061l-0.335,0.063l-0.335,0.066l-0.333,0.067l-0.333,0.069l-0.333,0.072l-0.331,0.073l-0.331,0.075l-0.33,0.078l-0.33,0.079l-0.328,0.081l-0.328,0.084l-0.327,0.085l-0.326,0.087l-0.325,0.089l-0.325,0.092l-0.324,0.093l-0.322,0.095l-0.323,0.097l-0.321,0.099l-0.32,0.101l-0.32,0.102l-0.318,0.105l-0.318,0.106l-0.317,0.109l-0.316,0.11l-0.315,0.112l-0.315,0.115l-0.313,0.115l-0.313,0.118l-0.311,0.12l-0.311,0.121l-0.31,0.124l-0.309,0.125l-0.307,0.127l-0.307,0.129l-0.306,0.13l-0.305,0.133l-0.305,0.134l-0.303,0.136l-0.302,0.138l-0.301,0.139l-0.3,0.142l-0.299,0.143l-0.298,0.145l-0.298,0.146l-0.296,0.149l-0.295,0.15l-0.294,0.152l-0.293,0.153l-0.292,0.156l-0.291,0.157l-0.29,0.158l-0.289,0.161l-0.287,0.162l-0.287,0.164l-0.286,0.165l-0.284,0.167l-0.283,0.169l-0.283,0.17l-0.281,0.172l-0.28,0.174l-0.279,0.175l-0.278,0.177l-0.276,0.179l-0.276,0.18l-0.274,0.182l-0.273,0.184l-0.272,0.185l-0.271,0.186l-0.27,0.189l-0.269,0.189l-0.267,0.192l-0.266,0.193l-0.265,0.194l-0.264,0.196l-0.262,0.198l-0.261,0.199l-0.26,0.2l-0.259,0.203l-0.258,0.203l-0.256,0.205l-0.255,0.207l-0.254,0.208l-0.252,0.21l-0.251,0.211l-0.25,0.213l-0.249,0.214l-0.247,0.215l-0.246,0.217l-0.245,0.219l-0.243,0.22l-0.242,0.221l-0.241,0.223l-0.239,0.224l-0.238,0.226l-0.237,0.227l-0.235,0.228l-0.234,0.23l-0.233,0.231l-0.231,0.233l-0.23,0.234l-0.228,0.235l-0.227,0.237l-0.226,0.238l-0.224,0.239l-0.223,0.241l-0.221,0.242l-0.22,0.243l-0.219,0.245l-0.217,0.246l-0.215,0.247l-0.214,0.249l-0.213,0.25l-0.211,0.251l-0.21,0.252l-0.208,0.254l-0.207,0.255l-0.205,0.256l-0.203,0.258l-0.203,0.259l-0.2,0.26l-0.199,0.261l-0.198,0.262l-0.196,0.264l-0.194,0.265l-0.193,0.266l-0.192,0.267l-0.189,0.269l-0.189,0.27l-0.186,0.27l-0.185,0.273l-0.184,0.273l-0.182,0.274l-0.18,0.276l-0.178,0.276l-0.177,0.278l-0.176,0.279l-0.174,0.28l-0.172,0.281l-0.17,0.283l-0.169,0.283l-0.167,0.284l-0.165,0.286l-0.164,0.287l-0.162,0.287l-0.161,0.289l-0.158,0.29l-0.157,0.291l-0.156,0.292l-0.153,0.293l-0.152,0.294l-0.15,0.295l-0.149,0.296l-0.146,0.298l-0.145,0.298l-0.143,0.299l-0.142,0.3l-0.139,0.301l-0.138,0.302l-0.136,0.303l-0.134,0.304l-0.133,0.306l-0.13,0.306l-0.129,0.306l-0.127,0.308l-0.125,0.309l-0.124,0.31l-0.121,0.311l-0.12,0.311l-0.118,0.313l-0.115,0.313l-0.115,0.314l-0.112,0.316l-0.11,0.316l-0.109,0.317l-0.106,0.318l-0.105,0.318l-0.102,0.32l-0.101,0.32l-0.099,0.321l-0.097,0.323l-0.095,0.322l-0.093,0.324l-0.092,0.325l-0.089,0.325l-0.087,0.326l-0.085,0.327l-0.084,0.328l-0.081,0.328l-0.079,0.33l-0.078,0.33l-0.075,0.331l-0.073,0.331l-0.072,0.333l-0.069,0.333l-0.067,0.333l-0.066,0.335l-0.063,0.335l-0.061,0.336l-0.059,0.337l-0.057,0.337l-0.055,0.338l-0.053,0.339l-0.051,0.339l-0.049,0.341l-0.046,0.34l-0.045,0.342l-0.042,0.342l-0.041,0.343l-0.038,0.343l-0.036,0.344l-0.034,0.345l-0.032,0.345l-0.029,0.346l-0.028,0.346l-0.025,0.347l-0.023,0.348l-0.021,0.348l-0.019,0.349l-0.017,0.35l-0.014,0.35l-0.012,0.35l-0.01,0.351l-0.008,0.352l-0.006,0.352l-0.003,0.353l-0.001,0.353l0.001,0.353l0.003,0.353l0.006,0.352l0.008,0.352l0.01,0.351l0.012,0.351l0.014,0.35l0.017,0.349l0.019,0.349l0.021,0.348l0.023,0.348l0.025,0.347l0.028,0.346l0.029,0.346l0.032,0.346l0.034,0.344l0.036,0.344l0.038,0.344l0.041,0.342l0.042,0.343l0.045,0.341l0.046,0.341l0.049,0.34l0.051,0.339l0.053,0.339l0.055,0.338l0.057,0.338l0.059,0.336l0.061,0.336l0.063,0.335l0.066,0.335l0.067,0.334l0.069,0.333l0.072,0.332l0.073,0.332l0.075,0.331l0.078,0.33l0.079,0.329l0.081,0.328l0.084,0.328l0.085,0.327l0.087,0.326l0.089,0.326l0.092,0.324l0.093,0.324l0.095,0.323l0.097,0.322l0.099,0.321l0.101,0.321l0.102,0.319l0.105,0.319l0.106,0.318l0.109,0.317l0.11,0.316l0.112,0.315l0.115,0.314l0.115,0.314l0.118,0.312l0.12,0.312l0.121,0.31l0.124,0.31l0.125,0.309l0.127,0.308l0.129,0.307l0.13,0.306l0.133,0.305l0.134,0.304l0.136,0.303l0.138,0.302l0.139,0.301l0.142,0.301l0.143,0.299l0.145,0.298l0.146,0.297l0.149,0.296l0.15,0.295l0.152,0.294l0.153,0.293l0.156,0.292l0.157,0.291l0.158,0.29l0.161,0.289l0.162,0.288l0.164,0.286l0.165,0.286l0.167,0.284l0.169,0.284l0.17,0.282l0.172,0.281l0.174,0.28l0.176,0.279l0.177,0.278l0.178,0.277l0.18,0.275l0.182,0.275l0.184,0.273l0.185,0.272l0.186,0.271l0.189,0.269l0.189,0.269l0.192,0.267l0.193,0.266l0.194,0.265l0.196,0.264l0.198,0.262l0.199,0.262l0.2,0.26l0.203,0.258l0.203,0.258l0.205,0.256l0.207,0.255l0.208,0.254l0.21,0.253l0.211,0.251l0.213,0.25l0.214,0.248l0.215,0.248l0.217,0.246l0.219,0.244l0.22,0.244l0.221,0.242l0.223,0.24l0.224,0.24l0.226,0.238l0.227,0.236l0.228,0.236l0.23,0.234l0.231,0.232l0.233,0.232l0.234,0.229l0.235,0.229l0.237,0.227l0.238,0.225l0.239,0.225l0.241,0.222l0.242,0.222l0.243,0.219l0.245,0.219l0.246,0.217l0.247,0.216l0.249,0.214l0.25,0.212l0.251,0.211l0.252,0.21l0.254,0.208l0.255,0.207l0.256,0.205l0.258,0.204l0.259,0.202l0.26,0.201l0.261,0.199l0.262,0.197l0.264,0.196l0.265,0.195l0.266,0.193l0.267,0.191l0.269,0.19l0.27,0.188l0.271,0.187l0.272,0.185l0.273,0.183l0.274,0.182l0.276,0.18l0.276,0.179l0.278,0.177l0.279,0.175l0.28,0.174l0.281,0.172l0.283,0.17l0.283,0.169l0.284,0.167l0.286,0.166l0.287,0.164l0.287,0.162l0.289,0.16l0.29,0.159l0.291,0.157l0.292,0.155l0.293,0.154l0.294,0.151l0.295,0.151l0.296,0.148l0.298,0.147l0.298,0.144l0.299,0.144l0.3,0.141l0.301,0.139l0.302,0.138l0.303,0.136l0.305,0.135l0.305,0.132l0.306,0.131l0.307,0.128l0.307,0.127l0.309,0.126l0.31,0.123l0.311,0.121l0.311,0.12l0.313,0.118l0.313,0.116l0.315,0.114l0.315,0.112l0.316,0.11l0.317,0.109l0.318,0.106l0.318,0.105l0.32,0.103l0.32,0.101l0.321,0.099l0.323,0.097l0.322,0.095l0.324,0.093l0.325,0.091l0.325,0.089l0.326,0.087l0.327,0.086l0.328,0.083l0.328,0.081l0.33,0.08l0.33,0.077l0.331,0.075l0.331,0.074l0.333,0.071l0.333,0.069l0.333,0.068l0.335,0.065l0.335,0.063l0.336,0.061l0.337,0.059l0.337,0.058l0.338,0.055l0.339,0.052l0.34,0.051l0.34,0.049l0.34,0.047l0.342,0.044l0.342,0.043l0.343,0.04l0.343,0.038l0.344,0.036l0.345,0.034l0.345,0.032l0.346,0.03l0.346,0.027l0.348,0.026l0.347,0.023l0.348,0.021l0.349,0.019l0.35,0.016l0.35,0.015l0.35,0.012l0.351,0.01l0.352,0.008l0.352,0.005l0.353,0.004l0.353,0.001l0.353,-0.001l0.353,-0.004l0.352,-0.005l0.352,-0.008l0.351,-0.01l0.351,-0.012l0.35,-0.015l0.349,-0.016l0.349,-0.019l0.348,-0.021l0.348,-0.023l0.347,-0.026l0.346,-0.027l0.346,-0.03l0.346,-0.032l0.344,-0.034l0.344,-0.036l0.344,-0.038l0.342,-0.04l0.343,-0.043l0.341,-0.044l0.341,-0.047l0.34,-0.049l0.339,-0.051l0.339,-0.052l0.338,-0.055l0.338,-0.058l0.336,-0.059l0.336,-0.061l0.335,-0.063l0.335,-0.065l0.334,-0.068l0.333,-0.069l0.332,-0.071l0.332,-0.074l0.331,-0.075l0.33,-0.077l0.329,-0.08l0.328,-0.081l0.328,-0.083l0.327,-0.086l0.326,-0.087l0.326,-0.089l0.324,-0.091l0.324,-0.093l0.323,-0.095l0.322,-0.097l0.321,-0.099l0.321,-0.101l0.319,-0.103l0.319,-0.105l0.318,-0.106l0.317,-0.109l0.316,-0.11l0.315,-0.112l0.314,-0.114l0.314,-0.116l0.312,-0.118l0.312,-0.12l0.31,-0.121l0.31,-0.123l0.309,-0.126l0.308,-0.127l0.307,-0.128l0.306,-0.131l0.305,-0.132l0.304,-0.135l0.303,-0.136l0.302,-0.138l0.301,-0.139l0.301,-0.141l0.299,-0.144l0.298,-0.144l0.297,-0.147l0.296,-0.148l0.295,-0.151l0.294,-0.151l0.293,-0.154l0.292,-0.155l0.291,-0.157l0.29,-0.159l0.289,-0.16l0.288,-0.162l0.286,-0.164l0.286,-0.166l0.284,-0.167l0.284,-0.169l0.282,-0.17l0.281,-0.172l0.28,-0.174l0.279,-0.175l0.278,-0.177l0.277,-0.179l0.275,-0.18l0.275,-0.182l0.273,-0.183l0.272,-0.185l0.271,-0.187l0.269,-0.188l0.269,-0.19l0.267,-0.191l0.266,-0.193l0.265,-0.195l0.264,-0.196l0.262,-0.197l0.262,-0.199l0.26,-0.201l0.259,-0.202l0.257,-0.204l0.256,-0.205l0.255,-0.207l0.254,-0.208l0.253,-0.21l0.251,-0.211l0.25,-0.212l0.248,-0.214l0.248,-0.216l0.246,-0.217l0.244,-0.219l0.244,-0.219l0.242,-0.222l0.24,-0.222l0.24,-0.225l0.238,-0.225l0.237,-0.227l0.235,-0.229l0.234,-0.229l0.232,-0.232l0.232,-0.232l0.229,-0.234l0.229,-0.236l0.227,-0.236l0.225,-0.238l0.225,-0.24l0.222,-0.24l0.222,-0.242l0.22,-0.244l0.218,-0.244l0.217,-0.246l0.216,-0.248l0.214,-0.248l0.212,-0.25l0.211,-0.251l0.21,-0.253l0.208,-0.254l0.207,-0.255l0.205,-0.256l0.204,-0.258l0.202,-0.258l0.201,-0.26l0.199,-0.262l0.197,-0.262l0.196,-0.264l0.195,-0.265l0.193,-0.266l0.191,-0.267l0.19,-0.269l0.188,-0.269l0.187,-0.271l0.185,-0.272l0.183,-0.273l0.182,-0.275l0.18,-0.275l0.179,-0.277l0.177,-0.278l0.175,-0.279l0.174,-0.28l0.172,-0.281l0.171,-0.282l0.168,-0.284l0.167,-0.284l0.166,-0.286l0.164,-0.286l0.162,-0.288l0.16,-0.289l0.159,-0.29l0.157,-0.291l0.155,-0.292l0.154,-0.293l0.151,-0.294l0.151,-0.295l0.148,-0.296l0.147,-0.297l0.144,-0.298l0.144,-0.299l0.141,-0.301l0.14,-0.301l0.137,-0.302l0.136,-0.303l0.135,-0.304l0.132,-0.305l0.131,-0.306l0.128,-0.307l0.127,-0.308l0.126,-0.309l0.123,-0.31l0.121,-0.31l0.12,-0.312l0.118,-0.312l0.116,-0.314l0.114,-0.314l0.112,-0.315l0.11,-0.316l0.109,-0.317l0.106,-0.318l0.105,-0.319l0.103,-0.319l0.101,-0.321l0.099,-0.321l0.097,-0.322l0.095,-0.323l0.093,-0.324l0.091,-0.324l0.089,-0.326l0.087,-0.326l0.086,-0.327l0.083,-0.328l0.081,-0.328l0.08,-0.329l0.077,-0.33l0.075,-0.331l0.074,-0.332l0.071,-0.332l0.069,-0.333l0.068,-0.334l0.065,-0.335l0.063,-0.335l0.061,-0.336l0.06,-0.336l0.057,-0.338l0.055,-0.338l0.052,-0.339l0.051,-0.339l0.049,-0.34l0.047,-0.341l0.044,-0.341l0.043,-0.343l0.04,-0.342l0.038,-0.344l0.036,-0.344l0.034,-0.344l0.032,-0.346l0.03,-0.346l0.027,-0.346l0.026,-0.347l0.023,-0.348l0.021,-0.348l0.019,-0.349l0.016,-0.349l0.015,-0.35l0.012,-0.351l0.01,-0.351l0.008,-0.352l0.005,-0.352l0.004,-0.353l0.001,-0.353l-0.001,-0.353l-0.004,-0.353l-0.005,-0.352l-0.008,-0.352l-0.01,-0.351l-0.012,-0.35l-0.015,-0.35l-0.016,-0.35l-0.019,-0.349l-0.021,-0.348l-0.023,-0.348l-0.026,-0.347l-0.027,-0.346l-0.03,-0.346l-0.032,-0.345l-0.034,-0.345l-0.036,-0.344l-0.038,-0.343l-0.04,-0.343l-0.043,-0.342l-0.044,-0.342l-0.047,-0.34l-0.049,-0.341l-0.051,-0.339l-0.052,-0.339l-0.055,-0.338l-0.057,-0.337l-0.06,-0.337l-0.061,-0.336l-0.063,-0.335l-0.065,-0.335l-0.068,-0.333l-0.069,-0.333l-0.071,-0.333l-0.074,-0.331l-0.075,-0.331l-0.077,-0.33l-0.08,-0.33l-0.081,-0.328l-0.083,-0.328l-0.086,-0.327l-0.087,-0.326l-0.089,-0.325l-0.091,-0.325l-0.093,-0.324l-0.095,-0.322l-0.097,-0.323l-0.099,-0.321l-0.101,-0.32l-0.103,-0.32l-0.105,-0.318l-0.106,-0.318l-0.109,-0.317l-0.11,-0.316l-0.112,-0.316l-0.114,-0.314l-0.116,-0.313l-0.118,-0.313l-0.12,-0.311l-0.121,-0.311l-0.123,-0.31l-0.126,-0.309l-0.127,-0.308l-0.128,-0.306l-0.131,-0.306l-0.132,-0.306l-0.135,-0.304l-0.136,-0.303l-0.137,-0.302l-0.14,-0.301l-0.141,-0.3l-0.144,-0.299l-0.144,-0.298l-0.147,-0.298l-0.148,-0.296l-0.151,-0.295l-0.151,-0.294l-0.154,-0.293l-0.155,-0.292l-0.157,-0.291l-0.159,-0.29l-0.16,-0.289l-0.162,-0.287l-0.164,-0.287l-0.166,-0.286l-0.167,-0.284l-0.168,-0.283l-0.171,-0.283l-0.172,-0.281l-0.174,-0.28l-0.175,-0.279l-0.177,-0.278l-0.179,-0.276l-0.18,-0.276l-0.182,-0.274l-0.183,-0.273l-0.185,-0.273l-0.187,-0.27l-0.188,-0.27l-0.19,-0.269l-0.191,-0.267l-0.193,-0.266l-0.195,-0.265l-0.196,-0.264l-0.197,-0.262l-0.199,-0.261l-0.201,-0.26l-0.202,-0.259l-0.204,-0.258l-0.205,-0.256l-0.207,-0.255l-0.208,-0.254l-0.21,-0.252l-0.211,-0.251l-0.212,-0.25l-0.214,-0.249l-0.216,-0.247l-0.217,-0.246l-0.218,-0.245l-0.22,-0.243l-0.222,-0.242l-0.222,-0.241l-0.225,-0.239l-0.225,-0.238l-0.227,-0.237l-0.229,-0.235l-0.229,-0.234l-0.232,-0.233l-0.232,-0.231l-0.234,-0.23l-0.235,-0.228l-0.237,-0.227l-0.238,-0.226l-0.24,-0.224l-0.24,-0.223l-0.242,-0.221l-0.244,-0.22l-0.244,-0.219l-0.246,-0.217l-0.248,-0.215l-0.248,-0.214l-0.25,-0.213l-0.251,-0.211l-0.253,-0.21l-0.254,-0.208l-0.255,-0.207l-0.256,-0.205l-0.257,-0.203l-0.259,-0.203l-0.26,-0.2l-0.262,-0.199l-0.262,-0.198l-0.264,-0.196l-0.265,-0.194l-0.266,-0.193l-0.267,-0.192l-0.269,-0.189l-0.269,-0.189l-0.271,-0.186l-0.272,-0.185l-0.273,-0.184l-0.275,-0.182l-0.275,-0.18l-0.277,-0.179l-0.278,-0.177l-0.279,-0.175l-0.28,-0.174l-0.281,-0.172l-0.282,-0.17l-0.284,-0.169l-0.284,-0.167l-0.286,-0.165l-0.286,-0.164l-0.288,-0.162l-0.289,-0.161l-0.29,-0.158l-0.291,-0.157l-0.292,-0.156l-0.293,-0.153l-0.294,-0.152l-0.295,-0.15l-0.296,-0.149l-0.297,-0.146l-0.298,-0.145l-0.299,-0.143l-0.301,-0.142l-0.301,-0.139l-0.302,-0.138l-0.303,-0.136l-0.304,-0.134l-0.305,-0.133l-0.306,-0.13l-0.307,-0.129l-0.308,-0.127l-0.309,-0.125l-0.31,-0.124l-0.31,-0.121l-0.312,-0.12l-0.312,-0.118l-0.314,-0.115l-0.314,-0.115l-0.315,-0.112l-0.316,-0.11l-0.317,-0.109l-0.318,-0.106l-0.319,-0.105l-0.319,-0.102l-0.321,-0.101l-0.321,-0.099l-0.322,-0.097l-0.323,-0.095l-0.324,-0.093l-0.324,-0.092l-0.326,-0.089l-0.326,-0.087l-0.327,-0.085l-0.328,-0.084l-0.328,-0.081l-0.329,-0.079l-0.33,-0.078l-0.331,-0.075l-0.332,-0.073l-0.332,-0.072l-0.333,-0.069l-0.334,-0.067l-0.335,-0.066l-0.335,-0.063l-0.336,-0.061l-0.336,-0.059l-0.338,-0.057l-0.338,-0.055l-0.339,-0.053l-0.339,-0.051l-0.34,-0.049l-0.341,-0.046l-0.341,-0.045l-0.343,-0.042l-0.342,-0.041l-0.344,-0.038l-0.344,-0.036l-0.344,-0.034l-0.346,-0.032l-0.346,-0.029l-0.346,-0.028l-0.347,-0.025l-0.348,-0.023l-0.348,-0.021l-0.349,-0.019l-0.349,-0.017l-0.35,-0.014l-0.351,-0.012l-0.351,-0.01l-0.352,-0.008l-0.352,-0.006l-0.353,-0.003l-0.353,-0.001l-0.353,0.001Z" style="fill:#3d3d3d;"/>
            <circle cx="256.634" cy="154.811" r="30.669" style="fill:#3d3d3d;"/>
            <circle cx="263.153" cy="144.234" r="14.439" style="fill:#e7e7e7;"/>
        </g>
        <g>
            <path d="M139.822,273.832l154.121,0c-17.66,68.109 -118.57,89.201 -154.121,0Z" style="fill:#5b5b5b;"/>
            <path d="M294.667,265.145l0.718,0.09l0.708,0.149l0.694,0.208l0.673,0.264l0.65,0.319l0.621,0.372l0.588,0.423l0.551,0.469l0.51,0.514l0.465,0.554l0.418,0.591l0.368,0.624l0.314,0.652l0.26,0.676l0.202,0.695l0.144,0.709l0.085,0.719l0.024,0.723l-0.035,0.723l-0.095,0.718l-0.154,0.707l-0.111,0.42l-0.117,0.439l-0.12,0.438l-0.122,0.439l-0.124,0.438l-0.127,0.438l-0.128,0.433l-0.13,0.433l-0.133,0.432l-0.135,0.433l-0.137,0.432l-0.138,0.426l-0.14,0.428l-0.143,0.426l-0.145,0.428l-0.148,0.424l-0.148,0.421l-0.15,0.422l-0.153,0.421l-0.155,0.42l-0.157,0.419l-0.159,0.415l-0.16,0.415l-0.164,0.417l-0.164,0.413l-0.166,0.411l-0.169,0.412l-0.171,0.409l-0.172,0.407l-0.174,0.406l-0.176,0.406l-0.178,0.404l-0.181,0.405l-0.182,0.402l-0.182,0.399l-0.186,0.399l-0.188,0.398l-0.189,0.398l-0.192,0.396l-0.192,0.392l-0.195,0.394l-0.197,0.392l-0.198,0.389l-0.2,0.388l-0.202,0.387l-0.204,0.387l-0.206,0.384l-0.207,0.383l-0.21,0.384l-0.211,0.381l-0.212,0.379l-0.215,0.378l-0.215,0.374l-0.218,0.376l-0.221,0.376l-0.22,0.371l-0.222,0.37l-0.226,0.372l-0.226,0.368l-0.227,0.366l-0.231,0.366l-0.232,0.365l-0.233,0.363l-0.234,0.36l-0.237,0.362l-0.238,0.358l-0.239,0.357l-0.242,0.356l-0.242,0.354l-0.245,0.353l-0.245,0.349l-0.247,0.351l-0.251,0.351l-0.251,0.347l-0.251,0.345l-0.253,0.343l-0.256,0.343l-0.258,0.342l-0.259,0.341l-0.26,0.338l-0.261,0.337l-0.263,0.336l-0.265,0.334l-0.265,0.332l-0.268,0.331l-0.269,0.33l-0.27,0.328l-0.272,0.327l-0.275,0.326l-0.274,0.323l-0.276,0.322l-0.278,0.321l-0.278,0.319l-0.282,0.319l-0.282,0.316l-0.282,0.314l-0.286,0.314l-0.286,0.311l-0.287,0.31l-0.289,0.309l-0.29,0.307l-0.292,0.306l-0.293,0.304l-0.295,0.303l-0.295,0.301l-0.297,0.299l-0.298,0.298l-0.3,0.297l-0.301,0.294l-0.302,0.293l-0.303,0.292l-0.306,0.291l-0.306,0.289l-0.307,0.287l-0.308,0.285l-0.31,0.284l-0.311,0.282l-0.313,0.282l-0.313,0.278l-0.315,0.278l-0.316,0.276l-0.317,0.275l-0.318,0.272l-0.32,0.272l-0.321,0.27l-0.321,0.267l-0.324,0.267l-0.324,0.265l-0.325,0.263l-0.327,0.262l-0.328,0.26l-0.329,0.258l-0.33,0.258l-0.332,0.255l-0.331,0.253l-0.333,0.252l-0.335,0.25l-0.336,0.249l-0.336,0.247l-0.338,0.246l-0.338,0.243l-0.341,0.243l-0.341,0.241l-0.341,0.238l-0.343,0.237l-0.344,0.236l-0.345,0.234l-0.346,0.232l-0.347,0.231l-0.349,0.229l-0.348,0.227l-0.351,0.226l-0.351,0.224l-0.352,0.222l-0.353,0.22l-0.353,0.219l-0.355,0.217l-0.356,0.216l-0.357,0.214l-0.358,0.212l-0.359,0.21l-0.359,0.209l-0.361,0.207l-0.361,0.205l-0.362,0.204l-0.364,0.202l-0.364,0.2l-0.365,0.198l-0.365,0.197l-0.368,0.195l-0.367,0.194l-0.368,0.191l-0.37,0.19l-0.37,0.188l-0.371,0.186l-0.372,0.185l-0.372,0.183l-0.373,0.181l-0.375,0.179l-0.375,0.178l-0.376,0.176l-0.376,0.174l-0.377,0.172l-0.379,0.171l-0.379,0.169l-0.379,0.167l-0.38,0.165l-0.382,0.164l-0.382,0.162l-0.382,0.159l-0.384,0.159l-0.384,0.156l-0.384,0.155l-0.386,0.153l-0.386,0.151l-0.387,0.149l-0.387,0.147l-0.388,0.146l-0.39,0.144l-0.389,0.142l-0.39,0.14l-0.391,0.138l-0.391,0.137l-0.392,0.134l-0.393,0.133l-0.393,0.131l-0.394,0.129l-0.395,0.128l-0.395,0.125l-0.396,0.124l-0.396,0.122l-0.397,0.12l-0.397,0.118l-0.398,0.116l-0.399,0.115l-0.399,0.112l-0.4,0.111l-0.4,0.109l-0.401,0.107l-0.401,0.105l-0.402,0.103l-0.402,0.101l-0.403,0.1l-0.403,0.097l-0.403,0.096l-0.405,0.094l-0.405,0.092l-0.405,0.09l-0.406,0.088l-0.406,0.086l-0.407,0.084l-0.407,0.083l-0.407,0.08l-0.408,0.078l-0.408,0.077l-0.409,0.075l-0.409,0.072l-0.409,0.071l-0.41,0.069l-0.41,0.067l-0.411,0.065l-0.411,0.063l-0.412,0.061l-0.411,0.059l-0.412,0.057l-0.412,0.055l-0.413,0.054l-0.414,0.051l-0.413,0.049l-0.413,0.047l-0.415,0.046l-0.414,0.043l-0.414,0.041l-0.415,0.04l-0.415,0.037l-0.416,0.035l-0.416,0.034l-0.415,0.031l-0.417,0.029l-0.416,0.028l-0.417,0.025l-0.416,0.023l-0.418,0.022l-0.417,0.019l-0.417,0.017l-0.418,0.015l-0.418,0.014l-0.418,0.011l-0.418,0.009l-0.419,0.007l-0.419,0.005l-0.418,0.003l-0.419,0.001l-0.419,-0.001l-0.419,-0.004l-0.419,-0.005l-0.42,-0.007l-0.419,-0.01l-0.42,-0.011l-0.419,-0.014l-0.421,-0.015l-0.419,-0.018l-0.42,-0.02l-0.42,-0.022l-0.42,-0.024l-0.42,-0.026l-0.42,-0.028l-0.42,-0.031l-0.42,-0.032l-0.421,-0.035l-0.42,-0.036l-0.42,-0.039l-0.42,-0.041l-0.42,-0.043l-0.42,-0.045l-0.42,-0.048l-0.421,-0.049l-0.419,-0.052l-0.42,-0.054l-0.42,-0.056l-0.42,-0.058l-0.42,-0.06l-0.419,-0.062l-0.42,-0.065l-0.419,-0.066l-0.419,-0.069l-0.419,-0.071l-0.42,-0.073l-0.419,-0.076l-0.419,-0.078l-0.418,-0.079l-0.419,-0.082l-0.418,-0.084l-0.418,-0.087l-0.418,-0.088l-0.417,-0.091l-0.418,-0.093l-0.417,-0.095l-0.418,-0.097l-0.416,-0.1l-0.417,-0.102l-0.416,-0.104l-0.416,-0.106l-0.416,-0.108l-0.416,-0.111l-0.415,-0.113l-0.415,-0.115l-0.415,-0.117l-0.415,-0.12l-0.413,-0.122l-0.414,-0.124l-0.414,-0.126l-0.413,-0.129l-0.413,-0.131l-0.412,-0.133l-0.412,-0.135l-0.412,-0.138l-0.411,-0.139l-0.411,-0.143l-0.41,-0.144l-0.411,-0.147l-0.409,-0.149l-0.409,-0.151l-0.409,-0.153l-0.409,-0.156l-0.408,-0.158l-0.407,-0.161l-0.407,-0.162l-0.407,-0.165l-0.406,-0.167l-0.406,-0.17l-0.405,-0.172l-0.404,-0.174l-0.404,-0.176l-0.404,-0.179l-0.403,-0.181l-0.402,-0.184l-0.402,-0.185l-0.401,-0.188l-0.401,-0.19l-0.4,-0.193l-0.4,-0.195l-0.399,-0.198l-0.397,-0.199l-0.398,-0.202l-0.398,-0.205l-0.396,-0.206l-0.396,-0.209l-0.395,-0.211l-0.395,-0.214l-0.394,-0.216l-0.392,-0.218l-0.393,-0.22l-0.392,-0.223l-0.391,-0.225l-0.391,-0.228l-0.389,-0.23l-0.389,-0.232l-0.389,-0.235l-0.387,-0.237l-0.387,-0.24l-0.386,-0.242l-0.385,-0.243l-0.384,-0.247l-0.384,-0.249l-0.382,-0.251l-0.383,-0.253l-0.381,-0.256l-0.38,-0.258l-0.38,-0.261l-0.378,-0.263l-0.379,-0.266l-0.377,-0.267l-0.375,-0.27l-0.376,-0.273l-0.374,-0.275l-0.374,-0.277l-0.372,-0.279l-0.371,-0.282l-0.371,-0.284l-0.371,-0.288l-0.368,-0.288l-0.368,-0.292l-0.367,-0.294l-0.367,-0.296l-0.364,-0.298l-0.364,-0.301l-0.364,-0.304l-0.362,-0.306l-0.361,-0.307l-0.36,-0.311l-0.359,-0.313l-0.359,-0.316l-0.357,-0.317l-0.356,-0.32l-0.355,-0.323l-0.353,-0.324l-0.354,-0.328l-0.351,-0.329l-0.351,-0.332l-0.35,-0.335l-0.348,-0.336l-0.348,-0.34l-0.347,-0.342l-0.344,-0.343l-0.344,-0.346l-0.344,-0.35l-0.342,-0.351l-0.34,-0.353l-0.34,-0.356l-0.338,-0.358l-0.337,-0.361l-0.337,-0.363l-0.335,-0.366l-0.333,-0.368l-0.333,-0.37l-0.331,-0.373l-0.33,-0.375l-0.329,-0.378l-0.328,-0.38l-0.326,-0.381l-0.325,-0.386l-0.325,-0.388l-0.322,-0.389l-0.321,-0.391l-0.32,-0.395l-0.319,-0.397l-0.318,-0.399l-0.317,-0.402l-0.314,-0.403l-0.314,-0.407l-0.313,-0.409l-0.311,-0.411l-0.309,-0.413l-0.309,-0.417l-0.307,-0.418l-0.306,-0.421l-0.304,-0.423l-0.303,-0.426l-0.302,-0.428l-0.301,-0.431l-0.298,-0.432l-0.297,-0.435l-0.298,-0.439l-0.294,-0.44l-0.293,-0.442l-0.293,-0.446l-0.29,-0.447l-0.289,-0.45l-0.288,-0.452l-0.286,-0.455l-0.285,-0.458l-0.284,-0.459l-0.281,-0.461l-0.281,-0.465l-0.279,-0.467l-0.278,-0.469l-0.276,-0.472l-0.274,-0.474l-0.274,-0.476l-0.271,-0.48l-0.27,-0.481l-0.269,-0.484l-0.267,-0.486l-0.266,-0.488l-0.264,-0.492l-0.263,-0.493l-0.26,-0.496l-0.26,-0.499l-0.258,-0.501l-0.256,-0.503l-0.255,-0.506l-0.254,-0.508l-0.252,-0.511l-0.249,-0.512l-0.249,-0.516l-0.247,-0.519l-0.245,-0.52l-0.244,-0.523l-0.242,-0.525l-0.241,-0.529l-0.239,-0.529l-0.237,-0.532l-0.236,-0.536l-0.234,-0.538l-0.232,-0.539l-0.231,-0.543l-0.23,-0.546l-0.227,-0.547l-0.225,-0.549l-0.225,-0.553l-0.216,-0.539l-0.236,-0.668l-0.182,-0.685l-0.126,-0.698l-0.068,-0.705l-0.011,-0.709l0.047,-0.707l0.104,-0.701l0.161,-0.691l0.216,-0.675l0.27,-0.655l0.323,-0.631l0.373,-0.603l0.421,-0.57l0.466,-0.535l0.507,-0.495l0.546,-0.452l0.581,-0.406l0.612,-0.357l0.639,-0.307l0.662,-0.254l0.681,-0.199l0.694,-0.143l0.703,-0.086l0.709,-0.029l154.121,0l0.724,0.03Zm-154.845,8.687l0.209,0.522l0.21,0.519l0.212,0.516l0.214,0.514l0.215,0.511l0.216,0.509l0.218,0.506l0.219,0.504l0.221,0.502l0.222,0.498l0.224,0.497l0.225,0.493l0.227,0.492l0.228,0.489l0.229,0.486l0.231,0.484l0.232,0.481l0.233,0.479l0.235,0.477l0.236,0.474l0.238,0.471l0.239,0.469l0.24,0.467l0.242,0.464l0.243,0.462l0.244,0.459l0.246,0.456l0.246,0.455l0.249,0.452l0.249,0.449l0.251,0.447l0.252,0.445l0.254,0.442l0.254,0.439l0.256,0.438l0.258,0.434l0.258,0.433l0.26,0.43l0.261,0.427l0.262,0.426l0.263,0.422l0.265,0.421l0.266,0.418l0.267,0.415l0.268,0.413l0.27,0.411l0.271,0.408l0.271,0.406l0.273,0.404l0.275,0.401l0.275,0.399l0.277,0.396l0.277,0.394l0.279,0.392l0.28,0.389l0.281,0.387l0.282,0.385l0.284,0.382l0.284,0.38l0.286,0.377l0.286,0.375l0.288,0.373l0.289,0.37l0.29,0.368l0.291,0.366l0.292,0.364l0.293,0.361l0.294,0.358l0.295,0.357l0.297,0.354l0.297,0.351l0.298,0.35l0.299,0.347l0.301,0.345l0.301,0.342l0.302,0.34l0.304,0.338l0.304,0.336l0.305,0.333l0.307,0.331l0.307,0.328l0.308,0.327l0.309,0.324l0.31,0.321l0.311,0.32l0.312,0.317l0.313,0.315l0.314,0.312l0.314,0.311l0.316,0.308l0.316,0.306l0.318,0.303l0.318,0.301l0.319,0.299l0.32,0.297l0.321,0.295l0.322,0.292l0.322,0.29l0.324,0.288l0.324,0.285l0.325,0.283l0.326,0.281l0.327,0.279l0.327,0.277l0.329,0.274l0.329,0.272l0.33,0.27l0.331,0.267l0.331,0.266l0.332,0.263l0.333,0.261l0.334,0.259l0.335,0.256l0.335,0.255l0.336,0.252l0.337,0.25l0.338,0.248l0.338,0.245l0.339,0.244l0.339,0.241l0.341,0.239l0.341,0.237l0.341,0.234l0.343,0.233l0.343,0.23l0.344,0.228l0.344,0.226l0.345,0.224l0.346,0.222l0.346,0.219l0.347,0.217l0.348,0.215l0.348,0.213l0.349,0.211l0.349,0.209l0.35,0.207l0.351,0.204l0.351,0.202l0.352,0.201l0.352,0.198l0.353,0.195l0.353,0.194l0.354,0.192l0.355,0.189l0.355,0.188l0.356,0.185l0.356,0.183l0.357,0.181l0.357,0.179l0.358,0.177l0.358,0.175l0.358,0.173l0.36,0.17l0.359,0.169l0.36,0.166l0.361,0.165l0.361,0.162l0.362,0.16l0.362,0.158l0.362,0.156l0.363,0.154l0.363,0.152l0.364,0.15l0.364,0.147l0.364,0.146l0.365,0.144l0.366,0.141l0.365,0.14l0.366,0.137l0.367,0.135l0.367,0.134l0.367,0.131l0.367,0.129l0.368,0.128l0.368,0.125l0.369,0.123l0.369,0.121l0.369,0.119l0.369,0.118l0.37,0.115l0.37,0.113l0.371,0.111l0.37,0.109l0.371,0.107l0.372,0.105l0.371,0.103l0.372,0.101l0.372,0.099l0.372,0.097l0.373,0.095l0.372,0.093l0.373,0.091l0.374,0.09l0.373,0.087l0.374,0.085l0.373,0.083l0.374,0.081l0.375,0.08l0.374,0.077l0.375,0.075l0.374,0.074l0.375,0.071l0.375,0.069l0.375,0.068l0.376,0.066l0.375,0.063l0.376,0.062l0.375,0.06l0.376,0.057l0.376,0.056l0.376,0.054l0.376,0.052l0.376,0.05l0.377,0.049l0.376,0.046l0.377,0.044l0.376,0.043l0.377,0.04l0.376,0.039l0.377,0.036l0.376,0.035l0.377,0.033l0.377,0.031l0.377,0.029l0.376,0.027l0.377,0.026l0.377,0.023l0.377,0.022l0.376,0.019l0.377,0.018l0.377,0.016l0.376,0.014l0.377,0.012l0.376,0.011l0.377,0.008l0.376,0.007l0.376,0.005l0.377,0.002l0.376,0.001l0.376,0l0.376,-0.003l0.376,-0.005l0.375,-0.006l0.376,-0.008l0.375,-0.01l0.376,-0.012l0.375,-0.014l0.375,-0.015l0.375,-0.017l0.375,-0.019l0.374,-0.021l0.375,-0.023l0.374,-0.025l0.374,-0.026l0.374,-0.028l0.374,-0.03l0.373,-0.032l0.373,-0.034l0.374,-0.035l0.372,-0.037l0.373,-0.039l0.372,-0.041l0.372,-0.043l0.372,-0.044l0.372,-0.046l0.371,-0.048l0.371,-0.049l0.371,-0.052l0.371,-0.053l0.37,-0.055l0.37,-0.057l0.369,-0.058l0.37,-0.06l0.369,-0.062l0.368,-0.064l0.369,-0.066l0.368,-0.067l0.367,-0.069l0.367,-0.07l0.367,-0.073l0.367,-0.074l0.366,-0.076l0.366,-0.077l0.365,-0.08l0.366,-0.081l0.364,-0.083l0.364,-0.084l0.364,-0.086l0.364,-0.088l0.363,-0.09l0.362,-0.091l0.362,-0.093l0.362,-0.095l0.361,-0.096l0.361,-0.098l0.36,-0.1l0.36,-0.102l0.36,-0.103l0.358,-0.105l0.359,-0.106l0.358,-0.108l0.357,-0.11l0.357,-0.112l0.356,-0.113l0.356,-0.115l0.355,-0.117l0.355,-0.118l0.354,-0.12l0.354,-0.121l0.353,-0.123l0.353,-0.125l0.352,-0.127l0.351,-0.128l0.351,-0.129l0.35,-0.132l0.35,-0.133l0.349,-0.134l0.348,-0.137l0.348,-0.138l0.347,-0.139l0.347,-0.141l0.346,-0.143l0.345,-0.144l0.345,-0.146l0.344,-0.148l0.343,-0.149l0.343,-0.151l0.342,-0.152l0.341,-0.154l0.34,-0.156l0.34,-0.157l0.34,-0.159l0.338,-0.16l0.338,-0.162l0.337,-0.163l0.336,-0.166l0.336,-0.166l0.335,-0.168l0.334,-0.17l0.333,-0.172l0.333,-0.172l0.331,-0.175l0.331,-0.176l0.331,-0.178l0.329,-0.179l0.329,-0.18l0.328,-0.183l0.327,-0.183l0.326,-0.186l0.325,-0.187l0.325,-0.188l0.323,-0.19l0.323,-0.191l0.322,-0.193l0.322,-0.195l0.32,-0.196l0.319,-0.197l0.319,-0.199l0.318,-0.201l0.316,-0.202l0.316,-0.204l0.315,-0.205l0.314,-0.206l0.314,-0.208l0.312,-0.21l0.311,-0.211l0.311,-0.213l0.309,-0.214l0.309,-0.215l0.307,-0.217l0.307,-0.219l0.305,-0.22l0.305,-0.221l0.304,-0.223l0.302,-0.224l0.302,-0.226l0.301,-0.227l0.299,-0.229l0.299,-0.23l0.298,-0.232l0.296,-0.233l0.296,-0.235l0.294,-0.236l0.294,-0.237l0.292,-0.239l0.292,-0.24l0.29,-0.242l0.289,-0.243l0.288,-0.245l0.287,-0.246l0.286,-0.247l0.285,-0.249l0.284,-0.251l0.282,-0.251l0.282,-0.253l0.28,-0.255l0.28,-0.256l0.278,-0.257l0.277,-0.259l0.275,-0.26l0.275,-0.261l0.274,-0.263l0.272,-0.265l0.271,-0.265l0.27,-0.267l0.269,-0.269l0.267,-0.269l0.266,-0.272l0.266,-0.272l0.263,-0.274l0.263,-0.275l0.262,-0.277l0.26,-0.278l0.259,-0.279l0.257,-0.281l0.257,-0.282l0.255,-0.284l0.254,-0.284l0.252,-0.286l0.252,-0.288l0.25,-0.289l0.248,-0.29l0.248,-0.291l0.246,-0.293l0.245,-0.294l0.243,-0.295l0.242,-0.297l0.241,-0.298l0.239,-0.3l0.239,-0.3l0.236,-0.302l0.236,-0.303l0.234,-0.305l0.232,-0.306l0.231,-0.307l0.23,-0.309l0.229,-0.309l0.227,-0.311l0.225,-0.313l0.224,-0.313l0.223,-0.315l0.221,-0.316l0.22,-0.318l0.219,-0.319l0.217,-0.32l0.215,-0.321l0.214,-0.322l0.213,-0.324l0.211,-0.325l0.209,-0.326l0.208,-0.328l0.207,-0.329l0.205,-0.33l0.204,-0.331l0.202,-0.333l0.2,-0.333l0.199,-0.335l0.198,-0.337l0.196,-0.337l0.194,-0.339l0.193,-0.34l0.191,-0.341l0.19,-0.342l0.188,-0.344l0.186,-0.344l0.185,-0.346l0.183,-0.348l0.182,-0.348l0.18,-0.35l0.179,-0.35l0.176,-0.352l0.176,-0.354l0.173,-0.354l0.172,-0.355l0.17,-0.357l0.169,-0.358l0.167,-0.359l0.165,-0.36l0.164,-0.362l0.162,-0.363l0.16,-0.363l0.158,-0.365l0.157,-0.366l0.155,-0.368l0.154,-0.368l0.151,-0.37l0.15,-0.37l0.148,-0.372l0.147,-0.373l0.144,-0.374l0.143,-0.376l0.141,-0.376l0.14,-0.378l0.137,-0.378l0.136,-0.38l0.134,-0.381l0.132,-0.382l0.131,-0.383l0.128,-0.384l0.127,-0.386l0.125,-0.386l0.123,-0.388l0.122,-0.389l0.119,-0.39l0.118,-0.391l0.115,-0.392l0.114,-0.393l0.112,-0.394l0.11,-0.395l0.108,-0.397l0.107,-0.397l0.104,-0.399l-154.121,0Z" style="fill:#3d3d3d;"/>
            <path d="M215.876,311.833c22.338,0 41.501,-13.204 41.501,6.241c0,19.445 -18.136,48.118 -40.474,48.118c-22.339,0 -40.475,-28.673 -40.475,-48.118c0,-19.445 17.11,-6.241 39.448,-6.241Z" style="fill:#c46767;"/>
            <path d="M185.068,298.362l0.22,0.003l0.218,0.005l0.217,0.007l0.215,0.008l0.216,0.01l0.214,0.011l0.213,0.013l0.213,0.014l0.211,0.015l0.212,0.016l0.211,0.018l0.21,0.019l0.209,0.02l0.209,0.021l0.209,0.022l0.207,0.023l0.207,0.024l0.217,0.026l0.402,0.052l0.412,0.056l0.41,0.059l0.409,0.062l0.408,0.065l0.408,0.067l0.407,0.07l0.407,0.072l0.406,0.074l0.407,0.076l0.406,0.077l0.407,0.079l0.407,0.08l0.407,0.082l0.408,0.083l0.411,0.084l0.813,0.169l0.821,0.173l1.65,0.349l0.83,0.174l0.838,0.174l0.415,0.085l0.418,0.085l0.421,0.084l0.42,0.083l0.422,0.083l0.422,0.081l0.424,0.08l0.424,0.079l0.425,0.077l0.426,0.076l0.426,0.074l0.428,0.073l0.428,0.07l0.429,0.069l0.429,0.067l0.431,0.064l0.431,0.063l0.432,0.06l0.432,0.057l0.44,0.056l0.21,0.026l0.217,0.026l0.217,0.025l0.217,0.024l0.217,0.024l0.218,0.023l0.218,0.023l0.217,0.021l0.217,0.021l0.218,0.02l0.218,0.019l0.218,0.019l0.218,0.018l0.219,0.017l0.218,0.016l0.218,0.015l0.219,0.014l0.219,0.014l0.219,0.013l0.218,0.012l0.219,0.011l0.22,0.01l0.219,0.009l0.219,0.008l0.219,0.007l0.22,0.007l0.219,0.005l0.22,0.005l0.219,0.003l0.219,0.003l0.22,0.001l0.22,0.001l0.22,-0.001l0.22,-0.001l0.22,-0.003l0.22,-0.003l0.221,-0.005l0.221,-0.005l0.221,-0.007l0.221,-0.007l0.221,-0.008l0.221,-0.009l0.222,-0.011l0.222,-0.011l0.221,-0.012l0.222,-0.012l0.222,-0.014l0.222,-0.014l0.222,-0.016l0.223,-0.016l0.222,-0.017l0.222,-0.018l0.223,-0.019l0.223,-0.019l0.223,-0.02l0.223,-0.021l0.222,-0.022l0.223,-0.022l0.223,-0.024l0.223,-0.024l0.223,-0.024l0.223,-0.026l0.223,-0.026l0.217,-0.026l0.453,-0.056l0.446,-0.058l0.446,-0.061l0.446,-0.062l0.447,-0.066l0.445,-0.067l0.446,-0.069l0.445,-0.072l0.446,-0.073l0.444,-0.074l0.444,-0.077l0.444,-0.078l0.444,-0.08l0.443,-0.08l0.443,-0.082l0.442,-0.083l0.441,-0.084l0.441,-0.085l0.441,-0.086l0.436,-0.086l0.882,-0.175l0.875,-0.175l1.741,-0.35l0.868,-0.173l0.86,-0.169l0.434,-0.084l0.431,-0.083l0.431,-0.082l0.43,-0.08l0.43,-0.078l0.43,-0.077l0.429,-0.075l0.429,-0.074l0.43,-0.071l0.429,-0.069l0.429,-0.066l0.43,-0.064l0.43,-0.061l0.431,-0.058l0.423,-0.054l0.224,-0.027l0.217,-0.026l0.217,-0.024l0.217,-0.023l0.216,-0.023l0.217,-0.021l0.219,-0.021l0.218,-0.019l0.219,-0.018l0.22,-0.018l0.219,-0.015l0.22,-0.015l0.221,-0.014l0.221,-0.012l0.222,-0.01l0.223,-0.01l0.223,-0.008l0.223,-0.006l0.226,-0.005l0.225,-0.003l0.226,-0.002l0.226,0l0.229,0.002l0.229,0.004l0.229,0.005l0.23,0.008l0.232,0.01l0.233,0.012l0.233,0.014l0.235,0.016l0.236,0.019l0.235,0.021l0.238,0.024l0.24,0.026l0.241,0.029l0.241,0.033l0.242,0.034l0.244,0.039l0.244,0.041l0.246,0.044l0.248,0.048l0.248,0.052l0.249,0.055l0.251,0.059l0.252,0.063l0.252,0.067l0.254,0.071l0.253,0.075l0.255,0.079l0.256,0.084l0.258,0.09l0.258,0.094l0.255,0.097l0.256,0.103l0.258,0.109l0.259,0.114l0.257,0.119l0.257,0.124l0.256,0.13l0.257,0.136l0.256,0.141l0.25,0.144l0.253,0.153l0.251,0.157l0.249,0.164l0.248,0.169l0.242,0.172l0.244,0.181l0.238,0.185l0.236,0.189l0.235,0.197l0.228,0.2l0.228,0.206l0.22,0.209l0.219,0.216l0.214,0.22l0.209,0.222l0.207,0.23l0.2,0.232l0.196,0.235l0.19,0.238l0.186,0.242l0.182,0.248l0.177,0.25l0.171,0.253l0.165,0.252l0.158,0.253l0.158,0.262l0.15,0.261l0.143,0.26l0.141,0.267l0.134,0.264l0.13,0.267l0.125,0.27l0.121,0.272l0.114,0.269l0.109,0.269l0.107,0.277l0.102,0.274l0.095,0.271l0.092,0.274l0.089,0.278l0.083,0.275l0.08,0.276l0.076,0.279l0.072,0.279l0.068,0.276l0.064,0.277l0.06,0.28l0.058,0.28l0.054,0.283l0.05,0.28l0.047,0.278l0.044,0.284l0.041,0.282l0.037,0.282l0.035,0.285l0.032,0.286l0.029,0.283l0.027,0.287l0.023,0.288l0.021,0.288l0.018,0.291l0.016,0.287l0.013,0.29l0.011,0.294l0.008,0.293l0.006,0.293l0.003,0.297l0.001,0.298l-0.001,0.296l-0.003,0.292l-0.005,0.294l-0.008,0.297l-0.009,0.293l-0.011,0.295l-0.014,0.296l-0.016,0.293l-0.017,0.297l-0.02,0.296l-0.021,0.295l-0.023,0.295l-0.026,0.297l-0.027,0.295l-0.029,0.296l-0.032,0.296l-0.033,0.296l-0.034,0.297l-0.037,0.294l-0.038,0.297l-0.041,0.297l-0.042,0.298l-0.044,0.295l-0.046,0.296l-0.047,0.298l-0.05,0.296l-0.051,0.297l-0.052,0.296l-0.055,0.299l-0.057,0.297l-0.057,0.295l-0.06,0.295l-0.061,0.298l-0.064,0.3l-0.065,0.295l-0.066,0.296l-0.068,0.296l-0.069,0.296l-0.072,0.299l-0.073,0.298l-0.075,0.295l-0.076,0.297l-0.078,0.298l-0.08,0.295l-0.08,0.295l-0.083,0.297l-0.085,0.297l-0.086,0.298l-0.087,0.295l-0.089,0.295l-0.091,0.298l-0.091,0.293l-0.094,0.296l-0.095,0.297l-0.097,0.296l-0.098,0.295l-0.1,0.296l-0.101,0.293l-0.103,0.296l-0.105,0.295l-0.105,0.294l-0.107,0.293l-0.109,0.293l-0.111,0.296l-0.111,0.293l-0.113,0.293l-0.116,0.295l-0.115,0.291l-0.118,0.293l-0.119,0.293l-0.12,0.291l-0.122,0.292l-0.124,0.293l-0.125,0.29l-0.125,0.29l-0.129,0.292l-0.129,0.29l-0.13,0.29l-0.133,0.291l-0.133,0.289l-0.134,0.287l-0.136,0.289l-0.137,0.287l-0.139,0.288l-0.142,0.29l-0.141,0.286l-0.142,0.284l-0.145,0.287l-0.146,0.287l-0.147,0.285l-0.149,0.284l-0.15,0.285l-0.151,0.284l-0.153,0.283l-0.154,0.283l-0.155,0.281l-0.157,0.282l-0.159,0.282l-0.158,0.28l-0.161,0.279l-0.162,0.281l-0.164,0.278l-0.164,0.278l-0.167,0.279l-0.167,0.276l-0.169,0.277l-0.171,0.277l-0.17,0.274l-0.172,0.274l-0.175,0.274l-0.176,0.274l-0.177,0.273l-0.177,0.271l-0.179,0.271l-0.181,0.27l-0.181,0.27l-0.184,0.27l-0.185,0.268l-0.185,0.266l-0.187,0.267l-0.189,0.266l-0.19,0.266l-0.19,0.263l-0.192,0.263l-0.195,0.265l-0.195,0.261l-0.195,0.26l-0.198,0.26l-0.198,0.259l-0.201,0.259l-0.201,0.256l-0.202,0.257l-0.204,0.255l-0.206,0.255l-0.207,0.254l-0.207,0.252l-0.208,0.251l-0.21,0.25l-0.212,0.25l-0.214,0.25l-0.214,0.247l-0.215,0.246l-0.217,0.246l-0.218,0.244l-0.219,0.243l-0.22,0.241l-0.222,0.242l-0.223,0.24l-0.224,0.238l-0.226,0.238l-0.227,0.236l-0.228,0.235l-0.23,0.235l-0.23,0.232l-0.233,0.232l-0.233,0.23l-0.235,0.229l-0.235,0.228l-0.237,0.226l-0.239,0.225l-0.24,0.224l-0.241,0.223l-0.243,0.221l-0.244,0.221l-0.244,0.218l-0.245,0.216l-0.248,0.215l-0.25,0.215l-0.25,0.213l-0.251,0.211l-0.253,0.21l-0.253,0.208l-0.256,0.207l-0.257,0.206l-0.258,0.203l-0.258,0.202l-0.262,0.201l-0.261,0.199l-0.263,0.197l-0.266,0.197l-0.265,0.193l-0.267,0.192l-0.268,0.191l-0.27,0.189l-0.272,0.188l-0.273,0.186l-0.273,0.183l-0.274,0.182l-0.277,0.18l-0.277,0.178l-0.279,0.177l-0.281,0.174l-0.282,0.173l-0.283,0.171l-0.283,0.168l-0.286,0.167l-0.288,0.166l-0.289,0.163l-0.288,0.16l-0.291,0.159l-0.293,0.157l-0.294,0.155l-0.295,0.152l-0.297,0.151l-0.297,0.148l-0.298,0.145l-0.3,0.144l-0.303,0.142l-0.303,0.14l-0.303,0.136l-0.305,0.135l-0.307,0.132l-0.309,0.131l-0.31,0.127l-0.309,0.125l-0.312,0.123l-0.314,0.12l-0.314,0.117l-0.316,0.116l-0.317,0.112l-0.319,0.11l-0.319,0.107l-0.32,0.105l-0.323,0.102l-0.322,0.099l-0.325,0.097l-0.326,0.094l-0.326,0.091l-0.328,0.088l-0.33,0.086l-0.329,0.082l-0.331,0.079l-0.333,0.077l-0.335,0.074l-0.334,0.071l-0.335,0.067l-0.337,0.065l-0.337,0.061l-0.34,0.059l-0.34,0.055l-0.34,0.052l-0.342,0.049l-0.342,0.046l-0.344,0.042l-0.344,0.04l-0.345,0.036l-0.347,0.032l-0.347,0.03l-0.347,0.026l-0.348,0.022l-0.351,0.019l-0.35,0.016l-0.35,0.012l-0.352,0.009l-0.351,0.005l-0.353,0.002l-0.353,-0.002l-0.352,-0.005l-0.351,-0.009l-0.35,-0.012l-0.35,-0.016l-0.351,-0.019l-0.348,-0.022l-0.347,-0.026l-0.348,-0.03l-0.346,-0.032l-0.345,-0.036l-0.344,-0.04l-0.344,-0.042l-0.343,-0.046l-0.342,-0.049l-0.34,-0.052l-0.34,-0.055l-0.339,-0.059l-0.338,-0.061l-0.337,-0.065l-0.334,-0.067l-0.335,-0.071l-0.334,-0.074l-0.333,-0.077l-0.331,-0.079l-0.33,-0.082l-0.329,-0.086l-0.329,-0.088l-0.326,-0.091l-0.325,-0.094l-0.325,-0.097l-0.323,-0.099l-0.322,-0.102l-0.321,-0.105l-0.319,-0.107l-0.319,-0.11l-0.317,-0.112l-0.315,-0.116l-0.314,-0.117l-0.314,-0.12l-0.312,-0.123l-0.31,-0.125l-0.309,-0.127l-0.309,-0.131l-0.308,-0.132l-0.304,-0.135l-0.304,-0.136l-0.303,-0.14l-0.302,-0.142l-0.301,-0.144l-0.298,-0.145l-0.297,-0.148l-0.297,-0.151l-0.295,-0.152l-0.293,-0.155l-0.293,-0.157l-0.291,-0.159l-0.289,-0.16l-0.288,-0.163l-0.288,-0.166l-0.286,-0.167l-0.283,-0.168l-0.284,-0.171l-0.281,-0.173l-0.281,-0.174l-0.279,-0.177l-0.278,-0.178l-0.276,-0.18l-0.275,-0.182l-0.273,-0.183l-0.273,-0.186l-0.272,-0.188l-0.269,-0.189l-0.269,-0.191l-0.266,-0.192l-0.266,-0.193l-0.265,-0.197l-0.263,-0.197l-0.262,-0.199l-0.261,-0.201l-0.259,-0.202l-0.257,-0.203l-0.258,-0.206l-0.255,-0.207l-0.253,-0.208l-0.253,-0.21l-0.252,-0.211l-0.25,-0.213l-0.25,-0.215l-0.247,-0.215l-0.245,-0.216l-0.245,-0.218l-0.244,-0.221l-0.243,-0.221l-0.241,-0.223l-0.24,-0.224l-0.238,-0.225l-0.237,-0.226l-0.236,-0.228l-0.234,-0.229l-0.234,-0.23l-0.232,-0.232l-0.231,-0.232l-0.23,-0.235l-0.228,-0.235l-0.226,-0.236l-0.226,-0.238l-0.224,-0.238l-0.223,-0.24l-0.223,-0.242l-0.22,-0.241l-0.219,-0.243l-0.218,-0.244l-0.217,-0.246l-0.215,-0.246l-0.214,-0.247l-0.213,-0.25l-0.213,-0.25l-0.209,-0.25l-0.209,-0.251l-0.207,-0.252l-0.207,-0.254l-0.205,-0.255l-0.204,-0.255l-0.203,-0.257l-0.2,-0.256l-0.201,-0.259l-0.199,-0.259l-0.197,-0.26l-0.197,-0.262l-0.193,-0.259l-0.195,-0.264l-0.192,-0.264l-0.191,-0.263l-0.19,-0.266l-0.188,-0.266l-0.187,-0.267l-0.186,-0.266l-0.184,-0.268l-0.184,-0.27l-0.182,-0.27l-0.18,-0.27l-0.179,-0.271l-0.178,-0.271l-0.177,-0.273l-0.176,-0.274l-0.174,-0.274l-0.172,-0.274l-0.171,-0.274l-0.171,-0.277l-0.169,-0.277l-0.166,-0.276l-0.167,-0.279l-0.165,-0.278l-0.163,-0.278l-0.163,-0.281l-0.16,-0.279l-0.159,-0.28l-0.158,-0.282l-0.158,-0.282l-0.154,-0.281l-0.155,-0.283l-0.152,-0.283l-0.152,-0.284l-0.15,-0.285l-0.148,-0.284l-0.148,-0.286l-0.145,-0.286l-0.145,-0.285l-0.142,-0.286l-0.143,-0.288l-0.14,-0.288l-0.138,-0.286l-0.138,-0.289l-0.137,-0.289l-0.133,-0.287l-0.134,-0.289l-0.133,-0.291l-0.13,-0.29l-0.129,-0.29l-0.128,-0.292l-0.126,-0.29l-0.124,-0.29l-0.124,-0.293l-0.122,-0.292l-0.12,-0.291l-0.12,-0.293l-0.117,-0.293l-0.116,-0.291l-0.115,-0.295l-0.113,-0.293l-0.112,-0.293l-0.111,-0.296l-0.108,-0.293l-0.107,-0.293l-0.106,-0.294l-0.104,-0.295l-0.103,-0.296l-0.101,-0.293l-0.1,-0.296l-0.098,-0.295l-0.098,-0.298l-0.095,-0.295l-0.093,-0.294l-0.092,-0.295l-0.091,-0.298l-0.089,-0.295l-0.087,-0.295l-0.086,-0.298l-0.085,-0.297l-0.082,-0.297l-0.081,-0.295l-0.079,-0.295l-0.079,-0.298l-0.076,-0.297l-0.074,-0.295l-0.074,-0.298l-0.071,-0.299l-0.07,-0.296l-0.068,-0.296l-0.066,-0.296l-0.065,-0.295l-0.063,-0.3l-0.062,-0.298l-0.059,-0.295l-0.058,-0.295l-0.056,-0.297l-0.055,-0.299l-0.053,-0.296l-0.051,-0.297l-0.049,-0.296l-0.048,-0.298l-0.045,-0.296l-0.044,-0.295l-0.043,-0.298l-0.04,-0.297l-0.039,-0.297l-0.036,-0.294l-0.035,-0.297l-0.033,-0.296l-0.031,-0.296l-0.029,-0.296l-0.028,-0.295l-0.025,-0.297l-0.023,-0.295l-0.022,-0.295l-0.019,-0.296l-0.018,-0.297l-0.015,-0.293l-0.014,-0.296l-0.011,-0.295l-0.01,-0.293l-0.007,-0.297l-0.006,-0.294l-0.003,-0.294l-0.001,-0.294l0.001,-0.288l0.003,-0.289l0.005,-0.288l0.007,-0.286l0.01,-0.283l0.011,-0.282l0.014,-0.283l0.016,-0.28l0.018,-0.279l0.02,-0.278l0.023,-0.28l0.025,-0.276l0.028,-0.273l0.03,-0.275l0.033,-0.275l0.035,-0.274l0.038,-0.27l0.04,-0.27l0.045,-0.276l0.046,-0.269l0.05,-0.269l0.053,-0.272l0.055,-0.268l0.059,-0.268l0.062,-0.268l0.066,-0.268l0.07,-0.267l0.073,-0.271l0.076,-0.263l0.08,-0.264l0.086,-0.27l0.088,-0.267l0.092,-0.263l0.096,-0.262l0.101,-0.263l0.106,-0.265l0.111,-0.265l0.114,-0.261l0.119,-0.259l0.124,-0.26l0.129,-0.259l0.134,-0.257l0.139,-0.256l0.144,-0.255l0.148,-0.25l0.154,-0.252l0.161,-0.251l0.163,-0.245l0.171,-0.246l0.176,-0.243l0.179,-0.238l0.184,-0.234l0.19,-0.233l0.194,-0.229l0.202,-0.228l0.204,-0.221l0.209,-0.218l0.214,-0.214l0.215,-0.207l0.223,-0.205l0.226,-0.2l0.227,-0.194l0.233,-0.19l0.237,-0.185l0.238,-0.179l0.241,-0.173l0.245,-0.169l0.245,-0.162l0.248,-0.157l0.249,-0.151l0.252,-0.146l0.254,-0.141l0.252,-0.133l0.255,-0.129l0.255,-0.123l0.254,-0.117l0.256,-0.113l0.256,-0.107l0.255,-0.102l0.255,-0.096l0.256,-0.092l0.253,-0.086l0.252,-0.082l0.254,-0.078l0.251,-0.072l0.249,-0.068l0.25,-0.064l0.251,-0.06l0.246,-0.056l0.245,-0.052l0.245,-0.048l0.242,-0.044l0.242,-0.041l0.24,-0.038l0.238,-0.035l0.238,-0.031l0.238,-0.029l0.234,-0.025l0.233,-0.023l0.232,-0.02l0.231,-0.017l0.228,-0.015l0.228,-0.013l0.228,-0.01l0.225,-0.008l0.224,-0.006l0.223,-0.004l0.223,-0.002l0.22,0l0.219,0.002Zm62.963,9.092l-0.159,0.003l-0.16,0.003l-0.161,0.005l-0.162,0.006l-0.164,0.007l-0.164,0.008l-0.166,0.009l-0.166,0.01l-0.168,0.011l-0.169,0.012l-0.17,0.013l-0.171,0.015l-0.172,0.015l-0.173,0.016l-0.174,0.017l-0.175,0.019l-0.176,0.019l-0.178,0.02l-0.178,0.02l-0.179,0.022l-0.362,0.046l-0.365,0.049l-0.37,0.053l-0.373,0.055l-0.377,0.059l-0.381,0.061l-0.385,0.064l-0.389,0.066l-0.392,0.069l-0.396,0.071l-0.399,0.073l-0.403,0.075l-0.407,0.077l-0.41,0.078l-0.413,0.08l-0.837,0.165l-0.85,0.17l-1.737,0.349l-0.887,0.177l-0.898,0.179l-0.454,0.089l-0.456,0.088l-0.459,0.089l-0.461,0.088l-0.465,0.087l-0.466,0.086l-0.47,0.086l-0.472,0.084l-0.474,0.084l-0.477,0.082l-0.479,0.08l-0.481,0.08l-0.484,0.077l-0.485,0.076l-0.488,0.073l-0.49,0.072l-0.493,0.069l-0.494,0.067l-0.496,0.065l-0.498,0.062l-0.25,0.029l-0.25,0.03l-0.251,0.028l-0.251,0.028l-0.252,0.027l-0.252,0.026l-0.252,0.026l-0.253,0.025l-0.254,0.023l-0.253,0.023l-0.255,0.023l-0.254,0.021l-0.255,0.02l-0.256,0.02l-0.255,0.019l-0.257,0.017l-0.256,0.017l-0.257,0.016l-0.257,0.015l-0.258,0.014l-0.258,0.012l-0.259,0.012l-0.258,0.011l-0.26,0.01l-0.259,0.008l-0.26,0.008l-0.26,0.006l-0.26,0.005l-0.261,0.005l-0.261,0.003l-0.261,0.001l-0.262,0.001l-0.261,-0.001l-0.262,-0.001l-0.26,-0.003l-0.26,-0.005l-0.26,-0.005l-0.259,-0.006l-0.258,-0.008l-0.258,-0.008l-0.258,-0.01l-0.257,-0.011l-0.257,-0.012l-0.256,-0.012l-0.255,-0.014l-0.255,-0.015l-0.254,-0.016l-0.254,-0.017l-0.253,-0.017l-0.253,-0.019l-0.252,-0.02l-0.252,-0.02l-0.251,-0.021l-0.251,-0.023l-0.25,-0.023l-0.249,-0.023l-0.249,-0.025l-0.248,-0.026l-0.247,-0.026l-0.247,-0.027l-0.247,-0.028l-0.246,-0.028l-0.245,-0.03l-0.244,-0.029l-0.488,-0.062l-0.485,-0.065l-0.482,-0.067l-0.48,-0.069l-0.477,-0.072l-0.474,-0.073l-0.472,-0.076l-0.469,-0.077l-0.467,-0.08l-0.464,-0.08l-0.46,-0.082l-0.458,-0.084l-0.456,-0.084l-0.452,-0.086l-0.449,-0.086l-0.447,-0.087l-0.443,-0.088l-0.44,-0.089l-0.438,-0.088l-0.434,-0.089l-0.859,-0.179l-0.846,-0.177l-1.652,-0.349l-0.806,-0.17l-0.792,-0.165l-0.391,-0.08l-0.387,-0.078l-0.383,-0.077l-0.38,-0.075l-0.376,-0.073l-0.373,-0.071l-0.369,-0.069l-0.365,-0.066l-0.361,-0.064l-0.357,-0.061l-0.353,-0.059l-0.35,-0.055l-0.345,-0.053l-0.342,-0.049l-0.337,-0.046l-0.334,-0.042l-0.165,-0.02l-0.164,-0.019l-0.163,-0.019l-0.162,-0.017l-0.161,-0.016l-0.16,-0.015l-0.159,-0.015l-0.158,-0.013l-0.157,-0.012l-0.156,-0.011l-0.154,-0.01l-0.154,-0.009l-0.153,-0.008l-0.151,-0.007l-0.151,-0.006l-0.149,-0.005l-0.148,-0.003l-0.147,-0.003l-0.146,-0.001l-0.145,0l-0.144,0.002l-0.143,0.002l-0.141,0.004l-0.141,0.005l-0.139,0.006l-0.139,0.008l-0.137,0.009l-0.136,0.01l-0.134,0.012l-0.134,0.013l-0.133,0.014l-0.131,0.016l-0.13,0.017l-0.129,0.019l-0.128,0.02l-0.127,0.021l-0.125,0.023l-0.125,0.025l-0.123,0.026l-0.122,0.028l-0.121,0.029l-0.119,0.03l-0.119,0.033l-0.117,0.033l-0.116,0.036l-0.115,0.037l-0.113,0.039l-0.113,0.04l-0.111,0.042l-0.11,0.044l-0.108,0.045l-0.108,0.047l-0.106,0.049l-0.105,0.051l-0.103,0.053l-0.103,0.054l-0.101,0.056l-0.1,0.058l-0.098,0.06l-0.098,0.061l-0.096,0.064l-0.094,0.065l-0.094,0.067l-0.092,0.069l-0.091,0.072l-0.09,0.073l-0.088,0.075l-0.087,0.077l-0.086,0.079l-0.084,0.081l-0.083,0.083l-0.082,0.085l-0.08,0.087l-0.079,0.09l-0.078,0.091l-0.076,0.094l-0.075,0.095l-0.074,0.098l-0.072,0.1l-0.071,0.102l-0.07,0.105l-0.068,0.106l-0.067,0.109l-0.066,0.111l-0.064,0.114l-0.062,0.115l-0.062,0.118l-0.06,0.121l-0.058,0.122l-0.057,0.125l-0.056,0.127l-0.055,0.13l-0.052,0.132l-0.052,0.135l-0.05,0.137l-0.049,0.139l-0.047,0.142l-0.046,0.144l-0.044,0.147l-0.043,0.149l-0.041,0.152l-0.041,0.155l-0.038,0.157l-0.037,0.159l-0.036,0.162l-0.034,0.165l-0.033,0.168l-0.031,0.17l-0.03,0.172l-0.028,0.176l-0.027,0.178l-0.025,0.181l-0.024,0.183l-0.022,0.186l-0.021,0.189l-0.019,0.192l-0.018,0.195l-0.016,0.197l-0.015,0.2l-0.013,0.203l-0.011,0.206l-0.01,0.209l-0.009,0.212l-0.007,0.214l-0.005,0.218l-0.004,0.22l-0.003,0.224l-0.001,0.226l0.001,0.228l0.003,0.23l0.004,0.229l0.006,0.231l0.007,0.232l0.009,0.232l0.011,0.233l0.012,0.234l0.014,0.235l0.016,0.235l0.017,0.236l0.019,0.237l0.02,0.237l0.022,0.238l0.023,0.239l0.026,0.239l0.026,0.24l0.029,0.241l0.03,0.241l0.031,0.241l0.033,0.243l0.034,0.243l0.037,0.243l0.037,0.244l0.039,0.245l0.041,0.245l0.042,0.245l0.044,0.246l0.045,0.247l0.047,0.247l0.049,0.247l0.049,0.248l0.052,0.248l0.053,0.248l0.054,0.249l0.056,0.25l0.057,0.249l0.059,0.25l0.06,0.251l0.062,0.25l0.063,0.251l0.064,0.252l0.066,0.251l0.068,0.252l0.069,0.252l0.07,0.252l0.072,0.253l0.073,0.252l0.075,0.253l0.076,0.253l0.078,0.254l0.079,0.253l0.08,0.254l0.082,0.253l0.083,0.254l0.084,0.254l0.086,0.254l0.087,0.254l0.089,0.254l0.09,0.254l0.091,0.254l0.093,0.255l0.094,0.254l0.095,0.254l0.097,0.254l0.098,0.254l0.099,0.254l0.101,0.254l0.102,0.254l0.104,0.254l0.104,0.254l0.106,0.254l0.108,0.253l0.108,0.253l0.11,0.254l0.111,0.253l0.113,0.252l0.113,0.253l0.115,0.253l0.117,0.252l0.117,0.252l0.119,0.251l0.12,0.252l0.121,0.251l0.123,0.251l0.123,0.25l0.125,0.251l0.127,0.25l0.127,0.249l0.129,0.249l0.13,0.249l0.131,0.249l0.132,0.248l0.133,0.247l0.135,0.247l0.136,0.247l0.137,0.246l0.138,0.246l0.139,0.246l0.141,0.244l0.142,0.245l0.143,0.244l0.144,0.243l0.145,0.242l0.146,0.243l0.147,0.241l0.149,0.241l0.15,0.241l0.151,0.239l0.151,0.239l0.154,0.239l0.154,0.238l0.155,0.237l0.156,0.236l0.158,0.236l0.158,0.235l0.16,0.234l0.161,0.234l0.161,0.233l0.163,0.232l0.164,0.231l0.165,0.231l0.166,0.229l0.167,0.229l0.168,0.228l0.169,0.227l0.171,0.226l0.171,0.226l0.172,0.224l0.173,0.224l0.174,0.223l0.176,0.222l0.176,0.22l0.177,0.22l0.178,0.219l0.18,0.218l0.18,0.217l0.181,0.216l0.182,0.215l0.183,0.214l0.185,0.212l0.185,0.212l0.186,0.211l0.187,0.209l0.187,0.209l0.189,0.207l0.19,0.206l0.191,0.205l0.191,0.204l0.193,0.203l0.193,0.201l0.195,0.201l0.195,0.199l0.196,0.198l0.197,0.196l0.198,0.196l0.199,0.194l0.2,0.192l0.2,0.192l0.202,0.19l0.202,0.189l0.203,0.188l0.204,0.186l0.205,0.185l0.206,0.183l0.206,0.182l0.208,0.181l0.208,0.179l0.209,0.178l0.21,0.176l0.211,0.175l0.211,0.174l0.212,0.171l0.213,0.171l0.214,0.169l0.215,0.167l0.215,0.166l0.217,0.164l0.217,0.163l0.217,0.161l0.219,0.16l0.219,0.158l0.22,0.156l0.221,0.155l0.222,0.153l0.222,0.151l0.223,0.15l0.224,0.148l0.224,0.146l0.225,0.145l0.226,0.143l0.227,0.141l0.227,0.139l0.228,0.138l0.229,0.136l0.229,0.134l0.23,0.132l0.231,0.13l0.231,0.129l0.232,0.126l0.233,0.125l0.233,0.123l0.235,0.121l0.234,0.119l0.236,0.118l0.236,0.115l0.236,0.113l0.237,0.111l0.238,0.11l0.239,0.107l0.239,0.106l0.24,0.103l0.24,0.101l0.241,0.1l0.241,0.097l0.243,0.095l0.242,0.093l0.244,0.091l0.243,0.089l0.245,0.087l0.245,0.085l0.245,0.082l0.246,0.081l0.247,0.078l0.247,0.076l0.248,0.073l0.248,0.072l0.249,0.069l0.249,0.067l0.25,0.065l0.251,0.063l0.25,0.06l0.252,0.058l0.252,0.055l0.252,0.054l0.253,0.051l0.253,0.048l0.254,0.047l0.254,0.043l0.255,0.042l0.255,0.039l0.256,0.037l0.256,0.034l0.257,0.032l0.257,0.029l0.257,0.027l0.258,0.024l0.258,0.022l0.259,0.019l0.259,0.017l0.26,0.014l0.26,0.012l0.26,0.009l0.261,0.006l0.261,0.004l0.262,0.002l0.261,-0.002l0.262,-0.004l0.26,-0.006l0.261,-0.009l0.26,-0.012l0.259,-0.014l0.259,-0.017l0.259,-0.019l0.259,-0.022l0.257,-0.024l0.258,-0.027l0.257,-0.029l0.257,-0.032l0.256,-0.034l0.255,-0.037l0.256,-0.039l0.254,-0.042l0.255,-0.043l0.253,-0.047l0.254,-0.048l0.253,-0.051l0.252,-0.054l0.252,-0.055l0.251,-0.058l0.251,-0.06l0.25,-0.063l0.25,-0.065l0.249,-0.067l0.249,-0.069l0.249,-0.072l0.247,-0.073l0.247,-0.076l0.247,-0.078l0.246,-0.081l0.246,-0.082l0.245,-0.085l0.244,-0.087l0.244,-0.089l0.243,-0.091l0.243,-0.093l0.242,-0.095l0.242,-0.097l0.24,-0.1l0.241,-0.101l0.239,-0.103l0.24,-0.106l0.238,-0.107l0.238,-0.11l0.237,-0.111l0.237,-0.113l0.236,-0.115l0.235,-0.118l0.235,-0.119l0.234,-0.121l0.233,-0.123l0.233,-0.125l0.232,-0.126l0.232,-0.129l0.23,-0.13l0.23,-0.132l0.23,-0.134l0.229,-0.136l0.228,-0.138l0.227,-0.139l0.226,-0.141l0.226,-0.143l0.225,-0.145l0.225,-0.146l0.224,-0.148l0.223,-0.15l0.222,-0.151l0.221,-0.153l0.221,-0.155l0.22,-0.156l0.22,-0.158l0.218,-0.16l0.218,-0.161l0.217,-0.163l0.216,-0.164l0.216,-0.166l0.214,-0.167l0.214,-0.169l0.213,-0.171l0.212,-0.171l0.212,-0.174l0.211,-0.175l0.209,-0.176l0.209,-0.178l0.209,-0.179l0.207,-0.181l0.207,-0.182l0.205,-0.183l0.205,-0.185l0.204,-0.186l0.203,-0.188l0.203,-0.189l0.201,-0.19l0.201,-0.192l0.199,-0.192l0.199,-0.194l0.198,-0.196l0.197,-0.196l0.196,-0.198l0.196,-0.199l0.194,-0.201l0.194,-0.201l0.192,-0.203l0.192,-0.204l0.19,-0.205l0.19,-0.206l0.189,-0.207l0.188,-0.209l0.187,-0.209l0.186,-0.211l0.185,-0.212l0.184,-0.212l0.183,-0.214l0.182,-0.215l0.182,-0.216l0.18,-0.217l0.179,-0.218l0.178,-0.219l0.178,-0.22l0.176,-0.22l0.175,-0.222l0.174,-0.223l0.174,-0.224l0.172,-0.224l0.171,-0.226l0.17,-0.226l0.169,-0.227l0.168,-0.228l0.167,-0.229l0.166,-0.229l0.165,-0.231l0.164,-0.231l0.163,-0.232l0.162,-0.233l0.161,-0.234l0.159,-0.234l0.159,-0.235l0.157,-0.236l0.157,-0.236l0.155,-0.237l0.154,-0.238l0.153,-0.239l0.152,-0.239l0.151,-0.239l0.149,-0.241l0.149,-0.241l0.147,-0.241l0.147,-0.243l0.145,-0.242l0.144,-0.243l0.143,-0.244l0.142,-0.245l0.14,-0.244l0.139,-0.246l0.139,-0.246l0.137,-0.246l0.136,-0.247l0.134,-0.247l0.134,-0.247l0.132,-0.248l0.131,-0.249l0.13,-0.249l0.128,-0.249l0.128,-0.249l0.126,-0.25l0.125,-0.251l0.124,-0.25l0.122,-0.251l0.122,-0.251l0.12,-0.252l0.118,-0.251l0.118,-0.252l0.116,-0.252l0.115,-0.253l0.114,-0.253l0.112,-0.252l0.111,-0.253l0.11,-0.254l0.109,-0.253l0.107,-0.253l0.106,-0.254l0.105,-0.254l0.103,-0.254l0.102,-0.254l0.101,-0.254l0.099,-0.254l0.098,-0.254l0.097,-0.254l0.096,-0.254l0.094,-0.254l0.092,-0.255l0.092,-0.254l0.09,-0.254l0.088,-0.254l0.087,-0.254l0.086,-0.254l0.085,-0.254l0.083,-0.254l0.082,-0.253l0.08,-0.254l0.079,-0.253l0.077,-0.254l0.076,-0.253l0.075,-0.253l0.073,-0.252l0.072,-0.253l0.071,-0.252l0.068,-0.252l0.068,-0.252l0.066,-0.251l0.065,-0.252l0.063,-0.251l0.062,-0.25l0.06,-0.251l0.059,-0.25l0.057,-0.249l0.056,-0.25l0.054,-0.249l0.053,-0.248l0.051,-0.248l0.05,-0.248l0.048,-0.247l0.047,-0.247l0.045,-0.247l0.044,-0.246l0.042,-0.245l0.041,-0.245l0.039,-0.245l0.038,-0.244l0.036,-0.243l0.035,-0.243l0.033,-0.243l0.031,-0.241l0.03,-0.241l0.028,-0.241l0.027,-0.24l0.025,-0.239l0.024,-0.239l0.021,-0.238l0.021,-0.237l0.019,-0.237l0.017,-0.236l0.015,-0.235l0.014,-0.235l0.013,-0.234l0.01,-0.233l0.009,-0.232l0.008,-0.232l0.006,-0.231l0.004,-0.229l0.002,-0.23l0.001,-0.228l-0.001,-0.226l-0.003,-0.224l-0.004,-0.22l-0.006,-0.218l-0.008,-0.214l-0.009,-0.212l-0.012,-0.209l-0.013,-0.206l-0.014,-0.203l-0.017,-0.2l-0.018,-0.197l-0.02,-0.195l-0.021,-0.192l-0.023,-0.189l-0.025,-0.186l-0.027,-0.183l-0.028,-0.181l-0.03,-0.178l-0.031,-0.176l-0.033,-0.172l-0.035,-0.17l-0.036,-0.168l-0.038,-0.165l-0.04,-0.162l-0.041,-0.159l-0.043,-0.157l-0.045,-0.155l-0.046,-0.152l-0.048,-0.149l-0.049,-0.147l-0.051,-0.144l-0.052,-0.142l-0.054,-0.139l-0.056,-0.137l-0.057,-0.135l-0.058,-0.132l-0.061,-0.13l-0.061,-0.127l-0.064,-0.125l-0.065,-0.122l-0.066,-0.121l-0.068,-0.118l-0.069,-0.115l-0.071,-0.114l-0.073,-0.111l-0.073,-0.109l-0.076,-0.106l-0.077,-0.105l-0.078,-0.102l-0.08,-0.1l-0.081,-0.098l-0.083,-0.095l-0.084,-0.094l-0.086,-0.091l-0.087,-0.09l-0.089,-0.087l-0.09,-0.085l-0.091,-0.083l-0.093,-0.081l-0.094,-0.079l-0.096,-0.077l-0.097,-0.075l-0.098,-0.073l-0.1,-0.072l-0.101,-0.069l-0.103,-0.067l-0.104,-0.065l-0.106,-0.064l-0.106,-0.061l-0.108,-0.06l-0.11,-0.058l-0.111,-0.056l-0.112,-0.054l-0.113,-0.053l-0.115,-0.051l-0.116,-0.049l-0.118,-0.047l-0.119,-0.045l-0.12,-0.044l-0.121,-0.042l-0.123,-0.04l-0.124,-0.039l-0.125,-0.037l-0.127,-0.036l-0.128,-0.033l-0.129,-0.033l-0.13,-0.03l-0.132,-0.029l-0.133,-0.028l-0.134,-0.026l-0.135,-0.025l-0.137,-0.023l-0.137,-0.021l-0.139,-0.02l-0.141,-0.019l-0.141,-0.017l-0.143,-0.016l-0.144,-0.014l-0.145,-0.013l-0.146,-0.012l-0.148,-0.01l-0.148,-0.009l-0.15,-0.008l-0.151,-0.006l-0.152,-0.005l-0.153,-0.004l-0.155,-0.002l-0.155,-0.002l-0.157,0l-0.158,0.001Z" style="fill:#3d3d3d;"/>
        </g>
    </g>
</svg>
