<svg width="137" height="141" viewBox="0 0 137 141" fill="none" xmlns="http://www.w3.org/2000/svg">
<path fill-rule="evenodd" clip-rule="evenodd" d="M43.9517 5.91675L130.561 105.299L5.66211 134.239L43.9517 5.91675Z" fill="#5A4D9F"/>
<path fill-rule="evenodd" clip-rule="evenodd" d="M22.3994 117.041L26.0402 106.102L33.7777 109.431L22.3994 117.041Z" fill="#756AAE"/>
<path fill-rule="evenodd" clip-rule="evenodd" d="M44.0537 34.6858L47.695 23.7468L53.4935 35.4915L44.0537 34.6858Z" fill="#756AAE"/>
<path fill-rule="evenodd" clip-rule="evenodd" d="M58.0752 92.3848L62.3129 86.5122L68.1115 98.2574L58.0752 92.3848Z" fill="#756AAE"/>
<path fill-rule="evenodd" clip-rule="evenodd" d="M73.6465 70.1122L75.2626 58.3675L81.6438 65.8762L73.6465 70.1122Z" fill="#756AAE"/>
<path fill-rule="evenodd" clip-rule="evenodd" d="M95.6826 94.8336L103.707 86.5122L104.554 98.5873L95.6826 94.8336Z" fill="#756AAE"/>
<path fill-rule="evenodd" clip-rule="evenodd" d="M34.0293 66.8438L42.0525 64.2444L44.0656 72.7164L34.0293 66.8438Z" fill="#756AAE"/>
<path fill-rule="evenodd" clip-rule="evenodd" d="M45.6717 0.271517L47.0168 0.930249L48.1522 1.93094L134.761 101.313L135.606 102.581L136.108 104.034L136.234 105.574L135.975 107.096L135.348 108.495L134.397 109.678L133.185 110.563L131.795 111.092L6.89636 140.033L5.42351 140.168L3.96718 139.9L2.62604 139.249L1.49205 138.257L0.641553 136.993L0.132597 135.542L0 134.003L0.252692 132.481L38.5418 4.15766L39.1655 2.74923L40.1183 1.55819L41.3339 0.666197L42.7296 0.134825L44.2091 0L45.6717 0.271517ZM5.66817 134.245L130.567 105.304L43.9577 5.92252L5.66817 134.245Z" fill="#756AAE"/>
</svg>
